<?xml version="1.0" encoding="UTF-8"?>
<svg id="link" xmlns="http://www.w3.org/2000/svg" viewBox="0 0 160 160">
  <defs>
    <style>
      .cls-1 {
        fill: none;
        stroke: #000;
        stroke-linecap: round;
        stroke-linejoin: round;
        stroke-width: 10px;
      }
    </style>
  </defs>
  <path class="cls-1" d="M70.96,89.27c.52.5,3.35,3.08,8.26,2.64,3.11-.27,6.33-1.68,8.91-4.16l45.61-43.79c5.15-4.95,5.86-12.36,1.58-16.48l-20.34-19.53c-4.29-4.12-12.01-3.44-17.16,1.51l-45.61,43.79c-5.15,4.95-5.86,12.36-1.58,16.48"/>
  <path class="cls-1" d="M86.44,68.94c-.52-.51-3.34-3.13-8.24-2.69-3.1.27-6.31,1.71-8.88,4.22l-45.46,44.49c-5.14,5.03-5.85,12.56-1.57,16.74l20.27,19.84c4.27,4.18,11.97,3.49,17.11-1.54l45.46-44.49c5.14-5.03,5.85-12.56,1.57-16.74"/>
</svg>