<svg version="1.2" xmlns="http://www.w3.org/2000/svg" viewBox="0 0 160 160" width="160" height="160">
	<title>all-icons</title>
	<style>
		.s0 { fill: none;stroke: #000000;stroke-linejoin: round;stroke-width: 9.5 } 
		.s1 { fill: none;stroke: #000000;stroke-linecap: round;stroke-linejoin: round;stroke-width: 9.5 } 
	</style>
	<g id="Paint">
		<path id="Rounded Rectangle 1" class="s0" d="m72 37.6l56 56.1-47 47.2c-5 4.9-13 4.9-18 0l-38.1-38.2c-4.9-5-4.9-13 0-18z"/>
		<path id="Rounded Rectangle 2" class="s1" d="m246-53.9h0.9c8.8 0 15.9 7.1 15.9 15.9v59c0 8.8-7.1 15.9-15.9 15.9h-0.9c-8.8 0-15.9-7.1-15.9-15.9v-59c0-8.8 7.1-15.9 15.9-15.9z"/>
		<path id="Rounded Rectangle 2 copy" class="s1" d="m59.8 47.8v-22.1c0-6.7 5.4-12.1 12-12.1h0.7c6.6 0 12 5.4 12 12.1l-0.1 56.3"/>
		<path id="Rounded Rectangle 2 copy 3" class="s1" d="m123.4 85.6c0 0 2.6-1 4.1-1h0.5c4.9 0 8.8 4 8.8 8.9l-0.2 41.5"/>
		<path id="Ellipse 1" class="s1" d="m84.5 78.5c2.2 0 4 1.8 4 4 0 2.1-1.8 3.9-4 3.9-2.2 0-3.9-1.8-3.9-3.9 0-2.2 1.7-4 3.9-4z"/>
	</g>
</svg>