<svg version="1.2" xmlns="http://www.w3.org/2000/svg" viewBox="0 0 160 160" width="160" height="160">
	<title>all-icons</title>
	<style>
		.s0 { fill: #000000 } 
	</style>
	<g id="Warning">
		<path id="Triangle 3 copy" fill-rule="evenodd" class="s0" d="m66.9 16.8c5.8-10 20.2-10 26 0l64.3 111.5c5.8 10-1.4 22.5-12.9 22.5h-128.7c-11.5 0-18.8-12.5-13-22.5zm5.5 26.2v55.5h15.8v-55.5zm18.4 73.5q-0.9-2.1-2.5-3.6-1.5-1.4-3.6-2.3-2.1-0.9-4.4-0.9-2.4 0-4.4 0.9-2 0.9-3.6 2.3-1.5 1.5-2.4 3.6-0.9 2.1-0.9 4.5 0 2.4 0.9 4.5 0.9 2.1 2.4 3.6 1.6 1.5 3.6 2.4 2 0.9 4.4 0.9 2.3 0 4.4-0.9 2.1-0.9 3.6-2.4 1.6-1.5 2.5-3.6 0.9-2.1 0.9-4.5 0-2.4-0.9-4.5z"/>
	</g>
</svg>