<svg width="2700" height="600" version="1.2" xmlns="http://www.w3.org/2000/svg" viewBox="0 0 2700 600"><style type="text/css">path {stroke-width: 1; vector-effect: non-scaling-stroke; fill:none; stroke: #000; stroke-linecap: round; stroke-linejoin: miter;}</style><path d="M-300,0L600,0L600,300L450,300L0,300L-300,300z"></path><path d="M2400,0L3300,0L3300,300L3150,300L2700,300L2400,300z"></path><path d="M1800,300L2250,300L2400,300L2700,300L2700,600L1800,600z"></path><path d="M1500,0L2400,0L2400,300L2250,300L1800,300L1500,300z"></path><path d="M600,0L1500,0L1500,300L1350,300L900,300L600,300z"></path><path d="M900,300L1350,300L1500,300L1800,300L1800,600L1650,600L900,600z"></path><path d="M0,300L450,300L600,300L900,300L900,600L750,600L0,600z"></path></svg>