<svg width="2700" height="900" version="1.2" xmlns="http://www.w3.org/2000/svg" viewBox="0 0 2700 900"><style type="text/css">path {stroke-width: 1; vector-effect: non-scaling-stroke; fill:none; stroke: #000; stroke-linecap: round; stroke-linejoin: miter;}</style><path d="M300,0L1200,0L1200,300L1050,300L600,300L300,300z"></path><path d="M-300,300L150,300L300,300L600,300L600,600L0,600L-300,600z"></path><path d="M2400,300L2850,300L3000,300L3300,300L3300,600L2700,600L2400,600z"></path><path d="M-600,0L300,0L300,300L150,300L-300,300L-600,300z"></path><path d="M2100,0L3000,0L3000,300L2850,300L2400,300L2100,300z"></path><path d="M1800,600L2250,600L2400,600L2700,600L2700,900L1800,900z"></path><path d="M1200,0L2100,0L2100,300L1950,300L1500,300L1200,300z"></path><path d="M1500,300L1950,300L2100,300L2400,300L2400,600L2250,600L1800,600L1500,600z"></path><path d="M600,300L1050,300L1200,300L1500,300L1500,600L1350,600L900,600L600,600z"></path><path d="M0,600L450,600L600,600L900,600L900,900L750,900L300,900L0,900z"></path><path d="M900,600L1350,600L1500,600L1800,600L1800,900L1650,900L1200,900L900,900z"></path></svg>