<svg width="1800" height="600" version="1.2" xmlns="http://www.w3.org/2000/svg" viewBox="0 0 1800 600"><style type="text/css">path {stroke-width: 1; vector-effect: non-scaling-stroke; fill:none; stroke: #000; stroke-linecap: round; stroke-linejoin: miter;}</style><path d="M0,300L675,300L900,300L900,600L750,600L300,600L0,600z"></path><path d="M900,300L975,300L1425,300L1575,300L1800,300L1800,600L1650,600L1200,600L900,600z"></path><path d="M-225,0L-150,0L300,0L450,0L675,0L675,300L525,300L75,300L0,300L-225,300z"></path><path d="M1575,0L1650,0L2100,0L2250,0L2475,0L2475,300L2325,300L1875,300L1800,300L1575,300z"></path><path d="M675,0L1575,0L1575,300L1425,300L975,300L900,300L675,300L675,73z"></path></svg>