<svg width="1800" height="1200" version="1.2" xmlns="http://www.w3.org/2000/svg" viewBox="0 0 1800 1200"><style type="text/css">path {stroke-width: 1; vector-effect: non-scaling-stroke; fill:none; stroke: #000; stroke-linecap: round; stroke-linejoin: miter;}</style><path d="M675,900L750,900L1200,900L1350,900L1575,900L1575,1200L1425,1200L975,1200L675,1200z"></path><path d="M-225,900L-150,900L300,900L450,900L675,900L675,1200L525,1200L75,1200L-225,1200z"></path><path d="M1575,900L1650,900L2100,900L2250,900L2475,900L2475,1200L2325,1200L1875,1200L1575,1200z"></path><path d="M0,0L75,0L525,0L675,0L900,0L900,73L900,300L750,300L300,300L225,300L0,300z"></path><path d="M900,0L1800,0L1800,300L1650,300L1200,300L1125,300L900,300L900,73z"></path><path d="M-675,300L-600,300L-150,300L0,300L225,300L225,600L75,600L-375,600L-450,600L-675,600z"></path><path d="M1125,300L1200,300L1650,300L1800,300L2025,300L2025,600L1875,600L1425,600L1350,600L1125,600z"></path><path d="M225,300L300,300L750,300L900,300L1125,300L1125,600L975,600L525,600L450,600L225,600L225,373z"></path><path d="M450,600L525,600L975,600L1125,600L1350,600L1350,673L1350,900L1200,900L750,900L675,900L450,900z"></path><path d="M-450,600L-375,600L75,600L225,600L450,600L450,900L300,900L-150,900L-225,900L-450,900L-450,673z"></path><path d="M1350,600L1425,600L1875,600L2025,600L2250,600L2250,900L2100,900L1650,900L1575,900L1350,900L1350,673z"></path></svg>