<svg width="801" height="1388" version="1.2" xmlns="http://www.w3.org/2000/svg" viewBox="0 0 801 1388"><style type="text/css">path {stroke-width: 1; vector-effect: non-scaling-stroke; fill:none; stroke: #000; stroke-linecap: round; stroke-linejoin: miter;}</style><path d="M260.06999999999994,843.92L400.8889999999999,693.91L541.7090000000001,843.92L601.211,1040.878L400.8889999999999,1087.826L200.567,1040.878z"></path><path d="M-600.6800000000001,-347.1300000000001L-400.358,-300.182L-200.03599999999994,-347.1300000000001L-140.53300000000002,-150.17200000000003L0.2859999999999445,-0.16200000000003456L-140.53300000000002,149.84799999999996L-200.03599999999994,346.80600000000004L-400.358,299.85799999999995L-600.6800000000001,346.80600000000004L-660.183,149.84799999999996L-801.002,-0.16200000000003456L-660.183,-150.17200000000003z"></path><path d="M200.32,-347.1300000000001L400.642,-300.182L600.964,-347.1300000000001L660.467,-150.17200000000003L801.286,-0.16200000000003456L660.467,149.84799999999996L600.964,346.80600000000004L400.642,299.85799999999995L200.32,346.80600000000004L140.817,149.84799999999996L-0.002,-0.16200000000003456L140.817,-150.17200000000003z"></path><path d="M1001.3199999999999,-347.1300000000001L1201.642,-300.182L1401.964,-347.1300000000001L1461.467,-150.17200000000003L1602.286,-0.16200000000003456L1461.467,149.84799999999996L1401.964,346.80600000000004L1201.642,299.85799999999995L1001.3199999999999,346.80600000000004L941.817,149.84799999999996L800.998,-0.16200000000003456L941.817,-150.17200000000003z"></path><path d="M-600.6800000000001,1040.87L-400.358,1087.818L-200.03599999999994,1040.87L-140.53300000000002,1237.828L0.2859999999999445,1387.838L-140.53300000000002,1537.848L-200.03599999999994,1734.806L-400.358,1687.858L-600.6800000000001,1734.806L-660.183,1537.848L-801.002,1387.838L-660.183,1237.828z"></path><path d="M200.32,1040.87L400.642,1087.818L600.964,1040.87L660.467,1237.828L801.286,1387.838L660.467,1537.848L600.964,1734.806L400.642,1687.858L200.32,1734.806L140.817,1537.848L-0.002,1387.838L140.817,1237.828z"></path><path d="M1001.3199999999999,1040.87L1201.642,1087.818L1401.964,1040.87L1461.467,1237.828L1602.286,1387.838L1461.467,1537.848L1401.964,1734.806L1201.642,1687.858L1001.3199999999999,1734.806L941.817,1537.848L800.998,1387.838L941.817,1237.828z"></path><path d="M-140.55999999999995,150L0.25900000000001455,-0.01L141.07899999999995,150L200.58100000000002,346.958L0.25900000000001455,393.906L-200.063,346.958z"></path><path d="M660.44,150L801.259,-0.01L942.079,150L1001.581,346.958L801.259,393.906L600.937,346.958z"></path><path d="M-140.55999999999995,1538L0.25900000000001455,1387.99L141.07899999999995,1538L200.58100000000002,1734.958L0.25900000000001455,1781.906L-200.063,1734.958z"></path><path d="M660.44,1538L801.259,1387.99L942.079,1538L1001.581,1734.958L801.259,1781.906L600.937,1734.958z"></path><path d="M-200.04999999999995,346.96L0.2720000000000482,393.908L200.59400000000005,346.96L260.097,543.918L400.91599999999994,693.928L260.097,843.938L200.59400000000005,1040.896L0.2720000000000482,993.948L-200.04999999999995,1040.896L-259.553,843.938L-400.372,693.928L-259.553,543.918z"></path><path d="M600.95,346.96L801.272,393.908L1001.594,346.96L1061.097,543.918L1201.916,693.928L1061.097,843.938L1001.594,1040.896L801.272,993.948L600.95,1040.896L541.447,843.938L400.628,693.928L541.447,543.918z"></path><path d="M200.58000000000004,346.96L400.90200000000004,300.012L601.2239999999999,346.96L541.721,543.918L400.90200000000004,693.928L260.0830000000001,543.918z"></path><path d="M-200.04999999999995,1040.87L0.2720000000000482,993.922L200.59400000000005,1040.87L141.091,1237.828L0.2720000000000482,1387.838L-140.54700000000003,1237.828z"></path><path d="M600.95,1040.87L801.272,993.922L1001.594,1040.87L942.091,1237.828L801.272,1387.838L660.453,1237.828z"></path></svg>