<svg width="824" height="1428" version="1.2" xmlns="http://www.w3.org/2000/svg" viewBox="0 0 824 1428"><style type="text/css">path {stroke-width: 1; vector-effect: non-scaling-stroke; fill:none; stroke: #000; stroke-linecap: round; stroke-linejoin: miter;}</style><path d="M64.23000000000002,0L113.98199999999997,2.607L163.188,10.401L211.31099999999992,23.295L257.8219999999999,41.149L302.212,63.767L343.9939999999999,90.901L382.712,122.254L417.94000000000005,157.482L449.2919999999999,196.199L476.42599999999993,237.982L426.67499999999995,235.374L377.4680000000001,227.581L329.346,214.686L282.83500000000004,196.833L238.44499999999994,174.215L196.66200000000003,147.081L157.94500000000005,115.728L122.71699999999998,80.5L91.36400000000003,41.783z"></path><path d="M-348,238L-298.24800000000005,235.393L-249.04200000000003,227.599L-200.91899999999998,214.705L-154.40800000000002,196.851L-110.01800000000003,174.233L-68.23599999999999,147.099L-29.51800000000003,115.746L5.710000000000036,80.518L37.06200000000001,41.801L64.19600000000003,0.018L91.33000000000004,41.801L122.68299999999999,80.518L157.91099999999994,115.746L196.62900000000002,147.099L238.41100000000006,174.233L282.80099999999993,196.851L329.3119999999999,214.705L377.43399999999997,227.599L426.6410000000001,235.393L476.39300000000003,238L453.7750000000001,282.39L435.92100000000005,328.901L423.02700000000004,377.023L415.23299999999995,426.23L412.626,475.982L415.23299999999995,525.733L423.02700000000004,574.94L435.92100000000005,623.062L453.7750000000001,669.573L476.39300000000003,713.963L426.6410000000001,716.571L377.43399999999997,724.364L329.3119999999999,737.259L282.80099999999993,755.113L238.41100000000006,777.73L196.62900000000002,804.864L157.91099999999994,836.217L122.68299999999999,871.445L91.33000000000004,910.163L64.19600000000003,951.945L37.06200000000001,910.163L5.710000000000036,871.445L-29.51800000000003,836.217L-68.23599999999999,804.864L-110.01800000000003,777.73L-154.40800000000002,755.113L-200.91899999999998,737.259L-249.04200000000003,724.364L-298.24800000000005,716.571L-348,713.963L-325.382,669.573L-307.528,623.062L-294.634,574.94L-286.84000000000003,525.733L-284.23299999999995,475.982L-286.84000000000003,426.23L-294.634,377.023L-307.528,328.901L-325.382,282.39z"></path><path d="M476,238L525.752,235.393L574.958,227.599L623.081,214.705L669.592,196.851L713.982,174.233L755.764,147.099L794.482,115.746L829.71,80.518L861.062,41.801L888.196,0.018L915.33,41.801L946.683,80.518L981.911,115.746L1020.629,147.099L1062.411,174.233L1106.801,196.851L1153.312,214.705L1201.434,227.599L1250.641,235.393L1300.393,238L1277.775,282.39L1259.921,328.901L1247.027,377.023L1239.233,426.23L1236.626,475.982L1239.233,525.733L1247.027,574.94L1259.921,623.062L1277.775,669.573L1300.393,713.963L1250.641,716.571L1201.434,724.364L1153.312,737.259L1106.801,755.113L1062.411,777.73L1020.629,804.864L981.911,836.217L946.683,871.445L915.33,910.163L888.196,951.945L861.062,910.163L829.71,871.445L794.482,836.217L755.764,804.864L713.982,777.73L669.592,755.113L623.081,737.259L574.958,724.364L525.752,716.571L476,713.963L498.618,669.573L516.472,623.062L529.366,574.94L537.16,525.733L539.767,475.982L537.16,426.23L529.366,377.023L516.472,328.901L498.618,282.39z"></path><path d="M-254.27999999999997,122.26L-215.563,90.907L-173.77999999999997,63.773L-129.39,41.156L-82.87900000000002,23.302L-34.75699999999995,10.407L14.450000000000045,2.614L64.202,0.006L37.067999999999984,41.789L5.715000000000032,80.506L-29.513000000000034,115.734L-68.23000000000002,147.087L-110.01300000000003,174.221L-154.40300000000002,196.839L-200.914,214.693L-249.03599999999994,227.587L-298.24300000000005,235.381L-347.995,237.988L-325.377,282.378L-307.523,328.889L-294.629,377.011L-286.83500000000004,426.218L-284.22799999999995,475.97L-286.83500000000004,525.721L-294.629,574.928L-307.523,623.051L-325.377,669.561L-347.995,713.951L-298.24300000000005,716.559L-249.03599999999994,724.352L-200.914,737.247L-154.40300000000002,755.101L-110.01300000000003,777.718L-68.23000000000002,804.852L-29.513000000000034,836.205L5.715000000000032,871.433L37.067999999999984,910.151L64.202,951.933L91.33600000000001,910.151L122.68799999999999,871.433L157.91600000000005,836.205L196.63400000000001,804.852L238.41599999999994,777.718L282.80600000000004,755.101L329.317,737.247L377.44000000000005,724.352L426.64599999999996,716.559L476.3979999999999,713.951L453.78,669.561L435.92599999999993,623.051L423.0319999999999,574.928L415.23800000000006,525.721L412.6310000000001,475.97L415.23800000000006,426.218L423.0319999999999,377.011L435.92599999999993,328.889L453.78,282.378L476.3979999999999,237.988L499.0160000000001,282.378L516.8699999999999,328.889L529.7639999999999,377.011L537.558,426.218L540.165,475.97L537.558,525.721L529.7639999999999,574.928L516.8699999999999,623.051L499.0160000000001,669.561L476.3979999999999,713.951L449.2639999999999,755.734L417.91100000000006,794.451L382.683,829.679L343.9659999999999,861.032L302.183,888.166L257.7929999999999,910.784L211.28199999999993,928.638L163.15999999999997,941.532L113.95299999999997,949.326L64.202,951.933L14.450000000000045,949.326L-34.75699999999995,941.532L-82.87900000000002,928.638L-129.39,910.784L-173.77999999999997,888.166L-215.563,861.032L-254.27999999999997,829.679L-289.50800000000004,794.451L-320.861,755.734L-347.995,713.951L-370.613,669.561L-388.466,623.051L-401.361,574.928L-409.154,525.721L-411.762,475.97L-409.154,426.218L-401.361,377.011L-388.466,328.889L-370.613,282.378L-347.995,237.988L-320.861,196.205L-289.50800000000004,157.488z"></path><path d="M569.72,122.26L608.437,90.907L650.22,63.773L694.61,41.156L741.121,23.302L789.243,10.407L838.45,2.614L888.202,0.006L861.068,41.789L829.715,80.506L794.487,115.734L755.77,147.087L713.987,174.221L669.597,196.839L623.086,214.693L574.964,227.587L525.757,235.381L476.005,237.988L498.623,282.378L516.477,328.889L529.371,377.011L537.165,426.218L539.772,475.97L537.165,525.721L529.371,574.928L516.477,623.051L498.623,669.561L476.005,713.951L525.757,716.559L574.964,724.352L623.086,737.247L669.597,755.101L713.987,777.718L755.77,804.852L794.487,836.205L829.715,871.433L861.068,910.151L888.202,951.933L915.336,910.151L946.688,871.433L981.916,836.205L1020.634,804.852L1062.416,777.718L1106.806,755.101L1153.317,737.247L1201.44,724.352L1250.646,716.559L1300.398,713.951L1277.78,669.561L1259.926,623.051L1247.032,574.928L1239.238,525.721L1236.631,475.97L1239.238,426.218L1247.032,377.011L1259.926,328.889L1277.78,282.378L1300.398,237.988L1323.016,282.378L1340.87,328.889L1353.764,377.011L1361.558,426.218L1364.165,475.97L1361.558,525.721L1353.764,574.928L1340.87,623.051L1323.016,669.561L1300.398,713.951L1273.264,755.734L1241.911,794.451L1206.683,829.679L1167.966,861.032L1126.183,888.166L1081.793,910.784L1035.282,928.638L987.16,941.532L937.953,949.326L888.202,951.933L838.45,949.326L789.243,941.532L741.121,928.638L694.61,910.784L650.22,888.166L608.437,861.032L569.72,829.679L534.492,794.451L503.139,755.734L476.005,713.951L453.387,669.561L435.534,623.051L422.639,574.928L414.846,525.721L412.238,475.97L414.846,426.218L422.639,377.011L435.534,328.889L453.387,282.378L476.005,237.988L503.139,196.205L534.492,157.488z"></path><path d="M-666.51,-591.74L-627.793,-623.093L-586.01,-650.227L-541.62,-672.844L-495.109,-690.698L-446.987,-703.593L-397.78,-711.386L-348.028,-713.994L-375.162,-672.211L-406.515,-633.494L-441.743,-598.266L-480.46,-566.913L-522.2429999999999,-539.779L-566.633,-517.161L-613.144,-499.307L-661.266,-486.413L-710.473,-478.619L-760.225,-476.01199999999994L-737.607,-431.62199999999996L-719.753,-385.1110000000001L-706.859,-336.98900000000003L-699.065,-287.7819999999999L-696.458,-238.02999999999997L-699.065,-188.279L-706.859,-139.0719999999999L-719.753,-90.94900000000007L-737.607,-44.4380000000001L-760.225,-0.04899999999997817L-710.473,2.558999999999969L-661.266,10.35200000000009L-613.144,23.24700000000007L-566.633,41.10100000000011L-522.2429999999999,63.718000000000075L-480.46,90.85200000000009L-441.743,122.20499999999993L-406.515,157.433L-375.162,196.15100000000007L-348.028,237.933L-320.894,196.15100000000007L-289.54200000000003,157.433L-254.31399999999996,122.20499999999993L-215.596,90.85200000000009L-173.81399999999996,63.718000000000075L-129.42399999999998,41.10100000000011L-82.91300000000001,23.24700000000007L-34.789999999999964,10.35200000000009L14.416000000000054,2.558999999999969L64.168,-0.04899999999997817L41.549999999999955,-44.4380000000001L23.696000000000026,-90.94900000000007L10.802000000000021,-139.0719999999999L3.008000000000038,-188.279L0.4009999999999536,-238.02999999999997L3.008000000000038,-287.7819999999999L10.802000000000021,-336.98900000000003L23.696000000000026,-385.1110000000001L41.549999999999955,-431.62199999999996L64.168,-476.01199999999994L86.78599999999994,-431.62199999999996L104.63999999999999,-385.1110000000001L117.53399999999999,-336.98900000000003L125.32799999999997,-287.7819999999999L127.93499999999995,-238.02999999999997L125.32799999999997,-188.279L117.53399999999999,-139.0719999999999L104.63999999999999,-90.94900000000007L86.78599999999994,-44.4380000000001L64.168,-0.04899999999997817L37.03399999999999,41.733999999999924L5.68100000000004,80.45100000000002L-29.547000000000025,115.67900000000009L-68.26400000000001,147.03199999999993L-110.04700000000003,174.16599999999994L-154.437,196.7840000000001L-200.94799999999998,214.63799999999992L-249.07000000000005,227.53199999999993L-298.27700000000004,235.32600000000002L-348.028,237.933L-397.78,235.32600000000002L-446.987,227.53199999999993L-495.109,214.63799999999992L-541.62,196.7840000000001L-586.01,174.16599999999994L-627.793,147.03199999999993L-666.51,115.67900000000009L-701.738,80.45100000000002L-733.091,41.733999999999924L-760.225,-0.04899999999997817L-782.843,-44.4380000000001L-800.696,-90.94900000000007L-813.591,-139.0719999999999L-821.384,-188.279L-823.992,-238.02999999999997L-821.384,-287.7819999999999L-813.591,-336.98900000000003L-800.696,-385.1110000000001L-782.843,-431.62199999999996L-760.225,-476.01199999999994L-733.091,-517.795L-701.738,-556.512z"></path><path d="M157.49,-591.74L196.207,-623.093L237.99,-650.227L282.38,-672.844L328.891,-690.698L377.013,-703.593L426.22,-711.386L475.972,-713.994L448.838,-672.211L417.485,-633.494L382.257,-598.266L343.54,-566.913L301.757,-539.779L257.367,-517.161L210.856,-499.307L162.734,-486.413L113.527,-478.619L63.775,-476.01199999999994L86.393,-431.62199999999996L104.247,-385.1110000000001L117.141,-336.98900000000003L124.935,-287.7819999999999L127.542,-238.02999999999997L124.935,-188.279L117.141,-139.0719999999999L104.247,-90.94900000000007L86.393,-44.4380000000001L63.775,-0.04899999999997817L113.527,2.558999999999969L162.734,10.35200000000009L210.856,23.24700000000007L257.367,41.10100000000011L301.757,63.718000000000075L343.54,90.85200000000009L382.257,122.20499999999993L417.485,157.433L448.838,196.15100000000007L475.972,237.933L503.106,196.15100000000007L534.458,157.433L569.686,122.20499999999993L608.404,90.85200000000009L650.186,63.718000000000075L694.576,41.10100000000011L741.087,23.24700000000007L789.21,10.35200000000009L838.416,2.558999999999969L888.168,-0.04899999999997817L865.55,-44.4380000000001L847.696,-90.94900000000007L834.802,-139.0719999999999L827.008,-188.279L824.401,-238.02999999999997L827.008,-287.7819999999999L834.802,-336.98900000000003L847.696,-385.1110000000001L865.55,-431.62199999999996L888.168,-476.01199999999994L910.786,-431.62199999999996L928.64,-385.1110000000001L941.534,-336.98900000000003L949.328,-287.7819999999999L951.935,-238.02999999999997L949.328,-188.279L941.534,-139.0719999999999L928.64,-90.94900000000007L910.786,-44.4380000000001L888.168,-0.04899999999997817L861.034,41.733999999999924L829.681,80.45100000000002L794.453,115.67900000000009L755.736,147.03199999999993L713.953,174.16599999999994L669.563,196.7840000000001L623.052,214.63799999999992L574.93,227.53199999999993L525.723,235.32600000000002L475.972,237.933L426.22,235.32600000000002L377.013,227.53199999999993L328.891,214.63799999999992L282.38,196.7840000000001L237.99,174.16599999999994L196.207,147.03199999999993L157.49,115.67900000000009L122.262,80.45100000000002L90.909,41.733999999999924L63.775,-0.04899999999997817L41.157,-44.4380000000001L23.304,-90.94900000000007L10.409,-139.0719999999999L2.616,-188.279L0.008,-238.02999999999997L2.616,-287.7819999999999L10.409,-336.98900000000003L23.304,-385.1110000000001L41.157,-431.62199999999996L63.775,-476.01199999999994L90.909,-517.795L122.262,-556.512z"></path><path d="M-666.51,836.26L-627.793,804.907L-586.01,777.773L-541.62,755.156L-495.109,737.302L-446.987,724.407L-397.78,716.614L-348.028,714.006L-375.162,755.789L-406.515,794.506L-441.743,829.734L-480.46,861.087L-522.2429999999999,888.221L-566.633,910.839L-613.144,928.693L-661.266,941.587L-710.473,949.381L-760.225,951.988L-737.607,996.378L-719.753,1042.889L-706.859,1091.011L-699.065,1140.218L-696.458,1189.97L-699.065,1239.721L-706.859,1288.928L-719.753,1337.051L-737.607,1383.562L-760.225,1427.951L-710.473,1430.559L-661.266,1438.352L-613.144,1451.247L-566.633,1469.101L-522.2429999999999,1491.718L-480.46,1518.852L-441.743,1550.205L-406.515,1585.433L-375.162,1624.151L-348.028,1665.933L-320.894,1624.151L-289.54200000000003,1585.433L-254.31399999999996,1550.205L-215.596,1518.852L-173.81399999999996,1491.718L-129.42399999999998,1469.101L-82.91300000000001,1451.247L-34.789999999999964,1438.352L14.416000000000054,1430.559L64.168,1427.951L41.549999999999955,1383.562L23.696000000000026,1337.051L10.802000000000021,1288.928L3.008000000000038,1239.721L0.4009999999999536,1189.97L3.008000000000038,1140.218L10.802000000000021,1091.011L23.696000000000026,1042.889L41.549999999999955,996.378L64.168,951.988L86.78599999999994,996.378L104.63999999999999,1042.889L117.53399999999999,1091.011L125.32799999999997,1140.218L127.93499999999995,1189.97L125.32799999999997,1239.721L117.53399999999999,1288.928L104.63999999999999,1337.051L86.78599999999994,1383.562L64.168,1427.951L37.03399999999999,1469.734L5.68100000000004,1508.451L-29.547000000000025,1543.679L-68.26400000000001,1575.032L-110.04700000000003,1602.166L-154.437,1624.784L-200.94799999999998,1642.638L-249.07000000000005,1655.532L-298.27700000000004,1663.326L-348.028,1665.933L-397.78,1663.326L-446.987,1655.532L-495.109,1642.638L-541.62,1624.784L-586.01,1602.166L-627.793,1575.032L-666.51,1543.679L-701.738,1508.451L-733.091,1469.734L-760.225,1427.951L-782.843,1383.562L-800.696,1337.051L-813.591,1288.928L-821.384,1239.721L-823.992,1189.97L-821.384,1140.218L-813.591,1091.011L-800.696,1042.889L-782.843,996.378L-760.225,951.988L-733.091,910.205L-701.738,871.488z"></path><path d="M157.49,836.26L196.207,804.907L237.99,777.773L282.38,755.156L328.891,737.302L377.013,724.407L426.22,716.614L475.972,714.006L448.838,755.789L417.485,794.506L382.257,829.734L343.54,861.087L301.757,888.221L257.367,910.839L210.856,928.693L162.734,941.587L113.527,949.381L63.775,951.988L86.393,996.378L104.247,1042.889L117.141,1091.011L124.935,1140.218L127.542,1189.97L124.935,1239.721L117.141,1288.928L104.247,1337.051L86.393,1383.562L63.775,1427.951L113.527,1430.559L162.734,1438.352L210.856,1451.247L257.367,1469.101L301.757,1491.718L343.54,1518.852L382.257,1550.205L417.485,1585.433L448.838,1624.151L475.972,1665.933L503.106,1624.151L534.458,1585.433L569.686,1550.205L608.404,1518.852L650.186,1491.718L694.576,1469.101L741.087,1451.247L789.21,1438.352L838.416,1430.559L888.168,1427.951L865.55,1383.562L847.696,1337.051L834.802,1288.928L827.008,1239.721L824.401,1189.97L827.008,1140.218L834.802,1091.011L847.696,1042.889L865.55,996.378L888.168,951.988L910.786,996.378L928.64,1042.889L941.534,1091.011L949.328,1140.218L951.935,1189.97L949.328,1239.721L941.534,1288.928L928.64,1337.051L910.786,1383.562L888.168,1427.951L861.034,1469.734L829.681,1508.451L794.453,1543.679L755.736,1575.032L713.953,1602.166L669.563,1624.784L623.052,1642.638L574.93,1655.532L525.723,1663.326L475.972,1665.933L426.22,1663.326L377.013,1655.532L328.891,1642.638L282.38,1624.784L237.99,1602.166L196.207,1575.032L157.49,1543.679L122.262,1508.451L90.909,1469.734L63.775,1427.951L41.157,1383.562L23.304,1337.051L10.409,1288.928L2.616,1239.721L0.008,1189.97L2.616,1140.218L10.409,1091.011L23.304,1042.889L41.157,996.378L63.775,951.988L90.909,910.205L122.262,871.488z"></path><path d="M-348,714L-298.24800000000005,716.607L-249.04200000000003,724.401L-200.91899999999998,737.295L-154.40800000000002,755.149L-110.01800000000003,777.767L-68.23599999999999,804.901L-29.51800000000003,836.254L5.710000000000036,871.482L37.06200000000001,910.199L64.19600000000003,951.982L14.44500000000005,949.374L-34.761999999999944,941.581L-82.88400000000001,928.686L-129.39499999999998,910.833L-173.78499999999997,888.215L-215.56799999999998,861.081L-254.28499999999997,829.728L-289.51300000000003,794.5L-320.866,755.783z"></path><path d="M476,714L525.752,716.607L574.958,724.401L623.081,737.295L669.592,755.149L713.982,777.767L755.764,804.901L794.482,836.254L829.71,871.482L861.062,910.199L888.196,951.982L838.445,949.374L789.238,941.581L741.116,928.686L694.605,910.833L650.215,888.215L608.432,861.081L569.715,829.728L534.487,794.5L503.134,755.783z"></path><path d="M-760.23,-476L-710.478,-478.60699999999997L-661.2719999999999,-486.40099999999995L-613.149,-499.29499999999996L-566.6379999999999,-517.149L-522.248,-539.767L-480.466,-566.901L-441.748,-598.254L-406.52,-633.482L-375.168,-672.199L-348.034,-713.982L-320.9,-672.199L-289.547,-633.482L-254.31899999999996,-598.254L-215.601,-566.901L-173.81899999999996,-539.767L-129.42899999999997,-517.149L-82.918,-499.29499999999996L-34.79600000000005,-486.40099999999995L14.410999999999945,-478.60699999999997L64.16300000000001,-476L41.54499999999996,-431.61L23.69100000000003,-385.09899999999993L10.797000000000025,-336.9770000000001L3.0030000000000427,-287.77L0.39599999999995816,-238.01800000000003L3.0030000000000427,-188.26700000000005L10.797000000000025,-139.05999999999995L23.69100000000003,-90.9380000000001L41.54499999999996,-44.42699999999991L64.16300000000001,-0.03700000000003456L14.410999999999945,2.5709999999999127L-34.79600000000005,10.364000000000033L-82.918,23.259000000000015L-129.42899999999997,41.113000000000056L-173.81899999999996,63.73000000000002L-215.601,90.86400000000003L-254.31899999999996,122.2170000000001L-289.547,157.44499999999994L-320.9,196.163L-348.034,237.94499999999994L-375.168,196.163L-406.52,157.44499999999994L-441.748,122.2170000000001L-480.466,90.86400000000003L-522.248,63.73000000000002L-566.6379999999999,41.113000000000056L-613.149,23.259000000000015L-661.2719999999999,10.364000000000033L-710.478,2.5709999999999127L-760.23,-0.03700000000003456L-737.612,-44.42699999999991L-719.758,-90.9380000000001L-706.864,-139.05999999999995L-699.0699999999999,-188.26700000000005L-696.463,-238.01800000000003L-699.0699999999999,-287.77L-706.864,-336.9770000000001L-719.758,-385.09899999999993L-737.612,-431.61z"></path><path d="M63.77,-476L113.522,-478.60699999999997L162.728,-486.40099999999995L210.851,-499.29499999999996L257.362,-517.149L301.752,-539.767L343.534,-566.901L382.252,-598.254L417.48,-633.482L448.832,-672.199L475.966,-713.982L503.1,-672.199L534.453,-633.482L569.681,-598.254L608.399,-566.901L650.181,-539.767L694.571,-517.149L741.082,-499.29499999999996L789.204,-486.40099999999995L838.411,-478.60699999999997L888.163,-476L865.545,-431.61L847.691,-385.09899999999993L834.797,-336.9770000000001L827.003,-287.77L824.396,-238.01800000000003L827.003,-188.26700000000005L834.797,-139.05999999999995L847.691,-90.9380000000001L865.545,-44.42699999999991L888.163,-0.03700000000003456L838.411,2.5709999999999127L789.204,10.364000000000033L741.082,23.259000000000015L694.571,41.113000000000056L650.181,63.73000000000002L608.399,90.86400000000003L569.681,122.2170000000001L534.453,157.44499999999994L503.1,196.163L475.966,237.94499999999994L448.832,196.163L417.48,157.44499999999994L382.252,122.2170000000001L343.534,90.86400000000003L301.752,63.73000000000002L257.362,41.113000000000056L210.851,23.259000000000015L162.728,10.364000000000033L113.522,2.5709999999999127L63.77,-0.03700000000003456L86.388,-44.42699999999991L104.242,-90.9380000000001L117.136,-139.05999999999995L124.93,-188.26700000000005L127.537,-238.01800000000003L124.93,-287.77L117.136,-336.9770000000001L104.242,-385.09899999999993L86.388,-431.61z"></path><path d="M-760.23,952L-710.478,949.393L-661.2719999999999,941.599L-613.149,928.705L-566.6379999999999,910.851L-522.248,888.233L-480.466,861.099L-441.748,829.746L-406.52,794.518L-375.168,755.801L-348.034,714.018L-320.9,755.801L-289.547,794.518L-254.31899999999996,829.746L-215.601,861.099L-173.81899999999996,888.233L-129.42899999999997,910.851L-82.918,928.705L-34.79600000000005,941.599L14.410999999999945,949.393L64.16300000000001,952L41.54499999999996,996.39L23.69100000000003,1042.901L10.797000000000025,1091.023L3.0030000000000427,1140.23L0.39599999999995816,1189.982L3.0030000000000427,1239.733L10.797000000000025,1288.94L23.69100000000003,1337.062L41.54499999999996,1383.573L64.16300000000001,1427.963L14.410999999999945,1430.571L-34.79600000000005,1438.364L-82.918,1451.259L-129.42899999999997,1469.113L-173.81899999999996,1491.73L-215.601,1518.864L-254.31899999999996,1550.217L-289.547,1585.445L-320.9,1624.163L-348.034,1665.945L-375.168,1624.163L-406.52,1585.445L-441.748,1550.217L-480.466,1518.864L-522.248,1491.73L-566.6379999999999,1469.113L-613.149,1451.259L-661.2719999999999,1438.364L-710.478,1430.571L-760.23,1427.963L-737.612,1383.573L-719.758,1337.062L-706.864,1288.94L-699.0699999999999,1239.733L-696.463,1189.982L-699.0699999999999,1140.23L-706.864,1091.023L-719.758,1042.901L-737.612,996.39z"></path><path d="M63.77,952L113.522,949.393L162.728,941.599L210.851,928.705L257.362,910.851L301.752,888.233L343.534,861.099L382.252,829.746L417.48,794.518L448.832,755.801L475.966,714.018L503.1,755.801L534.453,794.518L569.681,829.746L608.399,861.099L650.181,888.233L694.571,910.851L741.082,928.705L789.204,941.599L838.411,949.393L888.163,952L865.545,996.39L847.691,1042.901L834.797,1091.023L827.003,1140.23L824.396,1189.982L827.003,1239.733L834.797,1288.94L847.691,1337.062L865.545,1383.573L888.163,1427.963L838.411,1430.571L789.204,1438.364L741.082,1451.259L694.571,1469.113L650.181,1491.73L608.399,1518.864L569.681,1550.217L534.453,1585.445L503.1,1624.163L475.966,1665.945L448.832,1624.163L417.48,1585.445L382.252,1550.217L343.534,1518.864L301.752,1491.73L257.362,1469.113L210.851,1451.259L162.728,1438.364L113.522,1430.571L63.77,1427.963L86.388,1383.573L104.242,1337.062L117.136,1288.94L124.93,1239.733L127.537,1189.982L124.93,1140.23L117.136,1091.023L104.242,1042.901L86.388,996.39z"></path></svg>