<svg width="800" height="800" version="1.2" xmlns="http://www.w3.org/2000/svg" viewBox="0 0 800 800"><style type="text/css">path {stroke-width: 1; vector-effect: non-scaling-stroke; fill:none; stroke: #000; stroke-linecap: round; stroke-linejoin: miter;}</style><path d="M491.4,291.4L508.7,271.8L523.2,250L534.8,226.5L543.2,201.8L548.3,176.1L550,150L551.7,176.1L556.8,201.8L565.2,226.5L576.8,250L591.3,271.8L608.6,291.4L628.2,308.7L650,323.2L673.5,334.8L698.2,343.2L723.9,348.3L750,350L748.3,376.1L743.2,401.8L734.8,426.5L723.2,450L708.7,471.8L691.4,491.4L671.8,508.7L650,523.2L626.5,534.8L601.8,543.2L576.1,548.3L550,550L523.9,548.3L498.2,543.2L473.5,534.8L450,523.2L428.2,508.7L408.6,491.4L391.3,471.8L376.8,450L365.2,426.5L356.8,401.8L351.7,376.1L350,350L376.1,348.3L401.8,343.2L426.5,334.8L450,323.2L471.8,308.7z"></path><path d="M208.6,408.6L228.2,391.3L250,376.8L273.5,365.2L298.2,356.8L323.9,351.7L350,350L351.7,376.1L356.8,401.8L365.2,426.5L376.8,450L391.3,471.8L408.6,491.4L428.2,508.7L450,523.2L473.5,534.8L498.2,543.2L523.9,548.3L550,550L523.9,551.7L498.2,556.8L473.5,565.2L450,576.8L428.2,591.3L408.6,608.6L391.3,628.2L376.8,650L365.2,673.5L356.8,698.2L351.7,723.9L350,750L323.9,748.3L298.2,743.2L273.5,734.8L250,723.2L228.2,708.7L208.6,691.4L191.3,671.8L176.8,650L165.2,626.5L156.8,601.8L151.7,576.1L150,550L151.7,523.9L156.8,498.2L165.2,473.5L176.8,450L191.3,428.2z"></path><path d="M-108.6,-308.6L-91.3,-328.2L-76.8,-350L-65.2,-373.5L-56.8,-398.2L-51.7,-423.9L-50,-450L-48.3,-423.9L-43.2,-398.2L-34.8,-373.5L-23.2,-350L-8.7,-328.2L8.6,-308.6L28.2,-291.3L50,-276.8L73.5,-265.2L98.2,-256.8L123.9,-251.7L150,-250L148.3,-223.9L143.2,-198.2L134.8,-173.5L123.2,-150L108.7,-128.2L91.4,-108.6L71.8,-91.3L50,-76.8L26.5,-65.2L1.8,-56.8L-23.9,-51.7L-50,-50L-76.1,-51.7L-101.8,-56.8L-126.5,-65.2L-150,-76.8L-171.8,-91.3L-191.4,-108.6L-208.7,-128.2L-223.2,-150L-234.8,-173.5L-243.2,-198.2L-248.3,-223.9L-250,-250L-223.9,-251.7L-198.2,-256.8L-173.5,-265.2L-150,-276.8L-128.2,-291.3z"></path><path d="M-391.4,-191.4L-371.8,-208.7L-350,-223.2L-326.5,-234.8L-301.8,-243.2L-276.1,-248.3L-250,-250L-248.3,-223.9L-243.2,-198.2L-234.8,-173.5L-223.2,-150L-208.7,-128.2L-191.4,-108.6L-171.8,-91.3L-150,-76.8L-126.5,-65.2L-101.8,-56.8L-76.1,-51.7L-50,-50L-76.1,-48.3L-101.8,-43.2L-126.5,-34.8L-150,-23.2L-171.8,-8.7L-191.4,8.6L-208.7,28.2L-223.2,50L-234.8,73.5L-243.2,98.2L-248.3,123.9L-250,150L-276.1,148.3L-301.8,143.2L-326.5,134.8L-350,123.2L-371.8,108.7L-391.4,91.4L-408.7,71.8L-423.2,50L-434.8,26.5L-443.2,1.8L-448.3,-23.9L-450,-50L-448.3,-76.1L-443.2,-101.8L-434.8,-126.5L-423.2,-150L-408.7,-171.8z"></path><path d="M291.4,91.4L308.7,71.8L323.2,50L334.8,26.5L343.2,1.8L348.3,-23.9L350,-50L351.7,-23.9L356.8,1.8L365.2,26.5L376.8,50L391.3,71.8L408.6,91.4L428.2,108.7L450,123.2L473.5,134.8L498.2,143.2L523.9,148.3L550,150L548.3,176.1L543.2,201.8L534.8,226.5L523.2,250L508.7,271.8L491.4,291.4L471.8,308.7L450,323.2L426.5,334.8L401.8,343.2L376.1,348.3L350,350L323.9,348.3L298.2,343.2L273.5,334.8L250,323.2L228.2,308.7L208.6,291.4L191.3,271.8L176.8,250L165.2,226.5L156.8,201.8L151.7,176.1L150,150L176.1,148.3L201.8,143.2L226.5,134.8L250,123.2L271.8,108.7z"></path><path d="M8.6,208.6L28.2,191.3L50,176.8L73.5,165.2L98.2,156.8L123.9,151.7L150,150L151.7,176.1L156.8,201.8L165.2,226.5L176.8,250L191.3,271.8L208.6,291.4L228.2,308.7L250,323.2L273.5,334.8L298.2,343.2L323.9,348.3L350,350L323.9,351.7L298.2,356.8L273.5,365.2L250,376.8L228.2,391.3L208.6,408.6L191.3,428.2L176.8,450L165.2,473.5L156.8,498.2L151.7,523.9L150,550L123.9,548.3L98.2,543.2L73.5,534.8L50,523.2L28.2,508.7L8.6,491.4L-8.7,471.8L-23.2,450L-34.8,426.5L-43.2,401.8L-48.3,376.1L-50,350L-48.3,323.9L-43.2,298.2L-34.8,273.5L-23.2,250L-8.7,228.2z"></path><path d="M-191.4,8.6L-171.8,-8.7L-150,-23.2L-126.5,-34.8L-101.8,-43.2L-76.1,-48.3L-50,-50L-48.3,-23.9L-43.2,1.8L-34.8,26.5L-23.2,50L-8.7,71.8L8.6,91.4L28.2,108.7L50,123.2L73.5,134.8L98.2,143.2L123.9,148.3L150,150L123.9,151.7L98.2,156.8L73.5,165.2L50,176.8L28.2,191.3L8.6,208.6L-8.7,228.2L-23.2,250L-34.8,273.5L-43.2,298.2L-48.3,323.9L-50,350L-76.1,348.3L-101.8,343.2L-126.5,334.8L-150,323.2L-171.8,308.7L-191.4,291.4L-208.7,271.8L-223.2,250L-234.8,226.5L-243.2,201.8L-248.3,176.1L-250,150L-248.3,123.9L-243.2,98.2L-234.8,73.5L-223.2,50L-208.7,28.2z"></path><path d="M91.4,-108.6L108.7,-128.2L123.2,-150L134.8,-173.5L143.2,-198.2L148.3,-223.9L150,-250L151.7,-223.9L156.8,-198.2L165.2,-173.5L176.8,-150L191.3,-128.2L208.6,-108.6L228.2,-91.3L250,-76.8L273.5,-65.2L298.2,-56.8L323.9,-51.7L350,-50L348.3,-23.9L343.2,1.8L334.8,26.5L323.2,50L308.7,71.8L291.4,91.4L271.8,108.7L250,123.2L226.5,134.8L201.8,143.2L176.1,148.3L150,150L123.9,148.3L98.2,143.2L73.5,134.8L50,123.2L28.2,108.7L8.6,91.4L-8.7,71.8L-23.2,50L-34.8,26.5L-43.2,1.8L-48.3,-23.9L-50,-50L-23.9,-51.7L1.8,-56.8L26.5,-65.2L50,-76.8L71.8,-91.3z"></path><path d="M691.4,-308.6L708.7,-328.2L723.2,-350L734.8,-373.5L743.2,-398.2L748.3,-423.9L750,-450L751.7,-423.9L756.8,-398.2L765.2,-373.5L776.8,-350L791.3,-328.2L808.6,-308.6L828.2,-291.3L850,-276.8L873.5,-265.2L898.2,-256.8L923.9,-251.7L950,-250L948.3,-223.9L943.2,-198.2L934.8,-173.5L923.2,-150L908.7,-128.2L891.4,-108.6L871.8,-91.3L850,-76.8L826.5,-65.2L801.8,-56.8L776.1,-51.7L750,-50L723.9,-51.7L698.2,-56.8L673.5,-65.2L650,-76.8L628.2,-91.3L608.6,-108.6L591.3,-128.2L576.8,-150L565.2,-173.5L556.8,-198.2L551.7,-223.9L550,-250L576.1,-251.7L601.8,-256.8L626.5,-265.2L650,-276.8L671.8,-291.3z"></path><path d="M-108.6,491.4L-91.3,471.8L-76.8,450L-65.2,426.5L-56.8,401.8L-51.7,376.1L-50,350L-48.3,376.1L-43.2,401.8L-34.8,426.5L-23.2,450L-8.7,471.8L8.6,491.4L28.2,508.7L50,523.2L73.5,534.8L98.2,543.2L123.9,548.3L150,550L148.3,576.1L143.2,601.8L134.8,626.5L123.2,650L108.7,671.8L91.4,691.4L71.8,708.7L50,723.2L26.5,734.8L1.8,743.2L-23.9,748.3L-50,750L-76.1,748.3L-101.8,743.2L-126.5,734.8L-150,723.2L-171.8,708.7L-191.4,691.4L-208.7,671.8L-223.2,650L-234.8,626.5L-243.2,601.8L-248.3,576.1L-250,550L-223.9,548.3L-198.2,543.2L-173.5,534.8L-150,523.2L-128.2,508.7z"></path><path d="M691.4,491.4L708.7,471.8L723.2,450L734.8,426.5L743.2,401.8L748.3,376.1L750,350L751.7,376.1L756.8,401.8L765.2,426.5L776.8,450L791.3,471.8L808.6,491.4L828.2,508.7L850,523.2L873.5,534.8L898.2,543.2L923.9,548.3L950,550L948.3,576.1L943.2,601.8L934.8,626.5L923.2,650L908.7,671.8L891.4,691.4L871.8,708.7L850,723.2L826.5,734.8L801.8,743.2L776.1,748.3L750,750L723.9,748.3L698.2,743.2L673.5,734.8L650,723.2L628.2,708.7L608.6,691.4L591.3,671.8L576.8,650L565.2,626.5L556.8,601.8L551.7,576.1L550,550L576.1,548.3L601.8,543.2L626.5,534.8L650,523.2L671.8,508.7z"></path><path d="M408.6,-191.4L428.2,-208.7L450,-223.2L473.5,-234.8L498.2,-243.2L523.9,-248.3L550,-250L551.7,-223.9L556.8,-198.2L565.2,-173.5L576.8,-150L591.3,-128.2L608.6,-108.6L628.2,-91.3L650,-76.8L673.5,-65.2L698.2,-56.8L723.9,-51.7L750,-50L723.9,-48.3L698.2,-43.2L673.5,-34.8L650,-23.2L628.2,-8.7L608.6,8.6L591.3,28.2L576.8,50L565.2,73.5L556.8,98.2L551.7,123.9L550,150L523.9,148.3L498.2,143.2L473.5,134.8L450,123.2L428.2,108.7L408.6,91.4L391.3,71.8L376.8,50L365.2,26.5L356.8,1.8L351.7,-23.9L350,-50L351.7,-76.1L356.8,-101.8L365.2,-126.5L376.8,-150L391.3,-171.8z"></path><path d="M-391.4,608.6L-371.8,591.3L-350,576.8L-326.5,565.2L-301.8,556.8L-276.1,551.7L-250,550L-248.3,576.1L-243.2,601.8L-234.8,626.5L-223.2,650L-208.7,671.8L-191.4,691.4L-171.8,708.7L-150,723.2L-126.5,734.8L-101.8,743.2L-76.1,748.3L-50,750L-76.1,751.7L-101.8,756.8L-126.5,765.2L-150,776.8L-171.8,791.3L-191.4,808.6L-208.7,828.2L-223.2,850L-234.8,873.5L-243.2,898.2L-248.3,923.9L-250,950L-276.1,948.3L-301.8,943.2L-326.5,934.8L-350,923.2L-371.8,908.7L-391.4,891.4L-408.7,871.8L-423.2,850L-434.8,826.5L-443.2,801.8L-448.3,776.1L-450,750L-448.3,723.9L-443.2,698.2L-434.8,673.5L-423.2,650L-408.7,628.2z"></path><path d="M408.6,608.6L428.2,591.3L450,576.8L473.5,565.2L498.2,556.8L523.9,551.7L550,550L551.7,576.1L556.8,601.8L565.2,626.5L576.8,650L591.3,671.8L608.6,691.4L628.2,708.7L650,723.2L673.5,734.8L698.2,743.2L723.9,748.3L750,750L723.9,751.7L698.2,756.8L673.5,765.2L650,776.8L628.2,791.3L608.6,808.6L591.3,828.2L576.8,850L565.2,873.5L556.8,898.2L551.7,923.9L550,950L523.9,948.3L498.2,943.2L473.5,934.8L450,923.2L428.2,908.7L408.6,891.4L391.3,871.8L376.8,850L365.2,826.5L356.8,801.8L351.7,776.1L350,750L351.7,723.9L356.8,698.2L365.2,673.5L376.8,650L391.3,628.2z"></path><path d="M291.4,891.4L308.7,871.8L323.2,850L334.8,826.5L343.2,801.8L348.3,776.1L350,750L351.7,776.1L356.8,801.8L365.2,826.5L376.8,850L391.3,871.8L408.6,891.4L428.2,908.7L450,923.2L473.5,934.8L498.2,943.2L523.9,948.3L550,950L548.3,976.1L543.2,1001.8L534.8,1026.5L523.2,1050L508.7,1071.8L491.4,1091.4L471.8,1108.7L450,1123.2L426.5,1134.8L401.8,1143.2L376.1,1148.3L350,1150L323.9,1148.3L298.2,1143.2L273.5,1134.8L250,1123.2L228.2,1108.7L208.6,1091.4L191.3,1071.8L176.8,1050L165.2,1026.5L156.8,1001.8L151.7,976.1L150,950L176.1,948.3L201.8,943.2L226.5,934.8L250,923.2L271.8,908.7z"></path><path d="M808.6,208.6L828.2,191.3L850,176.8L873.5,165.2L898.2,156.8L923.9,151.7L950,150L951.7,176.1L956.8,201.8L965.2,226.5L976.8,250L991.3,271.8L1008.6,291.4L1028.2,308.7L1050,323.2L1073.5,334.8L1098.2,343.2L1123.9,348.3L1150,350L1123.9,351.7L1098.2,356.8L1073.5,365.2L1050,376.8L1028.2,391.3L1008.6,408.6L991.3,428.2L976.8,450L965.2,473.5L956.8,498.2L951.7,523.9L950,550L923.9,548.3L898.2,543.2L873.5,534.8L850,523.2L828.2,508.7L808.6,491.4L791.3,471.8L776.8,450L765.2,426.5L756.8,401.8L751.7,376.1L750,350L751.7,323.9L756.8,298.2L765.2,273.5L776.8,250L791.3,228.2z"></path><path d="M608.6,8.6L628.2,-8.7L650,-23.2L673.5,-34.8L698.2,-43.2L723.9,-48.3L750,-50L751.7,-23.9L756.8,1.8L765.2,26.5L776.8,50L791.3,71.8L808.6,91.4L828.2,108.7L850,123.2L873.5,134.8L898.2,143.2L923.9,148.3L950,150L923.9,151.7L898.2,156.8L873.5,165.2L850,176.8L828.2,191.3L808.6,208.6L791.3,228.2L776.8,250L765.2,273.5L756.8,298.2L751.7,323.9L750,350L723.9,348.3L698.2,343.2L673.5,334.8L650,323.2L628.2,308.7L608.6,291.4L591.3,271.8L576.8,250L565.2,226.5L556.8,201.8L551.7,176.1L550,150L551.7,123.9L556.8,98.2L565.2,73.5L576.8,50L591.3,28.2z"></path><path d="M-191.4,808.6L-171.8,791.3L-150,776.8L-126.5,765.2L-101.8,756.8L-76.1,751.7L-50,750L-48.3,776.1L-43.2,801.8L-34.8,826.5L-23.2,850L-8.7,871.8L8.6,891.4L28.2,908.7L50,923.2L73.5,934.8L98.2,943.2L123.9,948.3L150,950L123.9,951.7L98.2,956.8L73.5,965.2L50,976.8L28.2,991.3L8.6,1008.6L-8.7,1028.2L-23.2,1050L-34.8,1073.5L-43.2,1098.2L-48.3,1123.9L-50,1150L-76.1,1148.3L-101.8,1143.2L-126.5,1134.8L-150,1123.2L-171.8,1108.7L-191.4,1091.4L-208.7,1071.8L-223.2,1050L-234.8,1026.5L-243.2,1001.8L-248.3,976.1L-250,950L-248.3,923.9L-243.2,898.2L-234.8,873.5L-223.2,850L-208.7,828.2z"></path><path d="M608.6,808.6L628.2,791.3L650,776.8L673.5,765.2L698.2,756.8L723.9,751.7L750,750L751.7,776.1L756.8,801.8L765.2,826.5L776.8,850L791.3,871.8L808.6,891.4L828.2,908.7L850,923.2L873.5,934.8L898.2,943.2L923.9,948.3L950,950L923.9,951.7L898.2,956.8L873.5,965.2L850,976.8L828.2,991.3L808.6,1008.6L791.3,1028.2L776.8,1050L765.2,1073.5L756.8,1098.2L751.7,1123.9L750,1150L723.9,1148.3L698.2,1143.2L673.5,1134.8L650,1123.2L628.2,1108.7L608.6,1091.4L591.3,1071.8L576.8,1050L565.2,1026.5L556.8,1001.8L551.7,976.1L550,950L551.7,923.9L556.8,898.2L565.2,873.5L576.8,850L591.3,828.2z"></path><path d="M891.4,-108.6L908.7,-128.2L923.2,-150L934.8,-173.5L943.2,-198.2L948.3,-223.9L950,-250L951.7,-223.9L956.8,-198.2L965.2,-173.5L976.8,-150L991.3,-128.2L1008.6,-108.6L1028.2,-91.3L1050,-76.8L1073.5,-65.2L1098.2,-56.8L1123.9,-51.7L1150,-50L1148.3,-23.9L1143.2,1.8L1134.8,26.5L1123.2,50L1108.7,71.8L1091.4,91.4L1071.8,108.7L1050,123.2L1026.5,134.8L1001.8,143.2L976.1,148.3L950,150L923.9,148.3L898.2,143.2L873.5,134.8L850,123.2L828.2,108.7L808.6,91.4L791.3,71.8L776.8,50L765.2,26.5L756.8,1.8L751.7,-23.9L750,-50L776.1,-51.7L801.8,-56.8L826.5,-65.2L850,-76.8L871.8,-91.3z"></path><path d="M91.4,691.4L108.7,671.8L123.2,650L134.8,626.5L143.2,601.8L148.3,576.1L150,550L151.7,576.1L156.8,601.8L165.2,626.5L176.8,650L191.3,671.8L208.6,691.4L228.2,708.7L250,723.2L273.5,734.8L298.2,743.2L323.9,748.3L350,750L348.3,776.1L343.2,801.8L334.8,826.5L323.2,850L308.7,871.8L291.4,891.4L271.8,908.7L250,923.2L226.5,934.8L201.8,943.2L176.1,948.3L150,950L123.9,948.3L98.2,943.2L73.5,934.8L50,923.2L28.2,908.7L8.6,891.4L-8.7,871.8L-23.2,850L-34.8,826.5L-43.2,801.8L-48.3,776.1L-50,750L-23.9,748.3L1.8,743.2L26.5,734.8L50,723.2L71.8,708.7z"></path><path d="M891.4,691.4L908.7,671.8L923.2,650L934.8,626.5L943.2,601.8L948.3,576.1L950,550L951.7,576.1L956.8,601.8L965.2,626.5L976.8,650L991.3,671.8L1008.6,691.4L1028.2,708.7L1050,723.2L1073.5,734.8L1098.2,743.2L1123.9,748.3L1150,750L1148.3,776.1L1143.2,801.8L1134.8,826.5L1123.2,850L1108.7,871.8L1091.4,891.4L1071.8,908.7L1050,923.2L1026.5,934.8L1001.8,943.2L976.1,948.3L950,950L923.9,948.3L898.2,943.2L873.5,934.8L850,923.2L828.2,908.7L808.6,891.4L791.3,871.8L776.8,850L765.2,826.5L756.8,801.8L751.7,776.1L750,750L776.1,748.3L801.8,743.2L826.5,734.8L850,723.2L871.8,708.7z"></path></svg>