<svg width="3834" height="3834" version="1.2" xmlns="http://www.w3.org/2000/svg" viewBox="0 0 3834 3834"><style type="text/css">path {stroke-width: 1; vector-effect: non-scaling-stroke; fill:none; stroke: #000; stroke-linecap: round; stroke-linejoin: miter;}</style><path d="M1917,0L2323.19,0L2704.89,0L3427.744,1917.024L3046.044,1917.024L1916.944,1917.024z"></path><path d="M3046.1,1917L3427.8,1917L3833.99,1917L3833.99,3834L2323.18,3834z"></path><path d="M2704.9,0L3834,0L3834,1917L3427.81,1917z"></path><path d="M1917,-1917L3046.1,-1917L2323.246,0.023999999999887223L1917.056,0.023999999999887223z"></path><path d="M1917,1917L3046.1,1917L2323.246,3834.024L1917.056,3834.024z"></path><path d="M787.9,1917L1917,1917L1917,3834L1510.81,3834z"></path><path d="M0,-1917L406.19,-1917L787.89,-1917L1510.744,0.023999999999887223L1129.044,0.023999999999887223L-0.056,0.023999999999887223z"></path><path d="M3834,-1917L4240.19,-1917L4621.89,-1917L5344.744,0.023999999999887223L4963.044,0.023999999999887223L3833.944,0.023999999999887223z"></path><path d="M0,1917L406.19,1917L787.89,1917L1510.744,3834.024L1129.044,3834.024L-0.056,3834.024z"></path><path d="M3834,1917L4240.19,1917L4621.89,1917L5344.744,3834.024L4963.044,3834.024L3833.944,3834.024z"></path><path d="M0,0L1129.1,0L406.246,1917.024L0.056,1917.024z"></path><path d="M1129.1,0L1510.8,0L1916.99,0L1916.99,1917L787.89,1917L406.19,1917z"></path></svg>