<svg width="200" height="200" version="1.2" xmlns="http://www.w3.org/2000/svg" viewBox="0 0 200 200"><style type="text/css">path {stroke-width: 1; vector-effect: non-scaling-stroke; fill:none; stroke: #000; stroke-linecap: round; stroke-linejoin: miter;}</style><path d="M-100,-100L0,-100L99.99900000000002,-0.0010000000000047748L-0.0010000000000047748,-0.0010000000000047748L-0.0010000000000047748,99.99900000000002L-100,0z"></path><path d="M100,-100L200,-100L299.999,-0.0010000000000047748L199.999,-0.0010000000000047748L199.999,99.99900000000002L100,0z"></path><path d="M-100,100L0,100L99.99900000000002,199.999L-0.0010000000000047748,199.999L-0.0010000000000047748,299.999L-100,200z"></path><path d="M100,100L200,100L299.999,199.999L199.999,199.999L199.999,299.999L100,200z"></path><path d="M0,0L100,0L199.999,99.999L99.999,99.999L99.999,199.999L0,100z"></path></svg>