<svg width="1710" height="1776" version="1.2" xmlns="http://www.w3.org/2000/svg" viewBox="0 0 1710 1776"><style type="text/css">path {stroke-width: 1; vector-effect: non-scaling-stroke; fill:none; stroke: #000; stroke-linecap: round; stroke-linejoin: miter;}</style><path d="M327.93,-1393.94L373.454,-1401.6970000000001L417.639,-1415.122L459.788,-1433.993L499.226,-1458.019L535.326,-1486.817L567.521,-1519.924L595.294,-1556.819L618.202,-1596.917L635.882,-1639.579L648.06,-1684.124L654.535,-1729.848L655.204,-1776.023L855.204,-1776.023L855.873,-1729.848L862.347,-1684.124L874.525,-1639.579L892.205,-1596.917L915.113,-1556.819L942.886,-1519.924L975.081,-1486.817L1011.182,-1458.019L1050.62,-1433.993L1092.768,-1415.122L1136.953,-1401.6970000000001L1182.477,-1393.94L1182.477,-1293.94L1228.982,-1283.374L1273.858,-1267.2359999999999L1316.444,-1245.77L1356.106,-1219.289L1392.256,-1188.184L1424.365,-1152.922L1451.95,-1114.02L1474.611,-1072.058L1492.004,-1027.653L1503.88,-981.465L1510.055,-934.177L1510.438,-886.488L1509.769,-840.313L1503.294,-794.589L1491.116,-750.0440000000001L1473.437,-707.3820000000001L1450.528,-667.2850000000001L1422.756,-630.3889999999999L1390.561,-597.2819999999999L1354.46,-568.4839999999999L1315.022,-544.4580000000001L1272.874,-525.587L1228.688,-512.162L1183.164,-504.405L1183.164,-404.405L1136.66,-393.8399999999999L1091.783,-377.701L1049.197,-356.2360000000001L1009.535,-329.7539999999999L973.385,-298.6489999999999L941.277,-263.3879999999999L913.692,-224.4849999999999L891.031,-182.5229999999999L873.638,-138.11799999999994L861.762,-91.93000000000006L855.586,-44.64200000000005L855.204,3.0470000000000255L655.204,3.0470000000000255L654.821,-44.64200000000005L648.645,-91.93000000000006L636.769,-138.11799999999994L619.376,-182.5229999999999L596.716,-224.4849999999999L569.13,-263.3879999999999L537.022,-298.6489999999999L500.872,-329.7539999999999L461.21,-356.2360000000001L418.624,-377.701L373.748,-393.8399999999999L327.243,-404.405L327.243,-504.405L281.719,-512.162L237.533,-525.587L195.385,-544.4580000000001L155.947,-568.4839999999999L119.847,-597.2819999999999L87.651,-630.3889999999999L59.879,-667.2850000000001L36.971,-707.3820000000001L19.291,-750.0440000000001L7.113,-794.589L0.638,-840.313L-0.031,-886.488L0.352,-934.177L6.527,-981.465L18.403,-1027.653L35.797,-1072.058L58.457,-1114.02L86.042,-1152.922L118.151,-1188.184L154.301,-1219.289L193.963,-1245.77L236.549,-1267.2359999999999L281.425,-1283.374L327.93,-1293.94z"></path><path d="M2037.93,-1393.94L2083.454,-1401.6970000000001L2127.639,-1415.122L2169.788,-1433.993L2209.226,-1458.019L2245.326,-1486.817L2277.5209999999997,-1519.924L2305.294,-1556.819L2328.202,-1596.917L2345.882,-1639.579L2358.06,-1684.124L2364.535,-1729.848L2365.2039999999997,-1776.023L2565.2039999999997,-1776.023L2565.873,-1729.848L2572.3469999999998,-1684.124L2584.525,-1639.579L2602.205,-1596.917L2625.1130000000003,-1556.819L2652.886,-1519.924L2685.081,-1486.817L2721.182,-1458.019L2760.62,-1433.993L2802.768,-1415.122L2846.953,-1401.6970000000001L2892.477,-1393.94L2892.477,-1293.94L2938.982,-1283.374L2983.858,-1267.2359999999999L3026.444,-1245.77L3066.1059999999998,-1219.289L3102.2560000000003,-1188.184L3134.365,-1152.922L3161.95,-1114.02L3184.611,-1072.058L3202.004,-1027.653L3213.88,-981.465L3220.0550000000003,-934.177L3220.438,-886.488L3219.7690000000002,-840.313L3213.294,-794.589L3201.116,-750.0440000000001L3183.437,-707.3820000000001L3160.5280000000002,-667.2850000000001L3132.7560000000003,-630.3889999999999L3100.5609999999997,-597.2819999999999L3064.46,-568.4839999999999L3025.022,-544.4580000000001L2982.874,-525.587L2938.688,-512.162L2893.1639999999998,-504.405L2893.1639999999998,-404.405L2846.66,-393.8399999999999L2801.783,-377.701L2759.197,-356.2360000000001L2719.535,-329.7539999999999L2683.385,-298.6489999999999L2651.277,-263.3879999999999L2623.692,-224.4849999999999L2601.031,-182.5229999999999L2583.638,-138.11799999999994L2571.7619999999997,-91.93000000000006L2565.5860000000002,-44.64200000000005L2565.2039999999997,3.0470000000000255L2365.2039999999997,3.0470000000000255L2364.821,-44.64200000000005L2358.645,-91.93000000000006L2346.7690000000002,-138.11799999999994L2329.376,-182.5229999999999L2306.716,-224.4849999999999L2279.13,-263.3879999999999L2247.022,-298.6489999999999L2210.872,-329.7539999999999L2171.21,-356.2360000000001L2128.624,-377.701L2083.748,-393.8399999999999L2037.243,-404.405L2037.243,-504.405L1991.719,-512.162L1947.533,-525.587L1905.385,-544.4580000000001L1865.9470000000001,-568.4839999999999L1829.847,-597.2819999999999L1797.651,-630.3889999999999L1769.879,-667.2850000000001L1746.971,-707.3820000000001L1729.291,-750.0440000000001L1717.113,-794.589L1710.638,-840.313L1709.969,-886.488L1710.352,-934.177L1716.527,-981.465L1728.403,-1027.653L1745.797,-1072.058L1768.457,-1114.02L1796.042,-1152.922L1828.151,-1188.184L1864.301,-1219.289L1903.963,-1245.77L1946.549,-1267.2359999999999L1991.425,-1283.374L2037.93,-1293.94z"></path><path d="M327.93,382.06L373.454,374.303L417.639,360.878L459.788,342.007L499.226,317.981L535.326,289.183L567.521,256.076L595.294,219.181L618.202,179.083L635.882,136.421L648.06,91.876L654.535,46.152L655.204,-0.023L855.204,-0.023L855.873,46.152L862.347,91.876L874.525,136.421L892.205,179.083L915.113,219.181L942.886,256.076L975.081,289.183L1011.182,317.981L1050.62,342.007L1092.768,360.878L1136.953,374.303L1182.477,382.06L1182.477,482.06L1228.982,492.626L1273.858,508.764L1316.444,530.23L1356.106,556.711L1392.256,587.816L1424.365,623.078L1451.95,661.98L1474.611,703.942L1492.004,748.347L1503.88,794.535L1510.055,841.823L1510.438,889.512L1509.769,935.687L1503.294,981.411L1491.116,1025.956L1473.437,1068.618L1450.528,1108.715L1422.756,1145.611L1390.561,1178.718L1354.46,1207.516L1315.022,1231.542L1272.874,1250.413L1228.688,1263.838L1183.164,1271.595L1183.164,1371.595L1136.66,1382.16L1091.783,1398.299L1049.197,1419.764L1009.535,1446.246L973.385,1477.351L941.277,1512.612L913.692,1551.515L891.031,1593.477L873.638,1637.882L861.762,1684.07L855.586,1731.358L855.204,1779.047L655.204,1779.047L654.821,1731.358L648.645,1684.07L636.769,1637.882L619.376,1593.477L596.716,1551.515L569.13,1512.612L537.022,1477.351L500.872,1446.246L461.21,1419.764L418.624,1398.299L373.748,1382.16L327.243,1371.595L327.243,1271.595L281.719,1263.838L237.533,1250.413L195.385,1231.542L155.947,1207.516L119.847,1178.718L87.651,1145.611L59.879,1108.715L36.971,1068.618L19.291,1025.956L7.113,981.411L0.638,935.687L-0.031,889.512L0.352,841.823L6.527,794.535L18.403,748.347L35.797,703.942L58.457,661.98L86.042,623.078L118.151,587.816L154.301,556.711L193.963,530.23L236.549,508.764L281.425,492.626L327.93,482.06z"></path><path d="M2037.93,382.06L2083.454,374.303L2127.639,360.878L2169.788,342.007L2209.226,317.981L2245.326,289.183L2277.5209999999997,256.076L2305.294,219.181L2328.202,179.083L2345.882,136.421L2358.06,91.876L2364.535,46.152L2365.2039999999997,-0.023L2565.2039999999997,-0.023L2565.873,46.152L2572.3469999999998,91.876L2584.525,136.421L2602.205,179.083L2625.1130000000003,219.181L2652.886,256.076L2685.081,289.183L2721.182,317.981L2760.62,342.007L2802.768,360.878L2846.953,374.303L2892.477,382.06L2892.477,482.06L2938.982,492.626L2983.858,508.764L3026.444,530.23L3066.1059999999998,556.711L3102.2560000000003,587.816L3134.365,623.078L3161.95,661.98L3184.611,703.942L3202.004,748.347L3213.88,794.535L3220.0550000000003,841.823L3220.438,889.512L3219.7690000000002,935.687L3213.294,981.411L3201.116,1025.956L3183.437,1068.618L3160.5280000000002,1108.715L3132.7560000000003,1145.611L3100.5609999999997,1178.718L3064.46,1207.516L3025.022,1231.542L2982.874,1250.413L2938.688,1263.838L2893.1639999999998,1271.595L2893.1639999999998,1371.595L2846.66,1382.16L2801.783,1398.299L2759.197,1419.764L2719.535,1446.246L2683.385,1477.351L2651.277,1512.612L2623.692,1551.515L2601.031,1593.477L2583.638,1637.882L2571.7619999999997,1684.07L2565.5860000000002,1731.358L2565.2039999999997,1779.047L2365.2039999999997,1779.047L2364.821,1731.358L2358.645,1684.07L2346.7690000000002,1637.882L2329.376,1593.477L2306.716,1551.515L2279.13,1512.612L2247.022,1477.351L2210.872,1446.246L2171.21,1419.764L2128.624,1398.299L2083.748,1382.16L2037.243,1371.595L2037.243,1271.595L1991.719,1263.838L1947.533,1250.413L1905.385,1231.542L1865.9470000000001,1207.516L1829.847,1178.718L1797.651,1145.611L1769.879,1108.715L1746.971,1068.618L1729.291,1025.956L1717.113,981.411L1710.638,935.687L1709.969,889.512L1710.352,841.823L1716.527,794.535L1728.403,748.347L1745.797,703.942L1768.457,661.98L1796.042,623.078L1828.151,587.816L1864.301,556.711L1903.963,530.23L1946.549,508.764L1991.425,492.626L2037.93,482.06z"></path><path d="M327.93,2158.06L373.454,2150.303L417.639,2136.878L459.788,2118.007L499.226,2093.9809999999998L535.326,2065.183L567.521,2032.076L595.294,1995.181L618.202,1955.083L635.882,1912.421L648.06,1867.876L654.535,1822.152L655.204,1775.977L855.204,1775.977L855.873,1822.152L862.347,1867.876L874.525,1912.421L892.205,1955.083L915.113,1995.181L942.886,2032.076L975.081,2065.183L1011.182,2093.9809999999998L1050.62,2118.007L1092.768,2136.878L1136.953,2150.303L1182.477,2158.06L1182.477,2258.06L1228.982,2268.626L1273.858,2284.764L1316.444,2306.23L1356.106,2332.7110000000002L1392.256,2363.816L1424.365,2399.078L1451.95,2437.98L1474.611,2479.942L1492.004,2524.3469999999998L1503.88,2570.535L1510.055,2617.823L1510.438,2665.5119999999997L1509.769,2711.687L1503.294,2757.411L1491.116,2801.956L1473.437,2844.618L1450.528,2884.715L1422.756,2921.611L1390.561,2954.718L1354.46,2983.516L1315.022,3007.542L1272.874,3026.413L1228.688,3039.8379999999997L1183.164,3047.5950000000003L1183.164,3147.5950000000003L1136.66,3158.16L1091.783,3174.299L1049.197,3195.764L1009.535,3222.246L973.385,3253.351L941.277,3288.612L913.692,3327.5150000000003L891.031,3369.477L873.638,3413.882L861.762,3460.0699999999997L855.586,3507.358L855.204,3555.047L655.204,3555.047L654.821,3507.358L648.645,3460.0699999999997L636.769,3413.882L619.376,3369.477L596.716,3327.5150000000003L569.13,3288.612L537.022,3253.351L500.872,3222.246L461.21,3195.764L418.624,3174.299L373.748,3158.16L327.243,3147.5950000000003L327.243,3047.5950000000003L281.719,3039.8379999999997L237.533,3026.413L195.385,3007.542L155.947,2983.516L119.847,2954.718L87.651,2921.611L59.879,2884.715L36.971,2844.618L19.291,2801.956L7.113,2757.411L0.638,2711.687L-0.031,2665.5119999999997L0.352,2617.823L6.527,2570.535L18.403,2524.3469999999998L35.797,2479.942L58.457,2437.98L86.042,2399.078L118.151,2363.816L154.301,2332.7110000000002L193.963,2306.23L236.549,2284.764L281.425,2268.626L327.93,2258.06z"></path><path d="M2037.93,2158.06L2083.454,2150.303L2127.639,2136.878L2169.788,2118.007L2209.226,2093.9809999999998L2245.326,2065.183L2277.5209999999997,2032.076L2305.294,1995.181L2328.202,1955.083L2345.882,1912.421L2358.06,1867.876L2364.535,1822.152L2365.2039999999997,1775.977L2565.2039999999997,1775.977L2565.873,1822.152L2572.3469999999998,1867.876L2584.525,1912.421L2602.205,1955.083L2625.1130000000003,1995.181L2652.886,2032.076L2685.081,2065.183L2721.182,2093.9809999999998L2760.62,2118.007L2802.768,2136.878L2846.953,2150.303L2892.477,2158.06L2892.477,2258.06L2938.982,2268.626L2983.858,2284.764L3026.444,2306.23L3066.1059999999998,2332.7110000000002L3102.2560000000003,2363.816L3134.365,2399.078L3161.95,2437.98L3184.611,2479.942L3202.004,2524.3469999999998L3213.88,2570.535L3220.0550000000003,2617.823L3220.438,2665.5119999999997L3219.7690000000002,2711.687L3213.294,2757.411L3201.116,2801.956L3183.437,2844.618L3160.5280000000002,2884.715L3132.7560000000003,2921.611L3100.5609999999997,2954.718L3064.46,2983.516L3025.022,3007.542L2982.874,3026.413L2938.688,3039.8379999999997L2893.1639999999998,3047.5950000000003L2893.1639999999998,3147.5950000000003L2846.66,3158.16L2801.783,3174.299L2759.197,3195.764L2719.535,3222.246L2683.385,3253.351L2651.277,3288.612L2623.692,3327.5150000000003L2601.031,3369.477L2583.638,3413.882L2571.7619999999997,3460.0699999999997L2565.5860000000002,3507.358L2565.2039999999997,3555.047L2365.2039999999997,3555.047L2364.821,3507.358L2358.645,3460.0699999999997L2346.7690000000002,3413.882L2329.376,3369.477L2306.716,3327.5150000000003L2279.13,3288.612L2247.022,3253.351L2210.872,3222.246L2171.21,3195.764L2128.624,3174.299L2083.748,3158.16L2037.243,3147.5950000000003L2037.243,3047.5950000000003L1991.719,3039.8379999999997L1947.533,3026.413L1905.385,3007.542L1865.9470000000001,2983.516L1829.847,2954.718L1797.651,2921.611L1769.879,2884.715L1746.971,2844.618L1729.291,2801.956L1717.113,2757.411L1710.638,2711.687L1709.969,2665.5119999999997L1710.352,2617.823L1716.527,2570.535L1728.403,2524.3469999999998L1745.797,2479.942L1768.457,2437.98L1796.042,2399.078L1828.151,2363.816L1864.301,2332.7110000000002L1903.963,2306.23L1946.549,2284.764L1991.425,2268.626L2037.93,2258.06z"></path><path d="M-526.8900000000001,-504.46000000000004L-481.366,-512.2170000000001L-437.18100000000004,-525.642L-395.0319999999999,-544.5129999999999L-355.59400000000005,-568.539L-319.4939999999999,-597.337L-287.299,-630.444L-259.52600000000007,-667.3389999999999L-236.61799999999994,-707.4369999999999L-218.9380000000001,-750.0989999999999L-206.76,-794.644L-200.28500000000008,-840.368L-199.61599999999999,-886.543L0.38400000000001455,-886.543L1.053000000000111,-840.368L7.527000000000044,-794.644L19.704999999999927,-750.0989999999999L37.38499999999999,-707.4369999999999L60.29299999999989,-667.3389999999999L88.06600000000003,-630.444L120.26099999999997,-597.337L156.36200000000008,-568.539L195.79999999999995,-544.5129999999999L237.9480000000001,-525.642L282.13300000000004,-512.2170000000001L327.6569999999999,-504.46000000000004L327.6569999999999,-404.46000000000004L374.1619999999998,-393.894L419.038,-377.7560000000001L461.6239999999998,-356.28999999999996L501.28600000000006,-329.80899999999997L537.4360000000001,-298.70399999999995L569.5450000000001,-263.442L597.1300000000001,-224.53999999999996L619.7910000000002,-182.57799999999997L637.1840000000002,-138.173L649.06,-91.9849999999999L655.2350000000001,-44.69699999999989L655.6179999999999,2.991999999999962L654.9490000000001,49.166999999999916L648.4740000000002,94.89100000000008L636.2959999999998,139.43599999999992L618.6170000000002,182.09799999999996L595.7080000000001,222.19499999999994L567.9360000000001,259.0909999999999L535.741,292.19799999999987L499.6399999999999,320.9960000000001L460.2020000000002,345.02199999999993L418.0540000000001,363.89300000000003L373.86799999999994,377.3180000000002L328.34400000000005,385.0749999999998L328.34400000000005,485.0749999999998L281.8399999999999,495.6410000000001L236.96299999999997,511.779L194.37699999999995,533.2440000000001L154.71499999999992,559.7260000000001L118.56500000000005,590.8310000000001L86.45700000000011,626.0920000000001L58.87200000000007,664.9949999999999L36.21100000000001,706.9569999999999L18.817999999999984,751.3620000000001L6.942000000000007,797.5500000000002L0.7660000000000764,844.8380000000002L0.38400000000001455,892.527L-199.61599999999999,892.527L-199.99900000000002,844.8380000000002L-206.17499999999995,797.5500000000002L-218.05099999999993,751.3620000000001L-235.44399999999996,706.9569999999999L-258.10400000000004,664.9949999999999L-285.69000000000005,626.0920000000001L-317.798,590.8310000000001L-353.9480000000001,559.7260000000001L-393.6099999999999,533.2440000000001L-436.1959999999999,511.779L-481.0719999999999,495.6410000000001L-527.577,485.0749999999998L-527.577,385.0749999999998L-573.1010000000001,377.3180000000002L-617.287,363.89300000000003L-659.435,345.02199999999993L-698.873,320.9960000000001L-734.973,292.19799999999987L-767.169,259.0909999999999L-794.941,222.19499999999994L-817.849,182.09799999999996L-835.529,139.43599999999992L-847.707,94.89100000000008L-854.182,49.166999999999916L-854.851,2.991999999999962L-854.468,-44.69699999999989L-848.293,-91.9849999999999L-836.417,-138.173L-819.023,-182.57799999999997L-796.363,-224.53999999999996L-768.778,-263.442L-736.669,-298.70399999999995L-700.519,-329.80899999999997L-660.857,-356.28999999999996L-618.271,-377.7560000000001L-573.395,-393.894L-526.8900000000001,-404.46000000000004z"></path><path d="M1183.11,-504.46000000000004L1228.634,-512.2170000000001L1272.819,-525.642L1314.968,-544.5129999999999L1354.406,-568.539L1390.506,-597.337L1422.701,-630.444L1450.474,-667.3389999999999L1473.382,-707.4369999999999L1491.062,-750.0989999999999L1503.24,-794.644L1509.715,-840.368L1510.384,-886.543L1710.384,-886.543L1711.053,-840.368L1717.527,-794.644L1729.705,-750.0989999999999L1747.385,-707.4369999999999L1770.293,-667.3389999999999L1798.066,-630.444L1830.261,-597.337L1866.362,-568.539L1905.8,-544.5129999999999L1947.948,-525.642L1992.133,-512.2170000000001L2037.657,-504.46000000000004L2037.657,-404.46000000000004L2084.162,-393.894L2129.038,-377.7560000000001L2171.624,-356.28999999999996L2211.286,-329.80899999999997L2247.436,-298.70399999999995L2279.545,-263.442L2307.13,-224.53999999999996L2329.791,-182.57799999999997L2347.184,-138.173L2359.06,-91.9849999999999L2365.235,-44.69699999999989L2365.618,2.991999999999962L2364.949,49.166999999999916L2358.474,94.89100000000008L2346.296,139.43599999999992L2328.617,182.09799999999996L2305.708,222.19499999999994L2277.936,259.0909999999999L2245.741,292.19799999999987L2209.64,320.9960000000001L2170.202,345.02199999999993L2128.054,363.89300000000003L2083.868,377.3180000000002L2038.344,385.0749999999998L2038.344,485.0749999999998L1991.84,495.6410000000001L1946.963,511.779L1904.377,533.2440000000001L1864.715,559.7260000000001L1828.565,590.8310000000001L1796.457,626.0920000000001L1768.872,664.9949999999999L1746.211,706.9569999999999L1728.818,751.3620000000001L1716.942,797.5500000000002L1710.766,844.8380000000002L1710.384,892.527L1510.384,892.527L1510.001,844.8380000000002L1503.825,797.5500000000002L1491.949,751.3620000000001L1474.556,706.9569999999999L1451.896,664.9949999999999L1424.31,626.0920000000001L1392.202,590.8310000000001L1356.052,559.7260000000001L1316.39,533.2440000000001L1273.804,511.779L1228.928,495.6410000000001L1182.423,485.0749999999998L1182.423,385.0749999999998L1136.899,377.3180000000002L1092.713,363.89300000000003L1050.565,345.02199999999993L1011.127,320.9960000000001L975.027,292.19799999999987L942.831,259.0909999999999L915.059,222.19499999999994L892.151,182.09799999999996L874.471,139.43599999999992L862.293,94.89100000000008L855.818,49.166999999999916L855.149,2.991999999999962L855.532,-44.69699999999989L861.707,-91.9849999999999L873.583,-138.173L890.977,-182.57799999999997L913.637,-224.53999999999996L941.222,-263.442L973.331,-298.70399999999995L1009.481,-329.80899999999997L1049.143,-356.28999999999996L1091.729,-377.7560000000001L1136.605,-393.894L1183.11,-404.46000000000004z"></path><path d="M-526.8900000000001,1271.54L-481.366,1263.783L-437.18100000000004,1250.358L-395.0319999999999,1231.487L-355.59400000000005,1207.461L-319.4939999999999,1178.663L-287.299,1145.556L-259.52600000000007,1108.661L-236.61799999999994,1068.563L-218.9380000000001,1025.901L-206.76,981.356L-200.28500000000008,935.632L-199.61599999999999,889.457L0.38400000000001455,889.457L1.053000000000111,935.632L7.527000000000044,981.356L19.704999999999927,1025.901L37.38499999999999,1068.563L60.29299999999989,1108.661L88.06600000000003,1145.556L120.26099999999997,1178.663L156.36200000000008,1207.461L195.79999999999995,1231.487L237.9480000000001,1250.358L282.13300000000004,1263.783L327.6569999999999,1271.54L327.6569999999999,1371.54L374.1619999999998,1382.106L419.038,1398.244L461.6239999999998,1419.71L501.28600000000006,1446.191L537.4360000000001,1477.296L569.5450000000001,1512.558L597.1300000000001,1551.46L619.7910000000002,1593.422L637.1840000000002,1637.827L649.06,1684.015L655.2350000000001,1731.303L655.6179999999999,1778.992L654.9490000000001,1825.167L648.4740000000002,1870.891L636.2959999999998,1915.436L618.6170000000002,1958.098L595.7080000000001,1998.195L567.9360000000001,2035.091L535.741,2068.198L499.6399999999999,2096.996L460.2020000000002,2121.022L418.0540000000001,2139.893L373.86799999999994,2153.318L328.34400000000005,2161.075L328.34400000000005,2261.075L281.8399999999999,2271.641L236.96299999999997,2287.779L194.37699999999995,2309.244L154.71499999999992,2335.726L118.56500000000005,2366.831L86.45700000000011,2402.092L58.87200000000007,2440.995L36.21100000000001,2482.957L18.817999999999984,2527.362L6.942000000000007,2573.55L0.7660000000000764,2620.838L0.38400000000001455,2668.527L-199.61599999999999,2668.527L-199.99900000000002,2620.838L-206.17499999999995,2573.55L-218.05099999999993,2527.362L-235.44399999999996,2482.957L-258.10400000000004,2440.995L-285.69000000000005,2402.092L-317.798,2366.831L-353.9480000000001,2335.726L-393.6099999999999,2309.244L-436.1959999999999,2287.779L-481.0719999999999,2271.641L-527.577,2261.075L-527.577,2161.075L-573.1010000000001,2153.318L-617.287,2139.893L-659.435,2121.022L-698.873,2096.996L-734.973,2068.198L-767.169,2035.091L-794.941,1998.195L-817.849,1958.098L-835.529,1915.436L-847.707,1870.891L-854.182,1825.167L-854.851,1778.992L-854.468,1731.303L-848.293,1684.015L-836.417,1637.827L-819.023,1593.422L-796.363,1551.46L-768.778,1512.558L-736.669,1477.296L-700.519,1446.191L-660.857,1419.71L-618.271,1398.244L-573.395,1382.106L-526.8900000000001,1371.54z"></path><path d="M1183.11,1271.54L1228.634,1263.783L1272.819,1250.358L1314.968,1231.487L1354.406,1207.461L1390.506,1178.663L1422.701,1145.556L1450.474,1108.661L1473.382,1068.563L1491.062,1025.901L1503.24,981.356L1509.715,935.632L1510.384,889.457L1710.384,889.457L1711.053,935.632L1717.527,981.356L1729.705,1025.901L1747.385,1068.563L1770.293,1108.661L1798.066,1145.556L1830.261,1178.663L1866.362,1207.461L1905.8,1231.487L1947.948,1250.358L1992.133,1263.783L2037.657,1271.54L2037.657,1371.54L2084.162,1382.106L2129.038,1398.244L2171.624,1419.71L2211.286,1446.191L2247.436,1477.296L2279.545,1512.558L2307.13,1551.46L2329.791,1593.422L2347.184,1637.827L2359.06,1684.015L2365.235,1731.303L2365.618,1778.992L2364.949,1825.167L2358.474,1870.891L2346.296,1915.436L2328.617,1958.098L2305.708,1998.195L2277.936,2035.091L2245.741,2068.198L2209.64,2096.996L2170.202,2121.022L2128.054,2139.893L2083.868,2153.318L2038.344,2161.075L2038.344,2261.075L1991.84,2271.641L1946.963,2287.779L1904.377,2309.244L1864.715,2335.726L1828.565,2366.831L1796.457,2402.092L1768.872,2440.995L1746.211,2482.957L1728.818,2527.362L1716.942,2573.55L1710.766,2620.838L1710.384,2668.527L1510.384,2668.527L1510.001,2620.838L1503.825,2573.55L1491.949,2527.362L1474.556,2482.957L1451.896,2440.995L1424.31,2402.092L1392.202,2366.831L1356.052,2335.726L1316.39,2309.244L1273.804,2287.779L1228.928,2271.641L1182.423,2261.075L1182.423,2161.075L1136.899,2153.318L1092.713,2139.893L1050.565,2121.022L1011.127,2096.996L975.027,2068.198L942.831,2035.091L915.059,1998.195L892.151,1958.098L874.471,1915.436L862.293,1870.891L855.818,1825.167L855.149,1778.992L855.532,1731.303L861.707,1684.015L873.583,1637.827L890.977,1593.422L913.637,1551.46L941.222,1512.558L973.331,1477.296L1009.481,1446.191L1049.143,1419.71L1091.729,1398.244L1136.605,1382.106L1183.11,1371.54z"></path></svg>