<svg width="1900" height="2291" version="1.2" xmlns="http://www.w3.org/2000/svg" viewBox="0 0 1900 2291"><style type="text/css">path {stroke-width: 1; vector-effect: non-scaling-stroke; fill:none; stroke: #000; stroke-linecap: round; stroke-linejoin: miter;}</style><path d="M482.29,-583.46L547.556,-597.1189999999999L610.679,-618.607L670.717,-647.6179999999999L726.785,-683.71L778.044,-726.356L823.74,-774.9159999999999L863.188,-828.6759999999999L895.809,-886.8309999999999L921.112,-948.5239999999999L938.729,-1012.835L948.389,-1078.812L949.96,-1145.473L951.531,-1078.812L961.191,-1012.835L978.809,-948.5239999999999L1004.111,-886.8309999999999L1036.733,-828.6759999999999L1076.18,-774.9159999999999L1121.877,-726.356L1173.136,-683.71L1229.204,-647.6179999999999L1289.242,-618.607L1352.364,-597.1189999999999L1417.631,-583.46L1442.75,-524.454L1470.923,-466.84400000000005L1502.082,-410.7929999999999L1536.133,-356.44900000000007L1572.98,-303.962L1612.524,-253.4749999999999L1654.665,-205.13400000000001L1699.278,-159.06500000000005L1746.24,-115.39399999999978L1795.432,-74.2489999999998L1846.709,-35.73500000000013L1897.972,-1.275000000000091L1899.931,0.041999999999916326L1846.709,35.81899999999996L1795.432,74.33300000000008L1746.24,115.47800000000007L1699.278,159.1489999999999L1654.665,205.21799999999985L1612.524,253.5590000000002L1572.98,304.0459999999998L1536.133,356.5329999999999L1502.082,410.87699999999995L1470.923,466.9279999999999L1442.75,524.538L1417.631,583.5439999999999L1352.364,597.203L1289.242,618.6909999999998L1229.204,647.7020000000002L1173.136,683.7939999999999L1121.877,726.44L1076.18,775L1036.733,828.7600000000002L1004.111,886.9160000000002L978.809,948.6080000000002L961.191,1012.9189999999999L951.531,1078.8960000000002L949.96,1145.5569999999998L948.389,1078.8960000000002L938.729,1012.9189999999999L921.112,948.6080000000002L895.809,886.9160000000002L863.188,828.7600000000002L823.74,775L778.044,726.44L726.785,683.7939999999999L670.717,647.7020000000002L610.679,618.6909999999998L547.556,597.203L482.29,583.5439999999999L457.171,524.538L428.998,466.9279999999999L397.838,410.87699999999995L363.788,356.5329999999999L326.94,304.0459999999998L287.396,253.5590000000002L245.256,205.21799999999985L200.643,159.1489999999999L153.68,115.47800000000007L104.489,74.33300000000008L53.212,35.81899999999996L-0.01,0.041999999999916326L53.212,-35.73500000000013L104.489,-74.2489999999998L153.68,-115.39399999999978L200.643,-159.06500000000005L245.256,-205.13400000000001L287.396,-253.4749999999999L326.94,-303.962L363.788,-356.44900000000007L397.838,-410.7929999999999L428.998,-466.84400000000005L457.171,-524.454z"></path><path d="M2382.29,-583.46L2447.556,-597.1189999999999L2510.679,-618.607L2570.717,-647.6179999999999L2626.785,-683.71L2678.044,-726.356L2723.74,-774.9159999999999L2763.188,-828.6759999999999L2795.809,-886.8309999999999L2821.112,-948.5239999999999L2838.7290000000003,-1012.835L2848.389,-1078.812L2849.96,-1145.473L2851.531,-1078.812L2861.191,-1012.835L2878.809,-948.5239999999999L2904.111,-886.8309999999999L2936.733,-828.6759999999999L2976.1800000000003,-774.9159999999999L3021.877,-726.356L3073.136,-683.71L3129.2039999999997,-647.6179999999999L3189.242,-618.607L3252.364,-597.1189999999999L3317.6310000000003,-583.46L3342.75,-524.454L3370.923,-466.84400000000005L3402.0820000000003,-410.7929999999999L3436.133,-356.44900000000007L3472.98,-303.962L3512.524,-253.4749999999999L3554.665,-205.13400000000001L3599.2780000000002,-159.06500000000005L3646.24,-115.39399999999978L3695.432,-74.2489999999998L3746.709,-35.73500000000013L3797.9719999999998,-1.275000000000091L3799.931,0.041999999999916326L3746.709,35.81899999999996L3695.432,74.33300000000008L3646.24,115.47800000000007L3599.2780000000002,159.1489999999999L3554.665,205.21799999999985L3512.524,253.5590000000002L3472.98,304.0459999999998L3436.133,356.5329999999999L3402.0820000000003,410.87699999999995L3370.923,466.9279999999999L3342.75,524.538L3317.6310000000003,583.5439999999999L3252.364,597.203L3189.242,618.6909999999998L3129.2039999999997,647.7020000000002L3073.136,683.7939999999999L3021.877,726.44L2976.1800000000003,775L2936.733,828.7600000000002L2904.111,886.9160000000002L2878.809,948.6080000000002L2861.191,1012.9189999999999L2851.531,1078.8960000000002L2849.96,1145.5569999999998L2848.389,1078.8960000000002L2838.7290000000003,1012.9189999999999L2821.112,948.6080000000002L2795.809,886.9160000000002L2763.188,828.7600000000002L2723.74,775L2678.044,726.44L2626.785,683.7939999999999L2570.717,647.7020000000002L2510.679,618.6909999999998L2447.556,597.203L2382.29,583.5439999999999L2357.171,524.538L2328.998,466.9279999999999L2297.838,410.87699999999995L2263.788,356.5329999999999L2226.94,304.0459999999998L2187.396,253.5590000000002L2145.256,205.21799999999985L2100.643,159.1489999999999L2053.68,115.47800000000007L2004.489,74.33300000000008L1953.212,35.81899999999996L1899.99,0.041999999999916326L1953.212,-35.73500000000013L2004.489,-74.2489999999998L2053.68,-115.39399999999978L2100.643,-159.06500000000005L2145.256,-205.13400000000001L2187.396,-253.4749999999999L2226.94,-303.962L2263.788,-356.44900000000007L2297.838,-410.7929999999999L2328.998,-466.84400000000005L2357.171,-524.454z"></path><path d="M482.29,1707.54L547.556,1693.881L610.679,1672.393L670.717,1643.382L726.785,1607.29L778.044,1564.644L823.74,1516.084L863.188,1462.324L895.809,1404.169L921.112,1342.476L938.729,1278.165L948.389,1212.188L949.96,1145.527L951.531,1212.188L961.191,1278.165L978.809,1342.476L1004.111,1404.169L1036.733,1462.324L1076.18,1516.084L1121.877,1564.644L1173.136,1607.29L1229.204,1643.382L1289.242,1672.393L1352.364,1693.881L1417.631,1707.54L1442.75,1766.546L1470.923,1824.156L1502.082,1880.207L1536.133,1934.551L1572.98,1987.038L1612.524,2037.525L1654.665,2085.866L1699.278,2131.935L1746.24,2175.606L1795.432,2216.751L1846.709,2255.265L1897.972,2289.725L1899.931,2291.042L1846.709,2326.819L1795.432,2365.333L1746.24,2406.478L1699.278,2450.149L1654.665,2496.218L1612.524,2544.559L1572.98,2595.046L1536.133,2647.533L1502.082,2701.877L1470.923,2757.928L1442.75,2815.538L1417.631,2874.544L1352.364,2888.203L1289.242,2909.691L1229.204,2938.702L1173.136,2974.794L1121.877,3017.44L1076.18,3066L1036.733,3119.76L1004.111,3177.916L978.809,3239.608L961.191,3303.919L951.531,3369.896L949.96,3436.557L948.389,3369.896L938.729,3303.919L921.112,3239.608L895.809,3177.916L863.188,3119.76L823.74,3066L778.044,3017.44L726.785,2974.794L670.717,2938.702L610.679,2909.691L547.556,2888.203L482.29,2874.544L457.171,2815.538L428.998,2757.928L397.838,2701.877L363.788,2647.533L326.94,2595.046L287.396,2544.559L245.256,2496.218L200.643,2450.149L153.68,2406.478L104.489,2365.333L53.212,2326.819L-0.01,2291.042L53.212,2255.265L104.489,2216.751L153.68,2175.606L200.643,2131.935L245.256,2085.866L287.396,2037.525L326.94,1987.038L363.788,1934.551L397.838,1880.207L428.998,1824.156L457.171,1766.546z"></path><path d="M2382.29,1707.54L2447.556,1693.881L2510.679,1672.393L2570.717,1643.382L2626.785,1607.29L2678.044,1564.644L2723.74,1516.084L2763.188,1462.324L2795.809,1404.169L2821.112,1342.476L2838.7290000000003,1278.165L2848.389,1212.188L2849.96,1145.527L2851.531,1212.188L2861.191,1278.165L2878.809,1342.476L2904.111,1404.169L2936.733,1462.324L2976.1800000000003,1516.084L3021.877,1564.644L3073.136,1607.29L3129.2039999999997,1643.382L3189.242,1672.393L3252.364,1693.881L3317.6310000000003,1707.54L3342.75,1766.546L3370.923,1824.156L3402.0820000000003,1880.207L3436.133,1934.551L3472.98,1987.038L3512.524,2037.525L3554.665,2085.866L3599.2780000000002,2131.935L3646.24,2175.606L3695.432,2216.751L3746.709,2255.265L3797.9719999999998,2289.725L3799.931,2291.042L3746.709,2326.819L3695.432,2365.333L3646.24,2406.478L3599.2780000000002,2450.149L3554.665,2496.218L3512.524,2544.559L3472.98,2595.046L3436.133,2647.533L3402.0820000000003,2701.877L3370.923,2757.928L3342.75,2815.538L3317.6310000000003,2874.544L3252.364,2888.203L3189.242,2909.691L3129.2039999999997,2938.702L3073.136,2974.794L3021.877,3017.44L2976.1800000000003,3066L2936.733,3119.76L2904.111,3177.916L2878.809,3239.608L2861.191,3303.919L2851.531,3369.896L2849.96,3436.557L2848.389,3369.896L2838.7290000000003,3303.919L2821.112,3239.608L2795.809,3177.916L2763.188,3119.76L2723.74,3066L2678.044,3017.44L2626.785,2974.794L2570.717,2938.702L2510.679,2909.691L2447.556,2888.203L2382.29,2874.544L2357.171,2815.538L2328.998,2757.928L2297.838,2701.877L2263.788,2647.533L2226.94,2595.046L2187.396,2544.559L2145.256,2496.218L2100.643,2450.149L2053.68,2406.478L2004.489,2365.333L1953.212,2326.819L1899.99,2291.042L1953.212,2255.265L2004.489,2216.751L2053.68,2175.606L2100.643,2131.935L2145.256,2085.866L2187.396,2037.525L2226.94,1987.038L2263.788,1934.551L2297.838,1880.207L2328.998,1824.156L2357.171,1766.546z"></path><path d="M-363.80999999999995,-1934.52L-326.962,-1987.007L-287.4179999999999,-2037.494L-245.27800000000002,-2085.835L-200.66499999999996,-2131.904L-153.702,-2175.575L-104.51099999999997,-2216.72L-53.233999999999924,-2255.233L-0.011999999999943611,-2291.011L53.21100000000001,-2255.233L104.48800000000006,-2216.72L153.6790000000001,-2175.575L200.64199999999983,-2131.904L245.2550000000001,-2085.835L287.395,-2037.494L326.93899999999985,-1987.007L363.7869999999998,-1934.52L397.837,-1880.176L428.9960000000001,-1824.125L457.16899999999987,-1766.5149999999999L482.2890000000002,-1707.509L547.5549999999998,-1693.85L610.6770000000001,-1672.362L670.7159999999999,-1643.351L726.7840000000001,-1607.259L778.0430000000001,-1564.613L823.739,-1516.0529999999999L863.1860000000001,-1462.2930000000001L895.808,-1404.137L921.1100000000001,-1342.4450000000002L938.7280000000001,-1278.134L948.3879999999999,-1212.157L949.9589999999998,-1145.496L948.3879999999999,-1078.834L938.7280000000001,-1012.858L921.1100000000001,-948.547L895.808,-886.854L863.1860000000001,-828.6990000000001L823.739,-774.9390000000001L778.0430000000001,-726.3789999999999L726.7840000000001,-683.733L670.7159999999999,-647.6410000000001L610.6770000000001,-618.6300000000001L547.5549999999998,-597.1410000000001L482.2890000000002,-583.483L457.16899999999987,-524.4770000000001L428.9960000000001,-466.86699999999996L397.837,-410.81600000000003L363.7869999999998,-356.472L326.93899999999985,-303.9849999999999L287.395,-253.49800000000005L245.2550000000001,-205.15700000000015L200.64199999999983,-159.0880000000002L153.6790000000001,-115.41699999999992L104.48800000000006,-74.27199999999993L53.21100000000001,-35.75799999999981L-0.011999999999943611,0.018999999999778083L-1.9700000000000273,-1.2979999999997744L-53.233999999999924,-35.75799999999981L-104.51099999999997,-74.27199999999993L-153.702,-115.41699999999992L-200.66499999999996,-159.0880000000002L-245.27800000000002,-205.15700000000015L-287.4179999999999,-253.49800000000005L-326.962,-303.9849999999999L-363.80999999999995,-356.472L-397.8599999999999,-410.81600000000003L-429.02,-466.86699999999996L-457.193,-524.4770000000001L-482.3119999999999,-583.483L-547.578,-597.1410000000001L-610.701,-618.6300000000001L-670.739,-647.6410000000001L-726.807,-683.733L-778.066,-726.3789999999999L-823.762,-774.9390000000001L-863.21,-828.6990000000001L-895.831,-886.854L-921.134,-948.547L-938.751,-1012.858L-948.411,-1078.834L-949.982,-1145.496L-948.411,-1212.157L-938.751,-1278.134L-921.134,-1342.4450000000002L-895.831,-1404.137L-863.21,-1462.2930000000001L-823.762,-1516.0529999999999L-778.066,-1564.613L-726.807,-1607.259L-670.739,-1643.351L-610.701,-1672.362L-547.578,-1693.85L-482.3119999999999,-1707.509L-457.193,-1766.5149999999999L-429.02,-1824.125L-397.8599999999999,-1880.176z"></path><path d="M1536.19,-1934.52L1573.038,-1987.007L1612.582,-2037.494L1654.722,-2085.835L1699.335,-2131.904L1746.298,-2175.575L1795.489,-2216.72L1846.766,-2255.233L1899.988,-2291.011L1953.211,-2255.233L2004.488,-2216.72L2053.679,-2175.575L2100.642,-2131.904L2145.255,-2085.835L2187.395,-2037.494L2226.939,-1987.007L2263.787,-1934.52L2297.837,-1880.176L2328.996,-1824.125L2357.169,-1766.5149999999999L2382.289,-1707.509L2447.555,-1693.85L2510.677,-1672.362L2570.716,-1643.351L2626.784,-1607.259L2678.043,-1564.613L2723.739,-1516.0529999999999L2763.186,-1462.2930000000001L2795.808,-1404.137L2821.11,-1342.4450000000002L2838.728,-1278.134L2848.388,-1212.157L2849.959,-1145.496L2848.388,-1078.834L2838.728,-1012.858L2821.11,-948.547L2795.808,-886.854L2763.186,-828.6990000000001L2723.739,-774.9390000000001L2678.043,-726.3789999999999L2626.784,-683.733L2570.716,-647.6410000000001L2510.677,-618.6300000000001L2447.555,-597.1410000000001L2382.289,-583.483L2357.169,-524.4770000000001L2328.996,-466.86699999999996L2297.837,-410.81600000000003L2263.787,-356.472L2226.939,-303.9849999999999L2187.395,-253.49800000000005L2145.255,-205.15700000000015L2100.642,-159.0880000000002L2053.679,-115.41699999999992L2004.488,-74.27199999999993L1953.211,-35.75799999999981L1899.988,0.018999999999778083L1898.03,-1.2979999999997744L1846.766,-35.75799999999981L1795.489,-74.27199999999993L1746.298,-115.41699999999992L1699.335,-159.0880000000002L1654.722,-205.15700000000015L1612.582,-253.49800000000005L1573.038,-303.9849999999999L1536.19,-356.472L1502.14,-410.81600000000003L1470.98,-466.86699999999996L1442.807,-524.4770000000001L1417.688,-583.483L1352.422,-597.1410000000001L1289.299,-618.6300000000001L1229.261,-647.6410000000001L1173.193,-683.733L1121.934,-726.3789999999999L1076.238,-774.9390000000001L1036.79,-828.6990000000001L1004.169,-886.854L978.866,-948.547L961.249,-1012.858L951.589,-1078.834L950.018,-1145.496L951.589,-1212.157L961.249,-1278.134L978.866,-1342.4450000000002L1004.169,-1404.137L1036.79,-1462.2930000000001L1076.238,-1516.0529999999999L1121.934,-1564.613L1173.193,-1607.259L1229.261,-1643.351L1289.299,-1672.362L1352.422,-1693.85L1417.688,-1707.509L1442.807,-1766.5149999999999L1470.98,-1824.125L1502.14,-1880.176z"></path><path d="M-363.80999999999995,356.48L-326.962,303.993L-287.4179999999999,253.506L-245.27800000000002,205.165L-200.66499999999996,159.096L-153.702,115.425L-104.51099999999997,74.28L-53.233999999999924,35.767L-0.011999999999943611,-0.011L53.21100000000001,35.767L104.48800000000006,74.28L153.6790000000001,115.425L200.64199999999983,159.096L245.2550000000001,205.165L287.395,253.506L326.93899999999985,303.993L363.7869999999998,356.48L397.837,410.824L428.9960000000001,466.875L457.16899999999987,524.485L482.2890000000002,583.491L547.5549999999998,597.15L610.6770000000001,618.638L670.7159999999999,647.649L726.7840000000001,683.741L778.0430000000001,726.387L823.739,774.947L863.1860000000001,828.707L895.808,886.863L921.1100000000001,948.555L938.7280000000001,1012.866L948.3879999999999,1078.843L949.9589999999998,1145.504L948.3879999999999,1212.166L938.7280000000001,1278.142L921.1100000000001,1342.453L895.808,1404.146L863.1860000000001,1462.301L823.739,1516.061L778.0430000000001,1564.621L726.7840000000001,1607.267L670.7159999999999,1643.359L610.6770000000001,1672.37L547.5549999999998,1693.859L482.2890000000002,1707.517L457.16899999999987,1766.523L428.9960000000001,1824.133L397.837,1880.184L363.7869999999998,1934.528L326.93899999999985,1987.015L287.395,2037.502L245.2550000000001,2085.843L200.64199999999983,2131.912L153.6790000000001,2175.583L104.48800000000006,2216.728L53.21100000000001,2255.242L-0.011999999999943611,2291.019L-1.9700000000000273,2289.702L-53.233999999999924,2255.242L-104.51099999999997,2216.728L-153.702,2175.583L-200.66499999999996,2131.912L-245.27800000000002,2085.843L-287.4179999999999,2037.502L-326.962,1987.015L-363.80999999999995,1934.528L-397.8599999999999,1880.184L-429.02,1824.133L-457.193,1766.523L-482.3119999999999,1707.517L-547.578,1693.859L-610.701,1672.37L-670.739,1643.359L-726.807,1607.267L-778.066,1564.621L-823.762,1516.061L-863.21,1462.301L-895.831,1404.146L-921.134,1342.453L-938.751,1278.142L-948.411,1212.166L-949.982,1145.504L-948.411,1078.843L-938.751,1012.866L-921.134,948.555L-895.831,886.863L-863.21,828.707L-823.762,774.947L-778.066,726.387L-726.807,683.741L-670.739,647.649L-610.701,618.638L-547.578,597.15L-482.3119999999999,583.491L-457.193,524.485L-429.02,466.875L-397.8599999999999,410.824z"></path><path d="M1536.19,356.48L1573.038,303.993L1612.582,253.506L1654.722,205.165L1699.335,159.096L1746.298,115.425L1795.489,74.28L1846.766,35.767L1899.988,-0.011L1953.211,35.767L2004.488,74.28L2053.679,115.425L2100.642,159.096L2145.255,205.165L2187.395,253.506L2226.939,303.993L2263.787,356.48L2297.837,410.824L2328.996,466.875L2357.169,524.485L2382.289,583.491L2447.555,597.15L2510.677,618.638L2570.716,647.649L2626.784,683.741L2678.043,726.387L2723.739,774.947L2763.186,828.707L2795.808,886.863L2821.11,948.555L2838.728,1012.866L2848.388,1078.843L2849.959,1145.504L2848.388,1212.166L2838.728,1278.142L2821.11,1342.453L2795.808,1404.146L2763.186,1462.301L2723.739,1516.061L2678.043,1564.621L2626.784,1607.267L2570.716,1643.359L2510.677,1672.37L2447.555,1693.859L2382.289,1707.517L2357.169,1766.523L2328.996,1824.133L2297.837,1880.184L2263.787,1934.528L2226.939,1987.015L2187.395,2037.502L2145.255,2085.843L2100.642,2131.912L2053.679,2175.583L2004.488,2216.728L1953.211,2255.242L1899.988,2291.019L1898.03,2289.702L1846.766,2255.242L1795.489,2216.728L1746.298,2175.583L1699.335,2131.912L1654.722,2085.843L1612.582,2037.502L1573.038,1987.015L1536.19,1934.528L1502.14,1880.184L1470.98,1824.133L1442.807,1766.523L1417.688,1707.517L1352.422,1693.859L1289.299,1672.37L1229.261,1643.359L1173.193,1607.267L1121.934,1564.621L1076.238,1516.061L1036.79,1462.301L1004.169,1404.146L978.866,1342.453L961.249,1278.142L951.589,1212.166L950.018,1145.504L951.589,1078.843L961.249,1012.866L978.866,948.555L1004.169,886.863L1036.79,828.707L1076.238,774.947L1121.934,726.387L1173.193,683.741L1229.261,647.649L1289.299,618.638L1352.422,597.15L1417.688,583.491L1442.807,524.485L1470.98,466.875L1502.14,410.824z"></path><path d="M-363.80999999999995,2647.48L-326.962,2594.993L-287.4179999999999,2544.506L-245.27800000000002,2496.165L-200.66499999999996,2450.096L-153.702,2406.425L-104.51099999999997,2365.28L-53.233999999999924,2326.767L-0.011999999999943611,2290.989L53.21100000000001,2326.767L104.48800000000006,2365.28L153.6790000000001,2406.425L200.64199999999983,2450.096L245.2550000000001,2496.165L287.395,2544.506L326.93899999999985,2594.993L363.7869999999998,2647.48L397.837,2701.824L428.9960000000001,2757.875L457.16899999999987,2815.485L482.2890000000002,2874.491L547.5549999999998,2888.15L610.6770000000001,2909.638L670.7159999999999,2938.649L726.7840000000001,2974.741L778.0430000000001,3017.3869999999997L823.739,3065.947L863.1860000000001,3119.707L895.808,3177.8630000000003L921.1100000000001,3239.555L938.7280000000001,3303.866L948.3879999999999,3369.843L949.9589999999998,3436.504L948.3879999999999,3503.166L938.7280000000001,3569.142L921.1100000000001,3633.453L895.808,3695.1459999999997L863.1860000000001,3753.301L823.739,3807.0609999999997L778.0430000000001,3855.621L726.7840000000001,3898.267L670.7159999999999,3934.359L610.6770000000001,3963.37L547.5549999999998,3984.859L482.2890000000002,3998.517L457.16899999999987,4057.523L428.9960000000001,4115.133L397.837,4171.184L363.7869999999998,4225.528L326.93899999999985,4278.015L287.395,4328.502L245.2550000000001,4376.843L200.64199999999983,4422.912L153.6790000000001,4466.5830000000005L104.48800000000006,4507.728L53.21100000000001,4546.242L-0.011999999999943611,4582.019L-1.9700000000000273,4580.702L-53.233999999999924,4546.242L-104.51099999999997,4507.728L-153.702,4466.5830000000005L-200.66499999999996,4422.912L-245.27800000000002,4376.843L-287.4179999999999,4328.502L-326.962,4278.015L-363.80999999999995,4225.528L-397.8599999999999,4171.184L-429.02,4115.133L-457.193,4057.523L-482.3119999999999,3998.517L-547.578,3984.859L-610.701,3963.37L-670.739,3934.359L-726.807,3898.267L-778.066,3855.621L-823.762,3807.0609999999997L-863.21,3753.301L-895.831,3695.1459999999997L-921.134,3633.453L-938.751,3569.142L-948.411,3503.166L-949.982,3436.504L-948.411,3369.843L-938.751,3303.866L-921.134,3239.555L-895.831,3177.8630000000003L-863.21,3119.707L-823.762,3065.947L-778.066,3017.3869999999997L-726.807,2974.741L-670.739,2938.649L-610.701,2909.638L-547.578,2888.15L-482.3119999999999,2874.491L-457.193,2815.485L-429.02,2757.875L-397.8599999999999,2701.824z"></path><path d="M1536.19,2647.48L1573.038,2594.993L1612.582,2544.506L1654.722,2496.165L1699.335,2450.096L1746.298,2406.425L1795.489,2365.28L1846.766,2326.767L1899.988,2290.989L1953.211,2326.767L2004.488,2365.28L2053.679,2406.425L2100.642,2450.096L2145.255,2496.165L2187.395,2544.506L2226.939,2594.993L2263.787,2647.48L2297.837,2701.824L2328.996,2757.875L2357.169,2815.485L2382.289,2874.491L2447.555,2888.15L2510.677,2909.638L2570.716,2938.649L2626.784,2974.741L2678.043,3017.3869999999997L2723.739,3065.947L2763.186,3119.707L2795.808,3177.8630000000003L2821.11,3239.555L2838.728,3303.866L2848.388,3369.843L2849.959,3436.504L2848.388,3503.166L2838.728,3569.142L2821.11,3633.453L2795.808,3695.1459999999997L2763.186,3753.301L2723.739,3807.0609999999997L2678.043,3855.621L2626.784,3898.267L2570.716,3934.359L2510.677,3963.37L2447.555,3984.859L2382.289,3998.517L2357.169,4057.523L2328.996,4115.133L2297.837,4171.184L2263.787,4225.528L2226.939,4278.015L2187.395,4328.502L2145.255,4376.843L2100.642,4422.912L2053.679,4466.5830000000005L2004.488,4507.728L1953.211,4546.242L1899.988,4582.019L1898.03,4580.702L1846.766,4546.242L1795.489,4507.728L1746.298,4466.5830000000005L1699.335,4422.912L1654.722,4376.843L1612.582,4328.502L1573.038,4278.015L1536.19,4225.528L1502.14,4171.184L1470.98,4115.133L1442.807,4057.523L1417.688,3998.517L1352.422,3984.859L1289.299,3963.37L1229.261,3934.359L1173.193,3898.267L1121.934,3855.621L1076.238,3807.0609999999997L1036.79,3753.301L1004.169,3695.1459999999997L978.866,3633.453L961.249,3569.142L951.589,3503.166L950.018,3436.504L951.589,3369.843L961.249,3303.866L978.866,3239.555L1004.169,3177.8630000000003L1036.79,3119.707L1076.238,3065.947L1121.934,3017.3869999999997L1173.193,2974.741L1229.261,2938.649L1289.299,2909.638L1352.422,2888.15L1417.688,2874.491L1442.807,2815.485L1470.98,2757.875L1502.14,2701.824z"></path></svg>