<svg width="900" height="560" version="1.2" xmlns="http://www.w3.org/2000/svg" viewBox="0 0 900 560"><style type="text/css">.thumb-shape {stroke-width: 1; vector-effect: non-scaling-stroke; fill:none; stroke: #000; stroke-linecap: round; stroke-linejoin: miter;}</style><path d="M603,-50L753,-50L753,100L603,100z" class="thumb-shape"></path><path d="M96,390L447,390L447,510L96,510z" class="thumb-shape"></path><path d="M447,390L694.3,390L694.3,510L447,510z" class="thumb-shape"></path><path d="M240,100L690,100L690,290L240,290z" class="thumb-shape"></path><path d="M-205.7,390L96,390L96,510L-205.7,510z" class="thumb-shape"></path><path d="M-147,-50L153,-50L153,100L-147,100z" class="thumb-shape"></path><path d="M369,290L531,290L531,390L369,390z" class="thumb-shape"></path><path d="M0,290L369,290L369,390L0,390z" class="thumb-shape"></path><path d="M531,290L900,290L900,390L531,390z" class="thumb-shape"></path><path d="M-210,100L240,100L240,290L-210,290z" class="thumb-shape"></path><path d="M153,-50L603,-50L603,100L153,100z" class="thumb-shape"></path><path d="M603,510L753,510L753,660L603,660z" class="thumb-shape"></path><path d="M694.3,390L996,390L996,510L694.3,510z" class="thumb-shape"></path><path d="M753,-50L1053,-50L1053,100L753,100z" class="thumb-shape"></path><path d="M-147,510L153,510L153,660L-147,660z" class="thumb-shape"></path><path d="M753,510L1053,510L1053,660L753,660z" class="thumb-shape"></path><path d="M690,100L1140,100L1140,290L690,290z" class="thumb-shape"></path><path d="M153,510L603,510L603,660L153,660z" class="thumb-shape"></path></svg>