<svg width="600" height="600" version="1.2" xmlns="http://www.w3.org/2000/svg" viewBox="0 0 600 600"><style type="text/css">path {stroke-width: 1; vector-effect: non-scaling-stroke; fill:none; stroke: #000; stroke-linecap: round; stroke-linejoin: miter;}</style><path d="M171.97,396.97L174.821,394.265L177.809,391.712L180.927,389.32L184.166,387.094L187.517,385.041L190.97,383.165L194.518,381.473L198.148,379.97L201.853,378.658L205.621,377.541L209.443,376.624L213.307,375.908L217.203,375.395L221.121,375.087L226.86,374.983L300.04,374.983L375.04,374.983L378.969,375.086L382.887,375.395L386.783,375.908L390.647,376.624L394.469,377.541L398.237,378.657L401.941,379.969L405.572,381.473L409.119,383.165L412.573,385.04L415.924,387.094L419.163,389.32L422.281,391.712L425.269,394.264L428.12,396.97L430.825,399.82L433.377,402.809L435.77,405.927L437.996,409.166L440.049,412.516L441.924,415.97L443.616,419.517L445.12,423.148L446.432,426.853L447.548,430.621L448.466,434.442L449.182,438.306L449.695,442.203L450.003,446.121L450.106,450.049L150.106,450.049L150.209,446.121L150.517,442.203L151.03,438.306L151.747,434.442L152.664,430.621L153.78,426.853L155.092,423.148L156.596,419.517L158.288,415.97L160.163,412.516L162.217,409.166L164.443,405.927L166.835,402.809L169.387,399.82z"></path><path d="M0,0L600,0L596.071,0.103L592.153,0.411L588.257,0.924L584.393,1.64L580.571,2.558L576.803,3.674L573.099,4.986L569.468,6.49L565.921,8.182L562.467,10.057L559.116,12.11L555.877,14.336L552.759,16.729L549.771,19.281L546.92,21.986L544.215,24.837L541.663,27.825L539.27,30.943L537.044,34.182L534.991,37.533L533.116,40.987L531.424,44.534L529.92,48.165L528.608,51.869L527.492,55.638L526.574,59.459L525.858,63.323L525.345,67.22L525.037,71.137L524.934,75.066L74.934,75.066L74.831,71.137L74.523,67.22L74.01,63.323L73.294,59.459L72.376,55.638L71.26,51.869L69.948,48.165L68.444,44.534L66.752,40.987L64.877,37.533L62.824,34.182L60.598,30.943L58.205,27.825L55.653,24.837L52.948,21.986L50.097,19.281L47.108,16.729L43.991,14.336L40.752,12.11L37.401,10.057L33.947,8.182L30.4,6.49L26.769,4.986L23.065,3.674L19.296,2.558L15.475,1.64L11.611,0.924L7.714,0.411L3.797,0.103z"></path><path d="M150,150L450,150L449.897,153.929L449.589,157.847L449.076,161.743L448.36,165.607L447.442,169.429L446.326,173.197L445.014,176.901L443.51,180.532L441.818,184.079L439.943,187.533L437.89,190.884L435.664,194.123L433.271,197.241L430.719,200.229L428.014,203.08L425.163,205.785L422.175,208.337L419.057,210.73L415.818,212.956L412.467,215.009L409.013,216.884L405.466,218.576L401.835,220.08L398.131,221.392L394.362,222.508L390.541,223.426L386.677,224.142L382.78,224.655L378.863,224.963L374.934,225.066L299.934,225.066L224.934,225.066L221.005,224.963L217.087,224.655L213.191,224.142L209.327,223.426L205.505,222.508L201.737,221.392L198.033,220.08L194.402,218.576L190.855,216.884L187.401,215.009L184.05,212.956L180.811,210.73L177.693,208.337L174.705,205.785L171.854,203.08L169.149,200.229L166.597,197.241L164.204,194.123L161.978,190.884L159.925,187.533L158.05,184.079L156.358,180.532L154.854,176.901L153.542,173.197L152.426,169.429L151.508,165.607L150.792,161.743L150.279,157.847L149.971,153.929z"></path><path d="M75,75L525,75L521.071,75.103L517.153,75.411L513.257,75.924L509.393,76.64L505.571,77.558L501.803,78.674L498.099,79.986L494.468,81.49L490.921,83.182L487.467,85.057L484.116,87.11L480.877,89.336L477.759,91.729L474.771,94.281L471.92,96.986L469.215,99.837L466.663,102.825L464.27,105.943L462.044,109.182L459.991,112.533L458.116,115.987L456.424,119.534L454.92,123.165L453.608,126.869L452.492,130.638L451.574,134.459L450.858,138.323L450.345,142.22L450.037,146.137L449.934,150.066L149.934,150.066L149.831,146.137L149.523,142.22L149.01,138.323L148.294,134.459L147.376,130.638L146.26,126.869L144.948,123.165L143.444,119.534L141.752,115.987L139.877,112.533L137.824,109.182L135.598,105.943L133.205,102.825L130.653,99.837L127.948,96.986L125.097,94.281L122.108,91.729L118.991,89.336L115.752,87.11L112.401,85.057L108.947,83.182L105.4,81.49L101.769,79.986L98.065,78.674L94.296,77.558L90.475,76.64L86.611,75.924L82.714,75.411L78.797,75.103z"></path><path d="M447.44,169.41L448.357,165.589L449.074,161.724L449.587,157.828L449.895,153.91L449.998,149.981L449.998,449.981L449.895,446.053L449.587,442.135L449.074,438.239L448.357,434.374L447.44,430.553L446.324,426.785L445.012,423.08L443.508,419.449L441.816,415.902L439.941,412.448L437.887,409.098L435.661,405.859L433.269,402.741L430.717,399.752L428.011,396.902L425.161,394.197L422.172,391.644L419.054,389.252L415.816,387.026L412.465,384.972L409.011,383.097L405.464,381.405L401.833,379.901L398.128,378.589L394.36,377.473L390.539,376.556L386.675,375.84L382.778,375.327L378.86,375.018L374.932,374.915L374.932,224.915L378.86,224.813L382.778,224.504L386.675,223.991L390.539,223.275L394.36,222.358L398.128,221.241L401.833,219.93L405.464,218.426L409.011,216.734L412.465,214.858L415.816,212.805L419.054,210.579L422.172,208.187L425.161,205.634L428.011,202.929L430.717,200.078L433.269,197.09L435.661,193.972L437.887,190.733L439.941,187.382L441.816,183.929L443.508,180.381L445.012,176.751L446.324,173.046z"></path><path d="M-53.02999999999997,21.97L-50.178999999999974,19.265L-47.19100000000003,16.712L-44.07299999999998,14.32L-40.833999999999946,12.094L-37.48299999999995,10.041L-34.02999999999997,8.165L-30.48199999999997,6.473L-26.851999999999975,4.97L-23.147000000000048,3.658L-19.37900000000002,2.541L-15.557000000000016,1.624L-11.692999999999984,0.908L-7.7970000000000255,0.395L-3.879000000000019,0.087L0.049999999999954525,-0.016L0.049999999999954525,599.984L-3.879000000000019,599.881L-7.7970000000000255,599.572L-11.692999999999984,599.059L-15.557000000000016,598.343L-19.37900000000002,597.426L-23.147000000000048,596.31L-26.851999999999975,594.998L-30.48199999999997,593.494L-34.02999999999997,591.802L-37.48299999999995,589.927L-40.833999999999946,587.873L-44.07299999999998,585.647L-47.19100000000003,583.255L-50.178999999999974,580.703L-53.02999999999997,577.997L-55.735000000000014,575.147L-58.28800000000001,572.158L-60.67999999999995,569.04L-62.90599999999995,565.802L-64.95899999999995,562.451L-66.83500000000004,558.997L-68.52700000000004,555.45L-70.03099999999995,551.819L-71.34199999999998,548.114L-72.45899999999995,544.346L-73.37599999999998,540.525L-74.09199999999998,536.661L-74.60500000000002,532.764L-74.91300000000001,528.846L-75.01599999999996,524.918L-75.01599999999996,74.918L-74.91300000000001,70.989L-74.60500000000002,67.071L-74.09199999999998,63.175L-73.37599999999998,59.311L-72.45899999999995,55.489L-71.34199999999998,51.721L-70.03099999999995,48.016L-68.52700000000004,44.386L-66.83500000000004,40.838L-64.95899999999995,37.385L-62.90599999999995,34.034L-60.67999999999995,30.795L-58.28800000000001,27.677L-55.735000000000014,24.689z"></path><path d="M546.97,21.97L549.821,19.265L552.809,16.712L555.927,14.32L559.166,12.094L562.517,10.041L565.97,8.165L569.518,6.473L573.148,4.97L576.853,3.658L580.621,2.541L584.443,1.624L588.307,0.908L592.203,0.395L596.121,0.087L600.05,-0.016L600.05,599.984L596.121,599.881L592.203,599.572L588.307,599.059L584.443,598.343L580.621,597.426L576.853,596.31L573.148,594.998L569.518,593.494L565.97,591.802L562.517,589.927L559.166,587.873L555.927,585.647L552.809,583.255L549.821,580.703L546.97,577.997L544.265,575.147L541.712,572.158L539.32,569.04L537.094,565.802L535.041,562.451L533.165,558.997L531.473,555.45L529.969,551.819L528.658,548.114L527.541,544.346L526.624,540.525L525.908,536.661L525.395,532.764L525.087,528.846L524.984,524.918L524.984,74.918L525.087,70.989L525.395,67.071L525.908,63.175L526.624,59.311L527.541,55.489L528.658,51.721L529.969,48.016L531.473,44.386L533.165,40.838L535.041,37.385L537.094,34.034L539.32,30.795L541.712,27.677L544.265,24.689z"></path><path d="M-53.02999999999997,621.97L-50.178999999999974,619.265L-47.19100000000003,616.712L-44.07299999999998,614.32L-40.833999999999946,612.094L-37.48299999999995,610.041L-34.02999999999997,608.165L-30.48199999999997,606.473L-26.851999999999975,604.97L-23.147000000000048,603.658L-19.37900000000002,602.541L-15.557000000000016,601.624L-11.692999999999984,600.908L-7.7970000000000255,600.395L-3.879000000000019,600.087L0.049999999999954525,599.984L0.049999999999954525,1199.984L-3.879000000000019,1199.8809999999999L-7.7970000000000255,1199.5720000000001L-11.692999999999984,1199.059L-15.557000000000016,1198.3429999999998L-19.37900000000002,1197.426L-23.147000000000048,1196.31L-26.851999999999975,1194.998L-30.48199999999997,1193.4940000000001L-34.02999999999997,1191.8020000000001L-37.48299999999995,1189.9270000000001L-40.833999999999946,1187.873L-44.07299999999998,1185.647L-47.19100000000003,1183.255L-50.178999999999974,1180.703L-53.02999999999997,1177.9969999999998L-55.735000000000014,1175.147L-58.28800000000001,1172.158L-60.67999999999995,1169.04L-62.90599999999995,1165.8020000000001L-64.95899999999995,1162.451L-66.83500000000004,1158.9969999999998L-68.52700000000004,1155.45L-70.03099999999995,1151.819L-71.34199999999998,1148.114L-72.45899999999995,1144.346L-73.37599999999998,1140.525L-74.09199999999998,1136.661L-74.60500000000002,1132.7640000000001L-74.91300000000001,1128.846L-75.01599999999996,1124.9180000000001L-75.01599999999996,674.918L-74.91300000000001,670.989L-74.60500000000002,667.071L-74.09199999999998,663.175L-73.37599999999998,659.311L-72.45899999999995,655.489L-71.34199999999998,651.721L-70.03099999999995,648.016L-68.52700000000004,644.386L-66.83500000000004,640.838L-64.95899999999995,637.385L-62.90599999999995,634.034L-60.67999999999995,630.795L-58.28800000000001,627.677L-55.735000000000014,624.689z"></path><path d="M546.97,621.97L549.821,619.265L552.809,616.712L555.927,614.32L559.166,612.094L562.517,610.041L565.97,608.165L569.518,606.473L573.148,604.97L576.853,603.658L580.621,602.541L584.443,601.624L588.307,600.908L592.203,600.395L596.121,600.087L600.05,599.984L600.05,1199.984L596.121,1199.8809999999999L592.203,1199.5720000000001L588.307,1199.059L584.443,1198.3429999999998L580.621,1197.426L576.853,1196.31L573.148,1194.998L569.518,1193.4940000000001L565.97,1191.8020000000001L562.517,1189.9270000000001L559.166,1187.873L555.927,1185.647L552.809,1183.255L549.821,1180.703L546.97,1177.9969999999998L544.265,1175.147L541.712,1172.158L539.32,1169.04L537.094,1165.8020000000001L535.041,1162.451L533.165,1158.9969999999998L531.473,1155.45L529.969,1151.819L528.658,1148.114L527.541,1144.346L526.624,1140.525L525.908,1136.661L525.395,1132.7640000000001L525.087,1128.846L524.984,1124.9180000000001L524.984,674.918L525.087,670.989L525.395,667.071L525.908,663.175L526.624,659.311L527.541,655.489L528.658,651.721L529.969,648.016L531.473,644.386L533.165,640.838L535.041,637.385L537.094,634.034L539.32,630.795L541.712,627.677L544.265,624.689z"></path><path d="M471.97,96.97L474.821,94.265L477.809,91.712L480.927,89.32L484.166,87.094L487.517,85.041L490.97,83.165L494.518,81.473L498.148,79.97L501.853,78.658L505.621,77.541L509.443,76.624L513.307,75.908L517.203,75.395L521.121,75.087L525.05,74.984L525.05,524.984L521.121,524.881L517.203,524.572L513.307,524.059L509.443,523.343L505.621,522.426L501.853,521.31L498.148,519.998L494.518,518.494L490.97,516.802L487.517,514.927L484.166,512.873L480.927,510.647L477.809,508.255L474.821,505.703L471.97,502.997L469.265,500.147L466.712,497.158L464.32,494.04L462.094,490.802L460.041,487.451L458.165,483.997L456.473,480.45L454.97,476.819L453.658,473.114L452.541,469.346L451.624,465.525L450.908,461.661L450.395,457.764L450.087,453.846L449.984,449.918L449.984,149.918L450.087,145.989L450.395,142.071L450.908,138.175L451.624,134.311L452.541,130.489L453.658,126.721L454.97,123.016L456.473,119.386L458.165,115.838L460.041,112.385L462.094,109.034L464.32,105.795L466.712,102.677L469.265,99.689z"></path><path d="M-527.56,-55.59000000000003L-526.643,-59.410999999999945L-525.926,-63.275999999999954L-525.413,-67.17200000000003L-525.105,-71.09000000000003L-525.002,-75.019L-75.00199999999995,-75.019L-74.899,-71.09000000000003L-74.59100000000001,-67.17200000000003L-74.07799999999997,-63.275999999999954L-73.36199999999997,-59.410999999999945L-72.44399999999996,-55.59000000000003L-71.32799999999997,-51.822L-70.01599999999996,-48.11699999999996L-68.51199999999994,-44.48599999999999L-66.82000000000005,-40.938999999999965L-64.94500000000005,-37.48599999999999L-62.89200000000005,-34.13499999999999L-60.666000000000054,-30.895999999999958L-58.273000000000025,-27.77800000000002L-55.721000000000004,-24.789999999999964L-53.01599999999996,-21.938999999999965L-50.164999999999964,-19.234000000000037L-47.17700000000002,-16.68100000000004L-44.05899999999997,-14.288999999999987L-40.82000000000005,-12.062999999999988L-37.46900000000005,-10.009000000000015L-34.014999999999986,-8.134000000000015L-30.46799999999996,-6.442000000000007L-26.83699999999999,-4.937999999999988L-23.133000000000038,-3.6259999999999764L-19.36500000000001,-2.509999999999991L-15.543000000000006,-1.592999999999961L-11.678999999999974,-0.8769999999999527L-7.7830000000000155,-0.36400000000003274L-3.865000000000009,-0.05499999999994998L0.06399999999996453,0.047000000000025466L-599.936,0.047000000000025466L-596.007,-0.05499999999994998L-592.09,-0.36400000000003274L-588.193,-0.8769999999999527L-584.329,-1.592999999999961L-580.508,-2.509999999999991L-576.739,-3.6259999999999764L-573.035,-4.937999999999988L-569.404,-6.442000000000007L-565.857,-8.134000000000015L-562.403,-10.009000000000015L-559.052,-12.062999999999988L-555.813,-14.288999999999987L-552.696,-16.68100000000004L-549.707,-19.234000000000037L-546.856,-21.938999999999965L-544.151,-24.789999999999964L-541.599,-27.77800000000002L-539.206,-30.895999999999958L-536.98,-34.13499999999999L-534.927,-37.48599999999999L-533.052,-40.938999999999965L-531.36,-44.48599999999999L-529.856,-48.11699999999996L-528.544,-51.822z"></path><path d="M72.44,-55.59000000000003L73.357,-59.410999999999945L74.074,-63.275999999999954L74.587,-67.17200000000003L74.895,-71.09000000000003L74.998,-75.019L524.998,-75.019L525.101,-71.09000000000003L525.409,-67.17200000000003L525.922,-63.275999999999954L526.638,-59.410999999999945L527.556,-55.59000000000003L528.672,-51.822L529.984,-48.11699999999996L531.488,-44.48599999999999L533.18,-40.938999999999965L535.055,-37.48599999999999L537.108,-34.13499999999999L539.334,-30.895999999999958L541.727,-27.77800000000002L544.279,-24.789999999999964L546.984,-21.938999999999965L549.835,-19.234000000000037L552.823,-16.68100000000004L555.941,-14.288999999999987L559.18,-12.062999999999988L562.531,-10.009000000000015L565.985,-8.134000000000015L569.532,-6.442000000000007L573.163,-4.937999999999988L576.867,-3.6259999999999764L580.635,-2.509999999999991L584.457,-1.592999999999961L588.321,-0.8769999999999527L592.217,-0.36400000000003274L596.135,-0.05499999999994998L600.064,0.047000000000025466L0.064,0.047000000000025466L3.993,-0.05499999999994998L7.91,-0.36400000000003274L11.807,-0.8769999999999527L15.671,-1.592999999999961L19.492,-2.509999999999991L23.261,-3.6259999999999764L26.965,-4.937999999999988L30.596,-6.442000000000007L34.143,-8.134000000000015L37.597,-10.009000000000015L40.948,-12.062999999999988L44.187,-14.288999999999987L47.304,-16.68100000000004L50.293,-19.234000000000037L53.144,-21.938999999999965L55.849,-24.789999999999964L58.401,-27.77800000000002L60.794,-30.895999999999958L63.02,-34.13499999999999L65.073,-37.48599999999999L66.948,-40.938999999999965L68.64,-44.48599999999999L70.144,-48.11699999999996L71.456,-51.822z"></path><path d="M-527.56,544.41L-526.643,540.589L-525.926,536.724L-525.413,532.828L-525.105,528.91L-525.002,524.981L-75.00199999999995,524.981L-74.899,528.91L-74.59100000000001,532.828L-74.07799999999997,536.724L-73.36199999999997,540.589L-72.44399999999996,544.41L-71.32799999999997,548.178L-70.01599999999996,551.883L-68.51199999999994,555.514L-66.82000000000005,559.061L-64.94500000000005,562.514L-62.89200000000005,565.865L-60.666000000000054,569.104L-58.273000000000025,572.222L-55.721000000000004,575.21L-53.01599999999996,578.061L-50.164999999999964,580.766L-47.17700000000002,583.319L-44.05899999999997,585.711L-40.82000000000005,587.937L-37.46900000000005,589.991L-34.014999999999986,591.866L-30.46799999999996,593.558L-26.83699999999999,595.062L-23.133000000000038,596.374L-19.36500000000001,597.49L-15.543000000000006,598.407L-11.678999999999974,599.123L-7.7830000000000155,599.636L-3.865000000000009,599.945L0.06399999999996453,600.047L-599.936,600.047L-596.007,599.945L-592.09,599.636L-588.193,599.123L-584.329,598.407L-580.508,597.49L-576.739,596.374L-573.035,595.062L-569.404,593.558L-565.857,591.866L-562.403,589.991L-559.052,587.937L-555.813,585.711L-552.696,583.319L-549.707,580.766L-546.856,578.061L-544.151,575.21L-541.599,572.222L-539.206,569.104L-536.98,565.865L-534.927,562.514L-533.052,559.061L-531.36,555.514L-529.856,551.883L-528.544,548.178z"></path><path d="M72.44,544.41L73.357,540.589L74.074,536.724L74.587,532.828L74.895,528.91L74.998,524.981L524.998,524.981L525.101,528.91L525.409,532.828L525.922,536.724L526.638,540.589L527.556,544.41L528.672,548.178L529.984,551.883L531.488,555.514L533.18,559.061L535.055,562.514L537.108,565.865L539.334,569.104L541.727,572.222L544.279,575.21L546.984,578.061L549.835,580.766L552.823,583.319L555.941,585.711L559.18,587.937L562.531,589.991L565.985,591.866L569.532,593.558L573.163,595.062L576.867,596.374L580.635,597.49L584.457,598.407L588.321,599.123L592.217,599.636L596.135,599.945L600.064,600.047L0.064,600.047L3.993,599.945L7.91,599.636L11.807,599.123L15.671,598.407L19.492,597.49L23.261,596.374L26.965,595.062L30.596,593.558L34.143,591.866L37.597,589.991L40.948,587.937L44.187,585.711L47.304,583.319L50.293,580.766L53.144,578.061L55.849,575.21L58.401,572.222L60.794,569.104L63.02,565.865L65.073,562.514L66.948,559.061L68.64,555.514L70.144,551.883L71.456,548.178z"></path><path d="M300,225L375,225L375,375L300,375z"></path><path d="M221.07,375.1L224.999,374.997L226.819,374.997z"></path><path d="M105.51,518.52L109.057,516.828L112.511,514.953L115.862,512.899L119.101,510.673L122.218,508.281L125.207,505.729L128.058,503.023L130.763,500.173L133.315,497.184L135.708,494.066L137.934,490.828L139.987,487.477L141.862,484.023L143.554,480.476L145.058,476.845L146.37,473.14L147.486,469.372L148.404,465.551L149.12,461.687L149.633,457.79L149.941,453.872L150.044,449.944L450.044,449.944L450.147,453.872L450.455,457.79L450.968,461.687L451.684,465.551L452.602,469.372L453.718,473.14L455.03,476.845L456.534,480.476L458.226,484.023L460.101,487.477L462.154,490.828L464.38,494.066L466.773,497.184L469.325,500.173L472.03,503.023L474.881,505.729L477.869,508.281L480.987,510.673L484.226,512.899L487.577,514.953L491.031,516.828L494.578,518.52L498.209,520.024L501.913,521.336L505.681,522.452L509.503,523.369L513.367,524.086L517.263,524.599L521.181,524.907L525.11,525.01L75.11,525.01L79.039,524.907L82.957,524.599L86.853,524.086L90.717,523.369L94.539,522.452L98.307,521.336L102.011,520.024z"></path><path d="M150,150L150.103,153.929L150.411,157.847L150.924,161.743L151.64,165.607L152.558,169.429L153.674,173.197L154.986,176.901L156.49,180.532L158.182,184.079L160.057,187.533L162.11,190.884L164.336,194.123L166.729,197.241L169.281,200.229L171.986,203.08L174.837,205.785L177.825,208.337L180.943,210.73L184.182,212.956L187.533,215.009L190.987,216.884L194.534,218.576L198.165,220.08L201.869,221.392L205.638,222.508L209.459,223.426L213.323,224.142L217.22,224.655L221.137,224.963L225.066,225.066L225.066,375.066L221.137,375.169L217.22,375.477L213.323,375.99L209.459,376.706L205.638,377.624L201.869,378.74L198.165,380.052L194.534,381.556L190.987,383.248L187.533,385.123L184.182,387.176L180.943,389.402L177.825,391.795L174.837,394.347L171.986,397.052L169.281,399.903L166.729,402.892L164.336,406.009L162.11,409.248L160.057,412.599L158.182,416.053L156.49,419.6L154.986,423.231L153.674,426.935L152.558,430.704L151.64,434.525L150.924,438.389L150.411,442.286L150.103,446.203L150,450.132z"></path><path d="M0,-600L3.929,-599.897L7.847,-599.589L11.743,-599.076L15.607,-598.36L19.429,-597.442L23.197,-596.326L26.901,-595.014L30.532,-593.51L34.079,-591.818L37.533,-589.943L40.884,-587.89L44.123,-585.664L47.241,-583.271L50.229,-580.719L53.08,-578.014L55.785,-575.163L58.337,-572.175L60.73,-569.057L62.956,-565.818L65.009,-562.467L66.884,-559.013L68.576,-555.466L70.08,-551.835L71.392,-548.131L72.508,-544.362L73.426,-540.5409999999999L74.142,-536.677L74.655,-532.78L74.963,-528.863L75.066,-524.934L75.066,-74.93399999999997L74.963,-71.005L74.655,-67.08699999999999L74.142,-63.19100000000003L73.426,-59.327L72.508,-55.504999999999995L71.392,-51.736999999999966L70.08,-48.033000000000015L68.576,-44.402000000000044L66.884,-40.85500000000002L65.009,-37.400999999999954L62.956,-34.049999999999955L60.73,-30.811000000000035L58.337,-27.692999999999984L55.785,-24.70500000000004L53.08,-21.854000000000042L50.229,-19.149L47.241,-16.59699999999998L44.123,-14.20399999999995L40.884,-11.977999999999952L37.533,-9.924999999999955L34.079,-8.049999999999955L30.532,-6.357999999999947L26.901,-4.854000000000042L23.197,-3.54200000000003L19.429,-2.4260000000000446L15.607,-1.5080000000000382L11.743,-0.79200000000003L7.847,-0.27899999999999636L3.929,0.028999999999996362L0,0.13199999999994816z"></path><path d="M0,0L3.929,0.103L7.847,0.411L11.743,0.924L15.607,1.64L19.429,2.558L23.197,3.674L26.901,4.986L30.532,6.49L34.079,8.182L37.533,10.057L40.884,12.11L44.123,14.336L47.241,16.729L50.229,19.281L53.08,21.986L55.785,24.837L58.337,27.825L60.73,30.943L62.956,34.182L65.009,37.533L66.884,40.987L68.576,44.534L70.08,48.165L71.392,51.869L72.508,55.638L73.426,59.459L74.142,63.323L74.655,67.22L74.963,71.137L75.066,75.066L75.066,525.066L74.963,528.995L74.655,532.913L74.142,536.809L73.426,540.673L72.508,544.495L71.392,548.263L70.08,551.967L68.576,555.598L66.884,559.145L65.009,562.599L62.956,565.95L60.73,569.189L58.337,572.307L55.785,575.295L53.08,578.146L50.229,580.851L47.241,583.403L44.123,585.796L40.884,588.022L37.533,590.075L34.079,591.95L30.532,593.642L26.901,595.146L23.197,596.458L19.429,597.574L15.607,598.492L11.743,599.208L7.847,599.721L3.929,600.029L0,600.132z"></path><path d="M75,75L78.929,75.103L82.847,75.411L86.743,75.924L90.607,76.64L94.429,77.558L98.197,78.674L101.901,79.986L105.532,81.49L109.079,83.182L112.533,85.057L115.884,87.11L119.123,89.336L122.241,91.729L125.229,94.281L128.08,96.986L130.785,99.837L133.337,102.825L135.73,105.943L137.956,109.182L140.009,112.533L141.884,115.987L143.576,119.534L145.08,123.165L146.392,126.869L147.508,130.638L148.426,134.459L149.142,138.323L149.655,142.22L149.963,146.137L150.066,150.066L150.066,450.066L149.963,453.995L149.655,457.913L149.142,461.809L148.426,465.673L147.508,469.495L146.392,473.263L145.08,476.967L143.576,480.598L141.884,484.145L140.009,487.599L137.956,490.95L135.73,494.189L133.337,497.307L130.785,500.295L128.08,503.146L125.229,505.851L122.241,508.403L119.123,510.796L115.884,513.022L112.533,515.075L109.079,516.95L105.532,518.642L101.901,520.146L98.197,521.458L94.429,522.574L90.607,523.492L86.743,524.208L82.847,524.721L78.929,525.029L75,525.132z"></path><path d="M225,225L300,225L300,375L226.82,375L225,375z"></path></svg>