<svg width="600" height="600" version="1.2" xmlns="http://www.w3.org/2000/svg" viewBox="0 0 600 600"><style type="text/css">.thumb-shape {stroke-width: 1; vector-effect: non-scaling-stroke; fill:none; stroke: #000; stroke-linecap: round; stroke-linejoin: miter;}</style><path d="M-50,49L250,49L250,149L-50,149z" class="thumb-shape"></path><path d="M-50,149L250,149L250,249L-50,249z" class="thumb-shape"></path><path d="M-50,-51L250,-51L250,49L-50,49z" class="thumb-shape"></path><path d="M250,349L550,349L550,449L250,449z" class="thumb-shape"></path><path d="M250,449L550,449L550,549L250,549z" class="thumb-shape"></path><path d="M250,249L550,249L550,349L250,349z" class="thumb-shape"></path><path d="M150,249L250,249L250,549L150,549z" class="thumb-shape"></path><path d="M450,-51L550,-51L550,249L450,249z" class="thumb-shape"></path><path d="M250,-51L350,-51L350,249L250,249z" class="thumb-shape"></path><path d="M350,-51L450,-51L450,249L350,249z" class="thumb-shape"></path><path d="M50,249L150,249L150,549L50,549z" class="thumb-shape"></path><path d="M-50,249L50,249L50,549L-50,549z" class="thumb-shape"></path><path d="M550,49L850,49L850,149L550,149z" class="thumb-shape"></path><path d="M550,149L850,149L850,249L550,249z" class="thumb-shape"></path><path d="M550,-51L850,-51L850,49L550,49z" class="thumb-shape"></path><path d="M-50,549L250,549L250,649L-50,649z" class="thumb-shape"></path><path d="M550,549L850,549L850,649L550,649z" class="thumb-shape"></path><path d="M450,549L550,549L550,849L450,849z" class="thumb-shape"></path><path d="M250,549L350,549L350,849L250,849z" class="thumb-shape"></path><path d="M350,549L450,549L450,849L350,849z" class="thumb-shape"></path><path d="M550,249L650,249L650,549L550,549z" class="thumb-shape"></path></svg>