<svg width="746" height="911" version="1.2" xmlns="http://www.w3.org/2000/svg" viewBox="0 0 746 911"><style type="text/css">path {stroke-width: 1; vector-effect: non-scaling-stroke; fill:none; stroke: #000; stroke-linecap: round; stroke-linejoin: miter;}</style><path d="M0,-455.58L150,-455.58L222.921,-387.15099999999995L372.921,-387.15099999999995L522.921,-387.15099999999995L595.842,-455.58L745.842,-455.58L745.842,-193.65999999999997L745.842,68.25999999999999L595.842,68.25999999999999L522.921,-0.16899999999998272L222.921,-0.16899999999998272L150,68.25999999999999L0,68.25999999999999L0,-193.65999999999997z"></path><path d="M0,455.42L150,455.42L222.921,523.849L372.921,523.849L522.921,523.849L595.842,455.42L745.842,455.42L745.842,717.34L745.842,979.26L595.842,979.26L522.921,910.831L222.921,910.831L150,979.26L0,979.26L0,717.34z"></path><path d="M-373.07,0L-223.07000000000005,0L-150.149,68.429L149.851,68.429L222.77099999999996,0L372.77099999999996,0L372.77099999999996,261.92L372.77099999999996,523.84L222.77099999999996,523.84L149.851,455.411L-0.1490000000000009,455.411L-150.149,455.411L-223.07000000000005,523.84L-373.07,523.84L-373.07,261.92z"></path><path d="M372.93,0L522.93,0L595.851,68.429L895.851,68.429L968.771,0L1118.771,0L1118.771,261.92L1118.771,523.84L968.771,523.84L895.851,455.411L745.851,455.411L595.851,455.411L522.93,523.84L372.93,523.84L372.93,261.92z"></path></svg>