<svg width="410" height="260" version="1.2" xmlns="http://www.w3.org/2000/svg" viewBox="0 0 410 260"><style type="text/css">path {stroke-width: 1; vector-effect: non-scaling-stroke; fill:none; stroke: #000; stroke-linecap: round; stroke-linejoin: miter;}</style><path d="M-205,0L-140.003,-64.99700000000001L-102.505,-27.498999999999995L-0.002999999999985903,75.00299999999999L64.995,140L-0.002999999999985903,204.997z"></path><path d="M205,0L269.997,-64.99700000000001L307.495,-27.498999999999995L409.997,75.00299999999999L474.995,140L409.997,204.997z"></path><path d="M-205,260L-140.003,195.003L-102.505,232.501L-0.002999999999985903,335.003L64.995,400L-0.002999999999985903,464.997z"></path><path d="M205,260L269.997,195.003L307.495,232.501L409.997,335.003L474.995,400L409.997,464.997z"></path><path d="M205,130L269.997,65.003L372.499,167.505L307.502,232.502L270.004,195.004z"></path><path d="M65,10L167.502,-92.50200000000001L205,-130L269.997,-65.00299999999999L205,-0.005999999999971806L65,139.995L0.003,74.99700000000001z"></path><path d="M65,270L167.502,167.498L205,130L269.997,194.997L205,259.994L65,399.995L0.003,334.997z"></path><path d="M205,130L167.502,167.498L102.505,102.501L205.007,-0.002L270.004,64.996z"></path><path d="M205,390L167.502,427.498L102.505,362.501L205.007,259.998L270.004,324.996z"></path><path d="M102.5,-157.5L167.497,-92.50299999999999L64.995,9.999000000000024L-0.002,-54.99799999999999z"></path><path d="M512.5,-157.5L577.4970000000001,-92.50299999999999L474.995,9.999000000000024L409.998,-54.99799999999999z"></path><path d="M102.5,102.5L167.497,167.497L64.995,269.999L-0.002,205.002z"></path><path d="M512.5,102.5L577.4970000000001,167.497L474.995,269.999L409.998,205.002z"></path><path d="M-37.5,-92.5L65.00200000000001,10.00200000000001L0.0049999999999954525,74.99900000000002L-102.49700000000001,-27.502999999999986z"></path><path d="M372.5,-92.5L475.002,10.00200000000001L410.005,74.99900000000002L307.503,-27.502999999999986z"></path><path d="M-37.5,167.5L65.00200000000001,270.002L0.0049999999999954525,334.999L-102.49700000000001,232.497z"></path><path d="M372.5,167.5L475.002,270.002L410.005,334.999L307.503,232.497z"></path></svg>