<svg width="2000" height="1600" version="1.2" xmlns="http://www.w3.org/2000/svg" viewBox="0 0 2000 1600"><style type="text/css">path {stroke-width: 1; vector-effect: non-scaling-stroke; fill:none; stroke: #000; stroke-linecap: round; stroke-linejoin: miter;}</style><path d="M-135.70000000000005,950L364.3000000000002,950L364.3000000000002,1200L-135.70000000000005,1200z"></path><path d="M1864.3,950L2364.3,950L2364.3,1200L1864.3,1200z"></path><path d="M1500,800L2000,800L2000,950L1500,950z"></path><path d="M-395.78999999999996,0L104.21000000000004,0L104.21000000000004,250L-395.78999999999996,250z"></path><path d="M1604.21,0L2104.21,0L2104.21,250L1604.21,250z"></path><path d="M1000,800L1500,800L1500,950L1000,950z"></path><path d="M1211.23,400L1711.23,400L1711.23,550L1211.23,550z"></path><path d="M500,800L1000,800L1000,950L500,950z"></path><path d="M1211.23,400L1354.21,400L1711.23,400L1711.23,550L1211.23,550z"></path><path d="M1104.21,0L1604.21,0L1604.21,250L1354.21,250L1104.21,250z"></path><path d="M39.67,1200L364.31,1200L461.24,1200L539.67,1200L539.67,1450L39.67,1450z"></path><path d="M854.21,250L1104.21,250L1354.21,250L1354.21,400L1211.23,400L854.21,400z"></path><path d="M364.3,950L500,950L864.3,950L864.3,1200L539.66,1200L461.23,1200L364.3,1200z"></path><path d="M539.67,1200L864.31,1200L1289.67,1200L1289.67,1600L539.67,1600L539.67,1450z"></path><path d="M604.21,0L1104.21,0L1104.21,250L854.21,250L604.21,250z"></path><path d="M864.3,950L1000,950L1364.3,950L1364.3,1200L1289.66,1200L864.3,1200z"></path><path d="M-288.77,400L-145.78999999999996,400L354.21000000000004,400L461.23,400L461.23,800L0,800L-288.77,800L-288.77,550z"></path><path d="M1711.23,400L1854.21,400L2354.21,400L2461.23,400L2461.23,800L2000,800L1711.23,800L1711.23,550z"></path><path d="M104.21,0L604.21,0L604.21,250L354.21,250L104.21,250z"></path><path d="M-395.78999999999996,0L104.21000000000004,0L104.21000000000004,250L-145.78999999999996,250L-395.78999999999996,250z"></path><path d="M1604.21,0L2104.21,0L2104.21,250L1854.21,250L1604.21,250z"></path><path d="M1211.23,550L1711.23,550L1711.23,800L1500,800L1211.23,800z"></path><path d="M39.67,1450L539.67,1450L539.67,1600L39.67,1600z"></path><path d="M1364.3,950L1500,950L1864.3,950L1864.3,1200L1364.3,1200z"></path><path d="M-135.70000000000005,950L0,950L364.3000000000002,950L364.3000000000002,1200L39.66000000000008,1200L-135.70000000000005,1200z"></path><path d="M1864.3,950L2000,950L2364.3,950L2364.3,1200L2039.66,1200L1864.3,1200z"></path><path d="M0,800L461.23,800L500,800L500,950L364.3,950L0,950z"></path><path d="M1000,800L1211.23,800L1500,800L1500,950L1364.3,950L1000,950z"></path><path d="M1500,800L1711.23,800L2000,800L2000,950L1864.3,950L1500,950z"></path><path d="M-145.78999999999996,250L104.21000000000004,250L354.21000000000004,250L354.21000000000004,400L-145.78999999999996,400z"></path><path d="M1854.21,250L2104.21,250L2354.21,250L2354.21,400L1854.21,400z"></path><path d="M354.21,250L604.21,250L854.21,250L854.21,400L461.23,400L354.21,400z"></path><path d="M1354.21,250L1604.21,250L1854.21,250L1854.21,400L1711.23,400L1354.21,400z"></path><path d="M461.23,400L854.21,400L1211.23,400L1211.23,550L1211.23,800L1000,800L500,800L461.23,800z"></path><path d="M500,800L1000,800L1000,950L864.3,950L500,950z"></path><path d="M-710.3299999999999,1200L-635.69,1200L-135.69000000000005,1200L39.67000000000007,1200L39.67000000000007,1600L-710.3299999999999,1600z"></path><path d="M1289.67,1200L1364.31,1200L1864.31,1200L2039.67,1200L2039.67,1600L1289.67,1600z"></path><path d="M-145.78999999999996,250L354.21000000000004,250L354.21000000000004,400L-145.78999999999996,400z"></path><path d="M1854.21,250L2354.21,250L2354.21,400L1854.21,400z"></path><path d="M539.67,1200L1289.67,1200L1289.67,1600L539.67,1600z"></path><path d="M354.21,250L854.21,250L854.21,400L354.21,400z"></path><path d="M39.67,1450L539.67,1450L539.67,1600L39.67,1600z"></path><path d="M1211.23,550L1711.23,550L1711.23,800L1211.23,800z"></path><path d="M461.23,400L1211.23,400L1211.23,800L461.23,800z"></path><path d="M864.3,950L1364.3,950L1364.3,1200L864.3,1200z"></path><path d="M604.21,0L1104.21,0L1104.21,250L604.21,250z"></path><path d="M1104.21,0L1604.21,0L1604.21,250L1104.21,250z"></path><path d="M0,800L500,800L500,950L0,950z"></path><path d="M854.21,250L1354.21,250L1354.21,400L854.21,400z"></path><path d="M104.21,0L604.21,0L604.21,250L104.21,250z"></path><path d="M1354.21,250L1854.21,250L1854.21,400L1354.21,400z"></path><path d="M-288.77,400L461.23,400L461.23,800L-288.77,800z"></path><path d="M1711.23,400L2461.23,400L2461.23,800L1711.23,800z"></path><path d="M-710.3299999999999,1200L39.67000000000007,1200L39.67000000000007,1600L-710.3299999999999,1600z"></path><path d="M1289.67,1200L2039.67,1200L2039.67,1600L1289.67,1600z"></path><path d="M39.67,1200L539.67,1200L539.67,1450L39.67,1450z"></path><path d="M364.3,950L864.3,950L864.3,1200L364.3,1200z"></path><path d="M1364.3,950L1864.3,950L1864.3,1200L1364.3,1200z"></path></svg>