<svg width="849" height="212" version="1.2" xmlns="http://www.w3.org/2000/svg" viewBox="0 0 849 212"><style type="text/css">path {stroke-width: 1; vector-effect: non-scaling-stroke; fill:none; stroke: #000; stroke-linecap: round; stroke-linejoin: miter;}</style><path d="M516.4,-343.9L410.3,-237.9L304.3,-343.9L410.3,-450z"></path><path d="M410.3,-237.9L92.1,80.3L-13.9,-25.7L304.3,-343.9z"></path><path d="M92.1,80.3L-13.9,186.4L-120,80.3L-13.9,-25.7z"></path><path d="M410.3,-237.9L516.4,-343.9L834.6,-25.7L728.5,80.3z"></path><path d="M1259.3,-237.9L941.1,80.3L835.1,-25.7L1153.3,-343.9z"></path><path d="M941.1,80.3L835.1,186.4L729,80.3L835.1,-25.7z"></path><path d="M516.4,-131.9L410.3,-25.9L304.3,-131.9L410.3,-238z"></path><path d="M410.3,-25.9L92.1,292.3L-13.9,186.3L304.3,-131.9z"></path><path d="M92.1,292.3L-13.9,398.4L-120,292.3L-13.9,186.3z"></path><path d="M410.3,-25.9L516.4,-131.9L834.6,186.3L728.5,292.3z"></path><path d="M1259.3,-25.9L941.1,292.3L835.1,186.3L1153.3,-131.9z"></path><path d="M941.1,292.3L835.1,398.4L729,292.3L835.1,186.3z"></path><path d="M516.4,80.1L410.3,186.1L304.3,80.1L410.3,-26z"></path><path d="M410.3,186.1L92.1,504.3L-13.9,398.3L304.3,80.1z"></path><path d="M410.3,186.1L516.4,80.1L834.6,398.3L728.5,504.3z"></path><path d="M1259.3,186.1L941.1,504.3L835.1,398.3L1153.3,80.1z"></path><path d="M516.4,292.1L410.3,398.1L304.3,292.1L410.3,186z"></path></svg>