<svg width="1200" height="1200" version="1.2" xmlns="http://www.w3.org/2000/svg" viewBox="0 0 1200 1200"><style type="text/css">path {stroke-width: 1; vector-effect: non-scaling-stroke; fill:none; stroke: #000; stroke-linecap: round; stroke-linejoin: miter;}</style><path d="M75,675L225,675L225,1125L75,1125z"></path><path d="M525,675L675,675L675,1125L525,1125z"></path><path d="M675,975L1125,975L1125,1125L675,1125z"></path><path d="M675,675L1125,675L1125,825L675,825z"></path><path d="M-75,675L75,675L75,1125L-75,1125z"></path><path d="M225,675L375,675L375,1125L225,1125z"></path><path d="M375,675L525,675L525,1125L375,1125z"></path><path d="M675,525L1125,525L1125,675L675,675z"></path><path d="M75,375L525,375L525,525L75,525z"></path><path d="M75,525L525,525L525,675L75,675z"></path><path d="M675,825L1125,825L1125,975L675,975z"></path><path d="M525,75L675,75L675,525L525,525z"></path><path d="M675,-75L1125,-75L1125,75L675,75z"></path><path d="M675,75L825,75L825,525L675,525z"></path><path d="M825,75L975,75L975,525L825,525z"></path><path d="M975,75L1125,75L1125,525L975,525z"></path><path d="M75,75L525,75L525,225L75,225z"></path><path d="M-75,75L75,75L75,525L-75,525z"></path><path d="M75,225L525,225L525,375L75,375z"></path><path d="M75,-75L525,-75L525,75L75,75z"></path><path d="M-75,525L75,525L75,675L-75,675z"></path><path d="M525,-75L675,-75L675,75L525,75z"></path><path d="M-75,-75L75,-75L75,75L-75,75z"></path><path d="M525,525L675,525L675,675L525,675z"></path><path d="M1125,675L1275,675L1275,1125L1125,1125z"></path><path d="M1125,75L1275,75L1275,525L1125,525z"></path><path d="M1125,525L1275,525L1275,675L1125,675z"></path><path d="M1125,-75L1275,-75L1275,75L1125,75z"></path><path d="M675,1125L1125,1125L1125,1275L675,1275z"></path><path d="M75,1125L525,1125L525,1275L75,1275z"></path><path d="M525,1125L675,1125L675,1275L525,1275z"></path><path d="M-75,1125L75,1125L75,1275L-75,1275z"></path><path d="M1125,1125L1275,1125L1275,1275L1125,1275z"></path></svg>