<svg width="494.97" height="80" version="1.2" xmlns="http://www.w3.org/2000/svg" viewBox="0 0 494.97 80"><style type="text/css">path {stroke-width: 1; vector-effect: non-scaling-stroke; fill:none; stroke: #000; stroke-linecap: round; stroke-linejoin: miter;}</style><path d="M247.5,-250L247.5,-170L495,77.5L495,-2.5z"></path><path d="M247.5,-250L247.5,-170L0,77.5L0,-2.5z"></path><path d="M742.5,-250L742.5,-170L989.9,77.5L989.9,-2.5z"></path><path d="M742.5,-250L742.5,-170L495,77.5L495,-2.5z"></path><path d="M247.5,-170L247.5,-90L495,157.5L495,77.5z"></path><path d="M247.5,-170L247.5,-90L0,157.5L0,77.5z"></path><path d="M742.5,-170L742.5,-90L989.9,157.5L989.9,77.5z"></path><path d="M742.5,-170L742.5,-90L495,157.5L495,77.5z"></path><path d="M247.5,-90L247.5,-10L495,237.5L495,157.5z"></path><path d="M247.5,-90L247.5,-10L0,237.5L0,157.5z"></path><path d="M742.5,-90L742.5,-10L989.9,237.5L989.9,157.5z"></path><path d="M742.5,-90L742.5,-10L495,237.5L495,157.5z"></path><path d="M247.5,-10L247.5,70L495,317.5L495,237.5z"></path><path d="M247.5,-10L247.5,70L0,317.5L0,237.5z"></path><path d="M742.5,-10L742.5,70L989.9,317.5L989.9,237.5z"></path><path d="M742.5,-10L742.5,70L495,317.5L495,237.5z"></path><path d="M247.5,70L247.5,150L495,397.5L495,317.5z"></path><path d="M247.5,70L247.5,150L0,397.5L0,317.5z"></path><path d="M742.5,70L742.5,150L989.9,397.5L989.9,317.5z"></path><path d="M742.5,70L742.5,150L495,397.5L495,317.5z"></path></svg>