<svg width="600" height="600" version="1.2" xmlns="http://www.w3.org/2000/svg" viewBox="0 0 600 600"><style type="text/css">path {stroke-width: 1; vector-effect: non-scaling-stroke; fill:none; stroke: #000; stroke-linecap: round; stroke-linejoin: miter;}</style><path d="M250,100L400,100L400,250L250,250z"></path><path d="M100,400L550,400L550,550L100,550z"></path><path d="M100,100L250,100L250,250L100,250z"></path><path d="M100,250L250,250L250,400L100,400z"></path><path d="M400,-50L550,-50L550,400L400,400z"></path><path d="M-50,-50L400,-50L400,100L-50,100z"></path><path d="M250,250L400,250L400,400L250,400z"></path><path d="M-50,100L100,100L100,550L-50,550z"></path><path d="M550,-50L1000,-50L1000,100L550,100z"></path><path d="M550,100L700,100L700,550L550,550z"></path><path d="M400,550L550,550L550,1000L400,1000z"></path><path d="M-50,550L400,550L400,700L-50,700z"></path><path d="M550,550L1000,550L1000,700L550,700z"></path></svg>