<svg width="750" height="750" version="1.2" xmlns="http://www.w3.org/2000/svg" viewBox="0 0 750 750"><style type="text/css">path {stroke-width: 1; vector-effect: non-scaling-stroke; fill:none; stroke: #000; stroke-linecap: round; stroke-linejoin: miter;}</style><path d="M-10,-10L140,-10L140,440L-10,440z"></path><path d="M140,-10L290,-10L290,440L140,440z"></path><path d="M440,290L590,290L590,740L440,740z"></path><path d="M290,-10L740,-10L740,140L290,140z"></path><path d="M290,140L740,140L740,290L290,290z"></path><path d="M590,290L740,290L740,740L590,740z"></path><path d="M-10,440L440,440L440,590L-10,590z"></path><path d="M-10,590L440,590L440,740L-10,740z"></path><path d="M290,290L290,440L440,440L440,290z"></path><path d="M740,-10L890,-10L890,440L740,440z"></path><path d="M740,440L1190,440L1190,590L740,590z"></path><path d="M740,590L1190,590L1190,740L740,740z"></path><path d="M-10,740L140,740L140,1190L-10,1190z"></path><path d="M140,740L290,740L290,1190L140,1190z"></path><path d="M290,740L740,740L740,890L290,890z"></path><path d="M740,740L890,740L890,1190L740,1190z"></path></svg>