<svg width="420" height="420" version="1.2" xmlns="http://www.w3.org/2000/svg" viewBox="0 0 420 420"><style type="text/css">path {stroke-width: 1; vector-effect: non-scaling-stroke; fill:none; stroke: #000; stroke-linecap: round; stroke-linejoin: miter;}</style><path d="M-10,-10L157.6,157.6L115.2,200L-10,74.9z"></path><path d="M-10,-10L74.9,-10L200,115.2L157.6,157.6z"></path><path d="M74.9,-10L325.2,-10L265.2,50L134.9,50z"></path><path d="M134.9,50L265.2,50L200,115.2z"></path><path d="M410,74.9L74.9,410L-10,410L410,-10z"></path><path d="M50,134.9L115.2,200L50,265.2z"></path><path d="M350,134.9L350,265.2L284.8,200z"></path><path d="M350,265.2L350,134.9L410,74.9L410,325.2z"></path><path d="M284.9,200L410,325.2L410,410L242.4,242.4z"></path><path d="M200,284.9L242.4,242.4L410,410L325.2,410z"></path><path d="M134.9,350L200,284.8L265.2,350z"></path><path d="M265.2,350L325.1,410L74.8,410L134.8,350z"></path><path d="M-10,74.9L50,134.8L50,265.1L-10,325.1z"></path><path d="M-10,410L-10,325.2L325.1,-10L410,-10z"></path><path d="M410,-10L577.6,157.6L535.2,200L410,74.9z"></path><path d="M410,-10L494.9,-10L620,115.2L577.6,157.6z"></path><path d="M830,74.9L494.9,410L410,410L830,-10z"></path><path d="M410,74.9L470,134.8L470,265.1L410,325.1z"></path><path d="M410,410L410,325.2L745.1,-10L830,-10z"></path><path d="M-10,410L157.6,577.6L115.2,620L-10,494.9z"></path><path d="M-10,410L74.9,410L200,535.2L157.6,577.6z"></path><path d="M74.9,410L325.2,410L265.2,470L134.9,470z"></path><path d="M410,494.9L74.9,830L-10,830L410,410z"></path><path d="M-10,830L-10,745.2L325.1,410L410,410z"></path><path d="M410,410L577.6,577.6L535.2,620L410,494.9z"></path><path d="M410,410L494.9,410L620,535.2L577.6,577.6z"></path><path d="M830,494.9L494.9,830L410,830L830,410z"></path><path d="M410,830L410,745.2L745.1,410L830,410z"></path></svg>