<svg width="420" height="200" version="1.2" xmlns="http://www.w3.org/2000/svg" viewBox="0 0 420 200"><style type="text/css">.thumb-shape {stroke-width: 1; vector-effect: non-scaling-stroke; fill:none; stroke: #000; stroke-linecap: round; stroke-linejoin: miter;}</style><path d="M-14.2,28L159,-72L159,28L-51,149.2L-51,49.2z" class="thumb-shape"></path><path d="M159,-72L332.2,28L369,49.2L369,149.2L159,28z" class="thumb-shape"></path><path d="M159,-172L332.2,-72L369,-50.8L369,49.2L159,-72z" class="thumb-shape"></path><path d="M-14.2,-72L159,-172L159,-72L-51,49.2L-51,-50.8z" class="thumb-shape"></path><path d="M405.8,28L579,-72L579,28L369,149.2L369,49.2z" class="thumb-shape"></path><path d="M-14.2,228L159,128L159,228L-51,349.2L-51,249.2z" class="thumb-shape"></path><path d="M405.8,228L579,128L579,228L369,349.2L369,249.2z" class="thumb-shape"></path><path d="M159,128L332.2,228L369,249.2L369,349.2L159,228z" class="thumb-shape"></path><path d="M159,28L332.2,128L369,149.2L369,249.2L159,128z" class="thumb-shape"></path><path d="M405.8,-72L579,-172L579,-72L369,49.2L369,-50.8z" class="thumb-shape"></path><path d="M-14.2,128L159,28L159,128L-51,249.2L-51,149.2z" class="thumb-shape"></path><path d="M405.8,128L579,28L579,128L369,249.2L369,149.2z" class="thumb-shape"></path></svg>