<svg width="1000" height="1000" version="1.2" xmlns="http://www.w3.org/2000/svg" viewBox="0 0 1000 1000"><style type="text/css">path {stroke-width: 1; vector-effect: non-scaling-stroke; fill:none; stroke: #000; stroke-linecap: round; stroke-linejoin: miter;}</style><path d="M250,500L499.998,250.002L499.998,500.002z"></path><path d="M0,750L249.998,999.998L-0.002,999.998z"></path><path d="M1000,750L1249.998,999.998L999.998,999.998z"></path><path d="M0,500L250,500L499.998,749.998L499.998,999.998z"></path><path d="M250,500L500,500L500,750z"></path><path d="M0,-500L500.002,0.0019999999999527063L250.002,0.0019999999999527063L0.005,-249.995z"></path><path d="M0,500L500.002,1000.002L250.002,1000.002L0.005,750.005z"></path><path d="M500,250L749.998,499.998L499.998,499.998z"></path><path d="M0,0L250,0L0.002,249.998z"></path><path d="M0,500L500.002,-0.002L500.002,249.998L250.005,499.995z"></path><path d="M0,1500L500.002,999.998L500.002,1249.998L250.005,1499.995z"></path><path d="M500,-250L749.998,-499.998L999.998,-499.998L499.995,0.0049999999999954525z"></path><path d="M500,750L749.998,500.002L999.998,500.002L499.995,1000.005z"></path><path d="M500,0L-0.002,500.002L-0.002,250.002L249.995,0.005z"></path><path d="M1500,0L999.998,500.002L999.998,250.002L1249.995,0.005z"></path><path d="M-500,1000L0.0019999999999527063,499.998L0.0019999999999527063,749.998L-249.995,999.995z"></path><path d="M500,1000L1000.002,499.998L1000.002,749.998L750.005,999.995z"></path><path d="M-500,0L0.0019999999999527063,500.002L-249.99800000000005,500.002L-499.995,250.005z"></path><path d="M500,0L1000.002,500.002L750.002,500.002L500.005,250.005z"></path><path d="M500,0L750,0L999.998,249.998L999.998,499.998z"></path><path d="M750,0L1000,0L1000,250z"></path><path d="M750,0L999.998,-249.99800000000005L999.998,0.0019999999999527063z"></path><path d="M750,1000L999.998,750.002L999.998,1000.002z"></path><path d="M500,500L750,500L500.002,749.998z"></path></svg>