<svg width="600" height="600" version="1.2" xmlns="http://www.w3.org/2000/svg" viewBox="0 0 600 600"><style type="text/css">path {stroke-width: 1; vector-effect: non-scaling-stroke; fill:none; stroke: #000; stroke-linecap: round; stroke-linejoin: miter;}</style><path d="M0,75L75,75L78.929,75.103L82.847,75.411L86.743,75.924L90.607,76.64L94.429,77.558L98.197,78.674L101.901,79.986L105.532,81.49L109.079,83.182L112.533,85.057L115.884,87.11L119.123,89.336L122.241,91.729L125.229,94.281L128.08,96.986L130.785,99.837L133.337,102.825L135.73,105.943L137.956,109.182L140.009,112.533L141.884,115.987L143.576,119.534L145.08,123.165L146.392,126.869L147.508,130.638L148.426,134.459L149.142,138.323L149.655,142.22L149.963,146.137L150.066,150.066L0.066,150.066z"></path><path d="M0,0L3.929,0.103L7.847,0.411L11.743,0.924L15.607,1.64L19.429,2.558L23.197,3.674L26.901,4.986L30.532,6.49L34.079,8.182L37.533,10.057L40.884,12.11L44.123,14.336L47.241,16.729L50.229,19.281L53.08,21.986L55.785,24.837L58.337,27.825L60.73,30.943L62.956,34.182L65.009,37.533L66.884,40.987L68.576,44.534L70.08,48.165L71.392,51.869L72.508,55.638L73.426,59.459L74.142,63.323L74.655,67.22L74.963,71.137L75.066,75.066L0.066,75.066z"></path><path d="M0,150L150,150L150.103,153.929L150.411,157.847L150.924,161.743L151.64,165.607L152.558,169.429L153.674,173.197L154.986,176.901L156.49,180.532L158.182,184.079L160.057,187.533L162.11,190.884L164.336,194.123L166.729,197.241L169.281,200.229L171.986,203.08L174.837,205.785L177.825,208.337L180.943,210.73L184.182,212.956L187.533,215.009L190.987,216.884L194.534,218.576L198.165,220.08L201.869,221.392L205.638,222.508L209.459,223.426L213.323,224.142L217.22,224.655L221.137,224.963L225.066,225.066L0.066,225.066z"></path><path d="M150,0L225,0L225,225L221.071,224.897L217.153,224.589L213.257,224.076L209.393,223.36L205.571,222.442L201.803,221.326L198.099,220.014L194.468,218.51L190.921,216.818L187.467,214.943L184.116,212.89L180.877,210.664L177.759,208.271L174.771,205.719L171.92,203.014L169.215,200.163L166.663,197.175L164.27,194.057L162.044,190.818L159.991,187.467L158.116,184.013L156.424,180.466L154.92,176.835L153.608,173.131L152.492,169.362L151.574,165.541L150.858,161.677L150.345,157.78L150.037,153.863L149.934,149.934z"></path><path d="M225,0L300,0L300,75L300,150L300,225L300,300L296.071,299.897L292.153,299.589L288.257,299.076L284.393,298.36L280.571,297.442L276.803,296.326L273.099,295.014L269.468,293.51L265.921,291.818L262.467,289.943L259.116,287.89L255.877,285.664L252.759,283.271L249.771,280.719L246.92,278.014L244.215,275.163L241.663,272.175L239.27,269.057L237.044,265.818L234.991,262.467L233.116,259.013L231.424,255.466L229.92,251.835L228.608,248.131L227.492,244.362L226.574,240.541L225.858,236.677L225.345,232.78L225.037,228.863L224.934,224.934z"></path><path d="M75,0L150,0L150,150L149.897,146.071L149.589,142.153L149.076,138.257L148.36,134.393L147.442,130.571L146.326,126.803L145.014,123.099L143.51,119.468L141.818,115.921L139.943,112.467L137.89,109.116L135.664,105.877L133.271,102.759L130.719,99.771L128.014,96.92L125.163,94.215L122.175,91.663L119.057,89.27L115.818,87.044L112.467,84.991L109.013,83.116L105.466,81.424L101.835,79.92L98.131,78.608L94.362,77.492L90.541,76.574L86.677,75.858L82.78,75.345L78.863,75.037L74.934,74.934z"></path><path d="M0,0L75,0L75,75L74.897,71.071L74.589,67.153L74.076,63.257L73.36,59.393L72.442,55.571L71.326,51.803L70.014,48.099L68.51,44.468L66.818,40.921L64.943,37.467L62.89,34.116L60.664,30.877L58.271,27.759L55.719,24.771L53.014,21.92L50.163,19.215L47.175,16.663L44.057,14.27L40.818,12.044L37.467,9.991L34.013,8.116L30.466,6.424L26.835,4.92L23.131,3.608L19.362,2.492L15.541,1.574L11.677,0.858L7.78,0.345L3.863,0.037z"></path><path d="M0,225L225,225L225.103,228.929L225.411,232.847L225.924,236.743L226.64,240.607L227.558,244.429L228.674,248.197L229.986,251.901L231.49,255.532L233.182,259.079L235.057,262.533L237.11,265.884L239.336,269.123L241.729,272.241L244.281,275.229L246.986,278.08L249.837,280.785L252.825,283.337L255.943,285.73L259.182,287.956L262.533,290.009L265.987,291.884L269.534,293.576L273.165,295.08L276.869,296.392L280.638,297.508L284.459,298.426L288.323,299.142L292.22,299.655L296.137,299.963L300.066,300.066L225.066,300.066L150.066,300.066L75.066,300.066L0.066,300.066z"></path><path d="M150,300L225,300L225,375L221.071,375.103L217.153,375.411L213.257,375.924L209.393,376.64L205.571,377.558L201.803,378.674L198.099,379.986L194.468,381.49L190.921,383.182L187.467,385.057L184.116,387.11L180.877,389.336L177.759,391.729L174.771,394.281L171.92,396.986L169.215,399.837L166.663,402.825L164.27,405.943L162.044,409.182L159.991,412.533L158.116,415.987L156.424,419.534L154.92,423.165L153.608,426.869L152.492,430.638L151.574,434.459L150.858,438.323L150.345,442.22L150.037,446.137L149.934,450.066z"></path><path d="M0,-300L75,-300L75,-75L74.897,-71.07100000000003L74.589,-67.15300000000002L74.076,-63.25699999999995L73.36,-59.39300000000003L72.442,-55.571000000000026L71.326,-51.803L70.014,-48.099000000000046L68.51,-44.46799999999996L66.818,-40.92100000000005L64.943,-37.466999999999985L62.89,-34.115999999999985L60.664,-30.876999999999953L58.271,-27.759000000000015L55.719,-24.770999999999958L53.014,-21.91999999999996L50.163,-19.215000000000032L47.175,-16.66300000000001L44.057,-14.269999999999982L40.818,-12.043999999999983L37.467,-9.990999999999985L34.013,-8.115999999999985L30.466,-6.423999999999978L26.835,-4.919999999999959L23.131,-3.6079999999999472L19.362,-2.491999999999962L15.541,-1.5739999999999554L11.677,-0.8579999999999472L7.78,-0.3450000000000273L3.863,-0.03700000000003456L-0.066,0.06600000000003092z"></path><path d="M600,-300L675,-300L675,-75L674.897,-71.07100000000003L674.5889999999999,-67.15300000000002L674.076,-63.25699999999995L673.36,-59.39300000000003L672.442,-55.571000000000026L671.326,-51.803L670.014,-48.099000000000046L668.51,-44.46799999999996L666.818,-40.92100000000005L664.943,-37.466999999999985L662.89,-34.115999999999985L660.664,-30.876999999999953L658.271,-27.759000000000015L655.719,-24.770999999999958L653.014,-21.91999999999996L650.163,-19.215000000000032L647.175,-16.66300000000001L644.057,-14.269999999999982L640.818,-12.043999999999983L637.467,-9.990999999999985L634.013,-8.115999999999985L630.466,-6.423999999999978L626.835,-4.919999999999959L623.131,-3.6079999999999472L619.362,-2.491999999999962L615.541,-1.5739999999999554L611.677,-0.8579999999999472L607.78,-0.3450000000000273L603.863,-0.03700000000003456L599.934,0.06600000000003092z"></path><path d="M0,300L75,300L75,525L74.897,528.929L74.589,532.847L74.076,536.743L73.36,540.607L72.442,544.429L71.326,548.197L70.014,551.901L68.51,555.532L66.818,559.079L64.943,562.533L62.89,565.884L60.664,569.123L58.271,572.241L55.719,575.229L53.014,578.08L50.163,580.785L47.175,583.337L44.057,585.73L40.818,587.956L37.467,590.009L34.013,591.884L30.466,593.576L26.835,595.08L23.131,596.392L19.362,597.508L15.541,598.426L11.677,599.142L7.78,599.655L3.863,599.963L-0.066,600.066z"></path><path d="M600,300L675,300L675,525L674.897,528.929L674.5889999999999,532.847L674.076,536.743L673.36,540.607L672.442,544.429L671.326,548.197L670.014,551.901L668.51,555.532L666.818,559.079L664.943,562.533L662.89,565.884L660.664,569.123L658.271,572.241L655.719,575.229L653.014,578.08L650.163,580.785L647.175,583.337L644.057,585.73L640.818,587.956L637.467,590.009L634.013,591.884L630.466,593.576L626.835,595.08L623.131,596.392L619.362,597.508L615.541,598.426L611.677,599.142L607.78,599.655L603.863,599.963L599.934,600.066z"></path><path d="M75,300L150,300L150,450L149.897,453.929L149.589,457.847L149.076,461.743L148.36,465.607L147.442,469.429L146.326,473.197L145.014,476.901L143.51,480.532L141.818,484.079L139.943,487.533L137.89,490.884L135.664,494.123L133.271,497.241L130.719,500.229L128.014,503.08L125.163,505.785L122.175,508.337L119.057,510.73L115.818,512.956L112.467,515.009L109.013,516.884L105.466,518.576L101.835,520.08L98.131,521.392L94.362,522.508L90.541,523.426L86.677,524.142L82.78,524.655L78.863,524.963L74.934,525.066z"></path><path d="M73.36,540.59L74.076,536.726L74.589,532.829L74.897,528.912L75,524.983L300,524.983L300,599.983L0,599.983L3.929,599.88L7.847,599.572L11.743,599.059L15.607,598.343L19.429,597.425L23.197,596.309L26.902,594.997L30.532,593.493L34.08,591.801L37.533,589.926L40.884,587.873L44.123,585.647L47.241,583.254L50.229,580.702L53.08,577.997L55.785,575.146L58.338,572.157L60.73,569.04L62.956,565.801L65.009,562.45L66.885,558.996L68.577,555.449L70.081,551.818L71.392,548.114L72.509,544.345z"></path><path d="M225,300L300,300L296.071,300.103L292.153,300.411L288.257,300.924L284.393,301.64L280.571,302.558L276.803,303.674L273.099,304.986L269.468,306.49L265.921,308.182L262.467,310.057L259.116,312.11L255.877,314.336L252.759,316.729L249.771,319.281L246.92,321.986L244.215,324.837L241.663,327.825L239.27,330.943L237.044,334.182L234.991,337.533L233.116,340.987L231.424,344.534L229.92,348.165L228.608,351.869L227.492,355.638L226.574,359.459L225.858,363.323L225.345,367.22L225.037,371.137L224.934,375.066z"></path><path d="M171.97,396.97L174.821,394.265L177.809,391.712L180.927,389.32L184.166,387.094L187.517,385.041L190.97,383.165L194.518,381.473L198.148,379.97L201.853,378.658L205.621,377.541L209.443,376.624L213.307,375.908L217.203,375.395L221.121,375.087L225.05,374.984L300.05,374.984L300.05,449.984L150.05,449.984L150.153,446.055L150.461,442.137L150.974,438.241L151.69,434.377L152.608,430.555L153.724,426.787L155.036,423.082L156.54,419.452L158.231,415.904L160.107,412.451L162.16,409.1L164.386,405.861L166.778,402.743L169.331,399.755z"></path><path d="M246.97,321.97L249.821,319.265L252.809,316.712L255.927,314.32L259.166,312.094L262.517,310.041L265.97,308.165L269.518,306.473L273.148,304.97L276.853,303.658L280.621,302.541L284.443,301.624L288.307,300.908L292.203,300.395L296.121,300.087L300.05,299.984L300.05,374.984L225.05,374.984L225.153,371.055L225.461,367.137L225.974,363.241L226.69,359.377L227.608,355.555L228.724,351.787L230.036,348.082L231.54,344.452L233.231,340.904L235.107,337.451L237.16,334.1L239.386,330.861L241.778,327.743L244.331,324.755z"></path><path d="M149.9,453.93L150.003,450.001L300.003,450.001L300.003,525.001L75.003,525.001L78.932,524.898L82.849,524.59L86.746,524.077L90.61,523.361L94.431,522.444L98.2,521.327L101.904,520.015L105.535,518.512L109.082,516.82L112.536,514.944L115.887,512.891L119.126,510.665L122.243,508.273L125.232,505.72L128.083,503.015L130.788,500.164L133.34,497.176L135.733,494.058L137.959,490.819L140.012,487.468L141.887,484.015L143.579,480.467L145.083,476.837L146.395,473.132L147.511,469.364L148.429,465.542L149.145,461.678L149.658,457.782z"></path><path d="M450,450L600,450L600,525L525,525L521.071,524.897L517.153,524.589L513.257,524.076L509.393,523.36L505.571,522.442L501.803,521.326L498.099,520.014L494.468,518.51L490.921,516.818L487.467,514.943L484.116,512.89L480.877,510.664L477.759,508.271L474.771,505.719L471.92,503.014L469.215,500.163L466.663,497.175L464.27,494.057L462.044,490.818L459.991,487.467L458.116,484.013L456.424,480.466L454.92,476.835L453.608,473.131L452.492,469.362L451.574,465.541L450.858,461.677L450.345,457.78L450.037,453.863z"></path><path d="M525,525L600,525L600,600L596.071,599.897L592.153,599.589L588.257,599.076L584.393,598.36L580.571,597.442L576.803,596.326L573.099,595.014L569.468,593.51L565.921,591.818L562.467,589.943L559.116,587.89L555.877,585.664L552.759,583.271L549.771,580.719L546.92,578.014L544.215,575.163L541.663,572.175L539.27,569.057L537.044,565.818L534.991,562.467L533.116,559.013L531.424,555.466L529.92,551.835L528.608,548.131L527.492,544.362L526.574,540.541L525.858,536.677L525.345,532.78L525.037,528.863z"></path><path d="M375,375L600,375L600,450L450,450L449.897,446.071L449.589,442.153L449.076,438.257L448.36,434.393L447.442,430.571L446.326,426.803L445.014,423.099L443.51,419.468L441.818,415.921L439.943,412.467L437.89,409.116L435.664,405.877L433.271,402.759L430.719,399.771L428.014,396.92L425.163,394.215L422.175,391.663L419.057,389.27L415.818,387.044L412.467,384.991L409.013,383.116L405.466,381.424L401.835,379.92L398.131,378.608L394.362,377.492L390.541,376.574L386.677,375.858L382.78,375.345L378.863,375.037z"></path><path d="M375,-225L378.929,-224.897L382.847,-224.589L386.743,-224.07600000000002L390.607,-223.36L394.429,-222.442L398.197,-221.32600000000002L401.901,-220.014L405.532,-218.51L409.079,-216.81799999999998L412.533,-214.94299999999998L415.884,-212.89L419.123,-210.664L422.241,-208.27100000000002L425.229,-205.719L428.08,-203.014L430.785,-200.163L433.337,-197.175L435.73,-194.05700000000002L437.956,-190.81799999999998L440.009,-187.46699999999998L441.884,-184.01299999999998L443.576,-180.466L445.08,-176.83499999999998L446.392,-173.13099999999997L447.508,-169.36200000000002L448.426,-165.541L449.142,-161.67700000000002L449.655,-157.77999999999997L449.963,-153.863L450.066,-149.93400000000003L450.066,0.06600000000003092L375.066,0.06600000000003092z"></path><path d="M375,375L378.929,375.103L382.847,375.411L386.743,375.924L390.607,376.64L394.429,377.558L398.197,378.674L401.901,379.986L405.532,381.49L409.079,383.182L412.533,385.057L415.884,387.11L419.123,389.336L422.241,391.729L425.229,394.281L428.08,396.986L430.785,399.837L433.337,402.825L435.73,405.943L437.956,409.182L440.009,412.533L441.884,415.987L443.576,419.534L445.08,423.165L446.392,426.869L447.508,430.638L448.426,434.459L449.142,438.323L449.655,442.22L449.963,446.137L450.066,450.066L450.066,600.066L375.066,600.066z"></path><path d="M300,-300L303.929,-299.897L307.847,-299.589L311.743,-299.076L315.607,-298.36L319.429,-297.442L323.197,-296.326L326.901,-295.014L330.532,-293.51L334.079,-291.818L337.533,-289.943L340.884,-287.89L344.123,-285.664L347.241,-283.271L350.229,-280.719L353.08,-278.014L355.785,-275.163L358.337,-272.175L360.73,-269.057L362.956,-265.818L365.009,-262.467L366.884,-259.013L368.576,-255.466L370.08,-251.83499999999998L371.392,-248.13099999999997L372.508,-244.36200000000002L373.426,-240.541L374.142,-236.67700000000002L374.655,-232.77999999999997L374.963,-228.863L375.066,-224.93400000000003L375.066,0.06600000000003092L300.066,0.06600000000003092L300.066,-74.93399999999997L300.066,-149.93400000000003L300.066,-224.93400000000003z"></path><path d="M300,300L303.929,300.103L307.847,300.411L311.743,300.924L315.607,301.64L319.429,302.558L323.197,303.674L326.901,304.986L330.532,306.49L334.079,308.182L337.533,310.057L340.884,312.11L344.123,314.336L347.241,316.729L350.229,319.281L353.08,321.986L355.785,324.837L358.337,327.825L360.73,330.943L362.956,334.182L365.009,337.533L366.884,340.987L368.576,344.534L370.08,348.165L371.392,351.869L372.508,355.638L373.426,359.459L374.142,363.323L374.655,367.22L374.963,371.137L375.066,375.066L375.066,600.066L300.066,600.066L300.066,525.066L300.066,450.066L300.066,375.066z"></path><path d="M450,-150L450.103,-146.07100000000003L450.411,-142.15300000000002L450.924,-138.257L451.64,-134.39299999999997L452.558,-130.57100000000003L453.674,-126.803L454.986,-123.09899999999999L456.49,-119.46800000000002L458.182,-115.92099999999999L460.057,-112.46699999999998L462.11,-109.11599999999999L464.336,-105.87700000000001L466.729,-102.75900000000001L469.281,-99.77100000000002L471.986,-96.92000000000002L474.837,-94.21499999999997L477.825,-91.66300000000001L480.943,-89.26999999999998L484.182,-87.04399999999998L487.533,-84.99099999999999L490.987,-83.11599999999999L494.534,-81.42399999999998L498.165,-79.91999999999996L501.869,-78.60799999999995L505.638,-77.49199999999996L509.459,-76.57399999999996L513.323,-75.85799999999995L517.22,-75.34500000000003L521.137,-75.03700000000003L525.066,-74.93399999999997L525.066,0.06600000000003092L450.066,0.06600000000003092z"></path><path d="M450,450L450.103,453.929L450.411,457.847L450.924,461.743L451.64,465.607L452.558,469.429L453.674,473.197L454.986,476.901L456.49,480.532L458.182,484.079L460.057,487.533L462.11,490.884L464.336,494.123L466.729,497.241L469.281,500.229L471.986,503.08L474.837,505.785L477.825,508.337L480.943,510.73L484.182,512.956L487.533,515.009L490.987,516.884L494.534,518.576L498.165,520.08L501.869,521.392L505.638,522.508L509.459,523.426L513.323,524.142L517.22,524.655L521.137,524.963L525.066,525.066L525.066,600.066L450.066,600.066z"></path><path d="M-75,-75L-74.89700000000005,-71.07100000000003L-74.58900000000006,-67.15300000000002L-74.07600000000002,-63.25699999999995L-73.36000000000001,-59.39300000000003L-72.44200000000001,-55.571000000000026L-71.32600000000002,-51.803L-70.01400000000001,-48.099000000000046L-68.50999999999999,-44.46799999999996L-66.81799999999998,-40.92100000000005L-64.94299999999998,-37.466999999999985L-62.889999999999986,-34.115999999999985L-60.66399999999999,-30.876999999999953L-58.27099999999996,-27.759000000000015L-55.71900000000005,-24.770999999999958L-53.01400000000001,-21.91999999999996L-50.16300000000001,-19.215000000000032L-47.174999999999955,-16.66300000000001L-44.057000000000016,-14.269999999999982L-40.817999999999984,-12.043999999999983L-37.466999999999985,-9.990999999999985L-34.013000000000034,-8.115999999999985L-30.466000000000008,-6.423999999999978L-26.835000000000036,-4.919999999999959L-23.130999999999972,-3.6079999999999472L-19.361999999999966,-2.491999999999962L-15.541000000000054,-1.5739999999999554L-11.677000000000021,-0.8579999999999472L-7.779999999999973,-0.3450000000000273L-3.8630000000000564,-0.03700000000003456L0.06600000000003092,0.06600000000003092L-74.93399999999997,0.06600000000003092z"></path><path d="M525,-75L525.103,-71.07100000000003L525.411,-67.15300000000002L525.924,-63.25699999999995L526.64,-59.39300000000003L527.558,-55.571000000000026L528.674,-51.803L529.986,-48.099000000000046L531.49,-44.46799999999996L533.182,-40.92100000000005L535.057,-37.466999999999985L537.11,-34.115999999999985L539.336,-30.876999999999953L541.729,-27.759000000000015L544.281,-24.770999999999958L546.986,-21.91999999999996L549.837,-19.215000000000032L552.825,-16.66300000000001L555.943,-14.269999999999982L559.182,-12.043999999999983L562.533,-9.990999999999985L565.987,-8.115999999999985L569.534,-6.423999999999978L573.165,-4.919999999999959L576.869,-3.6079999999999472L580.638,-2.491999999999962L584.459,-1.5739999999999554L588.323,-0.8579999999999472L592.22,-0.3450000000000273L596.137,-0.03700000000003456L600.066,0.06600000000003092L525.066,0.06600000000003092z"></path><path d="M-75,525L-74.89700000000005,528.929L-74.58900000000006,532.847L-74.07600000000002,536.743L-73.36000000000001,540.607L-72.44200000000001,544.429L-71.32600000000002,548.197L-70.01400000000001,551.901L-68.50999999999999,555.532L-66.81799999999998,559.079L-64.94299999999998,562.533L-62.889999999999986,565.884L-60.66399999999999,569.123L-58.27099999999996,572.241L-55.71900000000005,575.229L-53.01400000000001,578.08L-50.16300000000001,580.785L-47.174999999999955,583.337L-44.057000000000016,585.73L-40.817999999999984,587.956L-37.466999999999985,590.009L-34.013000000000034,591.884L-30.466000000000008,593.576L-26.835000000000036,595.08L-23.130999999999972,596.392L-19.361999999999966,597.508L-15.541000000000054,598.426L-11.677000000000021,599.142L-7.779999999999973,599.655L-3.8630000000000564,599.963L0.06600000000003092,600.066L-74.93399999999997,600.066z"></path><path d="M525,525L525.103,528.929L525.411,532.847L525.924,536.743L526.64,540.607L527.558,544.429L528.674,548.197L529.986,551.901L531.49,555.532L533.182,559.079L535.057,562.533L537.11,565.884L539.336,569.123L541.729,572.241L544.281,575.229L546.986,578.08L549.837,580.785L552.825,583.337L555.943,585.73L559.182,587.956L562.533,590.009L565.987,591.884L569.534,593.576L573.165,595.08L576.869,596.392L580.638,597.508L584.459,598.426L588.323,599.142L592.22,599.655L596.137,599.963L600.066,600.066L525.066,600.066z"></path><path d="M300,300L375,300L450,300L525,300L600,300L600,375L375,375L374.897,371.071L374.589,367.153L374.076,363.257L373.36,359.393L372.442,355.571L371.326,351.803L370.014,348.099L368.51,344.468L366.818,340.921L364.943,337.467L362.89,334.116L360.664,330.877L358.271,327.759L355.719,324.771L353.014,321.92L350.163,319.215L347.175,316.663L344.057,314.27L340.818,312.044L337.467,309.991L334.013,308.116L330.466,306.424L326.835,304.92L323.131,303.608L319.362,302.492L315.541,301.574L311.677,300.858L307.78,300.345L303.863,300.037z"></path><path d="M445.02,176.88L446.332,173.175L447.448,169.407L448.365,165.586L449.082,161.722L449.595,157.825L449.903,153.907L450.006,149.979L450.006,299.979L375.006,299.979L375.006,224.979L378.934,224.876L382.852,224.568L386.749,224.055L390.613,223.338L394.434,222.421L398.203,221.305L401.907,219.993L405.538,218.489L409.085,216.797L412.539,214.922L415.89,212.868L419.129,210.642L422.246,208.25L425.235,205.698L428.086,202.992L430.791,200.142L433.343,197.153L435.736,194.035L437.962,190.797L440.015,187.446L441.89,183.992L443.582,180.445z"></path><path d="M-53.02999999999997,21.97L-50.178999999999974,19.265L-47.19100000000003,16.712L-44.07299999999998,14.32L-40.833999999999946,12.094L-37.48299999999995,10.041L-34.02999999999997,8.165L-30.48199999999997,6.473L-26.851999999999975,4.97L-23.147000000000048,3.658L-19.37900000000002,2.541L-15.557000000000016,1.624L-11.692999999999984,0.908L-7.7970000000000255,0.395L-3.879000000000019,0.087L0.049999999999954525,-0.016L0.049999999999954525,299.984L-74.95000000000005,299.984L-74.95000000000005,74.984L-74.84699999999998,71.055L-74.53899999999999,67.137L-74.02599999999995,63.241L-73.30999999999995,59.377L-72.39300000000003,55.555L-71.27599999999995,51.787L-69.96400000000006,48.082L-68.46100000000001,44.452L-66.769,40.904L-64.89300000000003,37.451L-62.84000000000003,34.1L-60.61400000000003,30.861L-58.22199999999998,27.743L-55.66899999999998,24.755z"></path><path d="M546.97,21.97L549.821,19.265L552.809,16.712L555.927,14.32L559.166,12.094L562.517,10.041L565.97,8.165L569.518,6.473L573.148,4.97L576.853,3.658L580.621,2.541L584.443,1.624L588.307,0.908L592.203,0.395L596.121,0.087L600.05,-0.016L600.05,299.984L525.05,299.984L525.05,74.984L525.153,71.055L525.461,67.137L525.974,63.241L526.69,59.377L527.607,55.555L528.724,51.787L530.036,48.082L531.539,44.452L533.231,40.904L535.107,37.451L537.16,34.1L539.386,30.861L541.778,27.743L544.331,24.755z"></path><path d="M-53.02999999999997,621.97L-50.178999999999974,619.265L-47.19100000000003,616.712L-44.07299999999998,614.32L-40.833999999999946,612.094L-37.48299999999995,610.041L-34.02999999999997,608.165L-30.48199999999997,606.473L-26.851999999999975,604.97L-23.147000000000048,603.658L-19.37900000000002,602.541L-15.557000000000016,601.624L-11.692999999999984,600.908L-7.7970000000000255,600.395L-3.879000000000019,600.087L0.049999999999954525,599.984L0.049999999999954525,899.9839999999999L-74.95000000000005,899.9839999999999L-74.95000000000005,674.984L-74.84699999999998,671.0550000000001L-74.53899999999999,667.137L-74.02599999999995,663.241L-73.30999999999995,659.377L-72.39300000000003,655.555L-71.27599999999995,651.787L-69.96400000000006,648.082L-68.46100000000001,644.452L-66.769,640.904L-64.89300000000003,637.451L-62.84000000000003,634.1L-60.61400000000003,630.861L-58.22199999999998,627.743L-55.66899999999998,624.755z"></path><path d="M546.97,621.97L549.821,619.265L552.809,616.712L555.927,614.32L559.166,612.094L562.517,610.041L565.97,608.165L569.518,606.473L573.148,604.97L576.853,603.658L580.621,602.541L584.443,601.624L588.307,600.908L592.203,600.395L596.121,600.087L600.05,599.984L600.05,899.9839999999999L525.05,899.9839999999999L525.05,674.984L525.153,671.0550000000001L525.461,667.137L525.974,663.241L526.69,659.377L527.607,655.555L528.724,651.787L530.036,648.082L531.539,644.452L533.231,640.904L535.107,637.451L537.16,634.1L539.386,630.861L541.778,627.743L544.331,624.755z"></path><path d="M471.97,96.97L474.821,94.265L477.809,91.712L480.927,89.32L484.166,87.094L487.517,85.041L490.97,83.165L494.518,81.473L498.148,79.97L501.853,78.658L505.621,77.541L509.443,76.624L513.307,75.908L517.203,75.395L521.121,75.087L525.05,74.984L525.05,299.984L450.05,299.984L450.05,149.984L450.153,146.055L450.461,142.137L450.974,138.241L451.69,134.377L452.608,130.555L453.724,126.787L455.036,123.082L456.54,119.452L458.231,115.904L460.107,112.451L462.16,109.1L464.386,105.861L466.778,102.743L469.331,99.755z"></path><path d="M300,0L600,0L596.071,0.103L592.153,0.411L588.257,0.924L584.393,1.64L580.571,2.558L576.803,3.674L573.099,4.986L569.468,6.49L565.921,8.182L562.467,10.057L559.116,12.11L555.877,14.336L552.759,16.729L549.771,19.281L546.92,21.986L544.215,24.837L541.663,27.825L539.27,30.943L537.044,34.182L534.991,37.533L533.116,40.987L531.424,44.534L529.92,48.165L528.608,51.869L527.492,55.638L526.574,59.459L525.858,63.323L525.345,67.22L525.037,71.137L524.934,75.066L299.934,75.066z"></path><path d="M374.9,228.93L375.003,225.001L375.003,300.001L300.003,300.001L303.932,299.898L307.849,299.59L311.746,299.077L315.61,298.361L319.431,297.444L323.2,296.327L326.904,295.015L330.535,293.512L334.082,291.82L337.536,289.944L340.887,287.891L344.126,285.665L347.243,283.273L350.232,280.72L353.083,278.015L355.788,275.164L358.34,272.176L360.733,269.058L362.959,265.819L365.012,262.468L366.887,259.015L368.579,255.467L370.083,251.837L371.395,248.132L372.511,244.364L373.429,240.542L374.145,236.678L374.658,232.782z"></path><path d="M300,150L450,150L449.897,153.929L449.589,157.847L449.076,161.743L448.36,165.607L447.442,169.429L446.326,173.197L445.014,176.901L443.51,180.532L441.818,184.079L439.943,187.533L437.89,190.884L435.664,194.123L433.271,197.241L430.719,200.229L428.014,203.08L425.163,205.785L422.175,208.337L419.057,210.73L415.818,212.956L412.467,215.009L409.013,216.884L405.466,218.576L401.835,220.08L398.131,221.392L394.362,222.508L390.541,223.426L386.677,224.142L382.78,224.655L378.863,224.963L374.934,225.066L299.934,225.066z"></path><path d="M300,225L375,225L374.897,228.929L374.589,232.847L374.076,236.743L373.36,240.607L372.442,244.429L371.326,248.197L370.014,251.901L368.51,255.532L366.818,259.079L364.943,262.533L362.89,265.884L360.664,269.123L358.271,272.241L355.719,275.229L353.014,278.08L350.163,280.785L347.175,283.337L344.057,285.73L340.818,287.956L337.467,290.009L334.013,291.884L330.466,293.576L326.835,295.08L323.131,296.392L319.362,297.508L315.541,298.426L311.677,299.142L307.78,299.655L303.863,299.963L299.934,300.066z"></path><path d="M300,75L525,75L521.071,75.103L517.153,75.411L513.257,75.924L509.393,76.64L505.571,77.558L501.803,78.674L498.099,79.986L494.468,81.49L490.921,83.182L487.467,85.057L484.116,87.11L480.877,89.336L477.759,91.729L474.771,94.281L471.92,96.986L469.215,99.837L466.663,102.825L464.27,105.943L462.044,109.182L459.991,112.533L458.116,115.987L456.424,119.534L454.92,123.165L453.608,126.869L452.492,130.638L451.574,134.459L450.858,138.323L450.345,142.22L450.037,146.137L449.934,150.066L299.934,150.066z"></path></svg>