<svg width="300" height="400" version="1.2" xmlns="http://www.w3.org/2000/svg" viewBox="0 0 300 400"><style type="text/css">.thumb-shape {stroke-width: 1; vector-effect: non-scaling-stroke; fill:none; stroke: #000; stroke-linecap: round; stroke-linejoin: miter;}</style><path d="M-1,49L299,49L299,149L-1,149z" class="thumb-shape"></path><path d="M-76,-51L74,-51L74,49L-76,49z" class="thumb-shape"></path><path d="M-1,249L299,249L299,349L-1,349z" class="thumb-shape"></path><path d="M-151,149L149,149L149,249L-151,249z" class="thumb-shape"></path><path d="M74,-51L224,-51L224,49L74,49z" class="thumb-shape"></path><path d="M299,49L599,49L599,149L299,149z" class="thumb-shape"></path><path d="M224,-51L374,-51L374,49L224,49z" class="thumb-shape"></path><path d="M-76,349L74,349L74,449L-76,449z" class="thumb-shape"></path><path d="M224,349L374,349L374,449L224,449z" class="thumb-shape"></path><path d="M299,249L599,249L599,349L299,349z" class="thumb-shape"></path><path d="M149,149L449,149L449,249L149,249z" class="thumb-shape"></path><path d="M74,349L224,349L224,449L74,449z" class="thumb-shape"></path></svg>