<svg width="261" height="261" version="1.2" xmlns="http://www.w3.org/2000/svg" viewBox="0 0 261 261"><style type="text/css">path {stroke-width: 1; vector-effect: non-scaling-stroke; fill:none; stroke: #000; stroke-linecap: round; stroke-linejoin: miter;}</style><path d="M-88.6,41.1L-50.3,-51.3L-12.1,41.1L80.3,79.4L-12.1,117.6L-50.3,210L-88.6,117.6L-181,79.4z"></path><path d="M-12.1,117.6L80.3,79.4L42,171.8L-50.3,210z"></path><path d="M-50.3,-51.3L42,-13L80.3,79.4L-12.1,41.1z"></path><path d="M42,-89.6L80.3,-181.9L118.6,-89.6L211,-51.3L118.6,-13L80.3,79.4L42,-13L-50.3,-51.3z"></path><path d="M118.6,-13L211,-51.3L172.7,41.1L80.3,79.4z"></path><path d="M80.3,-181.9L172.7,-143.7L211,-51.3L118.6,-89.6z"></path><path d="M172.4,41.1L210.7,-51.3L248.9,41.1L341.3,79.4L248.9,117.6L210.7,210L172.4,117.6L80,79.4z"></path><path d="M-88.6,302.1L-50.3,209.7L-12.1,302.1L80.3,340.4L-12.1,378.6L-50.3,471L-88.6,378.6L-181,340.4z"></path><path d="M172.4,302.1L210.7,209.7L248.9,302.1L341.3,340.4L248.9,378.6L210.7,471L172.4,378.6L80,340.4z"></path><path d="M248.9,117.6L341.3,79.4L303,171.8L210.7,210z"></path><path d="M210.7,-51.3L303,-13L341.3,79.4L248.9,41.1z"></path><path d="M-50.3,209.7L42,248L80.3,340.4L-12.1,302.1z"></path><path d="M210.7,209.7L303,248L341.3,340.4L248.9,302.1z"></path><path d="M303,-89.6L341.3,-181.9L379.6,-89.6L472,-51.3L379.6,-13L341.3,79.4L303,-13L210.7,-51.3z"></path><path d="M42,171.4L80.3,79.1L118.6,171.4L211,209.7L118.6,248L80.3,340.4L42,248L-50.3,209.7z"></path><path d="M303,171.4L341.3,79.1L379.6,171.4L472,209.7L379.6,248L341.3,340.4L303,248L210.7,209.7z"></path><path d="M118.6,248L211,209.7L172.7,302.1L80.3,340.4z"></path><path d="M80.3,79.1L172.7,117.3L211,209.7L118.6,171.4z"></path></svg>