<svg width="2100" height="2100" version="1.2" xmlns="http://www.w3.org/2000/svg" viewBox="0 0 2100 2100"><style type="text/css">path {stroke-width: 1; vector-effect: non-scaling-stroke; fill:none; stroke: #000; stroke-linecap: round; stroke-linejoin: miter;}</style><path d="M470.4,964.3L501.2,936.1L516.6,921L524.3,914.5L532,914.5L566.7,914.5L605.2,925.3L643.7,929.7L716.8,938.3L784.2,944.8L815,947L830.4,949.1L845.8,955.6L849.6,972.9L847.7,990.2L826.5,1018.3L807.3,1048.6L790,1085.4L774.6,1120L763,1154.6L755.3,1171.9L741.8,1182.7L711,1187L680.2,1184.9L647.5,1174.1L576.3,1139.5L507,1113.5L433.9,1087.5L401.1,1070.2L393.4,1068.1L387.7,1061.6L383.8,1052.9L383.8,1044.3L385.7,1042.1L414.6,1027L441.6,996.7z"></path><path d="M282.3,-228.2L334.8,-266.3L346.5,-271.8L358.2,-274.5L384.5,-271.8L399.1,-258.2L404.9,-247.3L413.7,-225.5L419.5,-181.9L434.1,-83.8L434.1,-56.5L439.9,-34.7L439.9,-12.9L439.9,-2L430.5,2.9L329,-10.2L273.5,-23.8L267.7,-25.2L256,-34.7L241.4,-53.8L229.7,-100.1L215.1,-141L215.1,-146.5L241.4,-192.8z"></path><path d="M282.3,1871.8L334.8,1833.7L346.5,1828.2L358.2,1825.5L384.5,1828.2L399.1,1841.8L404.9,1852.7L413.7,1874.5L419.5,1918.1L434.1,2016.2L434.1,2043.5L439.9,2065.3L439.9,2087.1L439.9,2098L430.5,2102.9L329,2089.8L273.5,2076.2L267.7,2074.8L256,2065.3L241.4,2046.2L229.7,1999.9L215.1,1959L215.1,1953.5L241.4,1907.2z"></path><path d="M247.3,723.1L281.8,713.2L356.5,677.2L389.1,641.2L404.4,621.6L412.1,615L421.7,598.6L437,582.3L456.2,565.9L471.5,556.1L490.7,549.5L497.2,549.5L527.1,585.5L554,631.4L552,690.3L546.3,749.3L536.7,801.7L527.1,824.6L509.9,844.2L473.5,860.6L458.1,870.4L438.9,873.7L404.4,880.2L364.2,893.3L329.7,919.5L293.3,939.2L262.6,945.7L228.1,945.7L212.8,945.7L199.3,929.3L170.6,870.4L143.7,824.6L133.8,807.6L132.7,799.3L132.7,797.5L132.7,794.9L133,791.3L133.5,788.7L134.4,780.3L138,775.5L216.6,742.7z"></path><path d="M1209.3,1796.2L1223.7,1783.5L1238.2,1770.8L1247.9,1767.1L1253.7,1768.5L1293.7,1780.1L1323.9,1795.4L1354.2,1810.8L1383.7,1821.9L1397.4,1829.2L1411.5,1834.6L1441,1837.6L1505.9,1837.1L1521.4,1834.8L1536.9,1840.5L1562.8,1862.9L1607,1931.9L1610.9,1942.9L1610.9,1951L1604.3,1969.6L1597.8,1988.1L1589.1,2002.2L1567.4,2037.3L1534.1,2069.6L1518.6,2071.9L1504.5,2066.5L1474.3,2059.3L1434.6,2045.7L1404,2032.3L1341.3,2013.2L1277.9,1998L1244.7,1990.1L1230.7,1984.7L1217.7,1973.5L1205.5,1958.5L1199.1,1936.8L1192.8,1890.9L1193.2,1864.8L1194.3,1843L1197.6,1812.3L1198.5,1810z"></path><path d="M797.9,752.8L840,743L887.4,719.3L933,691.7L955.8,679.9L980.4,672L1001.5,666.1L1024.3,664.1L1054.1,666.1L1060.2,666.1L1066.4,672L1066.4,677.9L1059.4,701.6L1047.1,723.3L1029.5,772.6L1020.8,798.2L999.7,819.9L976.9,839.6L955.8,847.5L915.5,849.4L873.4,855.4L831.2,853.4L820.7,847.5L811.9,839.6L797.9,815.9L772.8,774.5L771.6,766.6L773.3,758.7L776.8,756.8z"></path><path d="M1783.1,278.3L1805.7,261.1L1826,243.3L1845.6,228L1876.1,210.4L1892.4,207L1902,209.6L1906.8,210.9L1908,216.3L1909.1,221.8L1911.3,232.7L1912.1,258.7L1915.3,285.3L1913.6,310.7L1906.2,357.7L1911.1,387.3L1909.5,412.7L1903,436.7L1891.8,459.5L1862.1,503.1L1841.2,523.3L1821.2,533.1L1819.9,535.6L1814.4,536.7L1804.1,536.5L1787.6,511.5L1742.3,478.7L1718.2,472.3L1709.4,457L1709.6,446.8L1720.7,395.6L1736.7,345.7L1740.5,331.3L1747.9,323L1764.6,299.1z"></path><path d="M1102.6,459.1L1153.2,427.1L1254.5,384.4L1305.1,373.8L1330.4,366.6L1355.8,370.2L1371.6,395.1L1368.4,423.5L1349.4,480.4L1330.4,537.3L1317.8,565.8L1302,590.7L1286.1,615.6L1260.8,633.4L1210.2,651.1L1159.5,661.8L1137.4,640.5L1124.7,612L1102.6,548L1077.2,491.1L1074.1,484L1074.1,476.9L1080.4,473.3L1089.9,462.7z"></path><path d="M1134.8,1442.5L1169.2,1430.4L1203.6,1420.7L1240.1,1418.3L1261.6,1413.5L1278.8,1403.8L1321.7,1384.5L1358.3,1374.8L1392.7,1370L1433.5,1372.4L1467.9,1372.4L1504.4,1379.7L1525.9,1386.9L1532.3,1394.2L1534.5,1403.8L1528,1437.6L1523.7,1456.9L1521.6,1476.3L1515.1,1510.1L1500.1,1551.1L1489.3,1599.4L1465.7,1635.6L1450.7,1647.7L1437.8,1647.7L1289.5,1645.3L1205.7,1645.3L1167,1647.7L1158.4,1645.3L1149.9,1640.4L1141.3,1628.4L1130.5,1611.4L1124.1,1592.1L1115.5,1551.1L1106.9,1512.5L1095.8,1483.5L1095.8,1461.9L1100.4,1459.4z"></path><path d="M67.8,1066.9L85.4,1044.5L106.4,1044.5L137.9,1062.6L173,1075.8L269.9,1120.1L332.7,1138.3L368,1155L381.6,1160.7L391,1167L420.4,1200.3L451.3,1231.3L477.4,1265.8L496.8,1306.1L508.4,1327.5L511.4,1350L501,1377.2L488.3,1396.1L472.1,1412.6L454.2,1427.9L409.7,1459.6L361.6,1488.9L315.2,1515.9L262.5,1525.1L236.8,1524.9L220.7,1514.2L190.2,1490.3L124.1,1446.1L55.9,1393.6L12.9,1361.4L2.9,1337.7L1.7,1316.4L0,1287.9L3.7,1263.1L23.2,1214.6L42.7,1166.2L53.7,1118.9z"></path><path d="M1359.8,39.8L1378.6,30.5L1395.5,25.8L1470.5,21.1L1541.8,25.8L1626.2,14.1L1667.5,4.7L1703.2,0L1723,0.7L1730.6,5.4L1732.9,8.9L1737.2,17.2L1739,21.3L1739.5,24.8L1740.9,33L1742.3,48.8L1741.4,65.3L1738.6,82.9L1734.3,98.2L1730.6,114L1730.1,115.2L1725,126.5L1710.7,138.2L1671.3,171L1650.6,192.1L1639.4,210.8L1615,255.3L1605.6,274L1590.6,290.4L1586.8,304.5L1581.2,311.5L1566.2,318.5L1528.7,325.6L1461.1,323.2L1421.7,306.8L1384.2,278.7L1348.6,248.3L1333.6,236.6L1325.8,223.6L1322.3,222.5L1311,213.1L1309.2,208.5L1303.5,201.4L1296,178L1294.2,159.3L1294.2,135.8L1299.8,117.1L1309.2,93.7L1322.3,74.9z"></path><path d="M1359.8,2139.8L1378.6,2130.5L1395.5,2125.8L1470.5,2121.1L1541.8,2125.8L1626.2,2114.1L1667.5,2104.7L1703.2,2100L1723,2100.7L1730.6,2105.4L1732.9,2108.9L1737.2,2117.2L1739,2121.3L1739.5,2124.8L1740.9,2133L1742.3,2148.8L1741.4,2165.3L1738.6,2182.9L1734.3,2198.2L1730.6,2214L1730.1,2215.2L1725,2226.5L1710.7,2238.2L1671.3,2271L1650.6,2292.1L1639.4,2310.8L1615,2355.3L1605.6,2374L1590.6,2390.4L1586.8,2404.5L1581.2,2411.5L1566.2,2418.5L1528.7,2425.6L1461.1,2423.2L1421.7,2406.8L1384.2,2378.7L1348.6,2348.3L1333.6,2336.6L1325.8,2323.6L1322.3,2322.5L1311,2313.1L1309.2,2308.5L1303.5,2301.4L1296,2278L1294.2,2259.3L1294.2,2235.8L1299.8,2217.1L1309.2,2193.7L1322.3,2174.9z"></path><path d="M22.3,89.6L30,82.4L32.5,79.5L38.3,77.8L44.8,76.6L50.6,76.2L55.6,73.7L80,74.8L105.8,74.8L129.5,79.6L172.6,94.1L198.5,103.8L220,118.3L237.2,140.1L245.9,164.3L267.4,270.8L291.1,372.4L297.5,396.6L310.5,420.8L321.2,445L325.5,471.7L321.2,486.2L310.5,495.9L288.9,500.7L245.9,495.9L202.8,488.6L159.7,462L108,430.5L56.3,406.3L32.6,399L29.6,398.5L27.3,396L25.2,392.1L20.5,384.5L17.5,380.7L14.4,377.9L12.8,376.9L11.7,375.6L9.3,374.6L6.9,370.7L6.9,367.8L5.6,334.7L4.3,248.2L5.6,142.9L12,106.9z"></path><path d="M623.5,598.8L659.7,586L677.8,580.9L696,578.4L729.9,575.9L766.2,575.9L786.5,578.4L793.3,588.6L791.1,593.7L777.5,634.4L759.4,670L736.7,708.2L714.1,741.3L677.8,748.9L646.1,751.4L628,748.9L623.5,746.4L623.5,741.3L623.5,731.1L623.5,695.5L623.5,654.7L618.9,634.4L614.9,625.3L612.4,624.8L610.5,621.4L612.2,614L612.2,608.9L616.7,606.4z"></path><path d="M438.8,75.3L449.9,67.9L472,58.1L523.7,45.8L553.2,40.9L579,39.7L633.1,39.7L683.5,42.1L710.6,47L722.9,53.2L726.6,56.9L727.8,61.8L729,74.1L725.3,87.6L709.3,111L656.5,152.8L630.6,178.6L614.7,199.5L602.4,210.6L587.6,220.4L560.5,235.2L545.8,246.3L533.5,257.3L521.2,268.4L511.3,272.1L496.6,274.6L484.3,274.6L452.3,272.1L440,268.4L428.9,258.6L421.6,235.2L414.2,209.4L411.7,186L411.7,130.7L411.7,128.2L415.4,109.8L431.4,86.4z"></path><path d="M-275.2,662L-256.2,639.2L-240.1,628.9L-160.2,588.9L-106.9,578.1L-81.8,576.5L-64.4,575.4L-49.8,576.3L55.9,585.9L79,594.7L92.5,610.8L99.8,657.8L104.3,683.6L100.4,713.5L98,767.7L74.9,840.1L66.5,857.9L63.7,870.5L60.8,883L-16.2,986.3L-67.2,1010.1L-81.8,1014.2L-112.4,1022.7L-126,1026.3L-137.2,1023.1L-161.2,1011.9L-205,987.5L-255.8,957.9L-309.9,932.8L-368.1,912.8L-385.4,866L-384.4,852.4L-366.6,819.3L-337.3,763.7L-314.4,711z"></path><path d="M1824.8,662L1843.8,639.2L1859.9,628.9L1939.8,588.9L1993.1,578.1L2018.2,576.5L2035.6,575.4L2050.2,576.3L2155.9,585.9L2179,594.7L2192.5,610.8L2199.8,657.8L2204.4,683.6L2200.4,713.5L2198,767.7L2174.9,840.1L2166.5,857.9L2163.7,870.5L2160.8,883L2083.8,986.3L2032.8,1010.1L2018.2,1014.2L1987.6,1022.7L1974,1026.3L1962.8,1023.1L1938.8,1011.9L1895,987.5L1844.2,957.9L1790.1,932.8L1731.9,912.8L1714.6,866L1715.6,852.4L1733.4,819.3L1762.7,763.7L1785.6,711z"></path><path d="M965.1,956.3L981.2,940.8L997.2,933.1L1033.9,933.1L1075.2,938.3L1162.4,958.9L1235.8,987.2L1274.8,1007.9L1293.1,1018.2L1309.2,1033.6L1325.2,1051.7L1336.7,1072.3L1343.6,1092.9L1348.2,1113.5L1345.9,1198.6L1343.6,1234.6L1333.6,1270.7L1327,1277.3L1313.8,1281L1295.4,1281L1258.7,1278.5L1100.5,1242.4L1022.5,1224.3L983.5,1214L946.8,1201.1L928.4,1193.4L919.3,1188.3L914.7,1178L912.4,1136.7L912.4,1116.1L917,1095.5L919.7,1083.4L921.6,1080L926.8,1059.4L930.7,1043.9L946.8,1002.7z"></path><path d="M-103.6,-160.7L-12.5,-191.7L49.2,-204L80.4,-204.1L92,-203.5L107.4,-198.3L118.8,-192.5L127.4,-181.9L133.4,-171.7L131.2,-152.3L119.7,-127.9L101.5,-100.6L21.6,-3.3L-32,87.9L-59.1,140L-79.5,159L-82.2,161.2L-83.4,162.2L-86.8,162.4L-88.7,161.5L-93,158.7L-95,156.5L-120.9,127.2L-139,96.6L-144.9,83.8L-148.2,71.5L-155.5,32.1L-161,-43.8L-167.2,-79L-169,-95.1L-167.9,-104.6L-161.2,-116.3z"></path><path d="M1996.4,-160.7L2087.5,-191.7L2149.2,-204L2180.4,-204.1L2192,-203.5L2207.4,-198.3L2218.8,-192.5L2227.4,-181.9L2233.4,-171.7L2231.2,-152.3L2219.7,-127.9L2201.5,-100.6L2121.6,-3.3L2068,87.9L2040.9,140L2020.5,159L2017.8,161.2L2016.6,162.2L2013.2,162.4L2011.3,161.5L2007,158.7L2005,156.5L1979.1,127.2L1961,96.6L1955.1,83.8L1951.8,71.5L1944.5,32.1L1939,-43.8L1932.8,-79L1931,-95.1L1932.1,-104.6L1938.8,-116.3z"></path><path d="M-103.6,1939.4L-12.5,1908.3L49.2,1896L80.4,1895.9L92,1896.5L107.4,1901.7L118.8,1907.5L127.4,1918.1L133.4,1928.3L131.2,1947.7L119.7,1972.1L101.5,1999.4L21.6,2096.7L-32,2187.9L-59.1,2240L-79.5,2259L-82.2,2261.2L-83.4,2262.2L-86.8,2262.4L-88.7,2261.5L-93,2258.7L-95,2256.5L-120.9,2227.2L-139,2196.6L-144.9,2183.8L-148.2,2171.5L-155.5,2132.1L-161,2056.2L-167.2,2021L-169,2004.9L-167.9,1995.4L-161.2,1983.7z"></path><path d="M1996.4,1939.4L2087.5,1908.3L2149.2,1896L2180.4,1895.9L2192,1896.5L2207.4,1901.7L2218.8,1907.5L2227.4,1918.1L2233.4,1928.3L2231.2,1947.7L2219.7,1972.1L2201.5,1999.4L2121.6,2096.7L2068,2187.9L2040.9,2240L2020.5,2259L2017.8,2261.2L2016.6,2262.2L2013.2,2262.4L2011.3,2261.5L2007,2258.7L2005,2256.5L1979.1,2227.2L1961,2196.6L1955.1,2183.8L1951.8,2171.5L1944.5,2132.1L1939,2056.2L1932.8,2021L1931,2004.9L1932.1,1995.4L1938.8,1983.7z"></path><path d="M1659.7,1714.9L1665.9,1715.1L1678.2,1715.3L1721.3,1716.3L1770.6,1717.3L1795.3,1711L1806.4,1705L1829.3,1708.2L1838.3,1718.8L1852.7,1774.5L1858.4,1802.3L1861,1830.1L1863.2,1882L1862.2,1937.4L1858.6,1968.5L1848.4,1976.8L1843.1,1976.8L1840,1975L1791.1,1953.2L1748.5,1924.5L1702.9,1888.9L1663.5,1853.5L1655.2,1797.9L1652.9,1749.4L1656.5,1721.8z"></path><path d="M510.6,-534.7L558.8,-582.5L596.6,-604L614,-603.4L694.7,-548L810.2,-490L940.1,-412.8L989.9,-373L1031.6,-349.4L1050.6,-323.9L1056.3,-292.3L1049.5,-229.3L1041.7,-108.8L1041,-42.9L1038.6,-27.5L1033,-13.5L1014.1,6.6L1004.6,10.9L995.2,8.1L989.7,3.5L969.3,-18.4L947.5,-36.9L929,-45.5L822.4,-107.7L719.2,-160.1L501.8,-274L450.9,-301.9L404.5,-331.9L392.2,-351.9L392.2,-371L401,-387.3L426.5,-433.3L461.1,-483.4z"></path><path d="M510.6,1565.3L558.8,1517.5L596.6,1496L614,1496.6L694.7,1552L810.2,1610L940.1,1687.2L989.9,1727L1031.6,1750.6L1050.6,1776.1L1056.3,1807.7L1049.5,1870.7L1041.7,1991.2L1041,2057.1L1038.6,2072.5L1033,2086.5L1014.1,2106.6L1004.6,2110.9L995.2,2108.1L989.7,2103.5L969.3,2081.6L947.5,2063.1L929,2054.5L822.4,1992.3L719.2,1939.9L501.8,1826L450.9,1798.1L404.5,1768.1L392.2,1748.1L392.2,1729L401,1712.7L426.5,1666.7L461.1,1616.6z"></path><path d="M1319.3,718.5L1394.3,659.6L1472.1,624L1555.1,599L1578,604.3L1593.9,614.6L1603,630.1L1604.5,647.8L1605.8,732.2L1615.8,808L1619,855.5L1614.3,881.2L1615.9,898.9L1608.4,946.6L1604.9,965.9L1593.1,984.5L1587.6,995.3L1577.5,998.3L1559.9,1003.6L1524.7,1014.2L1457.3,1025.5L1435.8,1025.9L1422.3,1014.8L1400.3,979L1351.9,911.7L1318,882.5L1300.7,866.5L1282.2,856.9L1240.3,839.3L1210.9,818.1L1207.5,803.7L1214.2,786.5L1228.4,767.1L1242.9,759.7z"></path><path d="M-318.1,1467.5L-304.3,1460.2L-280.5,1450.6L-259.3,1451L-166.5,1475.8L-65.7,1510.8L19.7,1549.7L111.9,1590.3L160.9,1619.4L195.3,1649.9L227.8,1687.9L236.4,1722.1L243.6,1761.3L242.3,1792.9L236.9,1812.7L226.3,1825.9L218.4,1829L205.1,1825.5L181.3,1821.8L95.8,1796.2L12.3,1763.2L-83.8,1710.8L-252.8,1612.4L-291.9,1572.6L-305.8,1558.2L-315.7,1542.3L-320.3,1519.8L-319.6,1504L-318.6,1480.3z"></path><path d="M1781.9,1467.5L1795.7,1460.2L1819.5,1450.6L1840.7,1451L1933.5,1475.8L2034.3,1510.8L2119.7,1549.7L2211.9,1590.3L2260.9,1619.4L2295.3,1649.9L2327.8,1687.9L2336.4,1722.1L2343.6,1761.3L2342.3,1792.9L2336.9,1812.7L2326.3,1825.9L2318.4,1829L2305.1,1825.5L2281.3,1821.8L2195.8,1796.2L2112.3,1763.2L2016.2,1710.8L1847.2,1612.4L1808.1,1572.6L1794.2,1558.2L1784.3,1542.3L1779.7,1519.8L1780.4,1504L1781.4,1480.3z"></path><path d="M1496.7,1116.2L1503.3,1108.8L1525.5,1108.8L1567.5,1113.8L1662.7,1121.2L1702.5,1126.2L1749,1128.7L1859.6,1133.6L1943.7,1136.1L1961.4,1143.6L1968.1,1163.5L1968.1,1203.2L1970.3,1243L1976.9,1282.8L1983.5,1322.6L1988,1362.4L1983.5,1377.3L1974.7,1377.3L1954.8,1374.8L1919.4,1364.9L1835.3,1349.9L1757.8,1337.5L1682.6,1320.1L1536.5,1272.9L1494.5,1253L1485.7,1248L1481.2,1238.1L1483.4,1218.2L1490.1,1173.4L1493.8,1134L1494.5,1131.1z"></path><path d="M710.5,231L756.7,201.7L786.1,164.1L823.9,122.2L844.9,99.2L853.3,88.7L861.7,86.6L886.9,80.4L912,78.3L960.3,78.3L1014.9,78.3L1040.1,80.4L1061.1,86.6L1150.4,117L1159.7,125L1159.7,147.3L1138.7,164L1128.2,178.7L1126.1,191.3L1121.9,212.2L1113.5,237.3L1100.9,258.2L1079.9,306.3L1061.1,329.3L1033.8,348.2L1008.6,371.2L993.9,392.1L951.9,442.3L930.9,463.2L909.9,473.7L882.6,480L861.7,480L815.5,477.9L708.4,475.8L611.9,486.2L563.6,488.3L542.6,484.2L542.1,483.9L540.2,483L540,482.8L540,482.7L539.9,482.7L539.9,482.6L539.5,482.1L539,481.4L538.7,481L538.5,480.8L538.4,480.7L538.4,480.6L523.7,467.4L513.2,459.1L513.2,450.7L536.3,402.6L565.7,350.3L616.1,310.5L664.3,279.1z"></path><path d="M779.8,1289.8L820.8,1264.7L839.7,1253.6L861.8,1245.2L880.7,1248L883.9,1250.8L887.1,1250.8L888.6,1256.4L896.5,1275.8L920.2,1339.9L932.8,1373.3L951.8,1409.5L969.1,1434.5L984.9,1467.9L997.5,1498.6L999.1,1504.1L995.9,1515.3L983.3,1523.6L961.2,1532L937.6,1537.5L888.6,1540.3L842.9,1537.5L824,1534.8L801.9,1529.2L782.9,1523.6L773.5,1520.8L762.4,1506.9L751.4,1473.5L743.5,1434.5L732.4,1362.1L729.3,1345.4L729.3,1323.2L738.7,1320.4L748.6,1310.5L757.7,1306.5z"></path></svg>