<svg width="1250" height="1720" version="1.2" xmlns="http://www.w3.org/2000/svg" viewBox="0 0 1250 1720"><style type="text/css">path {stroke-width: 1; vector-effect: non-scaling-stroke; fill:none; stroke: #000; stroke-linecap: round; stroke-linejoin: miter;}</style><path d="M-179.4,-33.1L-149.8,-43.4L-115.5,-53.7L-110.9,-53.7L-107.5,-49.1L-93.8,-30.8L-79,-4.6L-64.1,24L-56.1,45.7L-52.7,85.6L-47,110.7L-23,211.2L-23,259.2L-26.5,279.7L-26.5,294.9L-27.6,294.6L-83.5,277.4L-123.5,270.6L-164.6,266L-173.7,266L-180.6,253.4L-194.3,230.6L-200,211.2L-196.6,164.4L-194.3,146.1L-180.6,111.9L-173.7,90.2L-173.7,70.8L-176,58.2L-182.9,16L-187.4,-5.7L-188.6,-14.9L-188.6,-19.4L-185.2,-25.2z"></path><path d="M-41.8,-152.6L-18,-178.7L-1.7,-195.3L4.6,-200L12.1,-192.9L35.9,-163.3L53.4,-143.1L61,-131.3L69.7,-95.7L76,-74.4L59.7,-51.9L32.1,-19.9L17.1,-2.2L10.8,9.7L3.3,20.4L-1.7,23.9L-50.6,6.2L-74.4,-4.5L-81.9,-12.8L-81.9,-28.2L-79.4,-56.6L-65.6,-124.2z"></path><path d="M66.9,-43.2L97,-70.7L159.1,-113.2L182.2,-105.2L206.1,-95.5L237.1,-82.2L265.5,-68.9L274.4,-62.7L270.8,-52.1L262,-21.9L260.2,-7.7L259.3,-5.9L257.5,-5.9L255.7,-5.9L217.6,-1.5L199,2.9L186.6,9.1L144.9,30.4L141,32.4L119.2,27.7L95.2,20.6L61.6,8.2L27,-6L27.9,-8.6L43.8,-23.7L58,-33.4z"></path><path d="M305.7,-73.2L316.6,-93.3L318.5,-98.7L351.2,-95.1L394.9,-76.9L415.9,-69.6L434.1,-61.4L456.8,-45.9L489.6,-31.4L518.7,-13.2L521.5,-10.4L523.3,-9.5L523.3,-0.4L518.7,22.3L510.5,50.6L498.7,92.4L496,110.6L493.2,119.7L491.4,125.2L490.5,127L484.1,127L455.9,127L441.3,127L426.8,129.8L407.7,128.8L396.7,129.8L382.2,132.5L323,136.1L299.3,140.7L260.2,148.9L253.8,150.2L241.1,143.4L232,135.2L221.1,116.1L212,97.9L207.4,88.8L202.9,85.1L209.2,79.7L228.4,61.5L252.9,43.3L268.4,25.1L275.7,16.9L278.4,11.4L279.3,1.4L286.6,-24.1L289.3,-34.1L294.8,-45z"></path><path d="M7.2,31.2L9.7,28.7L10.5,27.1L12.1,27.1L20.3,23.8L65.2,28.7L85.6,31.2L106.1,31.2L151,35.3L172.2,36.1L182,37.7L183.6,37.7L185.3,37.7L186.1,39.3L185.3,51.6L180.4,102.2L177.9,121.8L177.9,126.7L171.4,130.8L155.1,136.5L135.5,141.4L113.4,145.5L103.6,147.1L93,145.5L71,152L58.7,156.9L48.9,161L39.1,163.5L15.4,162.7L3.2,135.7L0.7,129.2L-6.6,121L-9.9,114.5L-9.9,104.7L-10.7,85.1L-5,55.7L-0.1,41.8z"></path><path d="M7.2,185.9L39.5,174.3L66.8,163.6L79.2,158.6L96.5,155.3L141.2,150.3L153.6,148.7L156.9,149.5L161.9,157.8L166.8,166.1L172.6,177.6L175.9,190.9L177.6,195.8L177.6,202.4L177.6,217.3L171,246.3L165.2,262.8L159.4,274.4L156.9,281L147.8,281L109.8,286L102.3,286L93.2,283.5L71.7,273.6L60.1,269.4L46.1,266.9L17.1,260.3L5.6,258.7L-1.1,258.7L-7.7,257L-21.7,254.5L-21.7,249.6L-20.9,246.3L-20.9,244.6L-19.3,243.8L-13.5,235.5L-6,229.7L-0.2,218.1L0.6,207.4L4.7,197.5z"></path><path d="M179.4,211.7L189.4,203.1L212.1,181.7L216.4,178.2L221.4,173.9L232.8,167.5L252.8,157.5L259.9,152.5L276.3,151.1L301.2,150.4L309.7,152.5L318.3,159L334,172.5L348.9,183.9L351,186L351.8,195.3L351,223.1L347.5,241.6L344.6,250.1L339.7,260.1L334,270.1L327.5,277.2L319,281.5L311.2,290.7L297.6,310L291.2,319.9L282.7,327.8L269.1,342.7L254.2,359.1L232.8,385.5L219.3,398.3L213.6,405.4L208.6,414L205.7,417.5L202.2,421.1L200.8,421.8L200.8,423.2L198.6,423.2L188.7,423.2L169.4,426.1L160.9,430.3L152.3,432.5L135.2,438.2L132.4,435.3L132.4,395.4L132.4,384L134.5,372.6L140.9,343.4L143.1,334.9L151.6,315.6L164.4,286.4L167.3,277.9L169.4,261.5L178,221.6z"></path><path d="M396.4,168.2L407,158.8L422.6,143.9L425.7,139.5L430.1,135.8L435,132L441.3,128.9L463.1,147L476.8,160.1L515.4,206.2L531,221.8L559.7,242.9L581.1,258.7L470.6,347L469.9,361.3L447.5,379.4L425.1,398.7L420.7,406.2L413.9,413.7L402.7,424.3L396.4,429.3L392.7,434.9L380.9,450.4L369.6,450.4L364.7,449.2L350.9,437.4L319.2,409.3L310.4,401.8L308.6,400L307.3,399.3L307.3,398.1L304.8,391.2L303.6,380.7L303,365.7L304.2,352.6L304.2,347.6L315.4,325.2L335.4,276L345.3,254.2L349.1,244.2L363.4,225.5L370.9,214.3L375.2,210.6L379.6,204.9L386.5,195L388.3,192.5L389.6,191.9L389.6,190L393.9,175z"></path><path d="M551.5,-12.7L563.7,-11L579.9,-5.2L613.4,6.4L630.2,12.7L654,24.3L673.6,37L692.2,55.6L704.3,66.6L721.1,78.7L725.2,82.2L715.3,93.2L705.5,105.3L686.4,126.2L656.8,158.6L642.9,171.3L634.3,181.2L625.6,192.2L611.1,210.7L597.2,232.1L590.4,245.7L550.9,223.4L545.7,220.5L539.9,209L531.8,189.8L528.9,177.7L527.8,175.4L527.2,171.9L526.6,161.5L526.6,78.1L546.3,12.1L547.4,5.8L549.2,-1.2L550.9,-6.9z"></path><path d="M604.9,-96.6L617.4,-113.3L625.2,-121.6L628.7,-119.8L648.4,-113.9L682.9,-96L700.8,-90L714.5,-82.9L726.4,-75.7L735.4,-68L760.4,-37.6L766.3,-26.9L763.4,-19.1L758,-9.6L738.9,16L726.4,28L709.2,36.9L687.7,37.5L678.2,37.5L672.8,36.3L654.3,20.2L634.1,4.7L628.7,2.3L619.2,-1.2L597.7,-8.4L590,-9.6L587,-11.4L571.5,-20.9L558.4,-31.6L560.2,-40L565.6,-49.5L572.7,-59L590.6,-79.3z"></path><path d="M769.4,-89L774.6,-93.3L786.6,-97.5L801.1,-101L851.6,-78.7L864.5,-76.1L870.5,-40.2L882.4,4.3L892.7,30L898.7,44.6L898.7,66L899.6,81.4L899.6,86.5L893.6,92.5L882.4,98.5L870.5,103.7L866.2,107.1L861,108.8L848.2,108.8L833.6,101.1L828.5,98.5L820.8,97.7L788.3,87.4L776.3,82.3L771.1,79.7L768.5,77.1L761.7,72.8L767.7,-23.1L769.4,-51.3L769.4,-83.9z"></path><path d="M912.6,-51.1L924.5,-53L949.4,-55.7L986.3,-75.1L1005.6,-87.1L1013,-90.8L1023.1,-92.6L1038.8,-92.6L1046.2,-92.6L1049.9,-92.6L1051.1,-78.2L1051.1,-69.1L1051.1,-66L1048.4,-54.6L1042.1,-22.8L1034.9,-2.5L1028.9,28.8L1029.1,42.1L1029.7,137.7L1031.7,152.4L1032.4,163L1032.4,168.3L1031,173.6L1029.7,178.9L1029.1,181.6L1023.7,180.9L968.6,156.3L956.6,151L945.9,147.7L923.3,140.4L915.3,134.1L911.6,51.2L911.6,-27.2L911.6,-40.1L911.6,-47.4z"></path><path d="M690.2,129.9L723.8,123.7L768.1,112.3L839.3,111.5L889.7,109.2L892.8,108.4L894.3,108.4L895.8,107.7L896.6,109.2L897.3,116.9L899.6,132.2L899.6,139.8L897.4,149.7L890.5,172.7L879,239.2L874.4,260.6L863,293.5L859.1,303.4L857.6,306.5L857.6,308L854.5,308L846.1,308L843.1,308.8L836.2,304.2L820.1,286.6L807.1,272.8L774.3,240.7L768.1,235.4L760.5,230.8L753.6,226.2L749,223.1L746.7,218.5L744.4,216.2L743.7,214.7L740.6,213.9L733,212.4L723.8,210.9L716.2,207.1L700.9,201.7L683.3,200.9L683.3,160.4L683.3,142.8L683.3,135.2L683.3,132.1z"></path><path d="M912.7,169L914.2,166.4L920.8,164.9L933.4,162.9L939.5,161.4L949.6,160.4L987,173L1000.2,177L1010.8,178.6L1016.9,181.6L1037.1,197.8L1044.2,203.8L1047.2,204.9L1048.2,205.4L1048.2,208.4L1048.2,224.1L1043.2,232.7L1042.7,237.7L1038.1,265.5L1037.1,270.6L1039.1,279.2L1041.7,289.8L1042.2,294.9L1040.6,300.9L1034.1,317.6L994.6,320.1L979.5,326.7L968.3,329.7L965.8,329.2L935.5,305L934.9,303.9L933.9,303.9L930.9,302.9L925.3,300.4L920.8,297.4L917.8,296.4L913.2,292.8L887.4,267.6L884.4,262.5L885.9,255.9L895,233.7L900.1,220L902.1,214L902.6,204.4L903.6,192.2L907.7,179.1z"></path><path d="M631.2,189.1L633.5,189.1L649.1,189.1L670,206.4L676.9,212.2L683.3,216.2L697.1,224.3L716.2,234.7L733,245.7L739.9,249.8L746.9,252.1L761.3,253.3L768.3,254.4L775.2,257.9L782.2,261.9L784.5,271.2L788,307.6L789.7,321.5L789.7,337.7L792.6,370.1L795.5,388L796,410.6L798.9,430.2L801.8,444.7L806.5,460.3L805.9,475.3L805.9,476.5L805.9,477.7L804.7,477.7L801.3,475.3L794.3,472.5L790.8,470.7L786.8,470.1L777.5,470.7L743.4,471.9L724.9,471.9L721.4,471.3L718.5,469L715.6,466.1L712.2,464.9L699.5,463.8L690.2,461.5L683.3,460.3L679.8,459.7L672.9,460.5L672.4,445.8L672.4,438.1L670.8,431.5L668.6,425L668,418.4L664.2,404.7L659.8,386.6L658.2,373.5L657.1,366.9L657.1,363.7L654.3,360.9L652.1,358.7L650.3,356.4L648.9,352.7L646.1,345.6L632.4,313.3L628.1,299.6L627.5,274.4L627,259.1L624.8,243.8L624.8,230.6L625.9,216.4L628.9,200.6L630,193.7L631.2,190.2z"></path><path d="M527,313.6L534.4,305.6L536.2,303.8L538.6,303.2L542.3,302.6L548.3,301.4L550.2,297.7L553.2,292.9L556.9,290.4L561.7,287.4L562.3,286.2L563.6,286.2L564.8,285.6L573.9,280.1L577.6,275.8L579.4,271L582.4,262.4L585.5,253.9L590.3,255.1L594,256.3L602.5,260L606.2,263.6L609.8,265.5L617.1,274L618.4,274.6L618.4,275.8L618.4,278.2L618.4,283.1L618.4,301.4L622,333L623.2,341.6L624.4,346.4L626.3,350.1L635.4,370.2L646.4,403.1L654.3,423.8L664.6,446.9L670.1,464.5L673.8,473.1L676.2,484L691.4,535.8L698.7,553.4L707.8,582.7L705.1,586L702.2,587.8L697.4,591.8L687.6,600.9L685.4,603.5L684.3,606.4L681.4,613.3L679.6,618.4L677.4,619.9L664.3,627.9L645,636.3L638.8,637.7L627.1,640.7L624.2,642.1L620.5,642.1L617.6,640.3L615.4,638.1L596.9,610.4L585.2,589.3L570.3,557.9L557.1,531.7L534.9,498.2L531.6,493.1L529.1,490.2L521.1,482.1L513.4,474.1L508.7,470.9L502.8,467.2L502.1,467.2L501.7,466.5L500.7,465.4L499.9,465.4L499.6,464.7L498.8,463.9L486.3,453L478.3,435.3L469.2,411L467.4,398.8L471.6,395.8L479.6,389.7L493,369.6L497.4,367L500.7,364.4L502.1,363.7L502.1,361.5L502.1,357.2L502.1,353.9L503.2,350.2L509.4,342.6L517.4,328.4L521.8,321.8z"></path><path d="M-105.5,314.6L-96.8,300.9L-94.1,298.2L-87.6,296.8L-45.9,295.4L5.6,296.8L42.9,301.6L60.3,305.7L73.3,307.1L76.5,307.1L77.6,307.1L80.3,309.1L89,323.5L93.8,330.4L95.4,333.8L96,346.8L94.9,389.3L90.6,418.1L86.2,445.5L90,465.4L98.2,485.3L100.9,492.2L102,500.4L102.5,504.5L99.8,509.3L96,519.6L94.4,523.7L94.4,525.1L92.2,527.1L89.5,531.3L82.4,534.7L54.8,551.1L48.3,556.6L41.8,560L28.3,566.9L-18.8,573.1L-26.9,575.1L-38.3,575.8L-52.9,576.5L-66.5,573.1L-89.8,566.2L-103.9,557.3L-110.4,555.2L-112.5,555.2L-115.2,543.6L-119,534L-121.2,525.1L-121.7,516.9L-122.8,467.5L-121.2,406.5L-119.6,387.3L-110.4,332.4L-108.2,322.8z"></path><path d="M166.6,484.4L196.4,466.5L226.2,436.3L239.9,421.1L242.7,418.7L254.2,421.9L286.5,435L317.3,451.7L326.4,457.4L347.4,480.9L355.3,490.7L358.1,497.3L359.6,500.7L360.8,504.5L363.1,533.7L364,542.9L365.9,552.6L367.8,583.7L367.6,588.4L366.9,591L366.6,593.4L340,632.4L333.7,646L328.3,654.1L326.7,656.6L326.1,657.7L323.9,657.7L318.2,658.7L316.1,659.3L314.7,660.4L312.3,663.1L310.7,665.5L307.4,671.8L305,677.2L303.3,679.6L297.6,680.7L289.8,682.9L282.4,684L242,668.2L235.2,666.3L228.7,662.5L222.2,658.7L207.5,656.3L186.4,652.8L182.6,652L170.6,643.8L155.4,630.8L142.7,617.5L136.4,612.1L134,609.9L130.7,606.4L124.8,602.3L118.8,599.3L116.3,597.7L113.9,595L111.2,593.3L108.5,589.8L108.5,586.5L107.4,581.2L104,566.7L100.3,548.8L99.2,543.3L99.5,540.3L102.2,534.7L108.5,520.5L110.4,516.4L110.7,514.9L114.8,513.4z"></path><path d="M366,463.2L375.8,458.3L382.8,458.3L390.6,452L397.6,447L415.9,436.5L429.2,428.7L444,430.2L460.2,448.4L474.2,470.2L484.1,484.3L516.4,526.5L550.9,574.3L564.9,589L576.1,603.1L584.6,609.4L595.1,622.1L616.2,643.1L616.2,650.2L616.2,669.2L616.2,670.6L614.8,671.3L613.4,671.3L609.2,672.7L593.7,681.1L577.6,686L568.4,690.2L560.7,693.1L551.5,697.3L543.8,698.7L534.7,699.4L526.2,701.5L523.4,702.9L522,702.2L520.6,698L515.7,690.9L504.4,673.4L482.7,638.9L475.6,631.9L471.4,625.6L416.6,568.6L400.4,549L388.5,535.6L384.9,528.6L372.3,506.1L353.3,476.6L351.2,475.9L354,471.6L358.2,468.8z"></path><path d="M715.9,507.4L727.5,502.9L737.4,498.8L749.8,497.9L760.1,491.7L764.7,488.4L767.2,487.2L771.3,487.6L781.2,488L784.3,488L791.1,501.7L793.6,502.9L799.4,506.6L806.4,510.7L813.8,516.5L818.8,521.1L824.6,524.8L827.1,526.4L829.5,529.3L830.4,532.6L845.6,559.5L848.5,564.4L851.8,568.6L861.7,581.8L866.3,588.4L870.4,595.8L881.2,614L887.8,624.7L889.8,629.7L891.5,635.5L891.9,640.4L891.5,642.9L888.6,647L878.7,657.4L860.1,681.3L849.4,702.4L844.4,714.4L842.7,719.3L841.5,721.8L839,724.3L834.1,726L831.6,726.4L829.9,727.2L829.1,728.8L828.3,733.8L826.6,735.9L822.5,735.6L817.2,727L811.5,716.9L810.5,715L810.1,714.1L808.1,713.6L802.4,713.1L797.6,711.2L797.2,710.3L795.2,710.3L792.4,711.7L790.5,712.2L785.7,707.9L775.7,695.9L764.2,683L754.6,671.1L747.9,660.1L742.2,649.1L736.5,631.9L726,603.7L717.4,579.3L711.6,562.6L708.3,551.2L704.3,541.3L702.3,536.3L700.6,530.6L696.1,520.7L696.1,519.8L695.7,519L696.5,519L699.4,518.2L705.6,514.5z"></path><path d="M805,322.3L827.9,314.8L838.8,310.1L861,310.1L903.6,316.2L914.4,316.2L924.5,318.2L933.3,322.3L946.1,327.7L956.9,330.4L962.3,333.1L984,327.7L992.7,326.3L995.4,325.7L1001.5,330.4L1023.1,349.3L1035.3,362.8L1042,368.2L1054.2,370.9L1074.4,384.4L1079.8,384.4L1085.3,387.1L1097.4,401.3L1105.5,410.1L1108.2,414.8L1110.2,416.8L1110.2,419.5L1110.9,445.2L1112.3,451.9L1115.6,458.7L1121.7,472.9L1123.7,485L1121.7,492.5L1121,495.2L1121,496.5L1118.4,497.2L1107.5,498.5L1094.7,498.5L1057.6,499.2L1031.2,503.3L1004.9,506.6L988,510.7L977.2,513.4L971.8,516.8L961.7,520.1L933.3,530.9L922.5,536.3L917.8,539.7L907.6,541.1L888.7,544.5L875.2,545.8L864.4,545.1L859,544.5L852.3,541.8L841.5,536.3L832.4,529.1L832,526.9L826.6,499.9L823.2,488.4L821.9,483L820.5,475.6L818.5,464.8L813.8,445.2L810.4,432.3L805,418.8L801.6,408L799.6,396.6L795.5,365.5L793.5,354L792.8,343.2L792.8,332.4L792.8,329.7L792.8,328.3L794.2,327.7z"></path><path d="M527.9,715.7L535.7,713.6L546.2,709.7L548.4,709L550.5,706.9L559.3,699.1L562.5,695.9L565.3,694.5L575.2,694.5L586.6,692.4L597.9,687.4L614.2,679.2L628.1,674.2L634.3,672.3L640,667.9L672.7,653.5L719.8,629.6L724.8,627.7L727.3,626.5L728.6,625.9L731.1,632.1L740.5,653.5L744.3,660.4L745.5,662.9L746.1,664.2L746.8,665.4L748,665.4L750.5,666.7L754.3,672.3L764.4,689.3L773.8,704.4L775,706.9L775.7,708.2L776.3,709.4L775,709.4L763.7,715.7L717.9,739.6L706.6,744.6L689.6,756.5L636.8,791.1L625.5,799.2L619.9,803L614.2,808L610.5,811.8L600.4,813.1L589.7,813.1L587.2,813.1L584.1,818.1L563.4,846.4L559,851.4L553.3,855.8L547,858.3L546.4,859.5L544.5,859.5L538.9,859.5L523.2,863.9L504.3,871.5L493,879L488,884.7L479.9,889.6L464,868.8L451.3,847.3L445.7,836.3L445,834.2L444.6,833.5L445.3,831.8L451.3,825.4L461.2,813.4L465.8,808.1L467.2,806.7L467.9,806.4L467.9,805.6L467.6,803.9L462.3,790.5L462.3,788.4L463.3,785.2L464.4,778.8L477.4,761.2L479.9,757L487.7,749.9L518.4,724.8L526.1,717.4z"></path><path d="M360.2,634.9L388,590.6L392,584.3L396,579.8L397.7,578.1L401.1,577L412.4,584.9L443.1,609.9L471.5,637.7L485.1,653.6L498.2,673.5L506.7,685.5L509,687.7L509.6,688.9L510.7,690L510.1,691.1L394.3,830.3L392,832L387.5,833.1L364.2,825.8L350,821.2L343.2,816.7L335.7,818.6L322.1,798.5L301.1,775.8L282.9,758.7L277.3,753.6L276.7,752.5L279.5,749.6L281.2,746.8L287.5,725.2L289.8,715.6L296.6,707L306.2,691.7L309.6,685.5L319.3,684.9L327.3,684.9L329.5,684.3L333.5,677.5L345.4,652.5z"></path><path d="M189,741.6L223.6,687L229.1,682.2L236,679.4L249.8,679.4L257.4,680.1L264.3,684.3L270.5,689.8L276,696.7L278.1,698.8L278.1,700.1L278.1,702.9L276.7,710.5L274,730.5L276.7,756.7L278.1,771.2L277.4,785.1L274.7,803.7L268.4,827.2L267.8,835.5L265.7,838.2L262.2,844.4L251.2,856.9L227.7,883.1L201.5,911.4L188.4,923.2L185.6,923.2L184.9,921.8L183.5,921.1L183.5,919.7L173.2,907.3L108.3,846.5L110.3,845.1L113.1,838.2L117.9,833.4L128.3,821.7L140,809.2L155.2,792L180.1,757.4z"></path><path d="M-117.3,608.3L-82.8,580L-79.8,576.2L-78.2,574.6L-74.4,573.1L-49.2,580.7L15.1,606L33.5,610.6L62.6,615.2L84.7,617.5L104.6,622.1L113.8,624.4L118.4,625.9L127.6,636.6L154.4,669.5L162,677.2L165.9,681.8L167.4,688.7L171.2,713.1L174.3,724.6L175.1,729.2L168.2,734.6L153.6,743.8L133.7,753.7L129.9,756.8L128.4,756.8L126.1,760.6L115.4,780.5L100.8,813.4L90.9,831.8L77.9,850.9L62.6,869.2L59.5,873.8L51.1,866.2L35.8,850.1L28.9,840.9L17.4,833.3L-7.1,816.4L-36.2,795.8L-66,778.2L-84.4,767.5L-105,744.5L-121.9,741.5L-132.6,739.2L-141.8,732.3L-150.2,722.3L-150.9,716.2L-150.9,670.3L-150.9,665.7L-148.6,661.1L-143.3,649.6L-135.6,631.3z"></path><path d="M10,881.6L31.3,881.6L52.5,877.4L81.3,873.1L87.6,871L96.2,869.9L121.7,877.4L136.6,879.5L137.7,895.5L147.2,938L160,983.8L167.4,1013.5L169.6,1029.5L169.6,1031.6L169.6,1033.8L167.4,1033.8L155.7,1039.1L139.8,1046.5L123.8,1057.1L106.8,1068.9L100.4,1072L91.9,1074.2L79.2,1079.5L72.8,1079.5L68.5,1080.6L65.3,1077.4L46.2,1041.2L44.1,1028.4L37.7,1006.1L26,971L16.4,927.4L13.2,921L12.1,912.5L12.1,887z"></path><path d="M-129.2,903L-99.8,887.8L-81.4,884L-75.2,882.5L-74.6,882.5L-73.7,881.6L-72.5,879.2L-69.8,875.4L-68.9,874.2L-67.4,873L-27.6,854.3L-18.1,848.3L-16.9,848L-16.3,847.7L-15.1,849.2L-10.7,855.8L-5.6,862.6L5.1,882.8L10.4,937.8L11.6,974.6L11.6,984.1L11.3,985.3L8,986.8L-10.1,992.7L-28.2,999.6L-32.4,1001L-52.6,996.3L-85.9,989.8L-95.7,988.9L-111.7,985.6L-140.5,977.3L-148.2,976.7L-155.1,975.2L-157.6,974.7L-158.3,974.5L-159.2,974L-161,952L-161,945.5L-159.5,937.5L-158.1,922.9L-156.6,914.9L-156.6,913.7L-153,911.9z"></path><path d="M-60.6,1039.9L-32.1,1026.8L-4.4,1016.1L1.7,1014.5L11,1020.7L53.3,1066.9L64.8,1079.9L70.2,1089.9L91.8,1126.9L171.8,1188.4L171.8,1208.4L171.8,1214.6L155.6,1233.8L142.5,1245.4L132.5,1259.2L122.5,1280.8L115.6,1299.2L113.3,1305.4L95.6,1321.5L75.6,1332.3L47.9,1350L39,1358.3L36.9,1360.1L34.1,1360L11,1344.6L-3.7,1343.8L-6.7,1341.5L-8.3,1337.7L-13.7,1327.7L-16.7,1321.5L-26.7,1316.9L-32.9,1313.1L-36,1311.5L-37.5,1310L-37.5,1306.1L-42.1,1274.6L-43.7,1233L-44.4,1220.7L-44.4,1217.7L-47.5,1213.8L-57.5,1187.6L-59,1087.6L-59.8,1046.1z"></path><path d="M132.3,1060.1L159.7,1052.8L212.3,1037.3L243.7,1029.9L248.6,1028.7L251,1028.7L254.7,1030.7L260.8,1034.8L263.3,1036.5L264.1,1039.3L260.4,1056L279.2,1078.1L288.1,1088.3L289.8,1090.3L291,1092.7L291,1095.6L289.8,1099.3L286.1,1108.2L284.9,1111.1L280.4,1112.7L271.8,1115.2L271,1115.6L270.2,1115.6L269.8,1116.4L268.2,1118L261.6,1130.7L254.7,1144.1L246.1,1169L244.5,1174.7L241.6,1181.2L238,1189L235.1,1193.9L229.8,1208.6L227.4,1219.2L227,1220.8L202.9,1228.1L186.2,1209.8L182.5,1205.7L178.8,1200.4L177.6,1198L177.2,1195.5L175.6,1187L165.4,1158.4L161.3,1146.6L160.9,1145.8L160.9,1145L160.1,1144.6L158.9,1142.5L154,1136.8L149.5,1133.1L145.8,1128.2L122.6,1098.1L113.2,1087.9L111.1,1086.2L111.1,1085.4L112.8,1084.2L118.1,1078.5L128.7,1063.8z"></path><path d="M256.5,899.1L286.6,867.1L292.3,862.1L296.6,861.5L303.5,864L321.7,870.3L328.6,872.8L336.2,874L341.2,867.1L345,860.2L350.6,845.8L353.1,835.7L355,831.3L356.3,830.1L358.8,830.1L368.2,829.5L378.8,832L404,847.7L410.2,851.4L413.4,853.3L414,854.6L416.5,855.2L420.9,856.5L429.1,859.6L449.2,874.7L476.8,892.9L482.4,896.6L486.2,898.5L487.4,902.3L496.8,914.8L500,918.6L500.6,926.7L502.5,965L482.4,995.2L468,1021.5L461.1,1037.2L452.9,1051.6L444.8,1066.1L437.9,1082.4L431.6,1092.4L421.5,1104.4L408.7,1118.4L401.8,1116.9L394.2,1114L389.2,1112.2L384.5,1109.3L380.9,1106.8L377.2,1105.4L367.1,1100.3L333.1,1082.2L292.3,1053L224.7,1007L217.1,1002.3L208.4,998.4L204.8,996.6L201.2,994.4L197.6,992.2L197.2,991.5L195.8,991.1L193.6,990.4L190.6,977.6L189.9,976.3L191.2,973.2L196.2,967.5L201.9,960.6L216.9,944.9L229.5,929.9L241.4,915.4L246.4,907.9z"></path><path d="M571.9,847.3L590.6,835L610.6,820.4L613.8,817.7L620.2,816.8L647.5,819.5L652,820.4L656.6,820.9L674.4,811.8L684.8,805.8L695.3,797.6L711.7,786.7L714.3,781L718.5,774.5L720.4,772.7L724.1,771.8L726.8,770.8L728.7,770.4L730.1,769L735.6,765.3L736.6,764.8L737,763.9L737,764.8L738.4,772.2L740.7,792.1L722.2,873L720.8,904.5L719.9,912.3L717.6,923.4L714.4,935.4L713.9,938.7L713.4,940.5L712,942.8L692.2,962.7L670.9,974.7L654.3,994.6L650.1,1000.6L648.3,1006.6L645.5,1013.6L644.6,1016.3L642.7,1020L628.4,1042.2L618.7,1054.7L614,1060.7L612.7,1063.5L608.3,1066.8L598.8,1055L595.1,1053.6L590.6,1047.7L559.1,1000.3L553.2,991.2L549.6,983L540,964.8L535.9,957L531.8,946.6L514.1,915.6L508.1,905.6L504.9,897.4L504.9,896.5L505.9,896L507.7,894.2L511.8,889.6L514.1,886.4L525,878.7L539.6,867.3L553.7,859.6z"></path><path d="M748.3,726.5L750.1,726.9L777.5,728.3L793.9,729.5L811.3,735.1L851.3,752.7L854.2,752.8L856,756.1L852.3,766.3L842.7,784.4L824.1,856.2L818.5,872.8L814.1,882.1L813.5,883.1L808.1,886.8L803.9,887.4L787.8,891.2L767,893.3L761.2,893.3L757.9,893.3L754.3,895.9L747.7,900.1L738.2,903.2L729.8,905.8L726.1,907.7L723.9,908.5L723.2,908.9L724.7,905.4L736.6,854.5L739.7,822.4L742.6,774.5L748.3,732.3L748.3,728.1z"></path><path d="M875.3,702.6L881.3,692.5L922.2,692.9L935.2,692.1L941.9,694L951.2,698.1L955.7,698.8L976.9,694.4L1004.8,693.6L1040.1,694L1060.2,704.4L1062.4,705.9L1058,713L1052.4,723.4L1035.3,756.5L1028.2,772.1L1013.7,795.2L967.9,856.6L960.9,865.5L957.5,869.2L955.7,870.7L942.3,868.5L911.4,861.4L901.4,858.4L895.4,856.6L885.4,856.2L879.4,856.2L877.2,856.2L874.2,855.4L864.9,850.6L864.2,849.9L862.3,845L861.2,842.8L860.8,839.8L860.8,822L861.6,806.7L861.6,801.5L862.3,796.3L865.3,784.4L867.1,774.4L860,761.5L858.2,758.2L857.8,757.6L856,752.8L854.5,750.5L854.5,747.2z"></path><path d="M1040.1,786.2L1053.9,761L1061.5,747.6L1064.6,741.9L1066.1,739.6L1072.6,736.2L1086,730L1091.3,728.1L1110.5,737.7L1123.4,745L1134.2,748.4L1149.1,754.9L1162.8,764.5L1180.8,784.7L1190.3,794.3L1196.8,800.8L1187.7,820.2L1178.1,833.2L1172.4,838.6L1167.4,844.3L1166.3,846.2L1164,848.9L1159,855.8L1153.6,858.5L1152.1,860.4L1151,863.4L1147.1,869.6L1127.3,881L1110.5,890.2L1107,892.1L1104,895.2L1086.8,915.4L1082.2,921.2L1067.3,935.3L1024.5,981.9L1018.7,988.4L1016.8,990L1005,991.5L986.2,996.8L978.6,973.2L976.7,967L968.3,956.3L964.8,951.4L956,924.6L953.4,916.2L952.6,913.9L952.6,910.9L953.7,909.7L969.8,883L989.7,861.9L1000.8,847.4L1019.9,816.8z"></path><path d="M745.9,931.6L787.2,907.2L794.7,904.4L799.9,895.5L810.6,888.5L816.1,884.9L820,882.3L828.5,885.2L834.3,857L879.6,857L912,901.1L920.9,908.6L928.9,914.3L948.1,940.1L964.6,960.7L966.4,967.7L966.4,974.8L952.8,1003.9L944.4,1030.2L930.8,1063.5L915.3,1094.4L912.5,1100.1L907.8,1106.6L897,1121.2L893.2,1123.5L887.6,1125.4L884.3,1126.4L882.9,1126.4L882.4,1125.4L877.3,1123.5L843.5,1113.7L826.6,1111.3L822.4,1110.4L818.6,1108.1L797,1102L789.1,1101L786.7,1100.6L785.3,1099.1L778.7,1093L759,1073.8L748.7,1062.1L740.7,1050.3L724.3,1021.2L719.1,1014.2L709.7,1003.4L691.9,987.9L692.4,987L695.7,979.5L700.8,972.4L706.9,966.8L716.3,961.6L727.1,950.4L727.6,946.6L729.5,941.9L736.5,937.7z"></path><path d="M1015.5,1008.3L1031.6,995L1045.7,984.7L1051.4,980.9L1057,975.2L1062.7,970.5L1063.7,968.6L1065.5,968.6L1069.3,967.7L1076.9,969.6L1086.3,975.2L1100.5,988.4L1108,995L1120.3,996.9L1142,1000.7L1157.1,1003.5L1164.7,1007.3L1172.2,1014.9L1183.5,1029L1188.3,1037.5L1188.3,1048.8L1187.3,1083.8L1163.7,1124.4L1149.5,1159.3L1139.2,1159.3L1128.8,1156.5L1127.8,1154.6L1125.9,1154.6L1122.2,1153.6L1114.6,1150.8L1099.5,1147L1084.4,1145.1L1076.9,1144.2L1069.3,1138.5L1057,1124.4L1044.8,1113L1039.1,1107.4L1036.3,1104.5L1032.5,1103.6L1029.6,1105.5L1013.6,1086.6L1004.1,1071.5L984.3,1040.3L983.4,1034.7L982.4,1032.8L986.2,1030.9L993.8,1025.2z"></path><path d="M917.4,1099.2L918.6,1099.2L948.8,1089.3L955,1087.4L963.6,1087.4L980.3,1088L996.3,1091.7L1008.7,1093.6L1011.1,1093.6L1014.8,1095.5L1026.6,1112.7L1048.1,1147.3L1056.2,1159.6L1074,1178.7L1083.3,1189.2L1092.5,1202.1L1092.5,1208.3L1086.4,1212L1081.5,1225.6L1047.5,1257L1039.5,1267.5L1031.5,1279.8L1027.2,1281.1L1018.5,1281.1L1008.1,1278.6L1001.9,1277.4L992.6,1270L974.8,1249.6L968.6,1244.1L964.9,1236.7L914.3,1178.7L908.8,1172.5L905.7,1166.4L898.9,1154L898.3,1147.2L900.1,1136.8L903.2,1123.2L910,1110.8L913.7,1105.3L916.2,1101.6L916.8,1100.4z"></path><path d="M713.3,1120.1L724.1,1107.7L737.7,1085.6L741.6,1080.5L743.9,1077.6L745,1077.1L750.1,1079.9L793.8,1116.7L798.3,1121.3L805.1,1124.7L827.8,1134.9L855.5,1153L868,1162.1L880.5,1170.6L890.1,1180.2L895.2,1184.2L900.3,1189.3L897.5,1195.5L892.4,1202.3L889,1207.4L874.8,1213.6L856.1,1218.2L839.7,1224.4L809.1,1236.9L791.5,1243.1L777.3,1251L775.6,1252.7L774.5,1253.3L770.5,1249.3L751.8,1234.6L738.2,1224.4L725.8,1218.2L720.1,1214.8L707.1,1213.1L680.4,1206.3L668,1204.6L667.4,1204L682.1,1168.3L704.2,1131.5L707.1,1126.9z"></path><path d="M623.2,1052.5L663.7,997.7L667.7,992.5L669.4,990.2L670,989.1L675.7,991.4L692.3,1004.5L702,1013.7L707.1,1017.6L708.8,1019.4L712.3,1020.5L718,1020.5L720.2,1020.5L721.4,1026.2L728.8,1042.8L731.1,1048.5L728.2,1056.5L726,1062.7L723.1,1069L699.7,1099.3L692.3,1109.6L684.8,1121L681.4,1125.5L679.1,1131.3L673.4,1159.2L671.1,1171.2L667.7,1182.6L666.6,1188.9L666,1191.2L662,1191.8L652.9,1195.2L640.3,1183.8L628.3,1172.9L627.2,1172.9L626.6,1171.8L625.5,1171.8L624.3,1168.4L621.5,1153L620.3,1150.7L617.5,1147.2L609.5,1138.1L601.5,1126.7L588.4,1117.6L586.1,1116.4L583.2,1113.6L581.5,1111.8L578.7,1109.6L577.5,1108.4L590.1,1095.3L595.8,1088.4L600.9,1083.9L603.8,1077.6L612.4,1066.7z"></path><path d="M494.7,994.5L497.2,988.2L500.3,985.7L522.9,990.7L541.7,995.1L545.5,1008.9L558.7,1064.1L561.8,1088L562.5,1104.3L567.5,1138.9L569.4,1151.4L570,1157.7L570,1167.7L554.3,1224.9L549.3,1237.4L541.1,1251.3L537.3,1256.9L535.5,1259.4L531.7,1262.6L516,1279.5L510.3,1283.3L500.3,1284.5L485.2,1285.2L484.6,1284.5L484.6,1242.5L484.6,1228.7L473.9,1195.4L470.2,1179.7L467.7,1173.4L466.4,1165.9L465.1,1157.1L469.5,1133.2L477.7,1095.6L479,1088.7L479.6,1082.4L474.6,1073L470.2,1066.7L459.5,1056L458.9,1053.5L461.4,1049.1L465.8,1041.6L468.9,1035.3L471.4,1033.4L477.1,1032.2L485.9,1029.7L489,1014z"></path><path d="M573.2,1205.2L578.4,1198.9L580.7,1195.4L584.1,1192L589.3,1186.8L600.7,1187.4L623.7,1192L639.2,1197.7L681,1216.1L689,1220.1L695.9,1224.7L711.4,1235.6L718.9,1242.5L724,1249.3L724.6,1250.5L726.9,1250.5L730.3,1250.5L738.3,1251.6L739.5,1252.8L741.8,1252.8L745.2,1253.9L755.6,1262L757.8,1264.3L761.3,1265.4L769.3,1266L776.2,1266L779.6,1266L781.9,1266L783.1,1266L783.1,1267.1L775.6,1286.6L771.6,1294.6L769.3,1302.7L763,1338.8L761.3,1354.3L761.3,1357.7L757.8,1359.4L748.1,1363.5L732,1370.9L725.2,1373.2L721.7,1374.3L719.4,1375.5L718.3,1375.5L717.7,1376.6L715.4,1384.1L707.4,1386.9L699.4,1389.8L691.3,1393.8L691.3,1392.1L674.7,1377.8L673.6,1376.6L672.4,1376.1L672.4,1374.9L670.7,1370.9L663.8,1360L646.6,1341.7L639.2,1334.2L636.3,1331.4L630,1326.8L603.6,1303.3L579,1276.3L573.3,1270.6L566.4,1262.6L552,1248.8L549.2,1242.5L561.2,1222.4L566.9,1212.7z"></path><path d="M246.6,1195.8L256.9,1181.1L260,1176.3L262.4,1168.9L275.9,1147.6L282.1,1137.5L286,1130.8L287.2,1128.7L289.4,1125.9L310,1115.3L317,1110.7L322.2,1107.7L324.3,1106.2L325.5,1105.9L328.9,1107.4L337.1,1112.8L339.5,1114.4L342.9,1113.5L349.8,1111.6L352.3,1111L359.9,1114.4L368.1,1120.8L372.3,1124.4L380.2,1125.9L381.4,1125.9L382.4,1126.8L388.4,1131.7L391.5,1134.1L403,1133.2L428.8,1130.8L439.5,1134.1L447.7,1139.9L457.7,1147.8L464.4,1154.2L461.7,1171.5L459.8,1186.1L459.5,1188.5L459.5,1189.7L457.7,1192.2L451,1200.4L450.1,1201.6L449.8,1202.2L449.2,1202.2L448,1203.1L447.1,1204.9L444.6,1230.1L442.2,1256.3L442.2,1272.4L441.9,1276.6L440.1,1280.7L436.6,1289.6L430.7,1304.4L427.1,1310.9L423.6,1318L421.8,1321.6L415.9,1326.9L404.6,1334.6L389.2,1342.9L352.5,1350L283.9,1363.6L267.3,1367.2L253.1,1368.4L194.5,1369.5L177.9,1369.5L163.1,1368.3L148.9,1367.8L147.7,1367.8L146.5,1367.2L146.5,1366L146.5,1362.4L146.4,1354.5L125.7,1321.6L122,1312.4L121.4,1310L120.8,1308.7L122,1308.1L131.8,1300.2L156.2,1279.4L173.9,1263.6L177.6,1259.9L185.5,1256.9L216,1241L220.3,1237.9L224.6,1227.6z"></path><path d="M-162,1219.9L-157.4,1213.5L-156.5,1209.8L-151.9,1205.2L-139,1209.8L-127.1,1217.1L-117.9,1221.7L-108.7,1224.5L-99.5,1229.1L-87.6,1240.1L-62.8,1267.7L-55.4,1276.9L-51.8,1286.1L-50.8,1289.7L-48.1,1292.5L-46.3,1296.1L-45.3,1306.3L-38,1334.7L-33.4,1366.9L-31.6,1374.2L-27,1383.4L-12.3,1414.7L-4,1437.6L35.5,1512L35.5,1515.7L35.5,1517.6L32.8,1517.6L6.7,1517.7L2.2,1517.4L-2.6,1516.4L-12.8,1514.5L-24.7,1512.3L-48.7,1503.9L-61.2,1500.1L-70.8,1497.8L-81.4,1490.2L-85.8,1486L-88.1,1484.4L-91.9,1483.8L-132.9,1466.8L-142.5,1463.3L-148.3,1460.4L-157.9,1450.4L-168.2,1439.2L-172.3,1435.7L-178.5,1431.2L-178.5,1343.9L-181.3,1308.1L-181.3,1287.9L-181.3,1278.7L-179.5,1265.8L-170.3,1238.3z"></path><path d="M21.3,1369.2L40.8,1361.4L59.2,1358.1L163.1,1381.5L216.1,1394.9L228.1,1398.2L232.4,1399.3L234.5,1400.4L235.6,1404.9L240,1416L276.8,1421.6L301.7,1429.4L313.6,1433.9L324.4,1436.1L333.1,1438.3L335.2,1439.4L335.2,1441.7L326.6,1458.4L310.3,1488.5L307.1,1497.4L307.1,1499.6L304.9,1499.6L298.4,1506.3L289.8,1529.7L280,1553.1L275.7,1555.3L271.4,1560.9L267,1572L264.9,1580.9L262.7,1585.4L262.7,1587.6L258.4,1588.7L247.5,1588.7L243.2,1588.7L237.8,1594.3L231.3,1617.7L229.1,1622.2L216.1,1622.2L197.8,1616.6L150.1,1602.1L129.6,1595.4L106.8,1591L84.1,1585.4L64.3,1579.3L45.1,1527.5L41.9,1516.3L41.9,1502.9L41.9,1492.9L35.4,1466.2L19.2,1433.8L13.7,1424.9L10.5,1413.8L10.5,1401.5L13.7,1389.3z"></path><path d="M411.4,1353L434.2,1325.5L449.8,1305.8L453.4,1299.6L456,1297L458.1,1294.4L499.5,1291.3L504.7,1289.7L506.8,1289.7L507.8,1289.7L508.9,1289.2L509.4,1290.2L509.4,1315.1L511.5,1337.4L517.2,1347.8L518.2,1349.8L515.6,1358.7L508.9,1376.3L502.1,1394.4L499,1399.6L500.6,1409.4L505.8,1423.4L507.8,1428.6L508.9,1431.7L508.9,1434.8L505.8,1440L501.6,1444.2L492.3,1453.5L489.7,1454.5L483,1450.9L476.7,1448.3L463.8,1441.1L461.7,1439.5L458.6,1439L447.2,1437.9L427.5,1435.4L405.2,1433.8L394.3,1436.9L386,1441.1L374.1,1447.8L362.7,1447.8L357.5,1447.8L351.3,1446.8L354.9,1419.8L357,1413.1L364.8,1404.3L385.5,1379.9L403.7,1363.3z"></path><path d="M309.3,1496.5L371.4,1477.4L387.3,1471L415.2,1465.5L471.7,1458.3L491.6,1456.7L494.8,1455.9L496.4,1455.9L498,1455.9L498,1457.5L505.2,1487L507.6,1496.5L509.2,1499.7L510,1501.3L510,1502.9L511.5,1503.7L529.1,1519.6L549.8,1553.1L555.4,1564.2L566.5,1575.4L596.8,1605.6L601.5,1612L603.9,1620L596.8,1630.3L588.8,1639.1L568.9,1659.8L551.4,1674.9L545.8,1682.1L542.6,1686.9L536.2,1687.7L512.3,1682.9L489.2,1674.9L445.4,1660.6L427.1,1651L407.2,1641.5L376.1,1626.3L369,1620L360.2,1615.2L345.1,1604.8L329.1,1595.3L318.8,1591.3L306.8,1566.6L306.8,1565L305.2,1564.2L304.4,1559.4L302.9,1551.5L302.1,1548.3L302.1,1542.7L306,1524.4z"></path><path d="M538,1309.5L542,1296.2L563.4,1313.5L580.1,1313.5L589.9,1315.2L608.3,1323.9L631.9,1341.2L637.1,1345.2L646.3,1359L668.2,1394.2L676.3,1408.6L679.8,1429.4L681.5,1441.5L674.6,1460.5L672.3,1466.2L671.7,1468.5L665.4,1474.9L646.3,1492.2L631.4,1505.4L625,1512.3L619.2,1516.4L608.3,1526.2L603.1,1531.9L596.2,1536L589.9,1538.3L559.3,1513.5L547.8,1502L533.4,1491L509.7,1470.3L505.1,1465.1L509.2,1443.7L516.1,1415.5L519.5,1402.3L520.7,1388.4L522.4,1376.3L528.8,1351L533.4,1337.7L535.7,1324.5z"></path><path d="M714.3,1430.5L742.7,1395.4L768.6,1359.3L775.9,1352.6L784.5,1345.8L789.3,1342.5L794.6,1341.5L801.8,1340.1L802.8,1335.2L803.8,1333.3L804.2,1332.4L806.2,1332.9L811,1335.7L815.3,1338.6L819.6,1342.5L828.3,1353.1L830.2,1355L831.7,1360.3L834.1,1366.5L841.8,1387.7L846.1,1397.8L861,1423.8L878.8,1460.4L896.6,1493.6L901,1500.8L904.3,1512.3L912.5,1537.8L914.4,1543.1L915.4,1545.1L915.4,1548.4L918.8,1566.2L921.2,1575.9L923.1,1580.2L928.4,1586L946.2,1608.6L954.8,1617.7L957.3,1622.5L955.8,1624.5L952.9,1625.4L943.3,1626.4L938.5,1626.4L936.6,1626.4L933.7,1624.5L928.9,1622.5L924.1,1621.1L909.6,1622.5L893.3,1623L888,1621.6L883.1,1619.2L879.3,1617.2L877.4,1615.8L867.8,1617.2L844.7,1619.2L820.6,1621.6L815.8,1622.1L813.9,1622.1L804.2,1617.7L788.4,1609.5L783.5,1607.6L760.4,1611.5L737.8,1614.8L733.5,1615.3L724.4,1613.9L714.7,1609.1L703.7,1608.6L655.1,1604.3L645,1602.8L643,1602.8L637.3,1598L631.5,1593.2L613.2,1579.7L607.9,1575.9L605,1571L606,1568.2L611.3,1560L616.1,1550.4L631,1530.1L636.8,1522L642.6,1510.9L657.5,1494.1L664.7,1481.5L670.5,1473.9L688.8,1455.6z"></path><path d="M966.1,1443.7L973.2,1438.4L982,1434L998.9,1427.8L1031.6,1415.4L1045.3,1428.9L1055.4,1441.5L1081.9,1455.4L1137.4,1483.2L1168.9,1502.1L1186.6,1514.7L1184.1,1527.3L1172.7,1565.2L1165.2,1587.9L1163.9,1600.5L1161.4,1622L1161.4,1642.2L1153.8,1647.2L1146.2,1649.8L1139.9,1656.1L1134.9,1662.4L1129.8,1663.6L1112.2,1653.5L1074.3,1640.9L1049.1,1624.5L1043.6,1619.7L1009.9,1590.4L982.2,1571.5L968.3,1562.7L958.2,1552.6L929.8,1507.4L944,1491.5L952,1475.5L958.2,1459.6z"></path><path d="M850.1,1243.5L856.4,1236.2L860.5,1229L867.8,1221.7L871,1218.5L872,1216.5L874.1,1216.5L915.8,1235.2L933.5,1243.5L960.6,1261.3L1003.3,1302.9L1033.5,1347.7L1053.3,1383.1L1062.4,1396.8L1016.8,1414.4L951.2,1443.6L936.6,1443.6L922,1438.4L897,1428L888.7,1424.8L884.5,1423.8L878.3,1415.5L857.4,1382.1L835.6,1342.5L826.2,1324.8L815.8,1309.2L812.6,1300.8L810.5,1292.5L809.5,1284.2L818.9,1273.8L837.6,1258.1z"></path><path d="M1048,283.5L1056.3,281.3L1066.8,275.2L1082.9,266.3L1100,281.3L1110,290.2L1117.2,295.1L1120,297.9L1122.2,302.3L1132.7,332.8L1134.4,337.2L1131.6,342.7L1127.7,353.3L1124.9,361.6L1124.4,372.1L1123.8,380.9L1121.6,388.7L1120,392L1118.9,394.2L1116.6,394.2L1105.6,392L1088.4,386.5L1072.9,379.3L1056.8,366.5L1051.3,358.8L1050.2,348.3L1048.5,337.8L1045.2,318.9L1044.1,310.1L1044.1,300.7L1045.8,290.7L1046.3,287.4L1046.9,285.1L1046.9,284z"></path><path d="M881.8,548.7L889.1,548.7L907.4,548.7L912.3,549.5L920.3,545.8L938.6,543.8L960.3,543.5L1001.5,540.2L1033.5,535.1L1045,532.5L1056.5,531.6L1077.8,531.6L1081.3,556.1L1085.9,566.7L1088.5,575.8L1090.5,586.9L1093.1,603.6L1093.5,619.2L1095,651.9L1095.4,664.5L1095.9,679.6L1097.1,686.9L1097.1,691.8L1097.1,694.3L1094.6,695.5L1093.4,698L1088.5,699.2L1081.2,701.6L1064.1,701.6L1027.4,688.2L1020,685.7L1013.9,679.6L996.8,674.7L989.4,674.7L979.6,680.8L962.5,685.7L930.7,691.8L917.2,677.2L911.1,671.1L901.3,669.8L896.4,669.8L896.4,644.1L890.3,617.2L886.6,600.1L885.4,582.9L883,551.1z"></path><path d="M1070.6,-33.1L1100.2,-43.4L1134.5,-53.7L1139.1,-53.7L1142.5,-49.1L1156.2,-30.8L1171,-4.6L1185.9,24L1193.9,45.7L1197.3,85.6L1203,110.7L1227,211.2L1227,259.2L1223.5,279.7L1223.5,294.9L1222.4,294.6L1166.5,277.4L1126.5,270.6L1085.4,266L1076.3,266L1069.4,253.4L1055.7,230.6L1050,211.2L1053.4,164.4L1055.7,146.1L1069.4,111.9L1076.3,90.2L1076.3,70.8L1074,58.2L1067.1,16L1062.6,-5.7L1061.4,-14.9L1061.4,-19.4L1064.8,-25.2z"></path><path d="M1208.2,-152.6L1232,-178.7L1248.3,-195.3L1254.6,-200L1262.1,-192.9L1285.9,-163.3L1303.4,-143.1L1311,-131.3L1319.7,-95.7L1326,-74.4L1309.7,-51.9L1282.1,-19.9L1267.1,-2.2L1260.8,9.7L1253.3,20.4L1248.3,23.9L1199.4,6.2L1175.6,-4.5L1168.1,-12.8L1168.1,-28.2L1170.6,-56.6L1184.4,-124.2z"></path><path d="M1257.2,31.2L1259.7,28.7L1260.5,27.1L1262.1,27.1L1270.3,23.8L1315.2,28.7L1335.6,31.2L1356.1,31.2L1401,35.3L1422.2,36.1L1432,37.7L1433.6,37.7L1435.3,37.7L1436.1,39.3L1435.3,51.6L1430.4,102.2L1427.9,121.8L1427.9,126.7L1421.4,130.8L1405.1,136.5L1385.5,141.4L1363.4,145.5L1353.6,147.1L1343,145.5L1321,152L1308.7,156.9L1298.9,161L1289.1,163.5L1265.4,162.7L1253.2,135.7L1250.7,129.2L1243.4,121L1240.1,114.5L1240.1,104.7L1239.3,85.1L1245,55.7L1249.9,41.8z"></path><path d="M1257.2,185.9L1289.5,174.3L1316.8,163.6L1329.2,158.6L1346.5,155.3L1391.2,150.3L1403.6,148.7L1406.9,149.5L1411.9,157.8L1416.8,166.1L1422.6,177.6L1425.9,190.9L1427.6,195.8L1427.6,202.4L1427.6,217.3L1421,246.3L1415.2,262.8L1409.4,274.4L1406.9,281L1397.8,281L1359.8,286L1352.3,286L1343.2,283.5L1321.7,273.6L1310.1,269.4L1296.1,266.9L1267.1,260.3L1255.6,258.7L1248.9,258.7L1242.3,257L1228.3,254.5L1228.3,249.6L1229.1,246.3L1229.1,244.6L1230.7,243.8L1236.5,235.5L1244,229.7L1249.8,218.1L1250.6,207.4L1254.7,197.5z"></path><path d="M1144.5,314.6L1153.2,300.9L1155.9,298.2L1162.4,296.8L1204.1,295.4L1255.6,296.8L1292.9,301.6L1310.3,305.7L1323.3,307.1L1326.5,307.1L1327.6,307.1L1330.3,309.1L1339,323.5L1343.8,330.4L1345.4,333.8L1346,346.8L1344.9,389.3L1340.6,418.1L1336.2,445.5L1340,465.4L1348.2,485.3L1350.9,492.2L1352,500.4L1352.5,504.5L1349.8,509.3L1346,519.6L1344.4,523.7L1344.4,525.1L1342.2,527.1L1339.5,531.3L1332.4,534.7L1304.8,551.1L1298.3,556.6L1291.8,560L1278.3,566.9L1231.2,573.1L1223.1,575.1L1211.7,575.8L1197.1,576.5L1183.5,573.1L1160.2,566.2L1146.1,557.3L1139.6,555.2L1137.5,555.2L1134.8,543.6L1131,534L1128.8,525.1L1128.3,516.9L1127.2,467.5L1128.8,406.5L1130.4,387.3L1139.6,332.4L1141.8,322.8z"></path><path d="M1132.7,608.3L1167.2,580L1170.2,576.2L1171.8,574.6L1175.6,573.1L1200.8,580.7L1265.1,606L1283.5,610.6L1312.6,615.2L1334.7,617.5L1354.6,622.1L1363.8,624.4L1368.4,625.9L1377.6,636.6L1404.4,669.5L1412,677.2L1415.9,681.8L1417.4,688.7L1421.2,713.1L1424.3,724.6L1425.1,729.2L1418.2,734.6L1403.6,743.8L1383.7,753.7L1379.9,756.8L1378.4,756.8L1376.1,760.6L1365.4,780.5L1350.8,813.4L1340.9,831.8L1327.9,850.9L1312.6,869.2L1309.5,873.8L1301.1,866.2L1285.8,850.1L1278.9,840.9L1267.4,833.3L1242.9,816.4L1213.8,795.8L1184,778.2L1165.6,767.5L1145,744.5L1128.1,741.5L1117.4,739.2L1108.2,732.3L1099.8,722.3L1099.1,716.2L1099.1,670.3L1099.1,665.7L1101.4,661.1L1106.7,649.6L1114.4,631.3z"></path><path d="M1120.8,903L1150.2,887.8L1168.6,884L1174.8,882.5L1175.4,882.5L1176.3,881.6L1177.5,879.2L1180.2,875.4L1181.1,874.2L1182.6,873L1222.4,854.3L1231.9,848.3L1233.1,848L1233.7,847.7L1234.9,849.2L1239.3,855.8L1244.4,862.6L1255.1,882.8L1260.4,937.8L1261.6,974.6L1261.6,984.1L1261.3,985.3L1258,986.8L1239.9,992.7L1221.8,999.6L1217.6,1001L1197.4,996.3L1164.1,989.8L1154.3,988.9L1138.3,985.6L1109.5,977.3L1101.8,976.7L1094.9,975.2L1092.4,974.7L1091.7,974.5L1090.8,974L1089,952L1089,945.5L1090.5,937.5L1091.9,922.9L1093.4,914.9L1093.4,913.7L1097,911.9z"></path><path d="M1189.4,1039.9L1217.9,1026.8L1245.6,1016.1L1251.7,1014.5L1261,1020.7L1303.3,1066.9L1314.8,1079.9L1320.2,1089.9L1341.8,1126.9L1421.8,1188.4L1421.8,1208.4L1421.8,1214.6L1405.6,1233.8L1392.5,1245.4L1382.5,1259.2L1372.5,1280.8L1365.6,1299.2L1363.3,1305.4L1345.6,1321.5L1325.6,1332.3L1297.9,1350L1289,1358.3L1286.9,1360.1L1284.1,1360L1261,1344.6L1246.3,1343.8L1243.3,1341.5L1241.7,1337.7L1236.3,1327.7L1233.3,1321.5L1223.3,1316.9L1217.1,1313.1L1214,1311.5L1212.5,1310L1212.5,1306.1L1207.9,1274.6L1206.3,1233L1205.6,1220.7L1205.6,1217.7L1202.5,1213.8L1192.5,1187.6L1191,1087.6L1190.2,1046.1z"></path><path d="M1088,1219.9L1092.6,1213.5L1093.5,1209.8L1098.1,1205.2L1111,1209.8L1122.9,1217.1L1132.1,1221.7L1141.3,1224.5L1150.5,1229.1L1162.4,1240.1L1187.2,1267.7L1194.6,1276.9L1198.2,1286.1L1199.2,1289.7L1201.9,1292.5L1203.7,1296.1L1204.7,1306.3L1212,1334.7L1216.6,1366.9L1218.4,1374.2L1223,1383.4L1237.7,1414.7L1246,1437.6L1285.5,1512L1285.5,1515.7L1285.5,1517.6L1282.8,1517.6L1256.7,1517.7L1252.2,1517.4L1247.4,1516.4L1237.2,1514.5L1225.3,1512.3L1201.3,1503.9L1188.8,1500.1L1179.2,1497.8L1168.6,1490.2L1164.2,1486L1161.9,1484.4L1158.1,1483.8L1117.1,1466.8L1107.5,1463.3L1101.7,1460.4L1092.1,1450.4L1081.8,1439.2L1077.7,1435.7L1071.5,1431.2L1071.5,1343.9L1068.7,1308.1L1068.7,1287.9L1068.7,1278.7L1070.5,1265.8L1079.7,1238.3z"></path><path d="M-179.4,1686.9L-149.8,1676.6L-115.5,1666.3L-110.9,1666.3L-107.5,1670.9L-93.8,1689.2L-79,1715.4L-64.1,1744L-56.1,1765.7L-52.7,1805.6L-47,1830.7L-23,1931.2L-23,1979.2L-26.5,1999.7L-26.5,2014.9L-27.6,2014.6L-83.5,1997.4L-123.5,1990.6L-164.6,1986L-173.7,1986L-180.6,1973.4L-194.3,1950.6L-200,1931.2L-196.6,1884.4L-194.3,1866.1L-180.6,1831.9L-173.7,1810.2L-173.7,1790.8L-176,1778.2L-182.9,1736L-187.4,1714.3L-188.6,1705.1L-188.6,1700.6L-185.2,1694.8z"></path><path d="M-41.8,1567.4L-18,1541.3L-1.7,1524.7L4.6,1520L12.1,1527.1L35.9,1556.7L53.4,1576.9L61,1588.7L69.7,1624.3L76,1645.6L59.7,1668.1L32.1,1700.1L17.1,1717.8L10.8,1729.7L3.3,1740.4L-1.7,1743.9L-50.6,1726.2L-74.4,1715.5L-81.9,1707.2L-81.9,1691.8L-79.4,1663.4L-65.6,1595.8z"></path><path d="M66.9,1676.8L97,1649.3L159.1,1606.8L182.2,1614.8L206.1,1624.5L237.1,1637.8L265.5,1651.1L274.4,1657.3L270.8,1667.9L262,1698.1L260.2,1712.3L259.3,1714.1L257.5,1714.1L255.7,1714.1L217.6,1718.5L199,1722.9L186.6,1729.1L144.9,1750.4L141,1752.4L119.2,1747.7L95.2,1740.6L61.6,1728.2L27,1714L27.9,1711.4L43.8,1696.3L58,1686.6z"></path><path d="M305.7,1646.8L316.6,1626.7L318.5,1621.3L351.2,1624.9L394.9,1643.1L415.9,1650.4L434.1,1658.6L456.8,1674.1L489.6,1688.6L518.7,1706.8L521.5,1709.6L523.3,1710.5L523.3,1719.6L518.7,1742.3L510.5,1770.6L498.7,1812.4L496,1830.6L493.2,1839.7L491.4,1845.2L490.5,1847L484.1,1847L455.9,1847L441.3,1847L426.8,1849.8L407.7,1848.8L396.7,1849.8L382.2,1852.5L323,1856.1L299.3,1860.7L260.2,1868.9L253.8,1870.2L241.1,1863.4L232,1855.2L221.1,1836.1L212,1817.9L207.4,1808.8L202.9,1805.1L209.2,1799.7L228.4,1781.5L252.9,1763.3L268.4,1745.1L275.7,1736.9L278.4,1731.4L279.3,1721.4L286.6,1695.9L289.3,1685.9L294.8,1675z"></path><path d="M551.5,1707.3L563.7,1709L579.9,1714.8L613.4,1726.4L630.2,1732.7L654,1744.3L673.6,1757L692.2,1775.6L704.3,1786.6L721.1,1798.7L725.2,1802.2L715.3,1813.2L705.5,1825.3L686.4,1846.2L656.8,1878.6L642.9,1891.3L634.3,1901.2L625.6,1912.2L611.1,1930.7L597.2,1952.1L590.4,1965.7L550.9,1943.4L545.7,1940.5L539.9,1929L531.8,1909.8L528.9,1897.7L527.8,1895.4L527.2,1891.9L526.6,1881.5L526.6,1798.1L546.3,1732.1L547.4,1725.8L549.2,1718.8L550.9,1713.1z"></path><path d="M604.9,1623.4L617.4,1606.7L625.2,1598.4L628.7,1600.2L648.4,1606.1L682.9,1624L700.8,1630L714.5,1637.1L726.4,1644.3L735.4,1652L760.4,1682.4L766.3,1693.1L763.4,1700.9L758,1710.4L738.9,1736L726.4,1748L709.2,1756.9L687.7,1757.5L678.2,1757.5L672.8,1756.3L654.3,1740.2L634.1,1724.7L628.7,1722.3L619.2,1718.8L597.7,1711.6L590,1710.4L587,1708.6L571.5,1699.1L558.4,1688.4L560.2,1680L565.6,1670.5L572.7,1661L590.6,1640.7z"></path><path d="M769.4,1631L774.6,1626.7L786.6,1622.5L801.1,1619L851.6,1641.3L864.5,1643.9L870.5,1679.8L882.4,1724.3L892.7,1750L898.7,1764.6L898.7,1786L899.6,1801.4L899.6,1806.5L893.6,1812.5L882.4,1818.5L870.5,1823.7L866.2,1827.1L861,1828.8L848.2,1828.8L833.6,1821.1L828.5,1818.5L820.8,1817.7L788.3,1807.4L776.3,1802.3L771.1,1799.7L768.5,1797.1L761.7,1792.8L767.7,1696.9L769.4,1668.7L769.4,1636.1z"></path><path d="M912.6,1668.9L924.5,1667L949.4,1664.3L986.3,1644.9L1005.6,1632.9L1013,1629.2L1023.1,1627.4L1038.8,1627.4L1046.2,1627.4L1049.9,1627.4L1051.1,1641.8L1051.1,1650.9L1051.1,1654L1048.4,1665.4L1042.1,1697.2L1034.9,1717.5L1028.9,1748.8L1029.1,1762.1L1029.7,1857.7L1031.7,1872.4L1032.4,1883L1032.4,1888.3L1031,1893.6L1029.7,1898.9L1029.1,1901.6L1023.7,1900.9L968.6,1876.3L956.6,1871L945.9,1867.7L923.3,1860.4L915.3,1854.1L911.6,1771.2L911.6,1692.8L911.6,1679.9L911.6,1672.6z"></path><path d="M1070.6,1686.9L1100.2,1676.6L1134.5,1666.3L1139.1,1666.3L1142.5,1670.9L1156.2,1689.2L1171,1715.4L1185.9,1744L1193.9,1765.7L1197.3,1805.6L1203,1830.7L1227,1931.2L1227,1979.2L1223.5,1999.7L1223.5,2014.9L1222.4,2014.6L1166.5,1997.4L1126.5,1990.6L1085.4,1986L1076.3,1986L1069.4,1973.4L1055.7,1950.6L1050,1931.2L1053.4,1884.4L1055.7,1866.1L1069.4,1831.9L1076.3,1810.2L1076.3,1790.8L1074,1778.2L1067.1,1736L1062.6,1714.3L1061.4,1705.1L1061.4,1700.6L1064.8,1694.8z"></path><path d="M1208.2,1567.4L1232,1541.3L1248.3,1524.7L1254.6,1520L1262.1,1527.1L1285.9,1556.7L1303.4,1576.9L1311,1588.7L1319.7,1624.3L1326,1645.6L1309.7,1668.1L1282.1,1700.1L1267.1,1717.8L1260.8,1729.7L1253.3,1740.4L1248.3,1743.9L1199.4,1726.2L1175.6,1715.5L1168.1,1707.2L1168.1,1691.8L1170.6,1663.4L1184.4,1595.8z"></path></svg>