<svg width="1780" height="900" version="1.2" xmlns="http://www.w3.org/2000/svg" viewBox="0 0 1780 900"><style type="text/css">path {stroke-width: 1; vector-effect: non-scaling-stroke; fill:none; stroke: #000; stroke-linecap: round; stroke-linejoin: miter;}</style><path d="M429,-50L914,-50L914,140L429,140z"></path><path d="M-141,-50L429,-50L429,140L-141,140z"></path><path d="M914,-50L1014,-50L1014,140L914,140z"></path><path d="M1014,-50L1354,-50L1354,140L1014,140z"></path><path d="M1354,-50L1639,-50L1639,140L1354,140z"></path><path d="M-341,140L149,140L149,300L-341,300z"></path><path d="M149,140L709,140L709,360L149,360z"></path><path d="M-51,360L299,360L299,510L-51,510z"></path><path d="M-51,300L149,300L149,360L-51,360z"></path><path d="M299,360L369,360L369,510L299,510z"></path><path d="M369,360L1019,360L1019,510L369,510z"></path><path d="M709,300L1019,300L1019,360L709,360z"></path><path d="M709,140L1229,140L1229,300L709,300z"></path><path d="M1229,140L1439,140L1439,300L1229,300z"></path><path d="M1019,300L1729,300L1729,510L1019,510z"></path><path d="M-166,510L494,510L494,700L-166,700z"></path><path d="M494,510L914,510L914,700L494,700z"></path><path d="M914,510L1234,510L1234,630L914,630z"></path><path d="M914,630L1354,630L1354,700L914,700z"></path><path d="M1234,510L1614,510L1614,630L1234,630z"></path><path d="M1354,630L1614,630L1614,700L1354,700z"></path><path d="M-286,700L214,700L214,850L-286,850z"></path><path d="M214,700L374,700L374,790L214,790z"></path><path d="M214,790L704,790L704,850L214,850z"></path><path d="M374,700L704,700L704,790L374,790z"></path><path d="M704,700L1134,700L1134,850L704,850z"></path><path d="M1134,700L1494,700L1494,850L1134,850z"></path><path d="M429,850L914,850L914,1040L429,1040z"></path><path d="M1639,-50L2209,-50L2209,140L1639,140z"></path><path d="M-141,850L429,850L429,1040L-141,1040z"></path><path d="M1639,850L2209,850L2209,1040L1639,1040z"></path><path d="M914,850L1014,850L1014,1040L914,1040z"></path><path d="M1014,850L1354,850L1354,1040L1014,1040z"></path><path d="M1354,850L1639,850L1639,1040L1354,1040z"></path><path d="M1439,140L1929,140L1929,300L1439,300z"></path><path d="M1729,360L2079,360L2079,510L1729,510z"></path><path d="M1729,300L1929,300L1929,360L1729,360z"></path><path d="M1614,510L2274,510L2274,700L1614,700z"></path><path d="M1494,700L1994,700L1994,850L1494,850z"></path></svg>