<svg width="600" height="600" version="1.2" xmlns="http://www.w3.org/2000/svg" viewBox="0 0 600 600"><style type="text/css">path {stroke-width: 1; vector-effect: non-scaling-stroke; fill:none; stroke: #000; stroke-linecap: round; stroke-linejoin: miter;}</style><path d="M236.36,363.64L300,427.28L217.282,509.997L90.002,509.997z"></path><path d="M363.64,363.64L427.28,300L509.997,382.718L509.997,509.998z"></path><path d="M300,300L363.64,363.64L509.997,509.997L382.717,509.997L299.999,427.279L236.36,363.64z"></path><path d="M90,90L236.357,236.357L172.717,299.997L90,217.279z"></path><path d="M90,217.28L172.717,299.997L90,382.715z"></path><path d="M382.72,90L510,90L363.643,236.357L300.003,172.717z"></path><path d="M90,90L217.28,90L299.997,172.717L363.637,236.357L299.997,299.997L236.358,236.357z"></path><path d="M172.72,300L236.36,236.36L299.999,300L236.36,363.64L90.003,509.997L90.003,382.717z"></path><path d="M427.28,300L509.997,217.283L509.997,382.723z"></path><path d="M0,-600L90.001,-509.999L90.001,-382.719L90.001,-217.279L90.001,-89.99900000000002L0,0.0009999999999763531z"></path><path d="M0,0L90.001,90.001L90.001,217.281L90.001,382.721L90.001,510.001L0,600.001z"></path><path d="M363.64,236.36L509.997,90.003L509.997,180.003L509.997,217.283L427.28,300L363.64,363.64L300,300z"></path><path d="M217.28,90L382.72,90L300.003,172.717z"></path><path d="M217.28,510L299.997,427.283L382.715,510z"></path><path d="M-510,-90L-382.72,-90L-217.27999999999997,-90L-90,-90L0.0009999999999763531,0.0009999999999763531L-599.999,0.0009999999999763531z"></path><path d="M90,-90L217.28,-90L382.72,-90L510,-90L600.001,0.0009999999999763531L0.001,0.0009999999999763531z"></path><path d="M-510,510L-382.72,510L-217.27999999999997,510L-90,510L0.0009999999999763531,600.001L-599.999,600.001z"></path><path d="M90,510L217.28,510L382.72,510L510,510L600.001,600.001L0.001,600.001z"></path><path d="M-90,90L0.0009999999999763531,-0.001L0.0009999999999763531,89.999L0.0009999999999763531,599.999L-90,509.999L-90,382.719L-90,217.279L-90,179.999z"></path><path d="M510,90L600.001,-0.001L600.001,89.999L600.001,599.999L510,509.999L510,382.719L510,217.279L510,179.999z"></path><path d="M-90,690L0.0009999999999763531,599.999L0.0009999999999763531,689.999L0.0009999999999763531,1199.999L-90,1109.999L-90,982.719L-90,817.279L-90,779.999z"></path><path d="M510,690L600.001,599.999L600.001,689.999L600.001,1199.999L510,1109.999L510,982.719L510,817.279L510,779.999z"></path><path d="M0,0L600,0L509.999,90.001L382.719,90.001L217.279,90.001L89.999,90.001z"></path></svg>