<svg width="346" height="600" version="1.2" xmlns="http://www.w3.org/2000/svg" viewBox="0 0 346 600"><style type="text/css">.thumb-shape {stroke-width: 1; vector-effect: non-scaling-stroke; fill:none; stroke: #000; stroke-linecap: round; stroke-linejoin: miter;}</style><path d="M-50.8,-151L122.4,-51L122.4,149L-50.8,49z" class="thumb-shape"></path><path d="M-50.8,449L122.4,349L295.6,449L122.4,549z" class="thumb-shape"></path><path d="M122.4,149L295.6,249L295.6,449L122.4,349z" class="thumb-shape"></path><path d="M-50.8,249L122.4,149L122.4,349L-50.8,449z" class="thumb-shape"></path><path d="M-224,149L-50.8,49L122.4,149L-50.8,249z" class="thumb-shape"></path><path d="M-224,-51L-50.8,-151L-50.8,49L-224,149z" class="thumb-shape"></path><path d="M295.2,-151L468.4,-51L468.4,149L295.2,49z" class="thumb-shape"></path><path d="M-50.8,449L122.4,549L122.4,749L-50.8,649z" class="thumb-shape"></path><path d="M295.2,449L468.4,549L468.4,749L295.2,649z" class="thumb-shape"></path><path d="M295.2,449L468.4,349L641.6,449L468.4,549z" class="thumb-shape"></path><path d="M295.2,249L468.4,149L468.4,349L295.2,449z" class="thumb-shape"></path><path d="M122,149L295.2,49L468.4,149L295.2,249z" class="thumb-shape"></path><path d="M122,-51L295.2,-151L295.2,49L122,149z" class="thumb-shape"></path><path d="M-224,549L-50.8,449L-50.8,649L-224,749z" class="thumb-shape"></path><path d="M122,549L295.2,449L295.2,649L122,749z" class="thumb-shape"></path></svg>