<svg width="600" height="600" version="1.2" xmlns="http://www.w3.org/2000/svg" viewBox="0 0 600 600"><style type="text/css">path {stroke-width: 1; vector-effect: non-scaling-stroke; fill:none; stroke: #000; stroke-linecap: round; stroke-linejoin: miter;}</style><path d="M360,180L420,180L420,360L360,360L360,300L360,240z"></path><path d="M180,420L240,420L420,420L480,420L480,480L180,480z"></path><path d="M180,240L240,240L240,300L240,360L240,420L180,420z"></path><path d="M240,240L360,240L360,300L240,300z"></path><path d="M240,360L360,360L420,360L420,420L240,420z"></path><path d="M180,180L360,180L360,240L240,240L180,240z"></path><path d="M120,180L180,180L180,240L180,420L180,480L120,480z"></path><path d="M120,120L420,120L420,180L360,180L180,180L120,180z"></path><path d="M120,480L180,480L480,480L540,480L540,540L120,540z"></path><path d="M420,120L480,120L480,420L420,420L420,360L420,180z"></path><path d="M60,60L480,60L480,120L420,120L120,120L60,120z"></path><path d="M0,60L60,60L60,120L60,540L60,600L0,600L0,540z"></path><path d="M60,540L120,540L540,540L600,540L600,600L60,600z"></path><path d="M0,0L540,0L540,60L480,60L60,60L0,60z"></path><path d="M540,0L600,0L600,540L540,540L540,480L540,60z"></path><path d="M480,60L540,60L540,480L480,480L480,420L480,120z"></path><path d="M60,120L120,120L120,180L120,480L120,540L60,540z"></path><path d="M240,300L360,300L360,360L240,360z"></path></svg>