<svg width="2090.7" height="2102" version="1.2" xmlns="http://www.w3.org/2000/svg" viewBox="0 0 2090.7 2102"><style type="text/css">path {stroke-width: 1; vector-effect: non-scaling-stroke; fill:none; stroke: #000; stroke-linecap: round; stroke-linejoin: miter;}</style><path d="M854.31,1317.99L1052.649,1509.993L1052.649,1631.413L854.302,1819.374L854.302,1334.134z"></path><path d="M285.05,198.47L759.79,198.47L764.61,198.47L854.321,283.841L854.321,771.961L760.831,862.464L759.451,862.464L290.471,862.464L277.679,849.351L190.315,759.795L190.315,293.725z"></path><path d="M760.83,862.47L854.32,771.967L1052.673,576.5L1243.348,771.961L1331.633,862.461L1521.233,1056.819L1317.575,1245.871L1239.888,1317.987L1052.722,1509.984L854.383,1317.981L776.369,1242.459L572.382,1044.99z"></path><path d="M273.43,1232.76L467.23,1043.705L572.282,1044.988L776.268,1242.458L764.878,1242.458L759.758,1242.458L276.758,1242.458L263.458,1242.458z"></path><path d="M1052.65,469.8L1243.293,283.824L1243.293,771.944L1052.618,576.484z"></path><path d="M556.95,0.83L572.299,1.001L1508.639,0.021L1515.469,0.021L1325.157,198.476L1243.29,283.846L1052.647,469.822L854.293,283.88L764.582,198.509z"></path><path d="M482.45,0L556.945,0.832L764.613,198.453L759.793,198.453L285.053,198.453z"></path><path d="M1328.09,1909.88L1806.5,1909.88L1813.15,1909.88L1624.826,2101.989L1515.466,2101.989z"></path><path d="M1903.81,-284.6199999999999L2090.006,-474.558L2090.006,0.012000000000170985L1624.836,0.012000000000170985L1813.16,-192.09699999999998z"></path><path d="M1903.81,1817.38L2090.006,1627.442L2090.006,2102.012L1624.836,2102.012L1813.16,1909.903z"></path><path d="M1903.81,1323.79L2089.992,1498.138L2089.992,1627.448L1903.796,1817.386L1903.796,1348.786L1903.796,1333.376z"></path><path d="M1239.81,1317.99L1317.497,1245.874L1325.717,1245.874L1327.347,1245.874L1803.227,1245.874L1813.617,1245.874L1820.607,1245.874L1903.804,1323.783L1903.804,1333.373L1903.804,1348.783L1903.804,1817.383L1813.128,1909.881L1806.478,1909.881L1328.068,1909.881L1239.783,1819.381L1239.783,1331.261z"></path><path d="M1317.5,1245.88L1521.158,1056.828L1620.208,1058.228L1820.594,1245.877L1813.604,1245.877L1803.214,1245.877L1327.334,1245.877L1325.704,1245.877z"></path><path d="M1325.17,198.47L1329.78,198.47L1815.16,198.47L1907.298,294.551L1907.298,755.001L1805.56,862.473L1331.58,862.473L1243.295,771.973L1243.295,283.853z"></path><path d="M1331.59,862.47L1805.57,862.47L1620.229,1058.257L1521.179,1056.857z"></path><path d="M0,0L482.45,0L285.029,198.458L190.292,293.692L-0.028,485.011z"></path><path d="M2090.7,0L2573.1499999999996,0L2375.729,198.458L2280.9919999999997,293.692L2090.672,485.011z"></path><path d="M0,-474.56999999999994L190.302,-284.5329999999999L281.234,-195.51700000000005L480.978,0.018000000000029104L-0.022,0.018000000000029104z"></path><path d="M2090.7,-474.56999999999994L2281.002,-284.5329999999999L2371.9339999999997,-195.51700000000005L2571.678,0.018000000000029104L2090.678,0.018000000000029104z"></path><path d="M0,1627.43L190.302,1817.467L281.234,1906.483L480.978,2102.018L-0.022,2102.018z"></path><path d="M2090.7,1627.43L2281.002,1817.467L2371.9339999999997,1906.483L2571.678,2102.018L2090.678,2102.018z"></path><path d="M190.31,293.71L190.31,759.78L-0.017,576.496L-0.017,485.056z"></path><path d="M2281.0099999999998,293.71L2281.0099999999998,759.78L2090.683,576.496L2090.683,485.056z"></path><path d="M0,576.49L190.327,759.774L277.69,849.33L290.483,862.443L467.283,1043.68L273.484,1232.736L263.534,1242.442L190.37,1313.814L185.954,1318.122L0.772,1498.77z"></path><path d="M0,576.49L0.644,1498.78L185.825,1318.132L190.242,1313.824L190.242,1817.444L-0.06,1627.407z"></path><path d="M2090.7,576.49L2091.3439999999996,1498.78L2276.5249999999996,1318.132L2280.942,1313.824L2280.942,1817.444L2090.64,1627.407z"></path><path d="M1907.31,294.55L2089.994,485.051L2089.994,576.491L1907.31,755.015z"></path><path d="M1907.31,755L2089.995,576.476L2089.995,1498.106L1903.813,1323.759L1820.617,1245.85L1620.231,1058.201L1805.572,862.413z"></path><path d="M1624.83,0L2090,0L2090,485.05L1907.316,294.549L1815.178,198.468z"></path><path d="M1515.47,0L1624.83,0L1815.162,198.477L1329.782,198.477L1325.172,198.477z"></path><path d="M281.25,1906.47L762.41,1906.47L556.079,2101.998L480.999,2101.998z"></path><path d="M1239.81,1317.99L1239.81,1331.26L1239.81,1819.38L1052.643,1631.427L1052.643,1510.008z"></path><path d="M190.31,1313.83L263.473,1242.458L276.773,1242.458L759.773,1242.458L764.893,1242.458L776.283,1242.458L854.297,1317.979L854.297,1334.119L854.297,1819.359L762.389,1906.454L281.229,1906.454L190.297,1817.438z"></path><path d="M290.46,862.47L759.44,862.47L760.82,862.47L572.281,1044.986L467.229,1043.702z"></path><path d="M762.41,1906.47L854.318,1819.375L1052.665,1631.413L1239.832,1819.366L1328.116,1909.866L1515.517,2101.969L556.127,2101.969z"></path><path d="M854.31,283.85L1052.664,469.792L1052.664,576.472L854.311,771.938z"></path></svg>