<svg width="400" height="400" version="1.2" xmlns="http://www.w3.org/2000/svg" viewBox="0 0 400 400"><style type="text/css">path {stroke-width: 1; vector-effect: non-scaling-stroke; fill:none; stroke: #000; stroke-linecap: round; stroke-linejoin: miter;}</style><path d="M360,100L400,100L400,175L374.997,200.003L299.997,200.003L299.997,160.003L344.997,160.003L359.994,145.006z"></path><path d="M255,40L300,40L345,40L359.998,54.998L359.998,99.998L359.998,144.998L345,159.995L300,159.995L255,159.995L240.002,144.998L240.002,99.998L240.002,54.998z"></path><path d="M100,160L145,160L159.998,145.002L159.998,100.002L199.998,100.002L199.998,175.002L174.994,200.006L99.994,200.006z"></path><path d="M-100,0L-25,0L0.002999999999985903,25.003L0.002999999999985903,100.003L-39.997000000000014,100.003L-39.997000000000014,55.003L-54.99400000000003,40.006L-99.99400000000003,40.006z"></path><path d="M300,0L375,0L400.003,25.003L400.003,100.003L360.003,100.003L360.003,55.003L345.006,40.006L300.006,40.006z"></path><path d="M225,0L300,0L300,40L255,40L240.002,54.998L240.002,99.998L200.002,99.998L200.002,24.998z"></path><path d="M55,40L100,40L145,40L159.998,54.998L159.998,99.998L159.998,144.998L145,159.995L100,159.995L55,159.995L40.002,144.998L40.002,99.998L40.002,54.998z"></path><path d="M55,240L100,240L145,240L159.998,254.998L159.998,299.998L159.998,344.998L145,359.995L100,359.995L55,359.995L40.002,344.998L40.002,299.998L40.002,254.998z"></path><path d="M200,175L225.003,200.003L200,225.007L174.997,200.003z"></path><path d="M345,-40L359.998,-54.99799999999999L359.998,-99.99799999999999L399.998,-99.99799999999999L399.998,-24.99799999999999L374.994,0.005999999999971806L299.994,0.005999999999971806L299.994,-39.99400000000003z"></path><path d="M345,360L359.998,345.002L359.998,300.002L399.998,300.002L399.998,375.002L374.994,400.006L299.994,400.006L299.994,360.006z"></path><path d="M0,300L40,300L40,345L54.998,359.998L99.998,359.998L99.998,399.998L24.998,399.998L-0.006,374.994z"></path><path d="M400,300L440,300L440,345L454.998,359.998L499.998,359.998L499.998,399.998L424.998,399.998L399.994,374.994z"></path><path d="M-100,200L-25,200L0.002999999999985903,225.003L0.002999999999985903,300.003L-39.997000000000014,300.003L-39.997000000000014,255.003L-54.99400000000003,240.006L-99.99400000000003,240.006z"></path><path d="M300,200L375,200L400.003,225.003L400.003,300.003L360.003,300.003L360.003,255.003L345.006,240.006L300.006,240.006z"></path><path d="M255,240L300,240L345,240L359.998,254.998L359.998,299.998L359.998,344.998L345,359.995L300,359.995L255,359.995L240.002,344.998L240.002,299.998L240.002,254.998z"></path><path d="M100,-40L145,-40L159.998,-54.99799999999999L159.998,-99.99799999999999L199.998,-99.99799999999999L199.998,-24.99799999999999L174.994,0.005999999999971806L99.994,0.005999999999971806z"></path><path d="M100,360L145,360L159.998,345.002L159.998,300.002L199.998,300.002L199.998,375.002L174.994,400.006L99.994,400.006z"></path><path d="M200,300L240,300L240,345L254.998,359.998L299.998,359.998L299.998,399.998L224.998,399.998L199.994,374.994z"></path><path d="M25,200L100,200L100,240L55,240L40.002,254.998L40.002,299.998L0.002,299.998L0.002,224.998z"></path><path d="M200,100L240,100L240,145L254.998,159.998L299.998,159.998L299.998,199.998L224.998,199.998L199.994,174.994z"></path><path d="M100,0L175,0L200.003,25.003L200.003,100.003L160.003,100.003L160.003,55.003L145.006,40.006L100.006,40.006z"></path><path d="M25,0L100,0L100,40L55,40L40.002,54.998L40.002,99.998L0.002,99.998L0.002,24.998z"></path><path d="M0,100L40,100L40,145L54.998,159.998L99.998,159.998L99.998,199.998L24.998,199.998L-0.006,174.994z"></path><path d="M400,100L440,100L440,145L454.998,159.998L499.998,159.998L499.998,199.998L424.998,199.998L399.994,174.994z"></path><path d="M100,200L175,200L200.003,225.003L200.003,300.003L160.003,300.003L160.003,255.003L145.006,240.006L100.006,240.006z"></path><path d="M225,200L300,200L300,240L255,240L240.002,254.998L240.002,299.998L200.002,299.998L200.002,224.998z"></path></svg>