<svg width="2090" height="2102" version="1.2" xmlns="http://www.w3.org/2000/svg" viewBox="0 0 2090 2102"><style type="text/css">path {stroke-width: 1; vector-effect: non-scaling-stroke; fill:none; stroke: #000; stroke-linecap: round; stroke-linejoin: miter;}</style><path d="M0,-2102L1044.998,-1057.002L0.053,0.04899999999997817L0.053,-11.951000000000022L0.053,-711.1310000000001L339.944,-1054.959L0.037,-1394.866z"></path><path d="M0,0L1044.998,1044.998L0.053,2102.049L0.053,2090.049L0.053,1390.869L339.944,1047.041L0.037,707.134z"></path><path d="M1045,-1057L2089.998,-2101.998L2089.998,-1394.888L1750.092,-1054.982L2089.982,-711.153L2089.982,-11.972999999999956L2089.982,0.027000000000043656z"></path><path d="M1045,1045L2089.998,0.002L2089.998,707.112L1750.092,1047.018L2089.982,1390.847L2089.982,2090.027L2089.982,2102.027z"></path><path d="M1045,-1057L2089.944,0.05099999999993088L1386.844,0.05099999999993088L1044.965,-345.78999999999996L703.085,0.05099999999993088L-0.015,0.05099999999993088z"></path><path d="M3135,-1057L4179.9439999999995,0.05099999999993088L3476.844,0.05099999999993088L3134.965,-345.78999999999996L2793.085,0.05099999999993088L2089.985,0.05099999999993088z"></path><path d="M1045,1045L2089.944,2102.051L1386.844,2102.051L1044.965,1756.21L703.085,2102.051L-0.015,2102.051z"></path><path d="M3135,1045L4179.9439999999995,2102.051L3476.844,2102.051L3134.965,1756.21L2793.085,2102.051L2089.985,2102.051z"></path><path d="M-2090,0L-1382.8899999999999,0L-1044.999,337.891L-707.108,0L0.0019999999999527063,0L-1044.996,1044.998z"></path><path d="M0,0L707.11,0L1045.001,337.891L1382.892,0L2090.002,0L1045.004,1044.998z"></path><path d="M1045,-345.81999999999994L1386.88,0.021000000000185537L703.09,0.021000000000185537z"></path><path d="M1045,1756.18L1386.88,2102.021L703.09,2102.021z"></path><path d="M0,707.11L339.906,1047.016L0.016,1390.844z"></path><path d="M1750.09,1047.01L2089.996,707.104L2089.996,1390.814z"></path><path d="M707.11,0L1382.9,0L1045.009,337.891z"></path></svg>