<svg width="600" height="600" version="1.2" xmlns="http://www.w3.org/2000/svg" viewBox="0 0 600 600"><style type="text/css">path {stroke-width: 1; vector-effect: non-scaling-stroke; fill:none; stroke: #000; stroke-linecap: round; stroke-linejoin: miter;}</style><path d="M300,300L512.132,512.132L387.872,512.132z"></path><path d="M300,300L600,300L512.135,387.865z"></path><path d="M300,600L387.865,512.135L512.125,512.135L599.99,600z"></path><path d="M0,300L87.865,212.135L299.997,300.003z"></path><path d="M0,0L300,0L212.135,87.865L87.875,87.865z"></path><path d="M300,0L300,91.49L300,300L212.132,87.868z"></path><path d="M0,0L87.865,87.865L87.865,212.125L0,299.99z"></path><path d="M300,300L212.132,512.132L87.872,512.132z"></path><path d="M300,300L512.132,387.868L512.132,512.128z"></path><path d="M512.13,87.87L599.995,0.005L599.995,300.005L512.13,212.14z"></path><path d="M300,300L512.132,87.868L512.132,212.128z"></path><path d="M387.87,87.87L512.13,87.87L299.998,300.002z"></path><path d="M300,0L387.865,87.865L299.997,299.997L299.997,91.487z"></path><path d="M87.87,87.87L212.13,87.87L299.998,300.002z"></path><path d="M0,300L87.865,387.865L87.865,512.125L0,599.99z"></path><path d="M87.87,87.87L300.002,300.002L87.87,212.134z"></path><path d="M300,300L512.132,212.132L599.997,299.997z"></path><path d="M300,300L387.868,512.132L300.003,599.997z"></path><path d="M300,0L600,0L512.135,87.865L387.875,87.865z"></path><path d="M0,600L87.865,512.135L212.125,512.135L299.99,600z"></path><path d="M0,300L300,300L87.868,387.868z"></path><path d="M87.87,387.87L300.002,300.002L87.87,512.134z"></path><path d="M300,300L300,600L212.135,512.135z"></path><path d="M512.13,-212.13L599.995,-299.995L599.995,0.0049999999999954525L512.13,-87.86000000000001z"></path><path d="M512.13,387.87L599.995,300.005L599.995,600.005L512.13,512.14z"></path></svg>