<svg width="1800" height="600" version="1.2" xmlns="http://www.w3.org/2000/svg" viewBox="0 0 1800 600"><style type="text/css">path {stroke-width: 1; vector-effect: non-scaling-stroke; fill:none; stroke: #000; stroke-linecap: round; stroke-linejoin: miter;}</style><path d="M0,300L300,300L900,300L1200,300L1200,450L0,450z"></path><path d="M0,450L1200,450L1200,600L0,600z"></path><path d="M300,0L900,0L900,150L300,150z"></path><path d="M300,150L900,150L900,300L300,300z"></path><path d="M1200,450L1800,450L1800,600L1200,600z"></path><path d="M1200,300L1800,300L1800,450L1200,450z"></path><path d="M-900,0L300,0L300,150L-900,150z"></path><path d="M900,0L2100,0L2100,150L900,150z"></path><path d="M-900,150L300,150L300,300L0,300L-600,300L-900,300z"></path><path d="M900,150L2100,150L2100,300L1800,300L1200,300L900,300z"></path></svg>