<svg width="565.69" height="282.84" version="1.2" xmlns="http://www.w3.org/2000/svg" viewBox="0 0 565.69 282.84"><style type="text/css">path {stroke-width: 1; vector-effect: non-scaling-stroke; fill:none; stroke: #000; stroke-linecap: round; stroke-linejoin: miter;}</style><path d="M203.6,-87.9L-79.3,195L-150,124.3L132.8,-158.6z"></path><path d="M274.3,-300L557.1,-17.2L486.4,53.6L203.5,-229.3z"></path><path d="M132.8,-158.6L203.6,-229.3L486.4,53.6L415.7,124.3z"></path><path d="M274.3,-17.2L-8.6,265.7L-79.3,195L203.5,-87.9z"></path><path d="M769.2,-87.9L486.4,195L415.7,124.3L698.5,-158.6z"></path><path d="M840,-17.2L557.1,265.7L486.4,195L769.2,-87.9z"></path><path d="M203.6,195L-79.3,477.8L-150,407.1L132.8,124.3z"></path><path d="M274.3,-17.2L557.1,265.7L486.4,336.4L203.5,53.6z"></path><path d="M132.8,124.3L203.6,53.5L486.4,336.4L415.7,407.1z"></path><path d="M274.3,265.7L-8.6,548.5L-79.3,477.8L203.5,195z"></path><path d="M769.2,195L486.4,477.8L415.7,407.1L698.5,124.3z"></path><path d="M840,265.7L557.1,548.5L486.4,477.8L769.2,195z"></path><path d="M274.3,265.7L557.1,548.5L486.4,619.2L203.5,336.4z"></path></svg>