<svg width="2200" height="1600" version="1.2" xmlns="http://www.w3.org/2000/svg" viewBox="0 0 2200 1600"><style type="text/css">path {stroke-width: 1; vector-effect: non-scaling-stroke; fill:none; stroke: #000; stroke-linecap: round; stroke-linejoin: miter;}</style><path d="M-1100,1200L550,1200L550,1600L-1100,1600z"></path><path d="M1100,1200L2750,1200L2750,1600L1100,1600z"></path><path d="M550,800L1100,800L1100,1200L1100,1600L550,1600L550,1200z"></path><path d="M0,400L1650,400L1650,800L1100,800L550,800L0,800z"></path><path d="M0,0L1650,0L1650,400L0,400z"></path><path d="M-1100,800L-550,800L0,800L550,800L550,1200L-1100,1200z"></path><path d="M1100,800L1650,800L2200,800L2750,800L2750,1200L1100,1200z"></path><path d="M1650,0L2200,0L2200,800L1650,800L1650,400z"></path></svg>