<svg width="707" height="2121" version="1.2" xmlns="http://www.w3.org/2000/svg" viewBox="0 0 707 2121"><style type="text/css">path {stroke-width: 1; vector-effect: non-scaling-stroke; fill:none; stroke: #000; stroke-linecap: round; stroke-linejoin: miter;}</style><path d="M0.11000000000001364,0L0.11000000000001364,353.55L-353.443,707.103L-353.443,353.553z"></path><path d="M707.11,0L707.11,353.55L353.557,707.103L353.557,353.553z"></path><path d="M-353.45,1060.66L0.1029999999999518,707.107L353.6569999999999,1060.66L0.1029999999999518,1414.213z"></path><path d="M353.55,1060.66L707.103,707.107L1060.657,1060.66L707.103,1414.213z"></path><path d="M-707,0.3200000000001637L-353.447,-353.23299999999995L0.1069999999999709,0.3200000000001637L-353.447,353.87300000000005z"></path><path d="M0,0.3200000000001637L353.553,-353.23299999999995L707.107,0.3200000000001637L353.553,353.87300000000005z"></path><path d="M-707,2121.32L-353.447,1767.767L0.1069999999999709,2121.32L-353.447,2474.873z"></path><path d="M0,2121.32L353.553,1767.767L707.107,2121.32L353.553,2474.873z"></path><path d="M-353.45,1060.66L0.1029999999999518,1414.213L0.1029999999999518,1767.763L-353.45,1414.21z"></path><path d="M353.55,1060.66L707.103,1414.213L707.103,1767.763L353.55,1414.21z"></path><path d="M-353.45,-706.79L0.1029999999999518,-353.2370000000001L0.1029999999999518,0.31300000000010186L-353.45,-353.24z"></path><path d="M353.55,-706.79L707.103,-353.2370000000001L707.103,0.31300000000010186L353.55,-353.24z"></path><path d="M-353.45,1414.21L0.1029999999999518,1767.763L0.1029999999999518,2121.313L-353.45,1767.76z"></path><path d="M353.55,1414.21L707.103,1767.763L707.103,2121.313L353.55,1767.76z"></path><path d="M0,-353.23L353.553,-706.7829999999999L353.553,-353.23299999999995L0,0.3200000000001637z"></path><path d="M0,1767.77L353.553,1414.217L353.553,1767.767L0,2121.32z"></path><path d="M0.11000000000001364,353.55L353.663,707.103L353.663,1060.653L0.11000000000001364,707.1z"></path><path d="M0.11000000000001364,0L353.663,353.553L353.663,707.103L0.11000000000001364,353.55z"></path><path d="M0,1414.21L353.553,1060.657L353.553,1414.207L0,1767.76z"></path><path d="M-353.45,707.11L0.1029999999999518,353.557L0.1029999999999518,707.107L-353.45,1060.66z"></path><path d="M353.55,707.11L707.103,353.557L707.103,707.107L353.55,1060.66z"></path></svg>