<svg width="845" height="650" version="1.2" xmlns="http://www.w3.org/2000/svg" viewBox="0 0 845 650"><style type="text/css">.thumb-shape {stroke-width: 1; vector-effect: non-scaling-stroke; fill:none; stroke: #000; stroke-linecap: round; stroke-linejoin: miter;}</style><path d="M-50.5,184.5L-3.7,164.3L26.3,164.3L55,159.7L71.5,163.9L158,275.2L179.6,328L179.6,342L148.6,342L109.2,335.4L13.2,335.4L-59.5,328.7L-87.2,323L-87.2,276.3L-80.6,207.6z" class="thumb-shape"></path><path d="M262.1,-9.1L287.2,-16L491.2,-16L506.1,-4.2L512.1,23.2L512.1,89.2L492.1,172.8L432.1,172.8L370.5,166.3L345.5,166.3L326.5,140.5L294.5,51.1L257.5,17.5z" class="thumb-shape"></path><path d="M11.4,-63L50.8,-70L227.8,-70L249.4,-62.2L249.4,56.8L212,78L158.3,93.6L98,122.9L46.2,138.2L6.1,160.6L-11.9,160.6L-15,140.7L-15,21.7L-9,-41z" class="thumb-shape"></path><path d="M361.3,182.8L378.8,169.5L615.7,192.7L624.9,205.8L624.9,257.8L619.6,287.3L619.6,328.3L510.4,370.3L461.4,380L393.6,409.8L366.6,409.8L359.4,379.7L367.9,326L355.6,265.2L355.6,209.2z" class="thumb-shape"></path><path d="M185.1,87.8L214.4,79.3L253.4,58.9L294.3,136.8L325.7,174.4L352.3,214.3L352.3,295.3L338.7,309.9L268.7,309.9L240,314.3L184,314.3L167.2,274.5L159.8,218.9L159.8,98.9z" class="thumb-shape"></path><path d="M65,133.6L97,125.9L136,105.4L145,105.4L153.6,114.6L157.5,134.3L152.4,160.7L110.6,165.4L79.6,165.4L55.2,158.6L55.2,141.6z" class="thumb-shape"></path><path d="M107.5,173.7L116.4,165.6L136.2,163.3L155.3,202.5L163.1,256.9L158.8,264.8L146.5,258L102.3,198.1z" class="thumb-shape"></path><path d="M514.9,130.7L524.7,130.7L539.7,162.3L539.7,178.3L533.2,182.9L513.2,181.8L504.2,157.4L504.2,142.9z" class="thumb-shape"></path><path d="M252.4,21.6L258.3,20.4L279.7,37.7L303.4,76.2L306.6,97L290.3,107.4L270.7,91.9L249.4,29.1z" class="thumb-shape"></path><path d="M295,104.4L308.4,97.6L320.2,125.2L326.6,154.5L323.3,158.3L315.8,158.3L297.9,138.1L288,113.9z" class="thumb-shape"></path><path d="M271.6,319.4L298.8,312.6L338.8,312.6L357.5,339.8L357.5,382.8L360.5,431.7L360.5,454.7L353.3,490L327.1,520.4L254.8,520.4L250.4,487L250.4,443L265.1,381.1z" class="thumb-shape"></path><path d="M-18.1,345.2L-12.5,336.6L106.5,336.6L128.8,347.8L136.8,347.8L149.3,344.1L159.3,344.1L184.7,349.7L229.5,353.4L251.6,359.9L263.8,371.7L263.8,383.7L242.2,450.3L231.5,499.1L208.5,524.2L182,535.8L136.4,542L66.2,565.5L31.1,577.2L-23.9,577.2L-33.2,571.4L-41.6,543.6L-30.2,522.5L-30.2,489.5L-17.5,458L-12.4,419.3L-12.4,396.3L-18.1,377.2z" class="thumb-shape"></path><path d="M627.6,254.4L709.3,234.5L756.7,255L756.7,337L736.9,375.2L704.9,375.2L646.9,365.5L622.9,357L622.9,278.1z" class="thumb-shape"></path><path d="M640.6,219.2L652.7,210.3L663,214.3L680,237.8L656.7,246.7L636.3,251.7L632.6,249.6L632.6,238.6z" class="thumb-shape"></path><path d="M421.3,398L460.4,380.8L484.9,379.1L490,388.6L490,400.4L457.5,416.6L422.8,425L410.3,425L407.9,413.2z" class="thumb-shape"></path><path d="M365.8,434.2L372.8,430.3L417.6,426.2L437.2,422L474.2,422L482.6,429.1L495.9,453.7L513.1,506L528.9,526.6L543.1,575.6L532.4,638.4L503.4,638.4L486.5,631.7L383.5,631.7L346.8,627.2L346.8,586.2L353,554.8L354.3,490z" class="thumb-shape"></path><path d="M482.4,406.1L502.8,392.1L509.4,386L517.3,384.5L524.3,399.9L530,412L527.7,465L509.7,473.8L503.7,473.8L482.4,414.1z" class="thumb-shape"></path><path d="M186.4,316.7L213.3,315.1L247.3,315.1L256.7,320.9L256.7,330.9L249.8,340.6L244.2,351.3L224.3,352.4L187.3,349.2L181.6,338.7L180.2,325.8z" class="thumb-shape"></path><path d="M520.2,367.3L587.7,359.1L712.6,378.3L737.2,401.7L749.2,422.5L776.5,428.9L817.1,443.1L812.5,494.9L802.6,541.9L791,596.6L744.7,604.7L697.2,604.7L638.5,617.2L555.8,629.5L546.8,590.5L546.8,560.5L535.6,514.9L530.8,459.1L530.8,411.1L523.4,394.1z" class="thumb-shape"></path><path d="M514.4,-1.9L540,-12.9L673.6,-36.4L716.5,-32L750.2,-18.3L750.2,86L760,164.4L760,245.9L749.6,245.9L713.8,234.4L537.3,157.3L521.9,120.4L514.4,81.7z" class="thumb-shape"></path><path d="M-86,-7.9L-57.7,-17.8L-25.7,-17.8L-15,104.2L-24.8,163.4L-45.6,178.9L-68.7,169.8L-89.2,118.7L-94.6,24z" class="thumb-shape"></path><path d="M-87.2,-46L-49.2,-46L-38.8,-38.2L-35.8,-30L-38.4,-24.7L-67.7,-15.3L-79.6,-14.1L-92,-15.3L-96,-22.7z" class="thumb-shape"></path><path d="M372.6,414.8L398,409.4L404.3,412.5L402.2,424.3L390.1,427.9L370.1,429.4L362.4,427.4L360.6,423.8z" class="thumb-shape"></path><path d="M590.1,340.9L617.8,335.4L622.2,346.3L621.4,360.4L581.2,358.5L576.2,352.9z" class="thumb-shape"></path><path d="M763.6,332.2L799.5,330.6L826.5,338.3L823.3,391.1L815.4,403.5L813.3,417.4L800.5,436.1L758.1,422.8L735.5,397.8L735.5,378.6z" class="thumb-shape"></path><path d="M61.9,569.3L104.5,553.3L131.7,545L150.3,545L159.4,550.4L165.4,567.3L161.9,579.5L66.8,579.5L61.9,574.6z" class="thumb-shape"></path><path d="M204.7,526.7L242.6,518.5L337.9,542.4L349.1,552.1L349.1,566.2L317,593.8L274.9,593.8L188.5,562.2L185.6,548.2z" class="thumb-shape"></path><path d="M252.5,605.6L273.8,595.6L295.3,595.6L315.6,600.6L342.7,613.1L346.8,624.2L325.6,630.3L266.3,634L252.5,624.7z" class="thumb-shape"></path><path d="M510.7,478.7L524,468.2L529.3,471.1L533.6,505.9L527.7,511.3L514.9,506.4z" class="thumb-shape"></path><path d="M335.2,511L346.5,501.2L352,503.7L353.6,525.1L349,540.4L342.3,542.2L332.1,540.9L328.2,533.2z" class="thumb-shape"></path><path d="M337.2,168.9L359.3,166.3L361.6,176.1L358.3,194.6L355.6,203.8L350,206L342.9,200.2L333,176.1z" class="thumb-shape"></path><path d="M794.5,184.5L841.3,164.3L871.3,164.3L900,159.7L916.5,163.9L1003,275.2L1024.6,328L1024.6,342L993.6,342L954.2,335.4L858.2,335.4L785.5,328.7L757.8,323L757.8,276.3L764.4,207.6z" class="thumb-shape"></path><path d="M262.1,640.9L287.2,634L491.2,634L506.1,645.8L512.1,673.2L512.1,739.2L492.1,822.8L432.1,822.8L370.5,816.3L345.5,816.3L326.5,790.5L294.5,701.1L257.5,667.5z" class="thumb-shape"></path><path d="M856.4,-63L895.8,-70L1072.8,-70L1094.4,-62.2L1094.4,56.8L1057,78L1003.3,93.6L943,122.9L891.2,138.2L851.1,160.6L833.1,160.6L830,140.7L830,21.7L836,-41z" class="thumb-shape"></path><path d="M11.4,587L50.8,580L227.8,580L249.4,587.8L249.4,706.8L212,728L158.3,743.6L98,772.9L46.2,788.2L6.1,810.6L-11.9,810.6L-15,790.7L-15,671.7L-9,609z" class="thumb-shape"></path><path d="M856.4,587L895.8,580L1072.8,580L1094.4,587.8L1094.4,706.8L1057,728L1003.3,743.6L943,772.9L891.2,788.2L851.1,810.6L833.1,810.6L830,790.7L830,671.7L836,609z" class="thumb-shape"></path><path d="M826.9,345.2L832.5,336.6L951.5,336.6L973.8,347.8L981.8,347.8L994.3,344.1L1004.3,344.1L1029.7,349.7L1074.5,353.4L1096.6,359.9L1108.8,371.7L1108.8,383.7L1087.2,450.3L1076.5,499.1L1053.5,524.2L1027,535.8L981.4,542L911.2,565.5L876.1,577.2L821.1,577.2L811.8,571.4L803.4,543.6L814.8,522.5L814.8,489.5L827.5,458L832.6,419.3L832.6,396.3L826.9,377.2z" class="thumb-shape"></path><path d="M514.4,648.1L540,637.1L673.6,613.6L716.5,618L750.2,631.7L750.2,736L760,814.4L760,895.9L749.6,895.9L713.8,884.4L537.3,807.3L521.9,770.4L514.4,731.7z" class="thumb-shape"></path><path d="M759,-7.9L787.3,-17.8L819.3,-17.8L830,104.2L820.2,163.4L799.4,178.9L776.3,169.8L755.8,118.7L750.4,24z" class="thumb-shape"></path><path d="M-86,642.1L-57.7,632.2L-25.7,632.2L-15,754.2L-24.8,813.4L-45.6,828.9L-68.7,819.8L-89.2,768.7L-94.6,674z" class="thumb-shape"></path><path d="M759,642.1L787.3,632.2L819.3,632.2L830,754.2L820.2,813.4L799.4,828.9L776.3,819.8L755.8,768.7L750.4,674z" class="thumb-shape"></path><path d="M757.8,-46L795.8,-46L806.2,-38.2L809.2,-30L806.6,-24.7L777.3,-15.3L765.4,-14.1L753,-15.3L749,-22.7z" class="thumb-shape"></path><path d="M-87.2,604L-49.2,604L-38.8,611.8L-35.8,620L-38.4,625.3L-67.7,634.7L-79.6,635.9L-92,634.7L-96,627.3z" class="thumb-shape"></path><path d="M757.8,604L795.8,604L806.2,611.8L809.2,620L806.6,625.3L777.3,634.7L765.4,635.9L753,634.7L749,627.3z" class="thumb-shape"></path></svg>