<svg width="2000" height="1000" version="1.2" xmlns="http://www.w3.org/2000/svg" viewBox="0 0 2000 1000"><style type="text/css">path {stroke-width: 1; vector-effect: non-scaling-stroke; fill:none; stroke: #000; stroke-linecap: round; stroke-linejoin: miter;}</style><path d="M0,500L73.39,500L500,500L567,500L1000,500L1000,1000L573.39,1000L0,1000z"></path><path d="M-1500,0L500,0L500,500L73.38999999999987,500L0,500L-500,500L-926.6099999999999,500L-1000,500L-1433,500L-1500,500z"></path><path d="M500,0L2500,0L2500,500L2073.39,500L2000,500L1500,500L1073.39,500L1000,500L567,500L500,500z"></path><path d="M1000,500L1073.39,500L1500,500L2000,500L2000,1000L1573.39,1000L1000,1000z"></path></svg>