<svg width="1000" height="500" version="1.2" xmlns="http://www.w3.org/2000/svg" viewBox="0 0 1000 500"><style type="text/css">.thumb-shape {stroke-width: 1; vector-effect: non-scaling-stroke; fill:none; stroke: #000; stroke-linecap: round; stroke-linejoin: miter;}</style><path d="M483.2,160.1L511.2,159.7L511.6,187.6L483.6,188.1z" class="thumb-shape"></path><path d="M488.4,109.6L516.4,110L516,138L488,137.6z" class="thumb-shape"></path><path d="M484.3,58.9L512.3,58.2L513,86.3L485,87z" class="thumb-shape"></path><path d="M485.8,440.3L513.8,440.3L513.8,468.3L485.8,468.3z" class="thumb-shape"></path><path d="M487,209.4L515,209.6L514.8,237.6L486.8,237.4z" class="thumb-shape"></path><path d="M484,262.8L511.9,261.3L513.4,289.2L485.5,290.7z" class="thumb-shape"></path><path d="M-13,459.4L15,459.6L14.8,487.6L-13.2,487.4z" class="thumb-shape"></path><path d="M-15.7,308.9L12.3,308.2L13,336.3L-15,337z" class="thumb-shape"></path><path d="M-11.6,359.6L16.4,360L16,388L-12,387.6z" class="thumb-shape"></path><path d="M-16,12.8L11.9,11.3L13.4,39.2L-14.5,40.7z" class="thumb-shape"></path><path d="M-14.2,190.3L13.8,190.3L13.8,218.3L-14.2,218.3z" class="thumb-shape"></path><path d="M-16.8,410.1L11.2,409.7L11.6,437.6L-16.4,438.1z" class="thumb-shape"></path><path d="M727,284.2L749.4,267.5L766.2,289.9L743.7,306.6z" class="thumb-shape"></path><path d="M518.1,377.1L545.9,380.5L542.5,408.4L514.7,405z" class="thumb-shape"></path><path d="M771.4,259.6L794,243.2L810.4,265.8L787.8,282.2z" class="thumb-shape"></path><path d="M603.7,229.2L629.3,240.4L618.1,266.1L592.5,254.8z" class="thumb-shape"></path><path d="M821.7,240.7L845.6,226.1L860.2,250.1L836.3,264.7z" class="thumb-shape"></path><path d="M783.3,201L803.3,181.3L823,201.3L803,221z" class="thumb-shape"></path><path d="M758.7,144.1L780.8,161.3L763.5,183.4L741.4,166.2z" class="thumb-shape"></path><path d="M709.5,113.1L733.6,127.3L719.5,151.4L695.4,137.3z" class="thumb-shape"></path><path d="M656.7,88.9L682.5,99.7L671.7,125.5L645.9,114.7z" class="thumb-shape"></path><path d="M601.1,71.8L628.1,79.1L620.8,106.1L593.8,98.8z" class="thumb-shape"></path><path d="M543.8,62.1L571.6,65.9L567.9,93.7L540.1,89.9z" class="thumb-shape"></path><path d="M657.2,256.4L680,272.7L663.7,295.4L640.9,279.1z" class="thumb-shape"></path><path d="M545.7,213.6L573.1,219.3L567.4,246.8L540,241z" class="thumb-shape"></path><path d="M644.3,344.6L664.7,325.4L683.9,345.8L663.5,365z" class="thumb-shape"></path><path d="M515.1,317.9L543,321.3L539.6,349.1L511.7,345.8z" class="thumb-shape"></path><path d="M573.9,327L599.5,338.7L587.9,364.1L562.4,352.5z" class="thumb-shape"></path><path d="M625.4,358.3L645.6,377.7L626.2,397.9L606,378.5z" class="thumb-shape"></path><path d="M513.6,7.2L541.6,8.8L540,36.8L512.1,35.2z" class="thumb-shape"></path><path d="M774.4,94.2L797.1,110.6L780.7,133.3L758,116.9z" class="thumb-shape"></path><path d="M839.7,183.9L861.5,166.5L878.9,188.3L857.1,205.7z" class="thumb-shape"></path><path d="M874,223L899.8,212.1L910.7,237.9L884.8,248.8z" class="thumb-shape"></path><path d="M571.8,12.6L599,19.1L592.5,46.3L565.3,39.8z" class="thumb-shape"></path><path d="M625.3,24.9L651.8,33.8L642.9,60.3L616.4,51.4z" class="thumb-shape"></path><path d="M676.1,42.9L702,53.8L691.2,79.5L665.3,68.7z" class="thumb-shape"></path><path d="M726.7,65.8L751.2,79.4L737.5,103.9L713,90.3z" class="thumb-shape"></path><path d="M818.5,127.9L839.3,146.7L820.4,167.5L799.7,148.6z" class="thumb-shape"></path><path d="M542.3,450L569.8,455.1L564.7,482.6L537.2,477.4z" class="thumb-shape"></path><path d="M683.3,312.9L704,293.9L722.9,314.6L702.3,333.5z" class="thumb-shape"></path><path d="M600.6,175.3L627,184.7L617.6,211L591.2,201.6z" class="thumb-shape"></path><path d="M583.1,396.1L606.8,411L591.9,434.7L568.2,419.8z" class="thumb-shape"></path><path d="M543.3,112.4L571,116.5L566.9,144.2L539.2,140.1z" class="thumb-shape"></path><path d="M599.9,123L626.7,131.2L618.5,157.9L591.8,149.8z" class="thumb-shape"></path><path d="M543.8,162.9L571.4,167.6L566.7,195.2L539.1,190.5z" class="thumb-shape"></path><path d="M705.3,168.5L728.6,184.1L713,207.3L689.8,191.8z" class="thumb-shape"></path><path d="M654.3,141.8L679.6,153.8L667.6,179.2L642.3,167.2z" class="thumb-shape"></path><path d="M752,201.4L772.7,220.3L753.8,241L733.1,222.1z" class="thumb-shape"></path><path d="M611.8,287.5L635.8,302.1L621.3,326L597.3,311.5z" class="thumb-shape"></path><path d="M548.3,267.2L575.3,274.7L567.8,301.7L540.8,294.2z" class="thumb-shape"></path><path d="M703.7,227.9L725.4,245.6L707.7,267.3L686,249.6z" class="thumb-shape"></path><path d="M654.4,197.1L678.8,210.9L665.1,235.3L640.7,221.6z" class="thumb-shape"></path><path d="M428.2,167.6L455.8,162.9L460.6,190.4L433,195.2z" class="thumb-shape"></path><path d="M392.9,411L416.5,396.1L431.4,419.8L407.8,434.7z" class="thumb-shape"></path><path d="M428.7,116.5L456.4,112.4L460.5,140.1L432.8,144.2z" class="thumb-shape"></path><path d="M373,131.1L399.8,123L407.9,149.8L381.2,157.9z" class="thumb-shape"></path><path d="M320,153.8L345.4,141.8L357.4,167.2L332,179.2z" class="thumb-shape"></path><path d="M271.1,184.1L294.3,168.5L309.9,191.8L286.6,207.3z" class="thumb-shape"></path><path d="M227,220.3L247.7,201.4L266.6,222L245.9,241z" class="thumb-shape"></path><path d="M205.7,243.2L228.3,259.6L211.9,282.2L189.3,265.8z" class="thumb-shape"></path><path d="M428.1,65.9L455.8,62.1L459.6,89.9L431.8,93.7z" class="thumb-shape"></path><path d="M458.1,8.8L486.1,7.2L487.7,35.2L459.7,36.8z" class="thumb-shape"></path><path d="M354,377.7L374.3,358.3L393.7,378.5L373.5,397.9z" class="thumb-shape"></path><path d="M400.3,338.7L425.8,327L437.4,352.5L411.8,364.1z" class="thumb-shape"></path><path d="M456.7,321.3L484.6,317.9L487.9,345.8L460.1,349.1z" class="thumb-shape"></path><path d="M334.9,325.4L355.4,344.6L336.2,365L315.7,345.8z" class="thumb-shape"></path><path d="M426.5,219.3L453.9,213.6L459.6,241L432.2,246.7z" class="thumb-shape"></path><path d="M319.7,272.7L342.5,256.4L358.8,279.1L336,295.4z" class="thumb-shape"></path><path d="M370.4,240.4L396,229.2L407.2,254.8L381.6,266.1z" class="thumb-shape"></path><path d="M453.7,380.5L481.6,377.1L485,405L457.1,408.4z" class="thumb-shape"></path><path d="M250.2,267.5L272.7,284.2L255.9,306.6L233.5,289.9z" class="thumb-shape"></path><path d="M154.1,226.2L178,240.7L163.4,264.7L139.5,250.1z" class="thumb-shape"></path><path d="M196.4,181.3L216.4,201L196.7,221L176.7,201.3z" class="thumb-shape"></path><path d="M218.9,161.3L241,144.1L258.3,166.2L236.2,183.4z" class="thumb-shape"></path><path d="M266,127.3L290.2,113.1L304.3,137.3L280.1,151.4z" class="thumb-shape"></path><path d="M317.2,99.7L343,88.9L353.8,114.7L328,125.5z" class="thumb-shape"></path><path d="M371.5,79.1L398.6,71.8L405.8,98.8L378.8,106.1z" class="thumb-shape"></path><path d="M320.8,210.9L345.3,197.1L359,221.6L334.6,235.3z" class="thumb-shape"></path><path d="M363.9,302.1L387.9,287.5L402.4,311.5L378.4,326z" class="thumb-shape"></path><path d="M424.3,274.7L451.4,267.2L458.9,294.2L431.8,301.7z" class="thumb-shape"></path><path d="M274.3,245.6L296,227.9L313.6,249.6L291.9,267.3z" class="thumb-shape"></path><path d="M372.7,184.7L399,175.3L408.4,201.6L382.1,211z" class="thumb-shape"></path><path d="M429.9,455.1L457.4,450L462.5,477.4L435,482.6z" class="thumb-shape"></path><path d="M295.7,293.9L316.4,312.9L297.4,333.5L276.7,314.6z" class="thumb-shape"></path><path d="M400.7,19.1L427.9,12.6L434.4,39.8L407.2,46.3z" class="thumb-shape"></path><path d="M297.7,53.7L323.5,42.9L334.3,68.7L308.5,79.5z" class="thumb-shape"></path><path d="M160.4,146.7L181.2,127.9L200,148.6L179.3,167.5z" class="thumb-shape"></path><path d="M99.9,212.1L125.7,223L114.8,248.8L89,237.9z" class="thumb-shape"></path><path d="M347.9,33.8L374.3,24.9L383.3,51.4L356.8,60.3z" class="thumb-shape"></path><path d="M248.5,79.5L272.9,65.8L286.6,90.2L262.2,103.9z" class="thumb-shape"></path><path d="M202.6,110.6L225.3,94.2L241.6,116.9L218.9,133.3z" class="thumb-shape"></path><path d="M138.2,166.5L160,183.9L142.6,205.7L120.8,188.3z" class="thumb-shape"></path><path d="M154.4,447.1L178.8,460.9L165.1,485.3L140.7,471.6z" class="thumb-shape"></path><path d="M100.6,425.3L127,434.7L117.6,461L91.2,451.6z" class="thumb-shape"></path><path d="M71.8,262.6L99,269.1L92.5,296.3L65.3,289.8z" class="thumb-shape"></path><path d="M125.3,274.9L151.8,283.8L142.9,310.3L116.4,301.4z" class="thumb-shape"></path><path d="M176.1,292.9L202,303.8L191.2,329.5L165.3,318.7z" class="thumb-shape"></path><path d="M226.7,315.8L251.2,329.4L237.5,353.9L213,340.3z" class="thumb-shape"></path><path d="M318.5,377.9L339.3,396.7L320.4,417.5L299.7,398.6z" class="thumb-shape"></path><path d="M274.4,344.2L297.1,360.6L280.7,383.3L258,366.9z" class="thumb-shape"></path><path d="M339.7,433.9L361.5,416.5L378.9,438.3L357.1,455.7z" class="thumb-shape"></path><path d="M13.6,257.2L41.6,258.8L40,286.8L12.1,285.2z" class="thumb-shape"></path><path d="M283.3,451L303.3,431.3L323,451.3L303,471z" class="thumb-shape"></path><path d="M258.7,394.1L280.8,411.3L263.5,433.4L241.4,416.2z" class="thumb-shape"></path><path d="M209.5,363.1L233.6,377.3L219.5,401.4L195.4,387.3z" class="thumb-shape"></path><path d="M156.7,338.9L182.5,349.7L171.7,375.5L145.9,364.7z" class="thumb-shape"></path><path d="M101.1,321.8L128.1,329.1L120.8,356.1L93.8,348.8z" class="thumb-shape"></path><path d="M43.8,312.1L71.6,315.9L67.9,343.7L40.1,339.9z" class="thumb-shape"></path><path d="M205.3,418.5L228.6,434.1L213,457.3L189.8,441.8z" class="thumb-shape"></path><path d="M154.3,391.8L179.6,403.8L167.6,429.2L142.3,417.2z" class="thumb-shape"></path><path d="M99.9,373L126.7,381.2L118.5,407.9L91.8,399.8z" class="thumb-shape"></path><path d="M43.3,362.4L71,366.5L66.9,394.2L39.2,390.1z" class="thumb-shape"></path><path d="M43.8,412.9L71.4,417.6L66.7,445.2L39.1,440.5z" class="thumb-shape"></path><path d="M111.8,37.5L135.8,52.1L121.3,76L97.3,61.5z" class="thumb-shape"></path><path d="M48.3,17.2L75.3,24.7L67.8,51.7L40.8,44.2z" class="thumb-shape"></path><path d="M203.7,-22.1L225.4,-4.4L207.7,17.3L186,-0.4z" class="thumb-shape"></path><path d="M183.3,62.9L204,43.9L222.9,64.6L202.3,83.5z" class="thumb-shape"></path><path d="M42.3,200L69.8,205.1L64.7,232.6L37.2,227.4z" class="thumb-shape"></path><path d="M374,-27L399.8,-37.9L410.7,-12.1L384.8,-1.2z" class="thumb-shape"></path><path d="M125.4,108.3L145.6,127.7L126.2,147.9L106,128.5z" class="thumb-shape"></path><path d="M73.9,77L99.5,88.7L87.9,114.1L62.4,102.5z" class="thumb-shape"></path><path d="M15.1,67.9L43,71.3L39.6,99.1L11.7,95.8z" class="thumb-shape"></path><path d="M144.3,94.6L164.7,75.4L183.9,95.8L163.5,115z" class="thumb-shape"></path><path d="M45.7,-36.4L73.1,-30.7L67.4,-3.2L40,-9z" class="thumb-shape"></path><path d="M157.2,6.4L180,22.7L163.7,45.4L140.9,29.1z" class="thumb-shape"></path><path d="M103.7,-20.8L129.3,-9.6L118.1,16.1L92.5,4.8z" class="thumb-shape"></path><path d="M18.1,127.1L45.9,130.5L42.5,158.4L14.7,155z" class="thumb-shape"></path><path d="M227,34.2L249.4,17.5L266.2,39.9L243.7,56.6z" class="thumb-shape"></path><path d="M321.7,-9.3L345.6,-23.9L360.2,0.1L336.3,14.7z" class="thumb-shape"></path><path d="M271.4,9.6L294,-6.8L310.4,15.8L287.8,32.2z" class="thumb-shape"></path><path d="M83.1,146.1L106.8,161L91.9,184.7L68.2,169.8z" class="thumb-shape"></path><path d="M820.8,460.9L845.3,447.1L859,471.6L834.6,485.3z" class="thumb-shape"></path><path d="M872.7,434.7L899,425.3L908.4,451.6L882.1,461z" class="thumb-shape"></path><path d="M900.7,269.1L927.9,262.6L934.4,289.8L907.2,296.3z" class="thumb-shape"></path><path d="M847.9,283.8L874.3,274.9L883.3,301.4L856.8,310.3z" class="thumb-shape"></path><path d="M797.7,303.7L823.5,292.9L834.3,318.7L808.5,329.5z" class="thumb-shape"></path><path d="M748.5,329.5L772.9,315.8L786.6,340.2L762.2,353.9z" class="thumb-shape"></path><path d="M660.4,396.7L681.2,377.9L700,398.6L679.3,417.5z" class="thumb-shape"></path><path d="M702.6,360.6L725.3,344.2L741.6,366.9L718.9,383.3z" class="thumb-shape"></path><path d="M638.2,416.5L660,433.9L642.6,455.7L620.8,438.3z" class="thumb-shape"></path><path d="M958.1,258.8L986.1,257.2L987.7,285.2L959.7,286.8z" class="thumb-shape"></path><path d="M718.9,411.3L741,394.1L758.3,416.2L736.2,433.4z" class="thumb-shape"></path><path d="M766,377.3L790.2,363.1L804.3,387.3L780.1,401.4z" class="thumb-shape"></path><path d="M817.2,349.7L843,338.9L853.8,364.7L828,375.5z" class="thumb-shape"></path><path d="M871.5,329.1L898.6,321.8L905.8,348.8L878.8,356.1z" class="thumb-shape"></path><path d="M928.1,315.9L955.8,312.1L959.6,339.9L931.8,343.7z" class="thumb-shape"></path><path d="M727,470.3L747.7,451.4L766.6,472L745.9,491z" class="thumb-shape"></path><path d="M771.1,434.1L794.3,418.5L809.9,441.8L786.6,457.3z" class="thumb-shape"></path><path d="M820,403.8L845.4,391.8L857.4,417.2L832,429.2z" class="thumb-shape"></path><path d="M873,381.1L899.8,373L907.9,399.8L881.2,407.9z" class="thumb-shape"></path><path d="M928.7,366.5L956.4,362.4L960.5,390.1L932.8,394.2z" class="thumb-shape"></path><path d="M928.2,417.6L955.8,412.9L960.6,440.4L933,445.2z" class="thumb-shape"></path><path d="M863.9,52.1L887.9,37.5L902.4,61.5L878.4,76z" class="thumb-shape"></path><path d="M924.3,24.7L951.4,17.2L958.9,44.2L931.8,51.7z" class="thumb-shape"></path><path d="M774.3,-4.4L796,-22.1L813.6,-0.4L791.9,17.3z" class="thumb-shape"></path><path d="M795.7,43.9L816.4,62.9L797.4,83.5L776.7,64.6z" class="thumb-shape"></path><path d="M929.9,205.1L957.4,200L962.5,227.4L935,232.6z" class="thumb-shape"></path><path d="M599.9,-37.9L625.7,-27L614.8,-1.2L589,-12.1z" class="thumb-shape"></path><path d="M854,127.7L874.3,108.3L893.7,128.5L873.5,147.9z" class="thumb-shape"></path><path d="M900.3,88.7L925.8,77L937.4,102.5L911.8,114.1z" class="thumb-shape"></path><path d="M956.7,71.3L984.6,67.9L987.9,95.8L960.1,99.1z" class="thumb-shape"></path><path d="M834.9,75.4L855.4,94.6L836.2,115L815.7,95.8z" class="thumb-shape"></path><path d="M926.5,-30.7L953.9,-36.4L959.6,-9L932.2,-3.3z" class="thumb-shape"></path><path d="M819.7,22.7L842.5,6.4L858.8,29.1L836,45.4z" class="thumb-shape"></path><path d="M870.4,-9.6L896,-20.8L907.2,4.8L881.6,16.1z" class="thumb-shape"></path><path d="M953.7,130.5L981.6,127.1L985,155L957.1,158.4z" class="thumb-shape"></path><path d="M750.2,17.5L772.7,34.2L755.9,56.6L733.5,39.9z" class="thumb-shape"></path><path d="M654.1,-23.8L678,-9.3L663.4,14.7L639.5,0.1z" class="thumb-shape"></path><path d="M705.7,-6.8L728.3,9.6L711.9,32.2L689.3,15.8z" class="thumb-shape"></path><path d="M892.9,161L916.5,146.1L931.4,169.8L907.8,184.7z" class="thumb-shape"></path><path d="M252,451.4L272.7,470.3L253.8,491L233.1,472.1z" class="thumb-shape"></path><path d="M696.4,431.3L716.4,451L696.7,471L676.7,451.3z" class="thumb-shape"></path><path d="M987,459.4L1015,459.6L1014.8,487.6L986.8,487.4z" class="thumb-shape"></path><path d="M984.3,308.9L1012.3,308.2L1013,336.3L985,337z" class="thumb-shape"></path><path d="M988.4,359.6L1016.4,360L1016,388L988,387.6z" class="thumb-shape"></path><path d="M984,12.8L1011.9,11.3L1013.4,39.2L985.5,40.7z" class="thumb-shape"></path><path d="M985.8,190.3L1013.8,190.3L1013.8,218.3L985.8,218.3z" class="thumb-shape"></path><path d="M983.2,410.1L1011.2,409.7L1011.6,437.6L983.6,438.1z" class="thumb-shape"></path><path d="M203.7,477.9L225.4,495.6L207.7,517.3L186,499.6z" class="thumb-shape"></path><path d="M374,473L399.8,462.1L410.7,487.9L384.8,498.8z" class="thumb-shape"></path><path d="M45.7,463.6L73.1,469.3L67.4,496.8L40,491z" class="thumb-shape"></path><path d="M103.7,479.2L129.3,490.4L118.1,516.1L92.5,504.8z" class="thumb-shape"></path><path d="M321.7,490.7L345.6,476.1L360.2,500.1L336.3,514.7z" class="thumb-shape"></path><path d="M271.4,509.6L294,493.2L310.4,515.8L287.8,532.2z" class="thumb-shape"></path><path d="M774.3,495.6L796,477.9L813.6,499.6L791.9,517.3z" class="thumb-shape"></path><path d="M599.9,462.1L625.7,473L614.8,498.8L589,487.9z" class="thumb-shape"></path><path d="M926.5,469.3L953.9,463.6L959.6,491L932.2,496.7z" class="thumb-shape"></path><path d="M870.4,490.4L896,479.2L907.2,504.8L881.6,516.1z" class="thumb-shape"></path><path d="M654.1,476.2L678,490.7L663.4,514.7L639.5,500.1z" class="thumb-shape"></path><path d="M705.7,493.2L728.3,509.6L711.9,532.2L689.3,515.8z" class="thumb-shape"></path></svg>