<svg width="450" height="200" version="1.2" xmlns="http://www.w3.org/2000/svg" viewBox="0 0 450 200"><style type="text/css">.thumb-shape {stroke-width: 1; vector-effect: non-scaling-stroke; fill:none; stroke: #000; stroke-linecap: round; stroke-linejoin: miter;}</style><path d="M-126,49L174,49L174,149L-126,149z" class="thumb-shape"></path><path d="M99,-51L399,-51L399,49L99,49z" class="thumb-shape"></path><path d="M174,49L324,49L324,149L174,149z" class="thumb-shape"></path><path d="M-51,-51L99,-51L99,49L-51,49z" class="thumb-shape"></path><path d="M324,49L624,49L624,149L324,149z" class="thumb-shape"></path><path d="M99,149L399,149L399,249L99,249z" class="thumb-shape"></path><path d="M399,-51L549,-51L549,49L399,49z" class="thumb-shape"></path><path d="M-51,149L99,149L99,249L-51,249z" class="thumb-shape"></path><path d="M399,149L549,149L549,249L399,249z" class="thumb-shape"></path></svg>