<svg width="2000" height="2000" version="1.2" xmlns="http://www.w3.org/2000/svg" viewBox="0 0 2000 2000"><style type="text/css">path {stroke-width: 1; vector-effect: non-scaling-stroke; fill:none; stroke: #000; stroke-linecap: round; stroke-linejoin: miter;}</style><path d="M1000,400L1200,400L1200,800L1000,800L1000,600z"></path><path d="M0,400L200,400L400,400L400,600L400,1000L200,1000L0,1000z"></path><path d="M1200,0L1400,0L1400,200L1200,200z"></path><path d="M800,800L1000,800L1200,800L1200,1000L1200,1200L1000,1200L800,1200L800,1000z"></path><path d="M600,1200L800,1200L1000,1200L1000,1400L1000,1600L600,1600z"></path><path d="M200,-200L600,-200L800,-200L800,200L400,200L200,200z"></path><path d="M200,1800L600,1800L800,1800L800,2200L400,2200L200,2200z"></path><path d="M1200,400L1400,400L1600,400L1600,600L1600,1000L1400,1000L1200,1000L1200,800z"></path><path d="M1200,1800L1600,1800L1600,2000L1400,2000L1200,2000z"></path><path d="M1000,200L1400,200L1400,400L1200,400L1000,400z"></path><path d="M800,-200L1000,-200L1200,-200L1200,0L1200,200L800,200z"></path><path d="M800,1800L1000,1800L1200,1800L1200,2000L1200,2200L800,2200z"></path><path d="M1600,1600L1800,1600L2000,1600L2000,2000L1600,2000L1600,1800z"></path><path d="M400,200L1000,200L1000,400L1000,600L800,600L400,600L400,400z"></path><path d="M-200,0L200,0L200,400L0,400L-200,400z"></path><path d="M1800,0L2200,0L2200,400L2000,400L1800,400z"></path><path d="M1000,1400L1200,1400L1400,1400L1600,1400L1600,1600L1600,1800L1200,1800L1000,1800L1000,1600z"></path><path d="M1400,0L1800,0L1800,400L1600,400L1400,400L1400,200z"></path><path d="M1600,400L1800,400L2000,400L2000,600L1600,600z"></path><path d="M1600,1400L1800,1400L1800,1600L1600,1600z"></path><path d="M0,1600L200,1600L200,2000L0,2000z"></path><path d="M200,200L400,200L400,400L200,400z"></path><path d="M400,600L800,600L800,800L800,1000L600,1000L400,1000z"></path><path d="M600,1000L800,1000L800,1200L600,1200z"></path><path d="M-200,1000L0,1000L200,1000L200,1600L0,1600L-200,1600L-200,1400z"></path><path d="M1800,1000L2000,1000L2200,1000L2200,1600L2000,1600L1800,1600L1800,1400z"></path><path d="M600,1600L1000,1600L1000,1800L800,1800L600,1800z"></path><path d="M1000,1200L1200,1200L1200,1400L1000,1400z"></path><path d="M1600,600L2000,600L2000,1000L1800,1000L1600,1000z"></path><path d="M1200,1000L1400,1000L1400,1400L1200,1400L1200,1200z"></path><path d="M200,1200L600,1200L600,1600L600,1800L200,1800z"></path><path d="M1400,1000L1600,1000L1800,1000L1800,1400L1600,1400L1400,1400z"></path><path d="M800,600L1000,600L1000,800L800,800z"></path><path d="M200,1000L400,1000L600,1000L600,1200L200,1200z"></path></svg>