<svg width="856" height="856" version="1.2" xmlns="http://www.w3.org/2000/svg" viewBox="0 0 856 856"><style type="text/css">path {stroke-width: 1; vector-effect: non-scaling-stroke; fill:none; stroke: #000; stroke-linecap: round; stroke-linejoin: miter;}</style><path d="M-534,-175L-363.75,-175L-343.544,-176.736L-323.66700000000003,-180.75800000000004L-304.37699999999995,-187.015L-285.92100000000005,-195.42200000000003L-268.54100000000005,-205.87300000000005L-252.46299999999997,-218.23199999999997L-237.89200000000005,-232.33799999999997L-225.01999999999998,-248.00900000000001L-214.01,-265.03999999999996L-205.00900000000001,-283.21299999999997L-198.13199999999995,-302.29200000000003L-193.46699999999998,-322.028L-188.80200000000002,-302.29200000000003L-181.92499999999995,-283.21299999999997L-172.92399999999998,-265.03999999999996L-161.914,-248.00900000000001L-149.04200000000003,-232.33799999999997L-134.471,-218.23199999999997L-118.39300000000003,-205.87300000000005L-101.01300000000003,-195.42200000000003L-82.55700000000002,-187.015L-63.26700000000005,-180.75800000000004L-43.389999999999986,-176.736L-23.18399999999997,-175L147.06600000000003,-175L147.06600000000003,0L-23.18399999999997,0L-43.389999999999986,1.73599999999999L-63.26700000000005,5.758000000000038L-82.55700000000002,12.014999999999986L-101.01300000000003,20.422000000000025L-118.39300000000003,30.873000000000047L-134.471,43.23199999999997L-149.04200000000003,57.337999999999965L-161.914,73.00900000000001L-172.92399999999998,90.03999999999996L-181.92499999999995,108.21299999999997L-188.80200000000002,127.29200000000003L-193.46699999999998,147.02800000000002L-198.13199999999995,127.29200000000003L-205.00900000000001,108.21299999999997L-214.01,90.03999999999996L-225.01999999999998,73.00900000000001L-237.89200000000005,57.337999999999965L-252.46299999999997,43.23199999999997L-268.54100000000005,30.873000000000047L-285.92100000000005,20.422000000000025L-304.37699999999995,12.014999999999986L-323.66700000000003,5.758000000000038L-343.544,1.73599999999999L-363.75,0L-534,0z"></path><path d="M322,-175L492.25,-175L512.456,-176.736L532.333,-180.75800000000004L551.623,-187.015L570.079,-195.42200000000003L587.459,-205.87300000000005L603.537,-218.23199999999997L618.108,-232.33799999999997L630.98,-248.00900000000001L641.99,-265.03999999999996L650.991,-283.21299999999997L657.868,-302.29200000000003L662.533,-322.028L667.198,-302.29200000000003L674.075,-283.21299999999997L683.076,-265.03999999999996L694.086,-248.00900000000001L706.958,-232.33799999999997L721.529,-218.23199999999997L737.607,-205.87300000000005L754.987,-195.42200000000003L773.443,-187.015L792.733,-180.75800000000004L812.61,-176.736L832.816,-175L1003.066,-175L1003.066,0L832.816,0L812.61,1.73599999999999L792.733,5.758000000000038L773.443,12.014999999999986L754.987,20.422000000000025L737.607,30.873000000000047L721.529,43.23199999999997L706.958,57.337999999999965L694.086,73.00900000000001L683.076,90.03999999999996L674.075,108.21299999999997L667.198,127.29200000000003L662.533,147.02800000000002L657.868,127.29200000000003L650.991,108.21299999999997L641.99,90.03999999999996L630.98,73.00900000000001L618.108,57.337999999999965L603.537,43.23199999999997L587.459,30.873000000000047L570.079,20.422000000000025L551.623,12.014999999999986L532.333,5.758000000000038L512.456,1.73599999999999L492.25,0L322,0z"></path><path d="M-534,681L-363.75,681L-343.544,679.264L-323.66700000000003,675.242L-304.37699999999995,668.985L-285.92100000000005,660.578L-268.54100000000005,650.127L-252.46299999999997,637.768L-237.89200000000005,623.662L-225.01999999999998,607.991L-214.01,590.96L-205.00900000000001,572.787L-198.13199999999995,553.708L-193.46699999999998,533.972L-188.80200000000002,553.708L-181.92499999999995,572.787L-172.92399999999998,590.96L-161.914,607.991L-149.04200000000003,623.662L-134.471,637.768L-118.39300000000003,650.127L-101.01300000000003,660.578L-82.55700000000002,668.985L-63.26700000000005,675.242L-43.389999999999986,679.264L-23.18399999999997,681L147.06600000000003,681L147.06600000000003,856L-23.18399999999997,856L-43.389999999999986,857.736L-63.26700000000005,861.758L-82.55700000000002,868.015L-101.01300000000003,876.422L-118.39300000000003,886.873L-134.471,899.232L-149.04200000000003,913.338L-161.914,929.009L-172.92399999999998,946.04L-181.92499999999995,964.213L-188.80200000000002,983.292L-193.46699999999998,1003.028L-198.13199999999995,983.292L-205.00900000000001,964.213L-214.01,946.04L-225.01999999999998,929.009L-237.89200000000005,913.338L-252.46299999999997,899.232L-268.54100000000005,886.873L-285.92100000000005,876.422L-304.37699999999995,868.015L-323.66700000000003,861.758L-343.544,857.736L-363.75,856L-534,856z"></path><path d="M322,681L492.25,681L512.456,679.264L532.333,675.242L551.623,668.985L570.079,660.578L587.459,650.127L603.537,637.768L618.108,623.662L630.98,607.991L641.99,590.96L650.991,572.787L657.868,553.708L662.533,533.972L667.198,553.708L674.075,572.787L683.076,590.96L694.086,607.991L706.958,623.662L721.529,637.768L737.607,650.127L754.987,660.578L773.443,668.985L792.733,675.242L812.61,679.264L832.816,681L1003.066,681L1003.066,856L832.816,856L812.61,857.736L792.733,861.758L773.443,868.015L754.987,876.422L737.607,886.873L721.529,899.232L706.958,913.338L694.086,929.009L683.076,946.04L674.075,964.213L667.198,983.292L662.533,1003.028L657.868,983.292L650.991,964.213L641.99,946.04L630.98,929.009L618.108,913.338L603.537,899.232L587.459,886.873L570.079,876.422L551.623,868.015L532.333,861.758L512.456,857.736L492.25,856L322,856z"></path><path d="M147,0L322,0L322,170.25L323.736,190.456L327.758,210.333L334.015,229.623L342.422,248.079L352.873,265.459L365.232,281.537L379.338,296.108L395.009,308.98L412.04,319.99L430.213,328.991L449.292,335.868L469.028,340.533L449.292,345.198L430.213,352.075L412.04,361.076L395.009,372.086L379.338,384.958L365.232,399.529L352.873,415.607L342.422,432.987L334.015,451.443L327.758,470.733L323.736,490.61L322,510.816L322,681.066L147,681.066L147,510.816L145.264,490.61L141.242,470.733L134.985,451.443L126.578,432.987L116.127,415.607L103.768,399.529L89.662,384.958L73.991,372.086L56.96,361.076L38.787,352.075L19.708,345.198L-0.028,340.533L19.708,335.868L38.787,328.991L56.96,319.99L73.991,308.98L89.662,296.108L103.768,281.537L116.127,265.459L126.578,248.079L134.985,229.623L141.242,210.333L145.264,190.456L147,170.25z"></path><path d="M1003,0L1178,0L1178,170.25L1179.7359999999999,190.456L1183.758,210.333L1190.0149999999999,229.623L1198.422,248.079L1208.873,265.459L1221.232,281.537L1235.338,296.108L1251.009,308.98L1268.04,319.99L1286.213,328.991L1305.292,335.868L1325.028,340.533L1305.292,345.198L1286.213,352.075L1268.04,361.076L1251.009,372.086L1235.338,384.958L1221.232,399.529L1208.873,415.607L1198.422,432.987L1190.0149999999999,451.443L1183.758,470.733L1179.7359999999999,490.61L1178,510.816L1178,681.066L1003,681.066L1003,510.816L1001.264,490.61L997.242,470.733L990.985,451.443L982.578,432.987L972.127,415.607L959.768,399.529L945.662,384.958L929.991,372.086L912.96,361.076L894.787,352.075L875.708,345.198L855.972,340.533L875.708,335.868L894.787,328.991L912.96,319.99L929.991,308.98L945.662,296.108L959.768,281.537L972.127,265.459L982.578,248.079L990.985,229.623L997.242,210.333L1001.264,190.456L1003,170.25z"></path><path d="M-534,0L-363.75,0L-343.544,1.736L-323.66700000000003,5.758L-304.37699999999995,12.015L-285.92100000000005,20.422L-268.54100000000005,30.873L-252.46299999999997,43.232L-237.89200000000005,57.338L-225.01999999999998,73.009L-214.01,90.04L-205.00900000000001,108.213L-198.13199999999995,127.292L-193.46699999999998,147.028L-188.80200000000002,127.292L-181.92499999999995,108.213L-172.92399999999998,90.04L-161.914,73.009L-149.04200000000003,57.338L-134.471,43.232L-118.39300000000003,30.873L-101.01300000000003,20.422L-82.55700000000002,12.015L-63.26700000000005,5.758L-43.389999999999986,1.736L-23.18399999999997,0L147.06600000000003,0L147.06600000000003,170.25L145.33000000000004,190.456L141.308,210.333L135.05100000000004,229.623L126.644,248.079L116.19299999999998,265.459L103.83399999999995,281.537L89.72799999999995,296.108L74.05700000000002,308.98L57.025999999999954,319.99L38.85299999999995,328.991L19.774,335.868L0.038000000000010914,340.533L19.774,345.198L38.85299999999995,352.075L57.025999999999954,361.076L74.05700000000002,372.086L89.72799999999995,384.958L103.83399999999995,399.529L116.19299999999998,415.607L126.644,432.987L135.05100000000004,451.443L141.308,470.733L145.33000000000004,490.61L147.06600000000003,510.816L147.06600000000003,681.066L-23.18399999999997,681.066L-43.389999999999986,679.33L-63.26700000000005,675.308L-82.55700000000002,669.051L-101.01300000000003,660.644L-118.39300000000003,650.193L-134.471,637.834L-149.04200000000003,623.728L-161.914,608.057L-172.92399999999998,591.026L-181.92499999999995,572.853L-188.80200000000002,553.774L-193.46699999999998,534.038L-198.13199999999995,553.774L-205.00900000000001,572.853L-214.01,591.026L-225.01999999999998,608.057L-237.89200000000005,623.728L-252.46299999999997,637.834L-268.54100000000005,650.193L-285.92100000000005,660.644L-304.37699999999995,669.051L-323.66700000000003,675.308L-343.544,679.33L-363.75,681.066L-534,681.066L-534,510.816L-532.264,490.61L-528.242,470.733L-521.985,451.443L-513.578,432.987L-503.127,415.607L-490.768,399.529L-476.662,384.958L-460.991,372.086L-443.96,361.076L-425.787,352.075L-406.708,345.198L-386.972,340.533L-406.708,335.868L-425.787,328.991L-443.96,319.99L-460.991,308.98L-476.662,296.108L-490.768,281.537L-503.127,265.459L-513.578,248.079L-521.985,229.623L-528.242,210.333L-532.264,190.456L-534,170.25z"></path><path d="M322,0L492.25,0L512.456,1.736L532.333,5.758L551.623,12.015L570.079,20.422L587.459,30.873L603.537,43.232L618.108,57.338L630.98,73.009L641.99,90.04L650.991,108.213L657.868,127.292L662.533,147.028L667.198,127.292L674.075,108.213L683.076,90.04L694.086,73.009L706.958,57.338L721.529,43.232L737.607,30.873L754.987,20.422L773.443,12.015L792.733,5.758L812.61,1.736L832.816,0L1003.066,0L1003.066,170.25L1001.33,190.456L997.308,210.333L991.051,229.623L982.644,248.079L972.193,265.459L959.834,281.537L945.728,296.108L930.057,308.98L913.026,319.99L894.853,328.991L875.774,335.868L856.038,340.533L875.774,345.198L894.853,352.075L913.026,361.076L930.057,372.086L945.728,384.958L959.834,399.529L972.193,415.607L982.644,432.987L991.051,451.443L997.308,470.733L1001.33,490.61L1003.066,510.816L1003.066,681.066L832.816,681.066L812.61,679.33L792.733,675.308L773.443,669.051L754.987,660.644L737.607,650.193L721.529,637.834L706.958,623.728L694.086,608.057L683.076,591.026L674.075,572.853L667.198,553.774L662.533,534.038L657.868,553.774L650.991,572.853L641.99,591.026L630.98,608.057L618.108,623.728L603.537,637.834L587.459,650.193L570.079,660.644L551.623,669.051L532.333,675.308L512.456,679.33L492.25,681.066L322,681.066L322,510.816L323.736,490.61L327.758,470.733L334.015,451.443L342.422,432.987L352.873,415.607L365.232,399.529L379.338,384.958L395.009,372.086L412.04,361.076L430.213,352.075L449.292,345.198L469.028,340.533L449.292,335.868L430.213,328.991L412.04,319.99L395.009,308.98L379.338,296.108L365.232,281.537L352.873,265.459L342.422,248.079L334.015,229.623L327.758,210.333L323.736,190.456L322,170.25z"></path><path d="M147,681L322,681L322,856L147,856z"></path></svg>