<svg width="600" height="600" version="1.2" xmlns="http://www.w3.org/2000/svg" viewBox="0 0 600 600"><style type="text/css">path {stroke-width: 1; vector-effect: non-scaling-stroke; fill:none; stroke: #000; stroke-linecap: round; stroke-linejoin: miter;}</style><path d="M60,342.43L137.82,419.763L59.996,497.587z"></path><path d="M102,299.8L180.553,222.983L257.578,300.008L179.69,377.896z"></path><path d="M340.94,540L419.464,461.886L497.571,539.993z"></path><path d="M420.32,377.89L498.208,300.002L539.999,257.579L539.999,341.989L462,419.581L419.462,461.896L340.938,540.01L258.848,540.01L300.002,498.857L378.208,420.651z"></path><path d="M462.43,180L540.007,257.577L498.216,300L420.328,222.112z"></path><path d="M179.68,377.89L257.568,300.002L299.994,342.429L221.993,420.43L180.38,462.043L102.422,540.001L59.992,540.001L59.992,497.571L137.816,419.747z"></path><path d="M102.43,540L180.389,462.041L258.84,540.001z"></path><path d="M540,60L600,60L600,600L540,600L540,540L540,497.57L540,341.98L540,257.57L540,102.42z"></path><path d="M462.43,180L540.007,102.423L540.007,257.573z"></path><path d="M222.83,180.41L299.997,257.577L342.423,300.003L360.624,318.204L420.318,377.898L378.211,420.641L300.005,342.435L257.579,300.009L180.553,222.984z"></path><path d="M102,299.8L179.684,377.891L137.823,419.752L60.003,342.42z"></path><path d="M180.38,462.04L221.993,420.427L299.994,498.837L258.841,539.991z"></path><path d="M342.43,60L497.58,60L420.003,137.577z"></path><path d="M222,420.43L300.001,342.429L378.207,420.635L300.001,498.841z"></path><path d="M60,60L102.43,60L179.455,137.025L180.198,137.768L137.705,180.127L137.577,180L60.001,102.423z"></path><path d="M0,540L60,540L102.43,540L258.85,540L340.94,540L497.57,540L540,540L540,600L0,600z"></path><path d="M342.43,60L420.007,137.577L377.898,179.685L300.47,102.257z"></path><path d="M102.43,60L258.21,60L180.2,137.765L179.457,137.023z"></path><path d="M60,102.43L137.577,180.007L137.704,180.134L60.006,257.589z"></path><path d="M419.46,461.89L461.997,419.575L539.998,497.576L539.998,540.006L497.568,540.006z"></path><path d="M462,419.58L539.999,341.988L539.999,497.578z"></path><path d="M300.46,102.25L377.888,179.678L300,257.566L222.834,180.399z"></path><path d="M342.43,300L420.318,222.112L498.206,300L420.318,377.888L360.624,318.194z"></path><path d="M137.7,180.12L180.193,137.76L258.203,59.995L342.423,59.995L300.455,102.243L222.826,180.388L180.54,222.955L101.987,299.772L59.993,342.402L59.993,329.972L59.993,257.542z"></path><path d="M377.89,179.68L419.998,137.572L497.575,59.995L540.005,59.995L540.005,102.425L462.428,180.002L420.32,222.11L342.432,299.998L300.006,257.571z"></path><path d="M0,0L60,0L60,60L60,102.43L60,257.58L60,330.01L60,342.44L60,497.59L60,540.02L0,540.02z"></path><path d="M60,0L600,0L600,55L600,60L540,60L497.57,60L342.42,60L258.2,60L102.42,60L59.99,60z"></path></svg>