<svg width="800" height="800" version="1.2" xmlns="http://www.w3.org/2000/svg" viewBox="0 0 800 800"><style type="text/css">path {stroke-width: 1; vector-effect: non-scaling-stroke; fill:none; stroke: #000; stroke-linecap: round; stroke-linejoin: miter;}</style><path d="M654.56,187.87L740,273.31L654.779,358.233L569.637,272.793z"></path><path d="M60,187.28L187.279,60.001L272.129,60.001L187.276,144.854L144.85,187.28L59.997,272.133z"></path><path d="M60,60L187.28,60L60.001,187.279z"></path><path d="M187.28,144.85L272.133,59.997L357.573,145.437L272.72,230.29z"></path><path d="M740,0L800,0L800,740L740,740L740,612.72L740,527.87L740,443.76L740,358.54L740,273.32L740,187.88L740,60.01z"></path><path d="M0,0L740,0L740,60L612.13,60L527.87,60L443.02,60L357.58,60L272.14,60L187.29,60L60.01,60L0.01,60z"></path><path d="M230.29,272.72L272.716,230.294L357.569,145.441L399.996,187.867L315.143,272.72L272.716,315.146L187.864,399.999L145.142,357.87z"></path><path d="M357.57,60L443.01,60L400.216,102.794z"></path><path d="M60,272.13L144.853,187.277L230.293,272.717L145.143,357.867z"></path><path d="M144.85,187.28L187.276,144.854L272.716,230.293L230.29,272.72z"></path><path d="M315.15,527.28L400.003,442.427L484.856,527.28L400.003,612.133z"></path><path d="M187.28,655.15L272.72,569.71L357.573,654.563L272.133,740.003L229.706,697.576z"></path><path d="M357.57,654.56L399.942,697.408L357.2,740L272.12,740z"></path><path d="M484.85,527.28L527.276,484.854L612.129,400.001L655.185,443.057L570.184,527.761L527.684,570.113L442.683,654.818L399.995,612.13z"></path><path d="M230.29,527.28L272.716,484.854L357.569,400.001L399.996,442.427L315.143,527.28L272.716,569.706L187.277,655.146L144.85,612.72z"></path><path d="M442.69,654.82L527.691,570.115L612.727,655.152L527.875,740.005z"></path><path d="M60,612.72L166.066,718.786L187.279,739.999L59.999,739.999z"></path><path d="M527.28,60.59L612.133,145.443L527.28,230.296L442.575,145.295z"></path><path d="M527.69,570.11L570.19,527.758L655.149,612.717L612.723,655.143z"></path><path d="M654.78,358.24L740,273.317L740,358.537L697.387,401.002z"></path><path d="M187.87,400L272.723,315.147L357.576,400L272.723,484.853z"></path><path d="M612.72,740L739.999,612.721L739.999,740.001z"></path><path d="M527.28,230.29L612.133,145.437L654.559,187.864L569.636,272.787L527.28,315.143L442.427,399.996L400.001,357.569L484.854,272.716z"></path><path d="M612.72,655.15L655.146,612.724L739.999,527.871L739.999,612.721L612.72,740L527.87,740z"></path><path d="M60,527.87L144.853,612.723L187.279,655.149L229.706,697.576L272.132,740.002L187.282,740.002L166.069,718.789L60.003,612.723z"></path><path d="M272.13,60L357.57,60L400.219,102.798L442.571,145.298L527.276,230.299L484.849,272.725L399.996,187.873L357.57,145.446z"></path><path d="M569.63,272.79L654.772,358.23L697.386,400.992L739.999,443.755L739.999,527.865L655.182,443.047L612.126,399.992L527.273,315.139z"></path><path d="M697.39,400.99L740.004,358.525L740.004,443.745z"></path><path d="M145.44,442.43L230.293,527.283L144.853,612.723L60,527.87z"></path><path d="M357.21,740L399.951,697.408L442.395,740z"></path><path d="M60,357.57L102.574,400.442L59.999,443.017z"></path><path d="M570.19,527.76L655.191,443.055L740.008,527.873L655.155,612.726z"></path><path d="M315.15,272.72L400.003,187.867L484.856,272.72L400.003,357.573z"></path><path d="M443.02,60L527.87,60L527.283,60.587L442.579,145.291L400.226,102.791z"></path><path d="M315.15,527.28L400.003,612.133L442.691,654.821L527.876,740.006L442.396,740.006L399.952,697.414L357.58,654.566L272.728,569.713z"></path><path d="M60,740L187.28,740L272.13,740L357.21,740L442.39,740L527.87,740L612.72,740L740,740L800,740L800,800L60,800z"></path><path d="M0,60L60,60L60,187.28L60,272.13L60,357.57L60,443.01L60,527.86L60,612.71L60,739.99L60,799.99L0,799.99z"></path><path d="M102.57,400.44L145.438,442.42L59.999,527.86L59.999,443.01z"></path><path d="M442.43,400L527.283,315.147L612.136,400L527.283,484.853z"></path><path d="M60,272.13L145.141,357.867L187.863,399.997L272.715,484.849L230.289,527.276L145.436,442.423L102.568,400.443L59.994,357.571z"></path><path d="M527.28,60.59L527.867,60.003L612.127,60.003L739.993,187.869L739.993,273.309L654.553,187.87L612.127,145.443z"></path><path d="M612.13,60L740,60L740,187.87z"></path><path d="M315.15,272.72L400.003,357.573L442.429,399.999L527.282,484.852L484.856,527.278L400.003,442.426L357.576,399.999L272.724,315.146z"></path></svg>