<svg width="3000" height="1000" version="1.2" xmlns="http://www.w3.org/2000/svg" viewBox="0 0 3000 1000"><style type="text/css">path {stroke-width: 1; vector-effect: non-scaling-stroke; fill:none; stroke: #000; stroke-linecap: round; stroke-linejoin: miter;}</style><path d="M-573.3899999999999,0L426.6100000000001,0L426.6100000000001,500L0,500L-573.3899999999999,500z"></path><path d="M2426.61,0L3426.61,0L3426.61,500L3000,500L2426.61,500z"></path><path d="M426.61,0L2426.61,0L2426.61,500L2000,500L493.61,500L426.61,500z"></path><path d="M0,500L426.61,500L493.61,500L2000,500L2000,1000L1573.39,1000L67,1000L0,1000z"></path><path d="M2000,500L2426.61,500L3000,500L3000,1000L2000,1000z"></path></svg>