<svg width="480" height="277" version="1.2" xmlns="http://www.w3.org/2000/svg" viewBox="0 0 480 277"><style type="text/css">path {stroke-width: 1; vector-effect: non-scaling-stroke; fill:none; stroke: #000; stroke-linecap: round; stroke-linejoin: miter;}</style><path d="M0,-0.7300000000000182L319.999,0.10800000000000409L239.636,138.462L79.637,138.043z"></path><path d="M0,276.27L319.999,277.108L239.636,415.462L79.637,415.043z"></path><path d="M-239.63,-138.65L80.36900000000003,-137.812L0.005999999999971806,0.5419999999999732L-159.993,0.12299999999999045z"></path><path d="M240.37,-138.65L560.369,-137.812L480.006,0.5419999999999732L320.007,0.12299999999999045z"></path><path d="M-239.63,138.35L80.36900000000003,139.188L0.005999999999971806,277.542L-159.993,277.123z"></path><path d="M240.37,138.35L560.369,139.188L480.006,277.542L320.007,277.123z"></path><path d="M-159.26,0L0.7389999999999759,0.419L80.37599999999998,139.192L-239.622,138.354z"></path><path d="M320.74,0L480.739,0.419L560.376,139.192L240.378,138.354z"></path><path d="M80.37,-139.08L240.369,-138.661L320.006,0.11200000000002319L0.008,-0.7259999999999991z"></path><path d="M80.37,137.92L240.369,138.339L320.006,277.112L0.008,276.274z"></path></svg>