<svg width="410" height="260" version="1.2" xmlns="http://www.w3.org/2000/svg" viewBox="0 0 410 260"><style type="text/css">.thumb-shape {stroke-width: 1; vector-effect: non-scaling-stroke; fill:none; stroke: #000; stroke-linecap: round; stroke-linejoin: miter;}</style><path d="M-116,-50L89,-255L154,-190L-51,15z" class="thumb-shape"></path><path d="M294,80L89,-125L154,-190L359,15z" class="thumb-shape"></path><path d="M-116,80L89,-125L154,-60L-51,145z" class="thumb-shape"></path><path d="M294,210L89,5L154,-60L359,145z" class="thumb-shape"></path><path d="M294,-50L499,-255L564,-190L359,15z" class="thumb-shape"></path><path d="M-116,210L89,5L154,70L-51,275z" class="thumb-shape"></path><path d="M294,210L499,5L564,70L359,275z" class="thumb-shape"></path><path d="M294,340L89,135L154,70L359,275z" class="thumb-shape"></path><path d="M294,80L499,-125L564,-60L359,145z" class="thumb-shape"></path><path d="M-116,340L89,135L154,200L-51,405z" class="thumb-shape"></path><path d="M294,340L499,135L564,200L359,405z" class="thumb-shape"></path><path d="M294,470L89,265L154,200L359,405z" class="thumb-shape"></path></svg>