<svg width="1039" height="600" version="1.2" xmlns="http://www.w3.org/2000/svg" viewBox="0 0 1039 600"><style type="text/css">.thumb-shape {stroke-width: 1; vector-effect: non-scaling-stroke; fill:none; stroke: #000; stroke-linecap: round; stroke-linejoin: miter;}</style><path d="M-520,-150L-173.6,-350L-0.4,-250L-346.8,-50z" class="thumb-shape"></path><path d="M-173.6,-150L-0.4,-250L172.8,-150L172.8,50L-0.4,150L-173.6,50z" class="thumb-shape"></path><path d="M-173.6,-550L172.8,-350L172.8,-150L-173.6,-350z" class="thumb-shape"></path><path d="M172.8,-350L346,-450L346,-50L172.8,50z" class="thumb-shape"></path><path d="M-0.4,150L346,-50L519.2,50L172.8,250z" class="thumb-shape"></path><path d="M692.4,-50L865.6,-150L865.6,250L692.4,350z" class="thumb-shape"></path><path d="M346,-250L692.4,-50L692.4,150L346,-50z" class="thumb-shape"></path><path d="M346,150L519.2,50L692.4,150L692.4,350L519.2,450L346,350z" class="thumb-shape"></path><path d="M519,-150L865.4,-350L1038.6,-250L692.2,-50z" class="thumb-shape"></path><path d="M-520,450L-173.6,250L-0.4,350L-346.8,550z" class="thumb-shape"></path><path d="M519,450L865.4,250L1038.6,350L692.2,550z" class="thumb-shape"></path><path d="M865.4,-150L1038.6,-250L1211.8,-150L1211.8,50L1038.6,150L865.4,50z" class="thumb-shape"></path><path d="M-173.6,450L-0.4,350L172.8,450L172.8,650L-0.4,750L-173.6,650z" class="thumb-shape"></path><path d="M865.4,450L1038.6,350L1211.8,450L1211.8,650L1038.6,750L865.4,650z" class="thumb-shape"></path><path d="M865.4,-550L1211.8,-350L1211.8,-150L865.4,-350z" class="thumb-shape"></path><path d="M-173.6,50L172.8,250L172.8,450L-173.6,250z" class="thumb-shape"></path><path d="M865.4,50L1211.8,250L1211.8,450L865.4,250z" class="thumb-shape"></path><path d="M172.8,250L346,150L346,550L172.8,650z" class="thumb-shape"></path><path d="M1038.6,150L1385,-50L1558.2,50L1211.8,250z" class="thumb-shape"></path><path d="M-0.4,750L346,550L519.2,650L172.8,850z" class="thumb-shape"></path><path d="M1038.6,750L1385,550L1558.2,650L1211.8,850z" class="thumb-shape"></path><path d="M692.4,550L865.6,450L865.6,850L692.4,950z" class="thumb-shape"></path><path d="M346,350L692.4,550L692.4,750L346,550z" class="thumb-shape"></path></svg>