<svg width="346" height="600" version="1.2" xmlns="http://www.w3.org/2000/svg" viewBox="0 0 346 600"><style type="text/css">.thumb-shape {stroke-width: 1; vector-effect: non-scaling-stroke; fill:none; stroke: #000; stroke-linecap: round; stroke-linejoin: miter;}</style><path d="M-40.8,249L132.4,149L305.6,249L305.6,449L132.4,549L-40.8,449z" class="thumb-shape"></path><path d="M-214,-51L-40.8,-151L132.4,-51L132.4,149L-40.8,249L-214,149z" class="thumb-shape"></path><path d="M305.2,249L478.4,149L651.6,249L651.6,449L478.4,549L305.2,449z" class="thumb-shape"></path><path d="M132,-51L305.2,-151L478.4,-51L478.4,149L305.2,249L132,149z" class="thumb-shape"></path><path d="M-214,549L-40.8,449L132.4,549L132.4,749L-40.8,849L-214,749z" class="thumb-shape"></path><path d="M132,549L305.2,449L478.4,549L478.4,749L305.2,849L132,749z" class="thumb-shape"></path></svg>