<svg width="450" height="260" version="1.2" xmlns="http://www.w3.org/2000/svg" viewBox="0 0 450 260"><style type="text/css">path {stroke-width: 1; vector-effect: non-scaling-stroke; fill:none; stroke: #000; stroke-linecap: round; stroke-linejoin: miter;}</style><path d="M300,0L375,0L375,129.9L262.503,64.95z"></path><path d="M-75,129.9L37.497000000000014,194.85L-0.002999999999985903,259.802L-75.00299999999999,259.802z"></path><path d="M375,129.9L487.497,194.85L449.997,259.802L374.997,259.802z"></path><path d="M262.5,64.95L374.997,129.9L262.5,194.85L225,129.898z"></path><path d="M150,-0.18999999999999773L262.497,-65.13999999999999L299.997,-0.18799999999998818L262.497,64.76400000000001z"></path><path d="M150,259.81L262.497,194.86L299.997,259.812L262.497,324.764z"></path><path d="M75,129.9L150,129.9L150,259.8L37.503,194.85z"></path><path d="M150,-0.18999999999999773L262.497,64.75999999999999L224.997,129.712L149.997,129.712z"></path><path d="M150,259.81L262.497,324.76L224.997,389.712L149.997,389.712z"></path><path d="M37.5,-65.13999999999999L149.997,-0.18999999999999773L37.5,64.75999999999999L0,-0.19200000000000728z"></path><path d="M37.5,194.86L149.997,259.81L37.5,324.76L0,259.808z"></path><path d="M37.5,64.75999999999999L149.997,-0.18999999999999773L149.997,129.70999999999998L74.997,129.70999999999998z"></path><path d="M37.5,324.76L149.997,259.81L149.997,389.71L74.997,389.71z"></path><path d="M150,129.9L225,129.9L262.5,194.852L150.003,259.802z"></path><path d="M262.5,194.86L374.997,129.91L374.997,259.81L299.997,259.81z"></path><path d="M-75,129.9L37.497000000000014,64.95L74.99699999999996,129.902L37.497000000000014,194.854z"></path><path d="M375,129.9L487.497,64.95L524.997,129.902L487.497,194.854z"></path><path d="M-75,0L0,0L37.5,64.952L-74.99700000000001,129.902z"></path><path d="M375,0L450,0L487.5,64.952L375.003,129.902z"></path></svg>