<svg width="693" height="400" version="1.2" xmlns="http://www.w3.org/2000/svg" viewBox="0 0 693 400"><style type="text/css">path {stroke-width: 1; vector-effect: non-scaling-stroke; fill:none; stroke: #000; stroke-linecap: round; stroke-linejoin: miter;}</style><path d="M-224,-150L-50.8,-250L122.4,-150L122.4,50L-50.8,150L-224,50z"></path><path d="M122.4,-150L295.6,-50L122.4,50z"></path><path d="M122.4,50L295.6,-50L468.8,50L468.8,250L295.6,350L122.4,250z"></path><path d="M-50.8,150L122.4,50L122.4,250z"></path><path d="M295.6,-50L468.8,-150L468.8,50z"></path><path d="M469,-150L642.2,-250L815.4,-150L815.4,50L642.2,150L469,50z"></path><path d="M-224,250L-50.8,150L122.4,250L122.4,450L-50.8,550L-224,450z"></path><path d="M469,250L642.2,150L815.4,250L815.4,450L642.2,550L469,450z"></path><path d="M122.4,250L295.6,350L122.4,450z"></path><path d="M122.4,450L295.6,350L468.8,450L468.8,650L295.6,750L122.4,650z"></path><path d="M642.2,150L815.4,50L815.4,250z"></path><path d="M295.6,350L468.8,250L468.8,450z"></path></svg>