<svg width="400" height="400" version="1.2" xmlns="http://www.w3.org/2000/svg" viewBox="0 0 400 400"><style type="text/css">.thumb-shape {stroke-width: 1; vector-effect: non-scaling-stroke; fill:none; stroke: #000; stroke-linecap: round; stroke-linejoin: miter;}</style><path d="M-250,49L-350,-51L-250,-51L-250,-151L-150,-51L-50,-51L150,149L50,149L-50,49L-50,149L-150,149L-50,249L-50,349L-250,149z" class="thumb-shape"></path><path d="M-50,-151L-150,-251L-50,-251L-50,-351L50,-251L150,-251L350,-51L250,-51L150,-151L150,-51L50,-51L150,49L150,149L-50,-51z" class="thumb-shape"></path><path d="M150,49L50,-51L150,-51L150,-151L250,-51L350,-51L550,149L450,149L350,49L350,149L250,149L350,249L350,349L150,149z" class="thumb-shape"></path><path d="M-250,449L-350,349L-250,349L-250,249L-150,349L-50,349L150,549L50,549L-50,449L-50,549L-150,549L-50,649L-50,749L-250,549z" class="thumb-shape"></path><path d="M150,449L50,349L150,349L150,249L250,349L350,349L550,549L450,549L350,449L350,549L250,549L350,649L350,749L150,549z" class="thumb-shape"></path><path d="M350,-151L250,-251L350,-251L350,-351L450,-251L550,-251L750,-51L650,-51L550,-151L550,-51L450,-51L550,49L550,149L350,-51z" class="thumb-shape"></path><path d="M-50,249L-150,149L-50,149L-50,49L50,149L150,149L350,349L250,349L150,249L150,349L50,349L150,449L150,549L-50,349z" class="thumb-shape"></path><path d="M350,249L250,149L350,149L350,49L450,149L550,149L750,349L650,349L550,249L550,349L450,349L550,449L550,549L350,349z" class="thumb-shape"></path></svg>