<svg width="424" height="424" version="1.2" xmlns="http://www.w3.org/2000/svg" viewBox="0 0 424 424"><style type="text/css">path {stroke-width: 1; vector-effect: non-scaling-stroke; fill:none; stroke: #000; stroke-linecap: round; stroke-linejoin: miter;}</style><path d="M-119.7,133.8L-114,125.8L-107.8,118.2L-101.1,111.1L-93.9,117.8L-86.3,124L-78.3,129.7L-70,134.9L-61.3,139.5L-52.4,143.6L-43.2,147L-33.8,149.9L-24.3,152.1L-14.6,153.7L-4.8,154.7L5,155L14.8,154.7L24.6,153.7L34.3,152.1L43.8,149.9L53.2,147L62.4,143.6L71.3,139.5L80,134.9L88.3,129.7L96.3,124L103.9,117.8L111.1,111.1L117.8,118.2L124,125.8L129.7,133.8L134.9,142.1L139.5,150.8L143.6,159.7L147,168.9L149.9,178.3L152.1,187.9L153.7,197.6L154.7,207.3L155,217.1L154.7,226.9L153.7,236.7L152.1,246.4L149.9,256L147,265.3L143.6,274.5L139.5,283.5L134.9,292.1L129.7,300.5L124,308.4L117.8,316L111.1,323.2L103.9,316.5L96.3,310.3L88.3,304.5L80,299.4L71.3,294.7L62.4,290.7L53.2,287.2L43.8,284.4L34.3,282.1L24.6,280.5L14.8,279.6L5,279.3L-4.8,279.6L-14.6,280.5L-24.3,282.1L-33.8,284.4L-43.2,287.2L-52.4,290.7L-61.3,294.7L-70,299.4L-78.3,304.5L-86.3,310.3L-93.9,316.5L-101.1,323.2L-107.8,316L-114,308.4L-119.7,300.5L-124.9,292.1L-129.5,283.5L-133.6,274.5L-137,265.3L-139.9,256L-142.1,246.4L-143.7,236.7L-144.7,226.9L-145,217.1L-144.7,207.3L-143.7,197.6L-142.1,187.9L-139.9,178.3L-137,168.9L-133.6,159.7L-129.5,150.8L-124.9,142.1z"></path><path d="M-78.3,-119.7L-70,-124.9L-61.3,-129.5L-52.4,-133.6L-43.2,-137L-33.8,-139.9L-24.3,-142.1L-14.6,-143.7L-4.8,-144.7L5,-145L14.8,-144.7L24.6,-143.7L34.3,-142.1L43.8,-139.9L53.2,-137L62.4,-133.6L71.3,-129.5L80,-124.9L88.3,-119.7L96.3,-114L103.9,-107.8L111.1,-101.1L104.4,-93.9L98.1,-86.3L92.4,-78.3L87.2,-70L82.6,-61.3L78.6,-52.4L75.1,-43.2L72.2,-33.8L70,-24.3L68.4,-14.6L67.5,-4.8L67.1,5L67.5,14.8L68.4,24.6L70,34.3L72.2,43.8L75.1,53.2L78.6,62.4L82.6,71.3L87.2,80L92.4,88.3L98.1,96.3L104.4,103.9L111.1,111.1L103.9,117.8L96.3,124L88.3,129.7L80,134.9L71.3,139.5L62.4,143.6L53.2,147L43.8,149.9L34.3,152.1L24.6,153.7L14.8,154.7L5,155L-4.8,154.7L-14.6,153.7L-24.3,152.1L-33.8,149.9L-43.2,147L-52.4,143.6L-61.3,139.5L-70,134.9L-78.3,129.7L-86.3,124L-93.9,117.8L-101.1,111.1L-94.4,103.9L-88.1,96.3L-82.4,88.3L-77.2,80L-72.6,71.3L-68.6,62.4L-65.1,53.2L-62.2,43.8L-60,34.3L-58.4,24.6L-57.5,14.8L-57.1,5L-57.5,-4.8L-58.4,-14.6L-60,-24.3L-62.2,-33.8L-65.1,-43.2L-68.6,-52.4L-72.6,-61.3L-77.2,-70L-82.4,-78.3L-88.1,-86.3L-94.4,-93.9L-101.1,-101.1L-93.9,-107.8L-86.3,-114z"></path><path d="M92.4,-78.3L98.1,-86.3L104.4,-93.9L111.1,-101.1L118.2,-94.4L125.8,-88.1L133.8,-82.4L142.1,-77.2L150.8,-72.6L159.7,-68.6L168.9,-65.1L178.3,-62.2L187.9,-60L197.6,-58.4L207.3,-57.5L217.1,-57.1L226.9,-57.5L236.7,-58.4L246.4,-60L256,-62.2L265.3,-65.1L274.5,-68.6L283.5,-72.6L292.1,-77.2L300.5,-82.4L308.4,-88.1L316,-94.4L323.2,-101.1L329.9,-93.9L336.1,-86.3L341.9,-78.3L347,-70L351.7,-61.3L355.7,-52.4L359.2,-43.2L362,-33.8L364.2,-24.3L365.8,-14.6L366.8,-4.8L367.1,5L366.8,14.8L365.8,24.6L364.2,34.3L362,43.8L359.2,53.2L355.7,62.4L351.7,71.3L347,80L341.9,88.3L336.1,96.3L329.9,103.9L323.2,111.1L316,104.4L308.4,98.1L300.5,92.4L292.1,87.2L283.5,82.6L274.5,78.6L265.3,75.1L256,72.2L246.4,70L236.7,68.4L226.9,67.5L217.1,67.1L207.3,67.5L197.6,68.4L187.9,70L178.3,72.2L168.9,75.1L159.7,78.6L150.8,82.6L142.1,87.2L133.8,92.4L125.8,98.1L118.2,104.4L111.1,111.1L104.4,103.9L98.1,96.3L92.4,88.3L87.2,80L82.6,71.3L78.6,62.4L75.1,53.2L72.2,43.8L70,34.3L68.4,24.6L67.5,14.8L67.1,5L67.5,-4.8L68.4,-14.6L70,-24.3L72.2,-33.8L75.1,-43.2L78.6,-52.4L82.6,-61.3L87.2,-70z"></path><path d="M133.8,92.4L142.1,87.2L150.8,82.6L159.7,78.6L168.9,75.1L178.3,72.2L187.9,70L197.6,68.4L207.3,67.5L217.1,67.1L226.9,67.5L236.7,68.4L246.4,70L256,72.2L265.3,75.1L274.5,78.6L283.5,82.6L292.1,87.2L300.5,92.4L308.4,98.1L316,104.4L323.2,111.1L316.5,118.2L310.3,125.8L304.5,133.8L299.4,142.1L294.7,150.8L290.7,159.7L287.2,168.9L284.4,178.3L282.1,187.9L280.5,197.6L279.6,207.3L279.3,217.1L279.6,226.9L280.5,236.7L282.1,246.4L284.4,256L287.2,265.3L290.7,274.5L294.7,283.5L299.4,292.1L304.5,300.5L310.3,308.4L316.5,316L323.2,323.2L316,329.9L308.4,336.1L300.5,341.9L292.1,347L283.5,351.7L274.5,355.7L265.3,359.2L256,362L246.4,364.2L236.7,365.8L226.9,366.8L217.1,367.1L207.3,366.8L197.6,365.8L187.9,364.2L178.3,362L168.9,359.2L159.7,355.7L150.8,351.7L142.1,347L133.8,341.9L125.8,336.1L118.2,329.9L111.1,323.2L117.8,316L124,308.4L129.7,300.5L134.9,292.1L139.5,283.5L143.6,274.5L147,265.3L149.9,256L152.1,246.4L153.7,236.7L154.7,226.9L155,217.1L154.7,207.3L153.7,197.6L152.1,187.9L149.9,178.3L147,168.9L143.6,159.7L139.5,150.8L134.9,142.1L129.7,133.8L124,125.8L117.8,118.2L111.1,111.1L118.2,104.4L125.8,98.1z"></path><path d="M304.3,133.8L310,125.8L316.2,118.2L322.9,111.1L330.1,117.8L337.7,124L345.7,129.7L354,134.9L362.7,139.5L371.6,143.6L380.8,147L390.2,149.9L399.7,152.1L409.4,153.7L419.2,154.7L429,155L438.8,154.7L448.6,153.7L458.3,152.1L467.8,149.9L477.2,147L486.4,143.6L495.3,139.5L504,134.9L512.3,129.7L520.3,124L527.9,117.8L535.1,111.1L541.8,118.2L548,125.8L553.7,133.8L558.9,142.1L563.5,150.8L567.6,159.7L571,168.9L573.9,178.3L576.1,187.9L577.7,197.6L578.7,207.3L579,217.1L578.7,226.9L577.7,236.7L576.1,246.4L573.9,256L571,265.3L567.6,274.5L563.5,283.5L558.9,292.1L553.7,300.5L548,308.4L541.8,316L535.1,323.2L527.9,316.5L520.3,310.3L512.3,304.5L504,299.4L495.3,294.7L486.4,290.7L477.2,287.2L467.8,284.4L458.3,282.1L448.6,280.5L438.8,279.6L429,279.3L419.2,279.6L409.4,280.5L399.7,282.1L390.2,284.4L380.8,287.2L371.6,290.7L362.7,294.7L354,299.4L345.7,304.5L337.7,310.3L330.1,316.5L322.9,323.2L316.2,316L310,308.4L304.3,300.5L299.1,292.1L294.5,283.5L290.4,274.5L287,265.3L284.1,256L281.9,246.4L280.3,236.7L279.3,226.9L279,217.1L279.3,207.3L280.3,197.6L281.9,187.9L284.1,178.3L287,168.9L290.4,159.7L294.5,150.8L299.1,142.1z"></path><path d="M345.7,-119.7L354,-124.9L362.7,-129.5L371.6,-133.6L380.8,-137L390.2,-139.9L399.7,-142.1L409.4,-143.7L419.2,-144.7L429,-145L438.8,-144.7L448.6,-143.7L458.3,-142.1L467.8,-139.9L477.2,-137L486.4,-133.6L495.3,-129.5L504,-124.9L512.3,-119.7L520.3,-114L527.9,-107.8L535.1,-101.1L528.4,-93.9L522.1,-86.3L516.4,-78.3L511.2,-70L506.6,-61.3L502.6,-52.4L499.1,-43.2L496.2,-33.8L494,-24.3L492.4,-14.6L491.5,-4.8L491.1,5L491.5,14.8L492.4,24.6L494,34.3L496.2,43.8L499.1,53.2L502.6,62.4L506.6,71.3L511.2,80L516.4,88.3L522.1,96.3L528.4,103.9L535.1,111.1L527.9,117.8L520.3,124L512.3,129.7L504,134.9L495.3,139.5L486.4,143.6L477.2,147L467.8,149.9L458.3,152.1L448.6,153.7L438.8,154.7L429,155L419.2,154.7L409.4,153.7L399.7,152.1L390.2,149.9L380.8,147L371.6,143.6L362.7,139.5L354,134.9L345.7,129.7L337.7,124L330.1,117.8L322.9,111.1L329.6,103.9L335.9,96.3L341.6,88.3L346.8,80L351.4,71.3L355.4,62.4L358.9,53.2L361.8,43.8L364,34.3L365.6,24.6L366.5,14.8L366.9,5L366.5,-4.8L365.6,-14.6L364,-24.3L361.8,-33.8L358.9,-43.2L355.4,-52.4L351.4,-61.3L346.8,-70L341.6,-78.3L335.9,-86.3L329.6,-93.9L322.9,-101.1L330.1,-107.8L337.7,-114z"></path><path d="M-78.3,304.3L-70,299.1L-61.3,294.5L-52.4,290.4L-43.2,287L-33.8,284.1L-24.3,281.9L-14.6,280.3L-4.8,279.3L5,279L14.8,279.3L24.6,280.3L34.3,281.9L43.8,284.1L53.2,287L62.4,290.4L71.3,294.5L80,299.1L88.3,304.3L96.3,310L103.9,316.2L111.1,322.9L104.4,330.1L98.1,337.7L92.4,345.7L87.2,354L82.6,362.7L78.6,371.6L75.1,380.8L72.2,390.2L70,399.7L68.4,409.4L67.5,419.2L67.1,429L67.5,438.8L68.4,448.6L70,458.3L72.2,467.8L75.1,477.2L78.6,486.4L82.6,495.3L87.2,504L92.4,512.3L98.1,520.3L104.4,527.9L111.1,535.1L103.9,541.8L96.3,548L88.3,553.7L80,558.9L71.3,563.5L62.4,567.6L53.2,571L43.8,573.9L34.3,576.1L24.6,577.7L14.8,578.7L5,579L-4.8,578.7L-14.6,577.7L-24.3,576.1L-33.8,573.9L-43.2,571L-52.4,567.6L-61.3,563.5L-70,558.9L-78.3,553.7L-86.3,548L-93.9,541.8L-101.1,535.1L-94.4,527.9L-88.1,520.3L-82.4,512.3L-77.2,504L-72.6,495.3L-68.6,486.4L-65.1,477.2L-62.2,467.8L-60,458.3L-58.4,448.6L-57.5,438.8L-57.1,429L-57.5,419.2L-58.4,409.4L-60,399.7L-62.2,390.2L-65.1,380.8L-68.6,371.6L-72.6,362.7L-77.2,354L-82.4,345.7L-88.1,337.7L-94.4,330.1L-101.1,322.9L-93.9,316.2L-86.3,310z"></path><path d="M345.7,304.3L354,299.1L362.7,294.5L371.6,290.4L380.8,287L390.2,284.1L399.7,281.9L409.4,280.3L419.2,279.3L429,279L438.8,279.3L448.6,280.3L458.3,281.9L467.8,284.1L477.2,287L486.4,290.4L495.3,294.5L504,299.1L512.3,304.3L520.3,310L527.9,316.2L535.1,322.9L528.4,330.1L522.1,337.7L516.4,345.7L511.2,354L506.6,362.7L502.6,371.6L499.1,380.8L496.2,390.2L494,399.7L492.4,409.4L491.5,419.2L491.1,429L491.5,438.8L492.4,448.6L494,458.3L496.2,467.8L499.1,477.2L502.6,486.4L506.6,495.3L511.2,504L516.4,512.3L522.1,520.3L528.4,527.9L535.1,535.1L527.9,541.8L520.3,548L512.3,553.7L504,558.9L495.3,563.5L486.4,567.6L477.2,571L467.8,573.9L458.3,576.1L448.6,577.7L438.8,578.7L429,579L419.2,578.7L409.4,577.7L399.7,576.1L390.2,573.9L380.8,571L371.6,567.6L362.7,563.5L354,558.9L345.7,553.7L337.7,548L330.1,541.8L322.9,535.1L329.6,527.9L335.9,520.3L341.6,512.3L346.8,504L351.4,495.3L355.4,486.4L358.9,477.2L361.8,467.8L364,458.3L365.6,448.6L366.5,438.8L366.9,429L366.5,419.2L365.6,409.4L364,399.7L361.8,390.2L358.9,380.8L355.4,371.6L351.4,362.7L346.8,354L341.6,345.7L335.9,337.7L329.6,330.1L322.9,322.9L330.1,316.2L337.7,310z"></path><path d="M92.4,345.7L98.1,337.7L104.4,330.1L111.1,322.9L118.2,329.6L125.8,335.9L133.8,341.6L142.1,346.8L150.8,351.4L159.7,355.4L168.9,358.9L178.3,361.8L187.9,364L197.6,365.6L207.3,366.5L217.1,366.9L226.9,366.5L236.7,365.6L246.4,364L256,361.8L265.3,358.9L274.5,355.4L283.5,351.4L292.1,346.8L300.5,341.6L308.4,335.9L316,329.6L323.2,322.9L329.9,330.1L336.1,337.7L341.9,345.7L347,354L351.7,362.7L355.7,371.6L359.2,380.8L362,390.2L364.2,399.7L365.8,409.4L366.8,419.2L367.1,429L366.8,438.8L365.8,448.6L364.2,458.3L362,467.8L359.2,477.2L355.7,486.4L351.7,495.3L347,504L341.9,512.3L336.1,520.3L329.9,527.9L323.2,535.1L316,528.4L308.4,522.1L300.5,516.4L292.1,511.2L283.5,506.6L274.5,502.6L265.3,499.1L256,496.2L246.4,494L236.7,492.4L226.9,491.5L217.1,491.1L207.3,491.5L197.6,492.4L187.9,494L178.3,496.2L168.9,499.1L159.7,502.6L150.8,506.6L142.1,511.2L133.8,516.4L125.8,522.1L118.2,528.4L111.1,535.1L104.4,527.9L98.1,520.3L92.4,512.3L87.2,504L82.6,495.3L78.6,486.4L75.1,477.2L72.2,467.8L70,458.3L68.4,448.6L67.5,438.8L67.1,429L67.5,419.2L68.4,409.4L70,399.7L72.2,390.2L75.1,380.8L78.6,371.6L82.6,362.7L87.2,354z"></path></svg>