<svg width="400" height="400" version="1.2" xmlns="http://www.w3.org/2000/svg" viewBox="0 0 400 400"><style type="text/css">path {stroke-width: 1; vector-effect: non-scaling-stroke; fill:none; stroke: #000; stroke-linecap: round; stroke-linejoin: miter;}</style><path d="M-251,-50L-237.9,-49.6L-224.9,-48.3L-212,-46.2L-199.2,-43.2L-186.7,-39.4L-174.5,-34.8L-162.5,-29.4L-151,-23.2L-139.9,-16.3L-129.2,-8.7L-119.1,-0.4L-109.6,8.6L-100.6,18.1L-92.3,28.2L-84.7,38.9L-77.8,50L-71.6,61.5L-66.2,73.5L-61.6,85.7L-57.8,98.2L-54.8,111L-52.7,123.9L-51.4,136.9L-51,150L-64.1,149.6L-77.1,148.3L-90,146.2L-102.8,143.2L-115.3,139.4L-127.5,134.8L-139.5,129.4L-151,123.2L-162.1,116.3L-172.8,108.7L-182.9,100.4L-192.4,91.4L-201.4,81.9L-209.7,71.8L-217.3,61.1L-224.2,50L-230.4,38.5L-235.8,26.5L-240.4,14.3L-244.2,1.8L-247.2,-11L-249.3,-23.9L-250.6,-36.9z"></path><path d="M7.6,8.6L17.1,-0.4L27.2,-8.7L37.9,-16.3L49,-23.2L60.5,-29.4L72.5,-34.8L84.7,-39.4L97.2,-43.2L110,-46.2L122.9,-48.3L135.9,-49.6L149,-50L148.6,-36.9L147.3,-23.9L145.2,-11L142.2,1.8L138.4,14.3L133.8,26.5L128.4,38.5L122.2,50L115.3,61.1L107.7,71.8L99.4,81.9L90.4,91.4L80.9,100.4L70.8,108.7L60.1,116.3L49,123.2L37.5,129.4L25.5,134.8L13.3,139.4L0.8,143.2L-12,146.2L-24.9,148.3L-37.9,149.6L-51,150L-50.6,136.9L-49.3,123.9L-47.2,111L-44.2,98.2L-40.4,85.7L-35.8,73.5L-30.4,61.5L-24.2,50L-17.3,38.9L-9.7,28.2L-1.4,18.1z"></path><path d="M-109.6,-108.6L-100.6,-118.1L-92.3,-128.2L-84.7,-138.9L-77.8,-150L-71.6,-161.5L-66.2,-173.5L-61.6,-185.7L-57.8,-198.2L-54.8,-211L-52.7,-223.9L-51.4,-236.9L-51,-250L-50.6,-236.9L-49.3,-223.9L-47.2,-211L-44.2,-198.2L-40.4,-185.7L-35.8,-173.5L-30.4,-161.5L-24.2,-150L-17.3,-138.9L-9.7,-128.2L-1.4,-118.1L7.6,-108.6L17.1,-99.6L27.2,-91.3L37.9,-83.7L49,-76.8L60.5,-70.6L72.5,-65.2L84.7,-60.6L97.2,-56.8L110,-53.8L122.9,-51.7L135.9,-50.4L149,-50L135.9,-49.6L122.9,-48.3L110,-46.2L97.2,-43.2L84.7,-39.4L72.5,-34.8L60.5,-29.4L49,-23.2L37.9,-16.3L27.2,-8.7L17.1,-0.4L7.6,8.6L-1.4,18.1L-9.7,28.2L-17.3,38.9L-24.2,50L-30.4,61.5L-35.8,73.5L-40.4,85.7L-44.2,98.2L-47.2,111L-49.3,123.9L-50.6,136.9L-51,150L-51.4,136.9L-52.7,123.9L-54.8,111L-57.8,98.2L-61.6,85.7L-66.2,73.5L-71.6,61.5L-77.8,50L-84.7,38.9L-92.3,28.2L-100.6,18.1L-109.6,8.6L-119.1,-0.4L-129.2,-8.7L-139.9,-16.3L-151,-23.2L-162.5,-29.4L-174.5,-34.8L-186.7,-39.4L-199.2,-43.2L-212,-46.2L-224.9,-48.3L-237.9,-49.6L-251,-50L-237.9,-50.4L-224.9,-51.7L-212,-53.8L-199.2,-56.8L-186.7,-60.6L-174.5,-65.2L-162.5,-70.6L-151,-76.8L-139.9,-83.7L-129.2,-91.3L-119.1,-99.6z"></path><path d="M-192.4,-191.4L-182.9,-200.4L-172.8,-208.7L-162.1,-216.3L-151,-223.2L-139.5,-229.4L-127.5,-234.8L-115.3,-239.4L-102.8,-243.2L-90,-246.2L-77.1,-248.3L-64.1,-249.6L-51,-250L-51.4,-236.9L-52.7,-223.9L-54.8,-211L-57.8,-198.2L-61.6,-185.7L-66.2,-173.5L-71.6,-161.5L-77.8,-150L-84.7,-138.9L-92.3,-128.2L-100.6,-118.1L-109.6,-108.6L-119.1,-99.6L-129.2,-91.3L-139.9,-83.7L-151,-76.8L-162.5,-70.6L-174.5,-65.2L-186.7,-60.6L-199.2,-56.8L-212,-53.8L-224.9,-51.7L-237.9,-50.4L-251,-50L-250.6,-63.1L-249.3,-76.1L-247.2,-89L-244.2,-101.8L-240.4,-114.3L-235.8,-126.5L-230.4,-138.5L-224.2,-150L-217.3,-161.1L-209.7,-171.8L-201.4,-181.9z"></path><path d="M-51,150L-37.9,150.4L-24.9,151.7L-12,153.8L0.8,156.8L13.3,160.6L25.5,165.2L37.5,170.6L49,176.8L60.1,183.7L70.8,191.3L80.9,199.6L90.4,208.6L99.4,218.1L107.7,228.2L115.3,238.9L122.2,250L128.4,261.5L133.8,273.5L138.4,285.7L142.2,298.2L145.2,311L147.3,323.9L148.6,336.9L149,350L135.9,349.6L122.9,348.3L110,346.2L97.2,343.2L84.7,339.4L72.5,334.8L60.5,329.4L49,323.2L37.9,316.3L27.2,308.7L17.1,300.4L7.6,291.4L-1.4,281.9L-9.7,271.8L-17.3,261.1L-24.2,250L-30.4,238.5L-35.8,226.5L-40.4,214.3L-44.2,201.8L-47.2,189L-49.3,176.1L-50.6,163.1z"></path><path d="M90.4,91.4L99.4,81.9L107.7,71.8L115.3,61.1L122.2,50L128.4,38.5L133.8,26.5L138.4,14.3L142.2,1.8L145.2,-11L147.3,-23.9L148.6,-36.9L149,-50L149.4,-36.9L150.7,-23.9L152.8,-11L155.8,1.8L159.6,14.3L164.2,26.5L169.6,38.5L175.8,50L182.7,61.1L190.3,71.8L198.6,81.9L207.6,91.4L217.1,100.4L227.2,108.7L237.9,116.3L249,123.2L260.5,129.4L272.5,134.8L284.7,139.4L297.2,143.2L310,146.2L322.9,148.3L335.9,149.6L349,150L335.9,150.4L322.9,151.7L310,153.8L297.2,156.8L284.7,160.6L272.5,165.2L260.5,170.6L249,176.8L237.9,183.7L227.2,191.3L217.1,199.6L207.6,208.6L198.6,218.1L190.3,228.2L182.7,238.9L175.8,250L169.6,261.5L164.2,273.5L159.6,285.7L155.8,298.2L152.8,311L150.7,323.9L149.4,336.9L149,350L148.6,336.9L147.3,323.9L145.2,311L142.2,298.2L138.4,285.7L133.8,273.5L128.4,261.5L122.2,250L115.3,238.9L107.7,228.2L99.4,218.1L90.4,208.6L80.9,199.6L70.8,191.3L60.1,183.7L49,176.8L37.5,170.6L25.5,165.2L13.3,160.6L0.8,156.8L-12,153.8L-24.9,151.7L-37.9,150.4L-51,150L-37.9,149.6L-24.9,148.3L-12,146.2L0.8,143.2L13.3,139.4L25.5,134.8L37.5,129.4L49,123.2L60.1,116.3L70.8,108.7L80.9,100.4z"></path><path d="M207.6,208.6L217.1,199.6L227.2,191.3L237.9,183.7L249,176.8L260.5,170.6L272.5,165.2L284.7,160.6L297.2,156.8L310,153.8L322.9,151.7L335.9,150.4L349,150L348.6,163.1L347.3,176.1L345.2,189L342.2,201.8L338.4,214.3L333.8,226.5L328.4,238.5L322.2,250L315.3,261.1L307.7,271.8L299.4,281.9L290.4,291.4L280.9,300.4L270.8,308.7L260.1,316.3L249,323.2L237.5,329.4L225.5,334.8L213.3,339.4L200.8,343.2L188,346.2L175.1,348.3L162.1,349.6L149,350L149.4,336.9L150.7,323.9L152.8,311L155.8,298.2L159.6,285.7L164.2,273.5L169.6,261.5L175.8,250L182.7,238.9L190.3,228.2L198.6,218.1z"></path><path d="M149,-50L162.1,-49.6L175.1,-48.3L188,-46.2L200.8,-43.2L213.3,-39.4L225.5,-34.8L237.5,-29.4L249,-23.2L260.1,-16.3L270.8,-8.7L280.9,-0.4L290.4,8.6L299.4,18.1L307.7,28.2L315.3,38.9L322.2,50L328.4,61.5L333.8,73.5L338.4,85.7L342.2,98.2L345.2,111L347.3,123.9L348.6,136.9L349,150L335.9,149.6L322.9,148.3L310,146.2L297.2,143.2L284.7,139.4L272.5,134.8L260.5,129.4L249,123.2L237.9,116.3L227.2,108.7L217.1,100.4L207.6,91.4L198.6,81.9L190.3,71.8L182.7,61.1L175.8,50L169.6,38.5L164.2,26.5L159.6,14.3L155.8,1.8L152.8,-11L150.7,-23.9L149.4,-36.9z"></path><path d="M-251,350L-237.9,350.4L-224.9,351.7L-212,353.8L-199.2,356.8L-186.7,360.6L-174.5,365.2L-162.5,370.6L-151,376.8L-139.9,383.7L-129.2,391.3L-119.1,399.6L-109.6,408.6L-100.6,418.1L-92.3,428.2L-84.7,438.9L-77.8,450L-71.6,461.5L-66.2,473.5L-61.6,485.7L-57.8,498.2L-54.8,511L-52.7,523.9L-51.4,536.9L-51,550L-64.1,549.6L-77.1,548.3L-90,546.2L-102.8,543.2L-115.3,539.4L-127.5,534.8L-139.5,529.4L-151,523.2L-162.1,516.3L-172.8,508.7L-182.9,500.4L-192.4,491.4L-201.4,481.9L-209.7,471.8L-217.3,461.1L-224.2,450L-230.4,438.5L-235.8,426.5L-240.4,414.3L-244.2,401.8L-247.2,389L-249.3,376.1L-250.6,363.1z"></path><path d="M149,350L162.1,350.4L175.1,351.7L188,353.8L200.8,356.8L213.3,360.6L225.5,365.2L237.5,370.6L249,376.8L260.1,383.7L270.8,391.3L280.9,399.6L290.4,408.6L299.4,418.1L307.7,428.2L315.3,438.9L322.2,450L328.4,461.5L333.8,473.5L338.4,485.7L342.2,498.2L345.2,511L347.3,523.9L348.6,536.9L349,550L335.9,549.6L322.9,548.3L310,546.2L297.2,543.2L284.7,539.4L272.5,534.8L260.5,529.4L249,523.2L237.9,516.3L227.2,508.7L217.1,500.4L207.6,491.4L198.6,481.9L190.3,471.8L182.7,461.1L175.8,450L169.6,438.5L164.2,426.5L159.6,414.3L155.8,401.8L152.8,389L150.7,376.1L149.4,363.1z"></path><path d="M407.6,8.6L417.1,-0.4L427.2,-8.7L437.9,-16.3L449,-23.2L460.5,-29.4L472.5,-34.8L484.7,-39.4L497.2,-43.2L510,-46.2L522.9,-48.3L535.9,-49.6L549,-50L548.6,-36.9L547.3,-23.9L545.2,-11L542.2,1.8L538.4,14.3L533.8,26.5L528.4,38.5L522.2,50L515.3,61.1L507.7,71.8L499.4,81.9L490.4,91.4L480.9,100.4L470.8,108.7L460.1,116.3L449,123.2L437.5,129.4L425.5,134.8L413.3,139.4L400.8,143.2L388,146.2L375.1,148.3L362.1,149.6L349,150L349.4,136.9L350.7,123.9L352.8,111L355.8,98.2L359.6,85.7L364.2,73.5L369.6,61.5L375.8,50L382.7,38.9L390.3,28.2L398.6,18.1z"></path><path d="M7.6,408.6L17.1,399.6L27.2,391.3L37.9,383.7L49,376.8L60.5,370.6L72.5,365.2L84.7,360.6L97.2,356.8L110,353.8L122.9,351.7L135.9,350.4L149,350L148.6,363.1L147.3,376.1L145.2,389L142.2,401.8L138.4,414.3L133.8,426.5L128.4,438.5L122.2,450L115.3,461.1L107.7,471.8L99.4,481.9L90.4,491.4L80.9,500.4L70.8,508.7L60.1,516.3L49,523.2L37.5,529.4L25.5,534.8L13.3,539.4L0.8,543.2L-12,546.2L-24.9,548.3L-37.9,549.6L-51,550L-50.6,536.9L-49.3,523.9L-47.2,511L-44.2,498.2L-40.4,485.7L-35.8,473.5L-30.4,461.5L-24.2,450L-17.3,438.9L-9.7,428.2L-1.4,418.1z"></path><path d="M407.6,408.6L417.1,399.6L427.2,391.3L437.9,383.7L449,376.8L460.5,370.6L472.5,365.2L484.7,360.6L497.2,356.8L510,353.8L522.9,351.7L535.9,350.4L549,350L548.6,363.1L547.3,376.1L545.2,389L542.2,401.8L538.4,414.3L533.8,426.5L528.4,438.5L522.2,450L515.3,461.1L507.7,471.8L499.4,481.9L490.4,491.4L480.9,500.4L470.8,508.7L460.1,516.3L449,523.2L437.5,529.4L425.5,534.8L413.3,539.4L400.8,543.2L388,546.2L375.1,548.3L362.1,549.6L349,550L349.4,536.9L350.7,523.9L352.8,511L355.8,498.2L359.6,485.7L364.2,473.5L369.6,461.5L375.8,450L382.7,438.9L390.3,428.2L398.6,418.1z"></path><path d="M290.4,-108.6L299.4,-118.1L307.7,-128.2L315.3,-138.9L322.2,-150L328.4,-161.5L333.8,-173.5L338.4,-185.7L342.2,-198.2L345.2,-211L347.3,-223.9L348.6,-236.9L349,-250L349.4,-236.9L350.7,-223.9L352.8,-211L355.8,-198.2L359.6,-185.7L364.2,-173.5L369.6,-161.5L375.8,-150L382.7,-138.9L390.3,-128.2L398.6,-118.1L407.6,-108.6L417.1,-99.6L427.2,-91.3L437.9,-83.7L449,-76.8L460.5,-70.6L472.5,-65.2L484.7,-60.6L497.2,-56.8L510,-53.8L522.9,-51.7L535.9,-50.4L549,-50L535.9,-49.6L522.9,-48.3L510,-46.2L497.2,-43.2L484.7,-39.4L472.5,-34.8L460.5,-29.4L449,-23.2L437.9,-16.3L427.2,-8.7L417.1,-0.4L407.6,8.6L398.6,18.1L390.3,28.2L382.7,38.9L375.8,50L369.6,61.5L364.2,73.5L359.6,85.7L355.8,98.2L352.8,111L350.7,123.9L349.4,136.9L349,150L348.6,136.9L347.3,123.9L345.2,111L342.2,98.2L338.4,85.7L333.8,73.5L328.4,61.5L322.2,50L315.3,38.9L307.7,28.2L299.4,18.1L290.4,8.6L280.9,-0.4L270.8,-8.7L260.1,-16.3L249,-23.2L237.5,-29.4L225.5,-34.8L213.3,-39.4L200.8,-43.2L188,-46.2L175.1,-48.3L162.1,-49.6L149,-50L162.1,-50.4L175.1,-51.7L188,-53.8L200.8,-56.8L213.3,-60.6L225.5,-65.2L237.5,-70.6L249,-76.8L260.1,-83.7L270.8,-91.3L280.9,-99.6z"></path><path d="M-109.6,291.4L-100.6,281.9L-92.3,271.8L-84.7,261.1L-77.8,250L-71.6,238.5L-66.2,226.5L-61.6,214.3L-57.8,201.8L-54.8,189L-52.7,176.1L-51.4,163.1L-51,150L-50.6,163.1L-49.3,176.1L-47.2,189L-44.2,201.8L-40.4,214.3L-35.8,226.5L-30.4,238.5L-24.2,250L-17.3,261.1L-9.7,271.8L-1.4,281.9L7.6,291.4L17.1,300.4L27.2,308.7L37.9,316.3L49,323.2L60.5,329.4L72.5,334.8L84.7,339.4L97.2,343.2L110,346.2L122.9,348.3L135.9,349.6L149,350L135.9,350.4L122.9,351.7L110,353.8L97.2,356.8L84.7,360.6L72.5,365.2L60.5,370.6L49,376.8L37.9,383.7L27.2,391.3L17.1,399.6L7.6,408.6L-1.4,418.1L-9.7,428.2L-17.3,438.9L-24.2,450L-30.4,461.5L-35.8,473.5L-40.4,485.7L-44.2,498.2L-47.2,511L-49.3,523.9L-50.6,536.9L-51,550L-51.4,536.9L-52.7,523.9L-54.8,511L-57.8,498.2L-61.6,485.7L-66.2,473.5L-71.6,461.5L-77.8,450L-84.7,438.9L-92.3,428.2L-100.6,418.1L-109.6,408.6L-119.1,399.6L-129.2,391.3L-139.9,383.7L-151,376.8L-162.5,370.6L-174.5,365.2L-186.7,360.6L-199.2,356.8L-212,353.8L-224.9,351.7L-237.9,350.4L-251,350L-237.9,349.6L-224.9,348.3L-212,346.2L-199.2,343.2L-186.7,339.4L-174.5,334.8L-162.5,329.4L-151,323.2L-139.9,316.3L-129.2,308.7L-119.1,300.4z"></path><path d="M290.4,291.4L299.4,281.9L307.7,271.8L315.3,261.1L322.2,250L328.4,238.5L333.8,226.5L338.4,214.3L342.2,201.8L345.2,189L347.3,176.1L348.6,163.1L349,150L349.4,163.1L350.7,176.1L352.8,189L355.8,201.8L359.6,214.3L364.2,226.5L369.6,238.5L375.8,250L382.7,261.1L390.3,271.8L398.6,281.9L407.6,291.4L417.1,300.4L427.2,308.7L437.9,316.3L449,323.2L460.5,329.4L472.5,334.8L484.7,339.4L497.2,343.2L510,346.2L522.9,348.3L535.9,349.6L549,350L535.9,350.4L522.9,351.7L510,353.8L497.2,356.8L484.7,360.6L472.5,365.2L460.5,370.6L449,376.8L437.9,383.7L427.2,391.3L417.1,399.6L407.6,408.6L398.6,418.1L390.3,428.2L382.7,438.9L375.8,450L369.6,461.5L364.2,473.5L359.6,485.7L355.8,498.2L352.8,511L350.7,523.9L349.4,536.9L349,550L348.6,536.9L347.3,523.9L345.2,511L342.2,498.2L338.4,485.7L333.8,473.5L328.4,461.5L322.2,450L315.3,438.9L307.7,428.2L299.4,418.1L290.4,408.6L280.9,399.6L270.8,391.3L260.1,383.7L249,376.8L237.5,370.6L225.5,365.2L213.3,360.6L200.8,356.8L188,353.8L175.1,351.7L162.1,350.4L149,350L162.1,349.6L175.1,348.3L188,346.2L200.8,343.2L213.3,339.4L225.5,334.8L237.5,329.4L249,323.2L260.1,316.3L270.8,308.7L280.9,300.4z"></path><path d="M207.6,-191.4L217.1,-200.4L227.2,-208.7L237.9,-216.3L249,-223.2L260.5,-229.4L272.5,-234.8L284.7,-239.4L297.2,-243.2L310,-246.2L322.9,-248.3L335.9,-249.6L349,-250L348.6,-236.9L347.3,-223.9L345.2,-211L342.2,-198.2L338.4,-185.7L333.8,-173.5L328.4,-161.5L322.2,-150L315.3,-138.9L307.7,-128.2L299.4,-118.1L290.4,-108.6L280.9,-99.6L270.8,-91.3L260.1,-83.7L249,-76.8L237.5,-70.6L225.5,-65.2L213.3,-60.6L200.8,-56.8L188,-53.8L175.1,-51.7L162.1,-50.4L149,-50L149.4,-63.1L150.7,-76.1L152.8,-89L155.8,-101.8L159.6,-114.3L164.2,-126.5L169.6,-138.5L175.8,-150L182.7,-161.1L190.3,-171.8L198.6,-181.9z"></path><path d="M-192.4,208.6L-182.9,199.6L-172.8,191.3L-162.1,183.7L-151,176.8L-139.5,170.6L-127.5,165.2L-115.3,160.6L-102.8,156.8L-90,153.8L-77.1,151.7L-64.1,150.4L-51,150L-51.4,163.1L-52.7,176.1L-54.8,189L-57.8,201.8L-61.6,214.3L-66.2,226.5L-71.6,238.5L-77.8,250L-84.7,261.1L-92.3,271.8L-100.6,281.9L-109.6,291.4L-119.1,300.4L-129.2,308.7L-139.9,316.3L-151,323.2L-162.5,329.4L-174.5,334.8L-186.7,339.4L-199.2,343.2L-212,346.2L-224.9,348.3L-237.9,349.6L-251,350L-250.6,336.9L-249.3,323.9L-247.2,311L-244.2,298.2L-240.4,285.7L-235.8,273.5L-230.4,261.5L-224.2,250L-217.3,238.9L-209.7,228.2L-201.4,218.1z"></path><path d="M207.6,208.6L217.1,199.6L227.2,191.3L237.9,183.7L249,176.8L260.5,170.6L272.5,165.2L284.7,160.6L297.2,156.8L310,153.8L322.9,151.7L335.9,150.4L349,150L348.6,163.1L347.3,176.1L345.2,189L342.2,201.8L338.4,214.3L333.8,226.5L328.4,238.5L322.2,250L315.3,261.1L307.7,271.8L299.4,281.9L290.4,291.4L280.9,300.4L270.8,308.7L260.1,316.3L249,323.2L237.5,329.4L225.5,334.8L213.3,339.4L200.8,343.2L188,346.2L175.1,348.3L162.1,349.6L149,350L149.4,336.9L150.7,323.9L152.8,311L155.8,298.2L159.6,285.7L164.2,273.5L169.6,261.5L175.8,250L182.7,238.9L190.3,228.2L198.6,218.1z"></path><path d="M349,150L362.1,150.4L375.1,151.7L388,153.8L400.8,156.8L413.3,160.6L425.5,165.2L437.5,170.6L449,176.8L460.1,183.7L470.8,191.3L480.9,199.6L490.4,208.6L499.4,218.1L507.7,228.2L515.3,238.9L522.2,250L528.4,261.5L533.8,273.5L538.4,285.7L542.2,298.2L545.2,311L547.3,323.9L548.6,336.9L549,350L535.9,349.6L522.9,348.3L510,346.2L497.2,343.2L484.7,339.4L472.5,334.8L460.5,329.4L449,323.2L437.9,316.3L427.2,308.7L417.1,300.4L407.6,291.4L398.6,281.9L390.3,271.8L382.7,261.1L375.8,250L369.6,238.5L364.2,226.5L359.6,214.3L355.8,201.8L352.8,189L350.7,176.1L349.4,163.1z"></path><path d="M490.4,91.4L499.4,81.9L507.7,71.8L515.3,61.1L522.2,50L528.4,38.5L533.8,26.5L538.4,14.3L542.2,1.8L545.2,-11L547.3,-23.9L548.6,-36.9L549,-50L549.4,-36.9L550.7,-23.9L552.8,-11L555.8,1.8L559.6,14.3L564.2,26.5L569.6,38.5L575.8,50L582.7,61.1L590.3,71.8L598.6,81.9L607.6,91.4L617.1,100.4L627.2,108.7L637.9,116.3L649,123.2L660.5,129.4L672.5,134.8L684.7,139.4L697.2,143.2L710,146.2L722.9,148.3L735.9,149.6L749,150L735.9,150.4L722.9,151.7L710,153.8L697.2,156.8L684.7,160.6L672.5,165.2L660.5,170.6L649,176.8L637.9,183.7L627.2,191.3L617.1,199.6L607.6,208.6L598.6,218.1L590.3,228.2L582.7,238.9L575.8,250L569.6,261.5L564.2,273.5L559.6,285.7L555.8,298.2L552.8,311L550.7,323.9L549.4,336.9L549,350L548.6,336.9L547.3,323.9L545.2,311L542.2,298.2L538.4,285.7L533.8,273.5L528.4,261.5L522.2,250L515.3,238.9L507.7,228.2L499.4,218.1L490.4,208.6L480.9,199.6L470.8,191.3L460.1,183.7L449,176.8L437.5,170.6L425.5,165.2L413.3,160.6L400.8,156.8L388,153.8L375.1,151.7L362.1,150.4L349,150L362.1,149.6L375.1,148.3L388,146.2L400.8,143.2L413.3,139.4L425.5,134.8L437.5,129.4L449,123.2L460.1,116.3L470.8,108.7L480.9,100.4z"></path><path d="M90.4,491.4L99.4,481.9L107.7,471.8L115.3,461.1L122.2,450L128.4,438.5L133.8,426.5L138.4,414.3L142.2,401.8L145.2,389L147.3,376.1L148.6,363.1L149,350L149.4,363.1L150.7,376.1L152.8,389L155.8,401.8L159.6,414.3L164.2,426.5L169.6,438.5L175.8,450L182.7,461.1L190.3,471.8L198.6,481.9L207.6,491.4L217.1,500.4L227.2,508.7L237.9,516.3L249,523.2L260.5,529.4L272.5,534.8L284.7,539.4L297.2,543.2L310,546.2L322.9,548.3L335.9,549.6L349,550L335.9,550.4L322.9,551.7L310,553.8L297.2,556.8L284.7,560.6L272.5,565.2L260.5,570.6L249,576.8L237.9,583.7L227.2,591.3L217.1,599.6L207.6,608.6L198.6,618.1L190.3,628.2L182.7,638.9L175.8,650L169.6,661.5L164.2,673.5L159.6,685.7L155.8,698.2L152.8,711L150.7,723.9L149.4,736.9L149,750L148.6,736.9L147.3,723.9L145.2,711L142.2,698.2L138.4,685.7L133.8,673.5L128.4,661.5L122.2,650L115.3,638.9L107.7,628.2L99.4,618.1L90.4,608.6L80.9,599.6L70.8,591.3L60.1,583.7L49,576.8L37.5,570.6L25.5,565.2L13.3,560.6L0.8,556.8L-12,553.8L-24.9,551.7L-37.9,550.4L-51,550L-37.9,549.6L-24.9,548.3L-12,546.2L0.8,543.2L13.3,539.4L25.5,534.8L37.5,529.4L49,523.2L60.1,516.3L70.8,508.7L80.9,500.4z"></path><path d="M490.4,491.4L499.4,481.9L507.7,471.8L515.3,461.1L522.2,450L528.4,438.5L533.8,426.5L538.4,414.3L542.2,401.8L545.2,389L547.3,376.1L548.6,363.1L549,350L549.4,363.1L550.7,376.1L552.8,389L555.8,401.8L559.6,414.3L564.2,426.5L569.6,438.5L575.8,450L582.7,461.1L590.3,471.8L598.6,481.9L607.6,491.4L617.1,500.4L627.2,508.7L637.9,516.3L649,523.2L660.5,529.4L672.5,534.8L684.7,539.4L697.2,543.2L710,546.2L722.9,548.3L735.9,549.6L749,550L735.9,550.4L722.9,551.7L710,553.8L697.2,556.8L684.7,560.6L672.5,565.2L660.5,570.6L649,576.8L637.9,583.7L627.2,591.3L617.1,599.6L607.6,608.6L598.6,618.1L590.3,628.2L582.7,638.9L575.8,650L569.6,661.5L564.2,673.5L559.6,685.7L555.8,698.2L552.8,711L550.7,723.9L549.4,736.9L549,750L548.6,736.9L547.3,723.9L545.2,711L542.2,698.2L538.4,685.7L533.8,673.5L528.4,661.5L522.2,650L515.3,638.9L507.7,628.2L499.4,618.1L490.4,608.6L480.9,599.6L470.8,591.3L460.1,583.7L449,576.8L437.5,570.6L425.5,565.2L413.3,560.6L400.8,556.8L388,553.8L375.1,551.7L362.1,550.4L349,550L362.1,549.6L375.1,548.3L388,546.2L400.8,543.2L413.3,539.4L425.5,534.8L437.5,529.4L449,523.2L460.1,516.3L470.8,508.7L480.9,500.4z"></path></svg>