<svg width="1534" height="1534" version="1.2" xmlns="http://www.w3.org/2000/svg" viewBox="0 0 1534 1534"><style type="text/css">path {stroke-width: 1; vector-effect: non-scaling-stroke; fill:none; stroke: #000; stroke-linecap: round; stroke-linejoin: miter;}</style><path d="M767,0L1534,0L1534,767L1150.5,767L1150.5,383.5L767,383.5z"></path><path d="M0,767L383.5,767L383.5,1150.5L767,1150.5L767,1534L0,1534z"></path><path d="M767,1150.5L1150.5,1150.5L1150.5,767L1534,767L1534,1534L767,1534z"></path><path d="M383.5,383.5L767,383.5L1150.5,383.5L1150.5,767L1150.5,1150.5L767,1150.5L383.5,1150.5L383.5,767z"></path><path d="M0,0L767,0L767,383.5L383.5,383.5L383.5,767L0,767z"></path></svg>