<svg width="200" height="110.5411" version="1.2" xmlns="http://www.w3.org/2000/svg" viewBox="0 0 200 110.5411"><style type="text/css">path {stroke-width: 1; vector-effect: non-scaling-stroke; fill:none; stroke: #000; stroke-linecap: round; stroke-linejoin: miter;}</style><path d="M-75.02,-90.9811L-70.708,-95.8981L-65.791,-100.2101L-60.35300000000001,-103.8441L-54.486999999999995,-106.7361L-48.29499999999999,-108.8381L-41.879999999999995,-110.1141L-35.35400000000001,-110.5421L-28.828000000000003,-110.1141L-22.413999999999987,-108.8381L-16.221000000000004,-106.7361L-10.35499999999999,-103.8441L-4.918000000000006,-100.2101L-0.0010000000000047748,-95.8981L4.312000000000012,-90.9811L7.944999999999993,-85.5431L10.837999999999994,-79.6781L12.939999999999998,-73.4851L14.216000000000008,-67.0701L14.643,-60.5441L15.070999999999998,-54.0181L16.34700000000001,-47.6041L18.449000000000012,-41.411100000000005L21.342000000000013,-35.546099999999996L24.974999999999994,-30.108099999999993L29.287000000000006,-25.191100000000006L-0.002999999999985903,14.638900000000007L-4.9199999999999875,10.326899999999995L-10.357,6.6928999999999945L-16.223000000000013,3.8008999999999986L-22.415999999999997,1.6988999999999947L-28.830000000000013,0.4228999999999985L-35.355999999999995,-0.005099999999998772L-41.882000000000005,0.4228999999999985L-48.297,1.6988999999999947L-54.49000000000001,3.8008999999999986L-60.35499999999999,6.6928999999999945L-65.793,10.326899999999995L-70.71000000000001,14.638900000000007L-100,-25.191100000000006L-95.688,-30.108099999999993L-92.054,-35.546099999999996L-89.162,-41.411100000000005L-87.06,-47.6041L-85.784,-54.0181L-85.356,-60.5441L-84.928,-67.0701L-83.652,-73.4851L-81.55,-79.6781L-78.658,-85.5431z"></path><path d="M124.98,-90.9811L129.292,-95.8981L134.209,-100.2101L139.647,-103.8441L145.513,-106.7361L151.705,-108.8381L158.12,-110.1141L164.646,-110.5421L171.172,-110.1141L177.586,-108.8381L183.779,-106.7361L189.645,-103.8441L195.082,-100.2101L199.999,-95.8981L204.312,-90.9811L207.945,-85.5431L210.838,-79.6781L212.94,-73.4851L214.216,-67.0701L214.643,-60.5441L215.071,-54.0181L216.347,-47.6041L218.449,-41.411100000000005L221.342,-35.546099999999996L224.975,-30.108099999999993L229.287,-25.191100000000006L199.997,14.638900000000007L195.08,10.326899999999995L189.643,6.6928999999999945L183.777,3.8008999999999986L177.584,1.6988999999999947L171.17,0.4228999999999985L164.644,-0.005099999999998772L158.118,0.4228999999999985L151.703,1.6988999999999947L145.51,3.8008999999999986L139.645,6.6928999999999945L134.207,10.326899999999995L129.29,14.638900000000007L100,-25.191100000000006L104.312,-30.108099999999993L107.946,-35.546099999999996L110.838,-41.411100000000005L112.94,-47.6041L114.216,-54.0181L114.644,-60.5441L115.072,-67.0701L116.348,-73.4851L118.45,-79.6781L121.342,-85.5431z"></path><path d="M-75.02,19.56L-70.708,14.643L-65.791,10.331L-60.35300000000001,6.697L-54.486999999999995,3.805L-48.29499999999999,1.703L-41.879999999999995,0.427L-35.35400000000001,-0.001L-28.828000000000003,0.427L-22.413999999999987,1.703L-16.221000000000004,3.805L-10.35499999999999,6.697L-4.918000000000006,10.331L-0.0010000000000047748,14.643L4.312000000000012,19.56L7.944999999999993,24.998L10.837999999999994,30.863L12.939999999999998,37.056L14.216000000000008,43.471L14.643,49.997L15.070999999999998,56.523L16.34700000000001,62.937L18.449000000000012,69.13L21.342000000000013,74.995L24.974999999999994,80.433L29.287000000000006,85.35L-0.002999999999985903,125.18L-4.9199999999999875,120.868L-10.357,117.234L-16.223000000000013,114.342L-22.415999999999997,112.24L-28.830000000000013,110.964L-35.355999999999995,110.536L-41.882000000000005,110.964L-48.297,112.24L-54.49000000000001,114.342L-60.35499999999999,117.234L-65.793,120.868L-70.71000000000001,125.18L-100,85.35L-95.688,80.433L-92.054,74.995L-89.162,69.13L-87.06,62.937L-85.784,56.523L-85.356,49.997L-84.928,43.471L-83.652,37.056L-81.55,30.863L-78.658,24.998z"></path><path d="M124.98,19.56L129.292,14.643L134.209,10.331L139.647,6.697L145.513,3.805L151.705,1.703L158.12,0.427L164.646,-0.001L171.172,0.427L177.586,1.703L183.779,3.805L189.645,6.697L195.082,10.331L199.999,14.643L204.312,19.56L207.945,24.998L210.838,30.863L212.94,37.056L214.216,43.471L214.643,49.997L215.071,56.523L216.347,62.937L218.449,69.13L221.342,74.995L224.975,80.433L229.287,85.35L199.997,125.18L195.08,120.868L189.643,117.234L183.777,114.342L177.584,112.24L171.17,110.964L164.644,110.536L158.118,110.964L151.703,112.24L145.51,114.342L139.645,117.234L134.207,120.868L129.29,125.18L100,85.35L104.312,80.433L107.946,74.995L110.838,69.13L112.94,62.937L114.216,56.523L114.644,49.997L115.072,43.471L116.348,37.056L118.45,30.863L121.342,24.998z"></path><path d="M-75.02,130.1011L-70.708,125.1841L-65.791,120.8721L-60.35300000000001,117.2381L-54.486999999999995,114.3461L-48.29499999999999,112.2441L-41.879999999999995,110.9681L-35.35400000000001,110.5401L-28.828000000000003,110.9681L-22.413999999999987,112.2441L-16.221000000000004,114.3461L-10.35499999999999,117.2381L-4.918000000000006,120.8721L-0.0010000000000047748,125.1841L4.312000000000012,130.1011L7.944999999999993,135.5391L10.837999999999994,141.4041L12.939999999999998,147.5971L14.216000000000008,154.0121L14.643,160.5381L15.070999999999998,167.0641L16.34700000000001,173.47809999999998L18.449000000000012,179.6711L21.342000000000013,185.5361L24.974999999999994,190.97410000000002L29.287000000000006,195.8911L-0.002999999999985903,235.7211L-4.9199999999999875,231.4091L-10.357,227.7751L-16.223000000000013,224.8831L-22.415999999999997,222.78109999999998L-28.830000000000013,221.5051L-35.355999999999995,221.0771L-41.882000000000005,221.5051L-48.297,222.78109999999998L-54.49000000000001,224.8831L-60.35499999999999,227.7751L-65.793,231.4091L-70.71000000000001,235.7211L-100,195.8911L-95.688,190.97410000000002L-92.054,185.5361L-89.162,179.6711L-87.06,173.47809999999998L-85.784,167.0641L-85.356,160.5381L-84.928,154.0121L-83.652,147.5971L-81.55,141.4041L-78.658,135.5391z"></path><path d="M124.98,130.1011L129.292,125.1841L134.209,120.8721L139.647,117.2381L145.513,114.3461L151.705,112.2441L158.12,110.9681L164.646,110.5401L171.172,110.9681L177.586,112.2441L183.779,114.3461L189.645,117.2381L195.082,120.8721L199.999,125.1841L204.312,130.1011L207.945,135.5391L210.838,141.4041L212.94,147.5971L214.216,154.0121L214.643,160.5381L215.071,167.0641L216.347,173.47809999999998L218.449,179.6711L221.342,185.5361L224.975,190.97410000000002L229.287,195.8911L199.997,235.7211L195.08,231.4091L189.643,227.7751L183.777,224.8831L177.584,222.78109999999998L171.17,221.5051L164.644,221.0771L158.118,221.5051L151.703,222.78109999999998L145.51,224.8831L139.645,227.7751L134.207,231.4091L129.29,235.7211L100,195.8911L104.312,190.97410000000002L107.946,185.5361L110.838,179.6711L112.94,173.47809999999998L114.216,167.0641L114.644,160.5381L115.072,154.0121L116.348,147.5971L118.45,141.4041L121.342,135.5391z"></path><path d="M29.29,-25.1811L34.207,-20.869100000000003L39.645,-17.235100000000003L45.51,-14.343100000000007L51.703,-12.241100000000003L58.118,-10.965100000000007L64.644,-10.537099999999995L71.17,-10.965100000000007L77.584,-12.241100000000003L83.777,-14.343100000000007L89.642,-17.235100000000003L95.08,-20.869100000000003L99.997,-25.1811L129.287,14.648899999999998L124.975,19.5659L121.342,25.003899999999987L118.449,30.868899999999996L116.347,37.06190000000001L115.071,43.475899999999996L114.643,50.001900000000006L114.216,56.52789999999999L112.94,62.94290000000001L110.837,69.13589999999999L107.945,75.0009L104.311,80.43889999999999L99.999,85.35589999999999L95.082,89.6679L89.645,93.30189999999999L83.779,96.19390000000001L77.586,98.29589999999999L71.172,99.5719L64.646,99.9999L58.12,99.5719L51.705,98.29589999999999L45.512,96.19390000000001L39.647,93.30189999999999L34.209,89.6679L29.292,85.35589999999999L24.98,80.43889999999999L21.347,75.0009L18.454,69.13589999999999L16.352,62.94290000000001L15.076,56.52789999999999L14.648,50.001900000000006L14.22,43.475899999999996L12.944,37.06190000000001L10.842,30.868899999999996L7.95,25.003899999999987L4.316,19.5659L0.004,14.648899999999998z"></path><path d="M29.29,85.36L34.207,89.672L39.645,93.306L45.51,96.198L51.703,98.3L58.118,99.576L64.644,100.004L71.17,99.576L77.584,98.3L83.777,96.198L89.642,93.306L95.08,89.672L99.997,85.36L129.287,125.19L124.975,130.107L121.342,135.545L118.449,141.41L116.347,147.603L115.071,154.017L114.643,160.543L114.216,167.069L112.94,173.484L110.837,179.677L107.945,185.542L104.311,190.98L99.999,195.897L95.082,200.209L89.645,203.843L83.779,206.735L77.586,208.837L71.172,210.113L64.646,210.541L58.12,210.113L51.705,208.837L45.512,206.735L39.647,203.843L34.209,200.209L29.292,195.897L24.98,190.98L21.347,185.542L18.454,179.677L16.352,173.484L15.076,167.069L14.648,160.543L14.22,154.017L12.944,147.603L10.842,141.41L7.95,135.545L4.316,130.107L0.004,125.19z"></path></svg>