<svg width="37.057795" height="48.511097" version="1.2" xmlns="http://www.w3.org/2000/svg" viewBox="0 0 37.057795 48.511097"><style type="text/css">path {stroke-width: 1; vector-effect: non-scaling-stroke; fill:none; stroke: #000; stroke-linecap: round; stroke-linejoin: miter;}</style><path d="M-37.057795,8.6L-18.526795,-0.002L0.004204999999998904,8.6L-18.521794999999997,48.51z"></path><path d="M0,8.6L18.531,-0.002L37.062,8.6L18.536,48.51z"></path><path d="M-37.057795,57.111097L-18.526795,48.509097L0.004204999999998904,57.111097L-18.521794999999997,97.021097z"></path><path d="M0,57.111097L18.531,48.509097L37.062,57.111097L18.536,97.021097z"></path><path d="M0.0022050000000035652,-39.911097L18.528205,-0.001097000000001458L-0.0027949999999989927,8.600903000000002L-18.533794999999998,-0.001097000000001458z"></path><path d="M37.06,-39.911097L55.586,-0.001097000000001458L37.055,8.600903000000002L18.524,-0.001097000000001458z"></path><path d="M0.0022050000000035652,8.6L18.528205,48.51L-0.0027949999999989927,57.112L-18.533794999999998,48.51z"></path><path d="M37.06,8.6L55.586,48.51L37.055,57.112L18.524,48.51z"></path></svg>