<svg width="1104" height="705" version="1.2" xmlns="http://www.w3.org/2000/svg" viewBox="0 0 1104 705"><style type="text/css">path {stroke-width: 1; vector-effect: non-scaling-stroke; fill:none; stroke: #000; stroke-linecap: round; stroke-linejoin: miter;}</style><path d="M0,-705L0,50L13.275,75.99699999999996L28.877,100.66700000000003L46.671,123.80700000000002L66.511,145.21699999999998L88.227,164.72299999999996L111.637,182.159L136.547,197.37599999999998L162.745,210.25L190.012,220.668L218.119,228.54700000000003L246.829,233.817L275.902,236.437L304.974,239.05700000000002L333.684,244.32600000000002L361.791,252.20600000000002L389.058,262.624L415.256,275.49699999999996L440.166,290.71400000000006L463.576,308.15099999999995L485.292,327.65599999999995L505.132,349.067L522.926,372.2059999999999L538.528,396.87699999999995L551.803,422.874L551.803,-332.126L538.528,-358.123L522.926,-382.794L505.132,-405.933L485.292,-427.344L463.576,-446.849L440.166,-464.286L415.256,-479.503L389.058,-492.376L361.791,-502.794L333.684,-510.674L304.974,-515.943L275.902,-518.563L246.829,-521.183L218.119,-526.453L190.012,-534.332L162.745,-544.75L136.547,-557.624L111.637,-572.841L88.227,-590.277L66.511,-609.783L46.671,-631.193L28.877,-654.333L13.275,-679.003z"></path><path d="M0,0L0,755L13.275,780.997L28.877,805.667L46.671,828.807L66.511,850.217L88.227,869.723L111.637,887.159L136.547,902.376L162.745,915.25L190.012,925.668L218.119,933.547L246.829,938.817L275.902,941.437L304.974,944.057L333.684,949.326L361.791,957.206L389.058,967.624L415.256,980.497L440.166,995.714L463.576,1013.151L485.292,1032.656L505.132,1054.067L522.926,1077.206L538.528,1101.877L551.803,1127.874L551.803,372.874L538.528,346.877L522.926,322.206L505.132,299.067L485.292,277.656L463.576,258.151L440.166,240.714L415.256,225.497L389.058,212.624L361.791,202.206L333.684,194.326L304.974,189.057L275.902,186.437L246.829,183.817L218.119,178.547L190.012,170.668L162.745,160.25L136.547,147.376L111.637,132.159L88.227,114.723L66.511,95.217L46.671,73.807L28.877,50.667L13.275,25.997z"></path><path d="M688.37,-479.49L714.568,-492.36400000000003L741.835,-502.78200000000004L769.942,-510.661L798.652,-515.9300000000001L827.724,-518.5509999999999L856.797,-521.171L885.507,-526.44L913.614,-534.319L940.881,-544.737L967.079,-557.611L991.989,-572.828L1015.399,-590.265L1037.115,-609.77L1056.955,-631.181L1074.749,-654.32L1090.351,-678.99L1103.626,-704.987L1103.626,50.013000000000034L1090.351,76.00999999999999L1074.749,100.67999999999995L1056.955,123.81899999999996L1037.115,145.23000000000002L1015.399,164.735L991.989,182.17200000000003L967.079,197.389L940.881,210.26300000000003L913.614,220.68100000000004L885.507,228.55999999999995L856.797,233.82899999999995L827.724,236.44899999999996L798.652,239.07000000000005L769.942,244.33900000000006L741.835,252.21799999999996L714.568,262.63599999999997L688.37,275.51L663.46,290.727L640.05,308.163L618.334,327.6690000000001L598.494,349.0799999999999L580.7,372.21900000000005L565.098,396.8889999999999L551.823,422.88599999999997L551.823,-332.114L565.098,-358.111L580.7,-382.781L598.494,-405.92L618.334,-427.331L640.05,-446.837L663.46,-464.273z"></path><path d="M688.37,225.51L714.568,212.636L741.835,202.218L769.942,194.339L798.652,189.07L827.724,186.449L856.797,183.829L885.507,178.56L913.614,170.681L940.881,160.263L967.079,147.389L991.989,132.172L1015.399,114.735L1037.115,95.23L1056.955,73.819L1074.749,50.68L1090.351,26.01L1103.626,0.013L1103.626,755.013L1090.351,781.01L1074.749,805.68L1056.955,828.819L1037.115,850.23L1015.399,869.735L991.989,887.172L967.079,902.389L940.881,915.263L913.614,925.681L885.507,933.56L856.797,938.829L827.724,941.449L798.652,944.07L769.942,949.339L741.835,957.218L714.568,967.636L688.37,980.51L663.46,995.727L640.05,1013.163L618.334,1032.669L598.494,1054.08L580.7,1077.219L565.098,1101.889L551.823,1127.886L551.823,372.886L565.098,346.889L580.7,322.219L598.494,299.08L618.334,277.669L640.05,258.163L663.46,240.727z"></path></svg>