<svg width="600" height="1000" version="1.2" xmlns="http://www.w3.org/2000/svg" viewBox="0 0 600 1000"><style type="text/css">.thumb-shape {stroke-width: 1; vector-effect: non-scaling-stroke; fill:none; stroke: #000; stroke-linecap: round; stroke-linejoin: round;}</style><path d="M50,450L50,650L-250,950L-350,850z" class="thumb-shape"></path><path d="M150,150L250,250L-150,650L-150,450z" class="thumb-shape"></path><path d="M150,-50L550,350L450,450L150,150z" class="thumb-shape"></path><path d="M350,-50L350,150L-50,-250L50,-350z" class="thumb-shape"></path><path d="M50,450L250,250L450,450L450,650L250,850L50,650z" class="thumb-shape"></path><path d="M-250,-50L-50,-250L150,-50L150,150L-50,350L-250,150z" class="thumb-shape"></path><path d="M650,450L650,650L350,950L250,850z" class="thumb-shape"></path><path d="M750,150L850,250L450,650L450,450z" class="thumb-shape"></path><path d="M150,950L550,1350L450,1450L150,1150z" class="thumb-shape"></path><path d="M950,-50L950,150L550,-250L650,-350z" class="thumb-shape"></path><path d="M350,950L350,1150L-50,750L50,650z" class="thumb-shape"></path><path d="M950,950L950,1150L550,750L650,650z" class="thumb-shape"></path><path d="M350,-50L550,-250L750,-50L750,150L550,350L350,150z" class="thumb-shape"></path><path d="M-250,950L-50,750L150,950L150,1150L-50,1350L-250,1150z" class="thumb-shape"></path><path d="M350,950L550,750L750,950L750,1150L550,1350L350,1150z" class="thumb-shape"></path></svg>