<svg width="2090" height="2102" version="1.2" xmlns="http://www.w3.org/2000/svg" viewBox="0 0 2090 2102"><style type="text/css">path {stroke-width: 1; vector-effect: non-scaling-stroke; fill:none; stroke: #000; stroke-linecap: round; stroke-linejoin: miter;}</style><path d="M1407.4,102.3L1460,51L1533.9,232.9L1618.2,334.9L1549,445.2L1292.7,277z"></path><path d="M860,600.6L1000.8,473L1640.9,1206.2L1605.7,1227.2L1503.3,1237.4L1450.2,1260.2L1422.1,1266.6z"></path><path d="M1455.1,586.1L1659.9,324.8L1759.3,492.6L1865.7,712.1L1888.9,826.8L1904.5,980L1893.3,1057.2L1749.4,1051.5L1591.7,1068.3L1435.1,883.8L1324.1,780z"></path><path d="M1785.1,1069.8L2051.9,1302.8L1595,1833.1L1331.4,1589.4z"></path><path d="M808.2,101L901.5,57.5L978.8,-38.4L1044.3,-74.8L1186.9,97.5L1292.2,251.7L1236.6,289.7L1186.9,289.7L1130.8,324.7L977.8,262.7L735.7,175.8z"></path><path d="M1254.1,-193.5L1406.8,-40.3L1406.8,3L1336.9,183.4L1098,-27.1z"></path><path d="M1361.6,-159.2L1550.5,-300L1956.5,280.9L1783.9,413L1667.5,289.5z"></path><path d="M166.8,401.8L601.2,220.3L585.1,440.8L474.5,497.5L422.5,483.2L157.1,524.6z"></path><path d="M821.4,-294.4L937.6,-169.6L993.9,-144.4L1032,-84.8L677.2,169.3L598.1,68.8z"></path><path d="M237.1,-91.7L365.7,-165.9L438.2,-140.7L592.4,155.7L445.6,269.7z"></path><path d="M532.4,-316.9L688.2,-400L773.6,-368.8L674.3,-96.4L615.9,-72.3L455.6,-118.9z"></path><path d="M-21.8,1309.7L424.2,1635.4L292.6,1740.6L248.9,1834.6L248.9,1913.4L-178.2,1847.2z"></path><path d="M-91.3,1403.1L-188.4,1821.5L-397.7,1743.7z"></path><path d="M-400,-211.7L-318.5,-269L-220.6,-257.4L-115,-178.6L70.8,-119.6L211.1,-119.6L358.4,175.6L220.9,233.2L180.4,287.1L-48.8,350.7L-400.1,-178.6z"></path><path d="M276.6,1785.2L540.1,1544.7L644.9,1662.3L346.8,1928.1z"></path><path d="M1273.9,275.5L1483.6,474L1500.6,497.7L1275.9,729L1049.1,505.1z"></path><path d="M710.6,1340.4L931.4,1148.6L1030.7,1262.9L1215.2,1524.8L1425.9,1736.5L1212.8,1932.3L1159.6,1971.2L981,1866.5L843.6,1766.5L721.8,1647.9L588,1570.7L494.4,1496.7z"></path><path d="M656.6,832.5L833.3,662.1L1493,1380.8L1314.2,1550.2z"></path><path d="M-153.2,649.1L520.7,500.3L616.5,933.9L473.4,1105.7L374,1185.4L72.5,1336L-7.4,1309.4z"></path><path d="M-296.5,429.8L-211,407L-129.6,399L-0.1,354L107,504.6L165.9,563L-250.9,637.7z"></path><path d="M208.4,1363.4L700.4,943.3L879,1152.4L385.7,1581.2L355.1,1557z"></path><path d="M621.4,185L675,178.5L976.4,270.2L1019.3,306.2L890,467.9L869.4,569.8L782.7,649.9L700.1,773.9L660.3,797L641.9,826.8L608.2,826.9z"></path><path d="M2068.2,1309.7L2514.2,1635.4L2382.6,1740.6L2338.9,1834.6L2338.9,1913.4L1911.8,1847.2z"></path><path d="M1998.7,1403.1L1901.6,1821.5L1692.3,1743.7z"></path><path d="M1690,-211.7L1771.5,-269L1869.4,-257.4L1975,-178.6L2160.8,-119.6L2301.1,-119.6L2448.4,175.6L2310.9,233.2L2270.4,287.1L2041.2,350.7L1689.9,-178.6z"></path><path d="M1936.8,649.1L2610.7,500.3L2706.5,933.9L2563.4,1105.7L2464,1185.4L2162.5,1336L2082.6,1309.4z"></path><path d="M1793.5,429.8L1879,407L1960.4,399L2089.9,354L2197,504.6L2255.9,563L1839.1,637.7z"></path><path d="M808.2,2203L901.5,2159.5L978.8,2063.6L1044.3,2027.2L1186.9,2199.5L1292.2,2353.7L1236.6,2391.7L1186.9,2391.7L1130.8,2426.7L977.8,2364.7L735.7,2277.8z"></path><path d="M1254.1,1908.5L1406.8,2061.7L1406.8,2105L1336.9,2285.4L1098,2074.9z"></path><path d="M1361.6,1942.8L1550.5,1802L1956.5,2382.9L1783.9,2515L1667.5,2391.5z"></path><path d="M821.4,1807.6L937.6,1932.4L993.9,1957.6L1032,2017.2L677.2,2271.3L598.1,2170.8z"></path><path d="M237.1,2010.3L365.7,1936.1L438.2,1961.3L592.4,2257.7L445.6,2371.7z"></path><path d="M532.4,1785.1L688.2,1702L773.6,1733.2L674.3,2005.6L615.9,2029.7L455.6,1983.1z"></path><path d="M-400,1890.3L-318.5,1833L-220.6,1844.6L-115,1923.4L70.8,1982.4L211.1,1982.4L358.4,2277.6L220.9,2335.2L180.4,2389.1L-48.8,2452.7L-400.1,1923.4z"></path><path d="M1690,1890.3L1771.5,1833L1869.4,1844.6L1975,1923.4L2160.8,1982.4L2301.1,1982.4L2448.4,2277.6L2310.9,2335.2L2270.4,2389.1L2041.2,2452.7L1689.9,1923.4z"></path></svg>