<svg width="1250" height="500" version="1.2" xmlns="http://www.w3.org/2000/svg" viewBox="0 0 1250 500"><style type="text/css">path {stroke-width: 1; vector-effect: non-scaling-stroke; fill:none; stroke: #000; stroke-linecap: round; stroke-linejoin: miter;}</style><path d="M0,250L125,250L250,250L375,250L500,250L500,500L0,500z"></path><path d="M1000,250L1125,250L1250,250L1250,500L1000,500z"></path><path d="M500,250L625,250L750,250L1000,250L1000,500L500,500z"></path><path d="M-125,0L375,0L375,250L250,250L125,250L0,250L-125,250z"></path><path d="M1125,0L1625,0L1625,250L1500,250L1375,250L1250,250L1125,250z"></path><path d="M375,0L625,0L625,250L500,250L375,250z"></path><path d="M625,0L1125,0L1125,250L1000,250L750,250L625,250z"></path></svg>