<svg width="241" height="241" version="1.2" xmlns="http://www.w3.org/2000/svg" viewBox="0 0 241 241"><style type="text/css">path {stroke-width: 1; vector-effect: non-scaling-stroke; fill:none; stroke: #000; stroke-linecap: round; stroke-linejoin: miter;}</style><path d="M190.1,119.4L119.4,190.1L48.7,119.4L119.4,48.7z"></path><path d="M-51.3,-122L48.7,-122L119.4,-51.3L119.4,48.7L48.7,119.4L-51.3,119.4L-122,48.7L-122,-51.3z"></path><path d="M189.7,-122L289.7,-122L360.4,-51.3L360.4,48.7L289.7,119.4L189.7,119.4L119,48.7L119,-51.3z"></path><path d="M-51.3,119L48.7,119L119.4,189.7L119.4,289.7L48.7,360.4L-51.3,360.4L-122,289.7L-122,189.7z"></path><path d="M189.7,119L289.7,119L360.4,189.7L360.4,289.7L289.7,360.4L189.7,360.4L119,289.7L119,189.7z"></path></svg>