<svg width="2537" height="2537" version="1.2" xmlns="http://www.w3.org/2000/svg" viewBox="0 0 2537 2537"><style type="text/css">path {stroke-width: 1; vector-effect: non-scaling-stroke; fill:none; stroke: #000; stroke-linecap: round; stroke-linejoin: miter;}</style><path d="M-1130.93,-468.0100000000002L-661.9549999999999,-936.6579999999999L-662.1379999999999,-936.8420000000001L0.6019999999998618,-936.8420000000001L469.2289999999998,-468.21399999999994L469.0459999999998,-468.0300000000002L0.41800000000012005,0.5979999999999563L-662.142,0.8290000000001783z"></path><path d="M1406.07,-468.0100000000002L1875.045,-936.6579999999999L1874.862,-936.8420000000001L2537.602,-936.8420000000001L3006.229,-468.21399999999994L3006.046,-468.0300000000002L2537.418,0.5979999999999563L1874.858,0.8290000000001783z"></path><path d="M-1130.93,2068.99L-661.9549999999999,1600.342L-662.1379999999999,1600.158L0.6019999999998618,1600.158L469.2289999999998,2068.786L469.0459999999998,2068.97L0.41800000000012005,2537.598L-662.142,2537.829z"></path><path d="M1406.07,2068.99L1875.045,1600.342L1874.862,1600.158L2537.602,1600.158L3006.229,2068.786L3006.046,2068.97L2537.418,2537.598L1874.858,2537.829z"></path><path d="M1405.89,-467.82000000000016L1406.074,-468.0039999999999L1874.886,0.8079999999999927L1405.91,469.45600000000013L937.282,0.8279999999999745z"></path><path d="M1405.89,2069.18L1406.074,2068.996L1874.886,2537.808L1405.91,3006.456L937.282,2537.828z"></path><path d="M0,1600.18L468.812,1131.368L937.46,1600.344L468.832,2068.972z"></path><path d="M468.81,468.63L937.438,0.002L1406.25,468.814L1406.25,1131.554L937.438,1600.366L468.79,1131.39z"></path><path d="M-1130.75,468.81L-662.1220000000001,0.182L0.6179999999999382,0.182L469.2460000000001,468.81L469.2460000000001,1131.55L0.6179999999999382,1600.178L-662.1220000000001,1600.178L-1130.75,1131.55z"></path><path d="M1406.25,468.81L1874.878,0.182L2537.618,0.182L3006.246,468.81L3006.246,1131.55L2537.618,1600.178L1874.878,1600.178L1406.25,1131.55z"></path><path d="M937.44,1600.37L1406.252,1131.558L1874.88,1600.186L1875.064,1600.37L1406.088,2069.018z"></path><path d="M468.81,-468.0100000000002L937.438,-936.6379999999999L1406.066,-468.0100000000002L1405.882,-467.826L937.254,0.8020000000001346z"></path><path d="M468.81,2068.99L937.438,1600.362L1406.066,2068.99L1405.882,2069.174L937.254,2537.802z"></path><path d="M0,0.8099999999999454L468.812,-468.00199999999995L937.276,0.7899999999999636L468.464,469.60199999999986z"></path><path d="M0,2537.81L468.812,2068.998L937.276,2537.79L468.464,3006.602z"></path></svg>