<svg width="725" height="725" version="1.2" xmlns="http://www.w3.org/2000/svg" viewBox="0 0 725 725"><style type="text/css">path {stroke-width: 1; vector-effect: non-scaling-stroke; fill:none; stroke: #000; stroke-linecap: round; stroke-linejoin: miter;}</style><path d="M256.23,105.85000000000002L468.49,105.85000000000002L528.729,280.895L362.358,362.07500000000005L195.987,280.895z"></path><path d="M114.81,477.16L195.991,443.534L256.23,618.579L81.185,558.34z"></path><path d="M468.49,-106.40999999999997L643.535,-166.649L724.715,-0.27800000000002L643.535,166.09299999999996L468.49,105.85400000000004z"></path><path d="M468.49,618.59L643.535,558.351L724.715,724.722L643.535,891.093L468.49,830.854z"></path><path d="M468.49,105.85000000000002L643.535,166.08900000000006L609.909,247.26999999999998L528.727,280.89599999999996z"></path><path d="M-81.46000000000004,558.34L-0.27899999999999636,524.714L80.90300000000002,558.34L-0.27800000000002,724.711z"></path><path d="M643.54,558.34L724.721,524.714L805.903,558.34L724.722,724.711z"></path><path d="M-0.2799999999999727,0L80.89999999999998,166.371L-0.28099999999994907,199.997L-81.46199999999999,166.371z"></path><path d="M724.72,0L805.9,166.371L724.719,199.997L643.538,166.371z"></path><path d="M81.18,-166.65999999999997L256.225,-106.42100000000005L256.225,105.83900000000006L81.18,166.077L0,-0.29300000000000637z"></path><path d="M81.18,558.34L256.225,618.579L256.225,830.839L81.18,891.077L0,724.707z"></path><path d="M195.98,443.54L362.351,362.36L528.721,443.54L468.483,618.585L256.223,618.585z"></path><path d="M256.23,-106.40999999999997L468.49,-106.40999999999997L468.49,105.85000000000002L256.23,105.85000000000002z"></path><path d="M256.23,618.59L468.49,618.59L468.49,830.85L256.23,830.85z"></path><path d="M81.18,166.09000000000003L256.225,105.851L195.986,280.89599999999996L114.805,247.26999999999998z"></path><path d="M362.36,362.36L528.731,281.18L562.357,362.361L528.731,443.542z"></path><path d="M-196.26999999999998,281.18L-115.08900000000006,247.554L-81.46199999999999,166.372L-0.28099999999994907,199.999L80.89999999999998,166.372L114.52700000000004,247.554L195.70799999999997,281.18L162.082,362.361L195.70799999999997,443.543L114.52700000000004,477.169L80.89999999999998,558.35L-0.28099999999994907,524.724L-81.46199999999999,558.35L-115.08900000000006,477.169L-196.26999999999998,443.543L-162.644,362.361z"></path><path d="M528.73,281.18L609.911,247.554L643.538,166.372L724.719,199.999L805.9,166.372L839.527,247.554L920.708,281.18L887.082,362.361L920.708,443.543L839.527,477.169L805.9,558.35L724.719,524.724L643.538,558.35L609.911,477.169L528.73,443.543L562.356,362.361z"></path><path d="M528.73,443.54L609.911,477.166L643.538,558.348L468.493,618.586z"></path><path d="M195.70000000000005,281.18L362.0709999999999,362.36L195.70000000000005,443.541L162.07399999999996,362.359z"></path></svg>