<svg width="370" height="370" version="1.2" xmlns="http://www.w3.org/2000/svg" viewBox="0 0 370 370"><style type="text/css">path {stroke-width: 1; vector-effect: non-scaling-stroke; fill:none; stroke: #000; stroke-linecap: round; stroke-linejoin: miter;}</style><path d="M92.2,-92.6L184.6,-54.3L276.9,-92.6L238.7,-0.2L276.9,92.2L184.6,53.9L92.2,92.2L130.4,-0.2z"></path><path d="M-92.6,92.2L-0.2,130.4L92.2,92.2L53.9,184.6L92.2,276.9L-0.2,238.7L-92.6,276.9L-54.3,184.6z"></path><path d="M92.2,92.2L184.6,53.9L276.9,92.2L315.2,184.6L276.9,276.9L184.6,315.2L92.2,276.9L53.9,184.6z"></path><path d="M-92.6,-92.6L-0.2,-130.9L92.2,-92.6L130.4,-0.2L92.2,92.2L-0.2,130.4L-92.6,92.2L-130.9,-0.2z"></path><path d="M92.2,277.4L184.6,315.7L276.9,277.4L238.7,369.8L276.9,462.2L184.6,423.9L92.2,462.2L130.4,369.8z"></path><path d="M277.4,92.2L369.8,130.4L462.2,92.2L423.9,184.6L462.2,276.9L369.8,238.7L277.4,276.9L315.7,184.6z"></path><path d="M277.4,-92.6L369.8,-130.9L462.2,-92.6L500.4,-0.2L462.2,92.2L369.8,130.4L277.4,92.2L239.1,-0.2z"></path><path d="M-92.6,277.4L-0.2,239.1L92.2,277.4L130.4,369.8L92.2,462.2L-0.2,500.4L-92.6,462.2L-130.9,369.8z"></path><path d="M277.4,277.4L369.8,239.1L462.2,277.4L500.4,369.8L462.2,462.2L369.8,500.4L277.4,462.2L239.1,369.8z"></path></svg>