<svg width="155" height="155" version="1.2" xmlns="http://www.w3.org/2000/svg" viewBox="0 0 155 155"><style type="text/css">path {stroke-width: 1; vector-effect: non-scaling-stroke; fill:none; stroke: #000; stroke-linecap: round; stroke-linejoin: miter;}</style><path d="M16.86,0L33.724,16.864L16.86,33.729L-0.004,16.864z"></path><path d="M171.86,0L188.724,16.864L171.86,33.729L154.996,16.864z"></path><path d="M-138.14,-121.27000000000001L-121.27600000000001,-138.13400000000001L-0.006000000000000227,-138.13400000000001L16.85900000000001,-121.27000000000001L16.85900000000001,0L-0.006000000000000227,16.864000000000004L-121.27600000000001,16.864000000000004L-138.14,0z"></path><path d="M16.86,-121.27000000000001L33.724,-138.13400000000001L154.994,-138.13400000000001L171.859,-121.27000000000001L171.859,0L154.994,16.864000000000004L33.724,16.864000000000004L16.86,0z"></path><path d="M-138.14,33.73L-121.27600000000001,16.866L-0.006000000000000227,16.866L16.85900000000001,33.73L16.85900000000001,155L-0.006000000000000227,171.864L-121.27600000000001,171.864L-138.14,155z"></path><path d="M16.86,33.73L33.724,16.866L154.994,16.866L171.859,33.73L171.859,155L154.994,171.864L33.724,171.864L16.86,155z"></path></svg>