<svg width="200" height="350" version="1.2" xmlns="http://www.w3.org/2000/svg" viewBox="0 0 200 350"><style type="text/css">path {stroke-width: 1; vector-effect: non-scaling-stroke; fill:none; stroke: #000; stroke-linecap: round; stroke-linejoin: miter;}</style><path d="M-43.30000000000001,-150L-39.667,-155.438L-35.35400000000001,-160.355L-30.437000000000012,-164.667L-25,-168.3L-19.133999999999986,-171.193L-12.941000000000003,-173.295L-6.526999999999987,-174.571L-0.0010000000000047748,-174.999L6.525000000000006,-174.571L12.939999999999998,-173.295L19.132000000000005,-171.193L24.99799999999999,-168.3L30.436000000000007,-164.667L35.35300000000001,-160.355L39.66499999999999,-155.438L43.298,-150L46.191,-144.134L48.293000000000006,-137.942L49.56899999999999,-131.527L49.997000000000014,-125.001L50.42500000000001,-118.475L51.69999999999999,-112.061L53.803,-105.868L56.69499999999999,-100.00200000000001L60.32900000000001,-94.565L64.64100000000002,-89.64800000000002L69.55799999999999,-85.33499999999998L74.99599999999998,-81.702L80.86099999999999,-78.80900000000003L87.05399999999997,-76.707L93.46800000000002,-75.43099999999998L99.99400000000003,-75.00400000000002L99.99400000000003,-0.004000000000019099L93.46800000000002,0.42399999999997817L87.05399999999997,1.6999999999999886L80.86099999999999,3.802000000000021L74.99599999999998,6.694999999999993L69.55799999999999,10.327999999999975L64.64100000000002,14.639999999999986L60.32900000000001,19.557000000000016L56.69499999999999,24.995000000000005L53.803,30.86099999999999L51.69999999999999,37.053999999999974L50.42500000000001,43.46800000000002L49.997000000000014,49.99400000000003L49.56899999999999,56.51999999999998L48.293000000000006,62.934000000000026L46.191,69.12700000000001L43.298,74.993L39.66499999999999,80.43099999999998L35.35300000000001,85.34800000000001L30.436000000000007,89.66000000000003L24.99799999999999,93.293L19.132000000000005,96.18599999999998L12.939999999999998,98.28800000000001L6.525000000000006,99.56400000000002L-0.0010000000000047748,99.99200000000002L-6.526999999999987,99.56400000000002L-12.941000000000003,98.28800000000001L-19.133999999999986,96.18599999999998L-25,93.293L-30.437000000000012,89.66000000000003L-35.35400000000001,85.34800000000001L-39.667,80.43099999999998L-43.30000000000001,74.993L-46.19300000000001,69.12700000000001L-48.29499999999999,62.934000000000026L-49.571,56.51999999999998L-49.99799999999999,49.99400000000003L-50.42599999999999,43.46800000000002L-51.702,37.053999999999974L-53.804,30.86099999999999L-56.697,24.995000000000005L-60.33000000000001,19.557000000000016L-64.642,14.639999999999986L-69.559,10.327999999999975L-74.997,6.694999999999993L-80.863,3.802000000000021L-87.056,1.6999999999999886L-93.47,0.42399999999997817L-99.996,-0.004000000000019099L-99.996,-75.00400000000002L-93.47,-75.43099999999998L-87.056,-76.707L-80.863,-78.80900000000003L-74.997,-81.702L-69.559,-85.33499999999998L-64.642,-89.64800000000002L-60.33000000000001,-94.565L-56.697,-100.00200000000001L-53.804,-105.868L-51.702,-112.061L-50.42599999999999,-118.475L-49.99799999999999,-125.001L-49.571,-131.527L-48.29499999999999,-137.942L-46.19300000000001,-144.134z"></path><path d="M156.7,-150L160.333,-155.438L164.646,-160.355L169.563,-164.667L175,-168.3L180.866,-171.193L187.059,-173.295L193.473,-174.571L199.999,-174.999L206.525,-174.571L212.94,-173.295L219.132,-171.193L224.998,-168.3L230.436,-164.667L235.353,-160.355L239.665,-155.438L243.298,-150L246.191,-144.134L248.293,-137.942L249.569,-131.527L249.997,-125.001L250.425,-118.475L251.7,-112.061L253.803,-105.868L256.695,-100.00200000000001L260.329,-94.565L264.641,-89.64800000000002L269.558,-85.33499999999998L274.996,-81.702L280.861,-78.80900000000003L287.054,-76.707L293.468,-75.43099999999998L299.994,-75.00400000000002L299.994,-0.004000000000019099L293.468,0.42399999999997817L287.054,1.6999999999999886L280.861,3.802000000000021L274.996,6.694999999999993L269.558,10.327999999999975L264.641,14.639999999999986L260.329,19.557000000000016L256.695,24.995000000000005L253.803,30.86099999999999L251.7,37.053999999999974L250.425,43.46800000000002L249.997,49.99400000000003L249.569,56.51999999999998L248.293,62.934000000000026L246.191,69.12700000000001L243.298,74.993L239.665,80.43099999999998L235.353,85.34800000000001L230.436,89.66000000000003L224.998,93.293L219.132,96.18599999999998L212.94,98.28800000000001L206.525,99.56400000000002L199.999,99.99200000000002L193.473,99.56400000000002L187.059,98.28800000000001L180.866,96.18599999999998L175,93.293L169.563,89.66000000000003L164.646,85.34800000000001L160.333,80.43099999999998L156.7,74.993L153.807,69.12700000000001L151.705,62.934000000000026L150.429,56.51999999999998L150.002,49.99400000000003L149.574,43.46800000000002L148.298,37.053999999999974L146.196,30.86099999999999L143.303,24.995000000000005L139.67,19.557000000000016L135.358,14.639999999999986L130.441,10.327999999999975L125.003,6.694999999999993L119.137,3.802000000000021L112.944,1.6999999999999886L106.53,0.42399999999997817L100.004,-0.004000000000019099L100.004,-75.00400000000002L106.53,-75.43099999999998L112.944,-76.707L119.137,-78.80900000000003L125.003,-81.702L130.441,-85.33499999999998L135.358,-89.64800000000002L139.67,-94.565L143.303,-100.00200000000001L146.196,-105.868L148.298,-112.061L149.574,-118.475L150.002,-125.001L150.429,-131.527L151.705,-137.942L153.807,-144.134z"></path><path d="M-43.30000000000001,200L-39.667,194.562L-35.35400000000001,189.645L-30.437000000000012,185.333L-25,181.7L-19.133999999999986,178.807L-12.941000000000003,176.705L-6.526999999999987,175.429L-0.0010000000000047748,175.001L6.525000000000006,175.429L12.939999999999998,176.705L19.132000000000005,178.807L24.99799999999999,181.7L30.436000000000007,185.333L35.35300000000001,189.645L39.66499999999999,194.562L43.298,200L46.191,205.866L48.293000000000006,212.058L49.56899999999999,218.473L49.997000000000014,224.999L50.42500000000001,231.525L51.69999999999999,237.939L53.803,244.132L56.69499999999999,249.998L60.32900000000001,255.435L64.64100000000002,260.352L69.55799999999999,264.665L74.99599999999998,268.298L80.86099999999999,271.191L87.05399999999997,273.293L93.46800000000002,274.569L99.99400000000003,274.996L99.99400000000003,349.996L93.46800000000002,350.424L87.05399999999997,351.7L80.86099999999999,353.802L74.99599999999998,356.695L69.55799999999999,360.328L64.64100000000002,364.64L60.32900000000001,369.557L56.69499999999999,374.995L53.803,380.861L51.69999999999999,387.054L50.42500000000001,393.468L49.997000000000014,399.994L49.56899999999999,406.52L48.293000000000006,412.934L46.191,419.127L43.298,424.993L39.66499999999999,430.431L35.35300000000001,435.348L30.436000000000007,439.66L24.99799999999999,443.293L19.132000000000005,446.186L12.939999999999998,448.288L6.525000000000006,449.564L-0.0010000000000047748,449.992L-6.526999999999987,449.564L-12.941000000000003,448.288L-19.133999999999986,446.186L-25,443.293L-30.437000000000012,439.66L-35.35400000000001,435.348L-39.667,430.431L-43.30000000000001,424.993L-46.19300000000001,419.127L-48.29499999999999,412.934L-49.571,406.52L-49.99799999999999,399.994L-50.42599999999999,393.468L-51.702,387.054L-53.804,380.861L-56.697,374.995L-60.33000000000001,369.557L-64.642,364.64L-69.559,360.328L-74.997,356.695L-80.863,353.802L-87.056,351.7L-93.47,350.424L-99.996,349.996L-99.996,274.996L-93.47,274.569L-87.056,273.293L-80.863,271.191L-74.997,268.298L-69.559,264.665L-64.642,260.352L-60.33000000000001,255.435L-56.697,249.998L-53.804,244.132L-51.702,237.939L-50.42599999999999,231.525L-49.99799999999999,224.999L-49.571,218.473L-48.29499999999999,212.058L-46.19300000000001,205.866z"></path><path d="M156.7,200L160.333,194.562L164.646,189.645L169.563,185.333L175,181.7L180.866,178.807L187.059,176.705L193.473,175.429L199.999,175.001L206.525,175.429L212.94,176.705L219.132,178.807L224.998,181.7L230.436,185.333L235.353,189.645L239.665,194.562L243.298,200L246.191,205.866L248.293,212.058L249.569,218.473L249.997,224.999L250.425,231.525L251.7,237.939L253.803,244.132L256.695,249.998L260.329,255.435L264.641,260.352L269.558,264.665L274.996,268.298L280.861,271.191L287.054,273.293L293.468,274.569L299.994,274.996L299.994,349.996L293.468,350.424L287.054,351.7L280.861,353.802L274.996,356.695L269.558,360.328L264.641,364.64L260.329,369.557L256.695,374.995L253.803,380.861L251.7,387.054L250.425,393.468L249.997,399.994L249.569,406.52L248.293,412.934L246.191,419.127L243.298,424.993L239.665,430.431L235.353,435.348L230.436,439.66L224.998,443.293L219.132,446.186L212.94,448.288L206.525,449.564L199.999,449.992L193.473,449.564L187.059,448.288L180.866,446.186L175,443.293L169.563,439.66L164.646,435.348L160.333,430.431L156.7,424.993L153.807,419.127L151.705,412.934L150.429,406.52L150.002,399.994L149.574,393.468L148.298,387.054L146.196,380.861L143.303,374.995L139.67,369.557L135.358,364.64L130.441,360.328L125.003,356.695L119.137,353.802L112.944,351.7L106.53,350.424L100.004,349.996L100.004,274.996L106.53,274.569L112.944,273.293L119.137,271.191L125.003,268.298L130.441,264.665L135.358,260.352L139.67,255.435L143.303,249.998L146.196,244.132L148.298,237.939L149.574,231.525L150.002,224.999L150.429,218.473L151.705,212.058L153.807,205.866z"></path><path d="M56.7,25L60.333,19.562L64.646,14.645L69.563,10.333L75,6.7L80.866,3.807L87.059,1.705L93.473,0.429L99.999,0.001L106.525,0.429L112.94,1.705L119.132,3.807L124.998,6.7L130.436,10.333L135.353,14.645L139.665,19.562L143.298,25L146.191,30.866L148.293,37.058L149.569,43.473L149.997,49.999L150.425,56.525L151.7,62.939L153.803,69.132L156.695,74.998L160.329,80.435L164.641,85.352L169.558,89.665L174.996,93.298L180.861,96.191L187.054,98.293L193.468,99.569L199.994,99.996L199.994,174.996L193.468,175.424L187.054,176.7L180.861,178.802L174.996,181.695L169.558,185.328L164.641,189.64L160.329,194.557L156.695,199.995L153.803,205.861L151.7,212.054L150.425,218.468L149.997,224.994L149.569,231.52L148.293,237.934L146.191,244.127L143.298,249.993L139.665,255.431L135.353,260.348L130.436,264.66L124.998,268.293L119.132,271.186L112.94,273.288L106.525,274.564L99.999,274.992L93.473,274.564L87.059,273.288L80.866,271.186L75,268.293L69.563,264.66L64.646,260.348L60.333,255.431L56.7,249.993L53.807,244.127L51.705,237.934L50.429,231.52L50.002,224.994L49.574,218.468L48.298,212.054L46.196,205.861L43.303,199.995L39.67,194.557L35.358,189.64L30.441,185.328L25.003,181.695L19.137,178.802L12.944,176.7L6.53,175.424L0.004,174.996L0.004,99.996L6.53,99.569L12.944,98.293L19.137,96.191L25.003,93.298L30.441,89.665L35.358,85.352L39.67,80.435L43.303,74.998L46.196,69.132L48.298,62.939L49.574,56.525L50.002,49.999L50.429,43.473L51.705,37.058L53.807,30.866z"></path></svg>