<svg width="700" height="700" version="1.2" xmlns="http://www.w3.org/2000/svg" viewBox="0 0 700 700"><style type="text/css">path {stroke-width: 1; vector-effect: non-scaling-stroke; fill:none; stroke: #000; stroke-linecap: round; stroke-linejoin: miter;}</style><path d="M150,300L550,300L550,700L150,700z"></path><path d="M0,150L149.999,0.001L549.999,0.001L699.997,150L549.999,299.999L149.999,299.999z"></path><path d="M-150,-400L-0.0009999999999763531,-549.999L149.99699999999996,-400L149.99699999999996,0L-0.0009999999999763531,149.99900000000002L-150,0z"></path><path d="M550,-400L699.999,-549.999L849.997,-400L849.997,0L699.999,149.99900000000002L550,0z"></path><path d="M-150,300L-0.0009999999999763531,150.001L149.99699999999996,300L149.99699999999996,700L-0.0009999999999763531,849.999L-150,700z"></path><path d="M550,300L699.999,150.001L849.997,300L849.997,700L699.999,849.999L550,700z"></path></svg>