<svg width="600" height="400" version="1.2" xmlns="http://www.w3.org/2000/svg" viewBox="0 0 600 400"><style type="text/css">.thumb-shape {stroke-width: 1; vector-effect: non-scaling-stroke; fill:none; stroke: #000; stroke-linecap: round; stroke-linejoin: miter;}</style><path d="M149,49L149,149L-51,149L-51,49L-151,49L-151,-151L-51,-151L-51,-251L149,-251L149,-151L249,-151L249,49z" class="thumb-shape"></path><path d="M449,249L449,349L249,349L249,249L149,249L149,49L249,49L249,-51L449,-51L449,49L549,49L549,249z" class="thumb-shape"></path><path d="M749,49L749,149L549,149L549,49L449,49L449,-151L549,-151L549,-251L749,-251L749,-151L849,-151L849,49z" class="thumb-shape"></path><path d="M149,449L149,549L-51,549L-51,449L-151,449L-151,249L-51,249L-51,149L149,149L149,249L249,249L249,449z" class="thumb-shape"></path><path d="M749,449L749,549L549,549L549,449L449,449L449,249L549,249L549,149L749,149L749,249L849,249L849,449z" class="thumb-shape"></path><path d="M449,649L449,749L249,749L249,649L149,649L149,449L249,449L249,349L449,349L449,449L549,449L549,649z" class="thumb-shape"></path></svg>