<svg width="400" height="400" version="1.2" xmlns="http://www.w3.org/2000/svg" viewBox="0 0 400 400"><style type="text/css">.thumb-shape {stroke-width: 1; vector-effect: non-scaling-stroke; fill:none; stroke: #000; stroke-linecap: round; stroke-linejoin: miter;}</style><path d="M149,150L149,250L-51,250L-51,150L-151,150L-151,-50L-51,-50L-51,-150L149,-150L149,-50L249,-50L249,150z" class="thumb-shape"></path><path d="M149,150L349,150L349,350L149,350z" class="thumb-shape"></path><path d="M549,150L549,250L349,250L349,150L249,150L249,-50L349,-50L349,-150L549,-150L549,-50L649,-50L649,150z" class="thumb-shape"></path><path d="M149,550L149,650L-51,650L-51,550L-151,550L-151,350L-51,350L-51,250L149,250L149,350L249,350L249,550z" class="thumb-shape"></path><path d="M549,550L549,650L349,650L349,550L249,550L249,350L349,350L349,250L549,250L549,350L649,350L649,550z" class="thumb-shape"></path></svg>