<svg width="267" height="462" version="1.2" xmlns="http://www.w3.org/2000/svg" viewBox="0 0 267 462"><style type="text/css">path {stroke-width: 1; vector-effect: non-scaling-stroke; fill:none; stroke: #000; stroke-linecap: round; stroke-linejoin: miter;}</style><path d="M-89,-141.76999999999998L-74.94300000000001,-135.21499999999997L-59.96199999999999,-131.20100000000002L-44.510999999999996,-129.849L-29.060000000000002,-131.20100000000002L-14.078000000000003,-135.21499999999997L-0.021000000000015007,-141.76999999999998L12.684000000000026,-150.666L23.65100000000001,-161.63299999999998L32.547000000000025,-174.33800000000002L39.101999999999975,-188.39499999999998L43.115999999999985,-203.377L44.46800000000002,-218.828L58.52499999999998,-225.383L73.50599999999997,-229.397L88.957,-230.749L104.40800000000002,-229.397L119.38999999999999,-225.383L133.447,-218.828L146.152,-209.932L157.11900000000003,-198.964L166.015,-186.25900000000001L172.57,-172.202L176.584,-157.221L177.93599999999998,-141.76999999999998L165.231,-132.87400000000002L154.264,-121.90699999999998L145.36700000000002,-109.202L138.813,-95.14499999999998L134.798,-80.16300000000001L133.447,-64.71199999999999L134.798,-49.261000000000024L138.813,-34.27999999999997L145.36700000000002,-20.223000000000013L154.264,-7.517999999999972L165.231,3.4490000000000123L177.93599999999998,12.346000000000004L176.584,27.797000000000025L172.57,42.77800000000002L166.015,56.835000000000036L157.11900000000003,69.53999999999996L146.152,80.50699999999995L133.447,89.40300000000002L119.38999999999999,95.95799999999997L104.40800000000002,99.97199999999998L88.957,101.32399999999996L73.50599999999997,99.97199999999998L58.52499999999998,95.95799999999997L44.46800000000002,89.40300000000002L43.115999999999985,73.952L39.101999999999975,58.971000000000004L32.547000000000025,44.91399999999999L23.65100000000001,32.209L12.684000000000026,21.24200000000002L-0.021000000000015007,12.346000000000004L-14.078000000000003,5.790999999999997L-29.060000000000002,1.7760000000000105L-44.510999999999996,0.42500000000001137L-59.96199999999999,1.7760000000000105L-74.94300000000001,5.790999999999997L-89,12.346000000000004L-101.70500000000001,3.4490000000000123L-112.672,-7.517999999999972L-121.56800000000001,-20.223000000000013L-128.123,-34.27999999999997L-132.138,-49.261000000000024L-133.489,-64.71199999999999L-132.138,-80.16300000000001L-128.123,-95.14499999999998L-121.56800000000001,-109.202L-112.672,-121.90699999999998L-101.70500000000001,-132.87400000000002z"></path><path d="M178,-141.76999999999998L192.057,-135.21499999999997L207.038,-131.20100000000002L222.489,-129.849L237.94,-131.20100000000002L252.922,-135.21499999999997L266.979,-141.76999999999998L279.684,-150.666L290.651,-161.63299999999998L299.547,-174.33800000000002L306.102,-188.39499999999998L310.116,-203.377L311.468,-218.828L325.525,-225.383L340.506,-229.397L355.957,-230.749L371.408,-229.397L386.39,-225.383L400.447,-218.828L413.152,-209.932L424.119,-198.964L433.015,-186.25900000000001L439.57,-172.202L443.584,-157.221L444.936,-141.76999999999998L432.231,-132.87400000000002L421.264,-121.90699999999998L412.367,-109.202L405.813,-95.14499999999998L401.798,-80.16300000000001L400.447,-64.71199999999999L401.798,-49.261000000000024L405.813,-34.27999999999997L412.367,-20.223000000000013L421.264,-7.517999999999972L432.231,3.4490000000000123L444.936,12.346000000000004L443.584,27.797000000000025L439.57,42.77800000000002L433.015,56.835000000000036L424.119,69.53999999999996L413.152,80.50699999999995L400.447,89.40300000000002L386.39,95.95799999999997L371.408,99.97199999999998L355.957,101.32399999999996L340.506,99.97199999999998L325.525,95.95799999999997L311.468,89.40300000000002L310.116,73.952L306.102,58.971000000000004L299.547,44.91399999999999L290.651,32.209L279.684,21.24200000000002L266.979,12.346000000000004L252.922,5.790999999999997L237.94,1.7760000000000105L222.489,0.42500000000001137L207.038,1.7760000000000105L192.057,5.790999999999997L178,12.346000000000004L165.295,3.4490000000000123L154.328,-7.517999999999972L145.432,-20.223000000000013L138.877,-34.27999999999997L134.862,-49.261000000000024L133.511,-64.71199999999999L134.862,-80.16300000000001L138.877,-95.14499999999998L145.432,-109.202L154.328,-121.90699999999998L165.295,-132.87400000000002z"></path><path d="M-89,320.23L-74.94300000000001,326.785L-59.96199999999999,330.799L-44.510999999999996,332.151L-29.060000000000002,330.799L-14.078000000000003,326.785L-0.021000000000015007,320.23L12.684000000000026,311.334L23.65100000000001,300.367L32.547000000000025,287.662L39.101999999999975,273.605L43.115999999999985,258.623L44.46800000000002,243.172L58.52499999999998,236.617L73.50599999999997,232.603L88.957,231.251L104.40800000000002,232.603L119.38999999999999,236.617L133.447,243.172L146.152,252.068L157.11900000000003,263.036L166.015,275.741L172.57,289.798L176.584,304.779L177.93599999999998,320.23L165.231,329.126L154.264,340.093L145.36700000000002,352.798L138.813,366.855L134.798,381.837L133.447,397.288L134.798,412.739L138.813,427.72L145.36700000000002,441.777L154.264,454.482L165.231,465.449L177.93599999999998,474.346L176.584,489.797L172.57,504.778L166.015,518.835L157.11900000000003,531.54L146.152,542.507L133.447,551.403L119.38999999999999,557.958L104.40800000000002,561.972L88.957,563.324L73.50599999999997,561.972L58.52499999999998,557.958L44.46800000000002,551.403L43.115999999999985,535.952L39.101999999999975,520.971L32.547000000000025,506.914L23.65100000000001,494.209L12.684000000000026,483.242L-0.021000000000015007,474.346L-14.078000000000003,467.791L-29.060000000000002,463.776L-44.510999999999996,462.425L-59.96199999999999,463.776L-74.94300000000001,467.791L-89,474.346L-101.70500000000001,465.449L-112.672,454.482L-121.56800000000001,441.777L-128.123,427.72L-132.138,412.739L-133.489,397.288L-132.138,381.837L-128.123,366.855L-121.56800000000001,352.798L-112.672,340.093L-101.70500000000001,329.126z"></path><path d="M178,320.23L192.057,326.785L207.038,330.799L222.489,332.151L237.94,330.799L252.922,326.785L266.979,320.23L279.684,311.334L290.651,300.367L299.547,287.662L306.102,273.605L310.116,258.623L311.468,243.172L325.525,236.617L340.506,232.603L355.957,231.251L371.408,232.603L386.39,236.617L400.447,243.172L413.152,252.068L424.119,263.036L433.015,275.741L439.57,289.798L443.584,304.779L444.936,320.23L432.231,329.126L421.264,340.093L412.367,352.798L405.813,366.855L401.798,381.837L400.447,397.288L401.798,412.739L405.813,427.72L412.367,441.777L421.264,454.482L432.231,465.449L444.936,474.346L443.584,489.797L439.57,504.778L433.015,518.835L424.119,531.54L413.152,542.507L400.447,551.403L386.39,557.958L371.408,561.972L355.957,563.324L340.506,561.972L325.525,557.958L311.468,551.403L310.116,535.952L306.102,520.971L299.547,506.914L290.651,494.209L279.684,483.242L266.979,474.346L252.922,467.791L237.94,463.776L222.489,462.425L207.038,463.776L192.057,467.791L178,474.346L165.295,465.449L154.328,454.482L145.432,441.777L138.877,427.72L134.862,412.739L133.511,397.288L134.862,381.837L138.877,366.855L145.432,352.798L154.328,340.093L165.295,329.126z"></path><path d="M-222.5,89L-208.44299999999998,95.555L-193.462,99.569L-178.011,100.921L-162.56,99.569L-147.578,95.555L-133.521,89L-120.816,80.104L-109.84899999999999,69.137L-100.953,56.432L-94.398,42.375L-90.38399999999999,27.393L-89.03200000000001,11.942L-74.975,5.387L-59.994,1.373L-44.543000000000006,0.021L-29.092000000000013,1.373L-14.110000000000014,5.387L-0.05299999999999727,11.942L12.651999999999987,20.838L23.619000000000028,31.806L32.514999999999986,44.511L39.06999999999999,58.568L43.084,73.549L44.43599999999998,89L31.730999999999995,97.896L20.76400000000001,108.863L11.867000000000019,121.568L5.312999999999988,135.625L1.2980000000000018,150.607L-0.05299999999999727,166.058L1.2980000000000018,181.509L5.312999999999988,196.49L11.867000000000019,210.547L20.76400000000001,223.252L31.730999999999995,234.219L44.43599999999998,243.116L43.084,258.567L39.06999999999999,273.548L32.514999999999986,287.605L23.619000000000028,300.31L12.651999999999987,311.277L-0.05299999999999727,320.173L-14.110000000000014,326.728L-29.092000000000013,330.742L-44.543000000000006,332.094L-59.994,330.742L-74.975,326.728L-89.03200000000001,320.173L-90.38399999999999,304.722L-94.398,289.741L-100.953,275.684L-109.84899999999999,262.979L-120.816,252.012L-133.521,243.116L-147.578,236.561L-162.56,232.546L-178.011,231.195L-193.462,232.546L-208.44299999999998,236.561L-222.5,243.116L-235.20499999999998,234.219L-246.172,223.252L-255.068,210.547L-261.623,196.49L-265.638,181.509L-266.989,166.058L-265.638,150.607L-261.623,135.625L-255.068,121.568L-246.172,108.863L-235.20499999999998,97.896z"></path><path d="M44.5,89L58.557,95.555L73.538,99.569L88.989,100.921L104.44,99.569L119.422,95.555L133.479,89L146.184,80.104L157.151,69.137L166.047,56.432L172.602,42.375L176.616,27.393L177.968,11.942L192.025,5.387L207.006,1.373L222.457,0.021L237.908,1.373L252.89,5.387L266.947,11.942L279.652,20.838L290.619,31.806L299.515,44.511L306.07,58.568L310.084,73.549L311.436,89L298.731,97.896L287.764,108.863L278.867,121.568L272.313,135.625L268.298,150.607L266.947,166.058L268.298,181.509L272.313,196.49L278.867,210.547L287.764,223.252L298.731,234.219L311.436,243.116L310.084,258.567L306.07,273.548L299.515,287.605L290.619,300.31L279.652,311.277L266.947,320.173L252.89,326.728L237.908,330.742L222.457,332.094L207.006,330.742L192.025,326.728L177.968,320.173L176.616,304.722L172.602,289.741L166.047,275.684L157.151,262.979L146.184,252.012L133.479,243.116L119.422,236.561L104.44,232.546L88.989,231.195L73.538,232.546L58.557,236.561L44.5,243.116L31.795,234.219L20.828,223.252L11.932,210.547L5.377,196.49L1.362,181.509L0.011,166.058L1.362,150.607L5.377,135.625L11.932,121.568L20.828,108.863L31.795,97.896z"></path></svg>