<svg width="600" height="600" version="1.2" xmlns="http://www.w3.org/2000/svg" viewBox="0 0 600 600"><style type="text/css">path {stroke-width: 1; vector-effect: non-scaling-stroke; fill:none; stroke: #000; stroke-linecap: round; stroke-linejoin: miter;}</style><path d="M225,225L375,225L299.997,300.003z"></path><path d="M375,225L450.003,149.997L450.003,449.997L375,374.994z"></path><path d="M150,450L225.003,374.997L375.003,374.997L450.006,450z"></path><path d="M150,150L450,150L374.997,225.003L224.997,225.003z"></path><path d="M300,300L375.003,224.997L375.003,374.997z"></path><path d="M75,75L525,75L449.997,150.003L149.997,150.003z"></path><path d="M150,450L450,450L525.003,525.003L75.003,525.003z"></path><path d="M150,150L225.003,225.003L225.003,375.003L150,450.006z"></path><path d="M75,75L150.003,150.003L150.003,450.003L75,525.006z"></path><path d="M-75,75L0.0030000000000427463,-0.003L0.0030000000000427463,599.997L-75,524.994z"></path><path d="M525,75L600.003,-0.003L600.003,599.997L525,524.994z"></path><path d="M-75,675L0.0030000000000427463,599.997L0.0030000000000427463,1199.9969999999998L-75,1124.9940000000001z"></path><path d="M525,675L600.003,599.997L600.003,1199.9969999999998L525,1124.9940000000001z"></path><path d="M0,0L600,0L524.997,75.003L74.997,75.003z"></path><path d="M525,75L525,525L449.997,449.997L449.997,149.997z"></path><path d="M0,-600L75.003,-524.997L75.003,-74.99699999999996L0,0.005999999999971806z"></path><path d="M0,0L75.003,75.003L75.003,525.003L0,600.006z"></path><path d="M225,225L300.003,300.003L225,375.006z"></path><path d="M-600,600L-524.997,524.997L-74.99699999999996,524.997L0.005999999999971806,600z"></path><path d="M0,600L75.003,524.997L525.003,524.997L600.006,600z"></path><path d="M300,300L375.003,375.003L225.003,375.003z"></path></svg>