<svg width="2000" height="2000" version="1.2" xmlns="http://www.w3.org/2000/svg" viewBox="0 0 2000 2000"><style type="text/css">path {stroke-width: 1; vector-effect: non-scaling-stroke; fill:none; stroke: #000; stroke-linecap: round; stroke-linejoin: miter;}</style><path d="M1000,0L1500,0L1500,200L1250,200L1125,200L1000,200z"></path><path d="M500,0L1000,0L1000,200L875,200L750,200L500,200z"></path><path d="M1750,0L2000,0L2000,200L1750,200z"></path><path d="M0,0L500,0L500,200L375,200L250,200L125,200L0,200z"></path><path d="M-375,200L-250,200L0,200L125,200L125,400L73,400L-52,400L-125,400L-302,400L-375,400z"></path><path d="M1625,200L1750,200L2000,200L2125,200L2125,400L2073,400L1948,400L1875,400L1698,400L1625,400z"></path><path d="M1125,200L1250,200L1500,200L1625,200L1625,400L1573,400L1448,400L1323,400L1198,400L1125,400z"></path><path d="M875,200L1000,200L1125,200L1125,400L948,400L875,400z"></path><path d="M125,200L250,200L375,200L375,400L323,400L198,400L125,400z"></path><path d="M375,200L500,200L750,200L875,200L875,400L823,400L698,400L625,400L448,400L375,400z"></path><path d="M1500,1400L1625,1400L1750,1400L1750,1600L1625,1600L1500,1600z"></path><path d="M1250,600L1323,600L1573,600L1750,600L1750,800L1625,800L1375,800L1250,800z"></path><path d="M750,600L823,600L1250,600L1250,800L1125,800L875,800L750,800z"></path><path d="M1625,800L1750,800L1875,800L1875,1000L1750,1000L1625,1000z"></path><path d="M1375,800L1625,800L1625,1000L1500,1000L1375,1000z"></path><path d="M-125,800L250,800L375,800L375,1000L250,1000L125,1000L0,1000L-125,1000z"></path><path d="M1875,800L2250,800L2375,800L2375,1000L2250,1000L2125,1000L2000,1000L1875,1000z"></path><path d="M875,800L1125,800L1250,800L1375,800L1375,1000L1250,1000L1125,1000L1000,1000L875,1000z"></path><path d="M250,600L323,600L750,600L750,800L375,800L250,800z"></path><path d="M375,800L750,800L875,800L875,1000L750,1000L625,1000L500,1000L375,1000z"></path><path d="M1750,1000L1875,1000L2000,1000L2000,1200L1875,1200L1750,1200z"></path><path d="M1250,1000L1375,1000L1500,1000L1625,1000L1750,1000L1750,1200L1625,1200L1500,1200L1375,1200L1250,1200z"></path><path d="M750,1000L875,1000L1000,1000L1125,1000L1250,1000L1250,1200L1125,1200L875,1200L750,1200z"></path><path d="M250,1000L375,1000L500,1000L625,1000L750,1000L750,1200L625,1200L500,1200L375,1200L250,1200z"></path><path d="M0,1000L125,1000L250,1000L250,1200L0,1200z"></path><path d="M1125,1200L1250,1200L1375,1200L1500,1200L1625,1200L1625,1400L1500,1400L1375,1400L1250,1400L1125,1400z"></path><path d="M1000,1400L1125,1400L1250,1400L1375,1400L1500,1400L1500,1600L1375,1600L1250,1600L1125,1600L1000,1600z"></path><path d="M875,1200L1125,1200L1125,1400L1000,1400L875,1400z"></path><path d="M625,1200L750,1200L875,1200L875,1400L750,1400L625,1400z"></path><path d="M1625,1200L1750,1200L1875,1200L1875,1400L1750,1400L1625,1400z"></path><path d="M375,1200L500,1200L625,1200L625,1400L500,1400L375,1400z"></path><path d="M-125,1200L0,1200L250,1200L375,1200L375,1400L0,1400L-125,1400z"></path><path d="M1875,1200L2000,1200L2250,1200L2375,1200L2375,1400L2000,1400L1875,1400z"></path><path d="M500,1400L625,1400L750,1400L875,1400L1000,1400L1000,1600L875,1600L750,1600L625,1600L500,1600z"></path><path d="M0,1400L125,1400L250,1400L375,1400L500,1400L500,1600L375,1600L250,1600L125,1600L0,1600z"></path><path d="M1750,1400L1875,1400L2000,1400L2000,1600L1875,1600L1750,1600z"></path><path d="M-375,1600L-250,1600L-125,1600L0,1600L125,1600L125,1800L62.5,1800L-62.5,1800L-125,1800L-187.5,1800L-250,1800L-312.5,1800L-375,1800z"></path><path d="M1625,1600L1750,1600L1875,1600L2000,1600L2125,1600L2125,1800L2062.5,1800L1937.5,1800L1875,1800L1812.5,1800L1750,1800L1687.5,1800L1625,1800z"></path><path d="M1125,1600L1250,1600L1375,1600L1500,1600L1625,1600L1625,1800L1562.5,1800L1500,1800L1437.5,1800L1375,1800L1312.5,1800L1187.5,1800L1125,1800z"></path><path d="M875,1600L1000,1600L1125,1600L1125,1800L1062.5,1800L1000,1800L937.5,1800L875,1800z"></path><path d="M625,1600L750,1600L875,1600L875,1800L812.5,1800L687.5,1800L625,1800z"></path><path d="M125,1600L250,1600L375,1600L500,1600L625,1600L625,1800L562.5,1800L500,1800L437.5,1800L375,1800L312.5,1800L125,1800z"></path><path d="M1500,0L1750,0L1750,200L1625,200L1500,200z"></path><path d="M812.5,1800L875,1800L937.5,1800L1000,1800L1062.5,1800L1125,1800L1187.5,1800L1312.5,1800L1312.5,2000L1062.5,2000L812.5,2000z"></path><path d="M1312.5,1800L1375,1800L1437.5,1800L1500,1800L1562.5,1800L1625,1800L1687.5,1800L1750,1800L1812.5,1800L1812.5,2000L1750,2000L1562.5,2000L1312.5,2000z"></path><path d="M562.5,1800L625,1800L687.5,1800L812.5,1800L812.5,2000L750,2000L562.5,2000z"></path><path d="M-187.5,1800L-125,1800L-62.5,1800L62.5,1800L125,1800L187.5,1800L312.5,1800L312.5,2000L250,2000L62.5,2000L0,2000L-62.5,2000L-125,2000L-187.5,2000z"></path><path d="M1812.5,1800L1875,1800L1937.5,1800L2062.5,1800L2125,1800L2187.5,1800L2312.5,1800L2312.5,2000L2250,2000L2062.5,2000L2000,2000L1937.5,2000L1875,2000L1812.5,2000z"></path><path d="M312.5,1800L375,1800L437.5,1800L500,1800L562.5,1800L562.5,2000L500,2000L312.5,2000z"></path><path d="M-250,600L0,600L73,600L250,600L250,800L-125,800L-250,800z"></path><path d="M1750,600L2000,600L2073,600L2250,600L2250,800L1875,800L1750,800z"></path><path d="M1323,400L1448,400L1573,400L1573,600L1323,600z"></path><path d="M823,400L875,400L948,400L1125,400L1198,400L1323,400L1323,600L1250,600L823,600z"></path><path d="M-427,400L-375,400L-302,400L-125,400L-52,400L73,400L73,600L0,600L-250,600L-427,600z"></path><path d="M1573,400L1625,400L1698,400L1875,400L1948,400L2073,400L2073,600L2000,600L1750,600L1573,600z"></path><path d="M323,400L375,400L448,400L625,400L698,400L823,400L823,600L750,600L323,600z"></path><path d="M73,400L125,400L198,400L323,400L323,600L250,600L73,600z"></path></svg>