<svg width="2815" height="2555" version="1.2" xmlns="http://www.w3.org/2000/svg" viewBox="0 0 2815 2555"><style type="text/css">path {stroke-width: 1; vector-effect: non-scaling-stroke; fill:none; stroke: #000; stroke-linecap: round; stroke-linejoin: miter;}</style><path d="M281,1420.4L314.8,1385L348.7,1359.2L374.5,1341.4L430.9,1341.4L443.8,1343L456.7,1347.9L495.3,1373.7L556.6,1425.2L632.3,1459.1L664.6,1476.8L693.6,1484.9L721,1491.3L751.6,1501L764.5,1504.2L771,1505.8L775.8,1510.7L788.7,1517.1L806.4,1536.5L824.1,1560.6L830.6,1586.4L833.8,1599.3L835.4,1613.8L835.4,1626.7L827.4,1647.7L820.9,1675.1L816.1,1707.3L816.1,1771.8L820.9,1797.6L822.5,1825L822.5,1850.8L816.1,1887.8L809.6,1905.6L800,1916.9L771,1944.3L758.1,1953.9L745.2,1958.8L732.3,1962L716.2,1968.4L701.6,1973.3L687.1,1973.3L651.7,1971.7L592,1966.8L532.4,1947.5L474.4,1934.6L442.1,1918.5L413.1,1915.3L369.6,1912L335.8,1905.6L281,1889.5L268.1,1886.2L255.2,1881.4L226.2,1879.8L219.7,1876.6L211.6,1871.7L200.4,1858.8L187.5,1844.3L181,1829.8L176.2,1800.8L176.2,1787.9L182.6,1771.8L189.1,1739.6L198.8,1710.6L203.6,1694.4L205.2,1679.9L210,1650.9L213.3,1615.5L213.3,1573.6L213.3,1542.9L221.3,1510.7L261.6,1447.8z"></path><path d="M1552.1,616.4L1592.6,573.4L1613.5,559.9L1631.9,551.3L1651.6,539.1L1672.5,528L1684.8,521.8L1694.6,521.8L1714.3,523.1L1753.6,534.1L1774.4,540.3L1796.6,547.6L1816.2,558.7L1838.3,577.1L1856.7,600.4L1871.5,629.9L1897.3,674.2L1905.9,697.5L1910.8,719.6L1910.8,757.7L1910.8,768.7L1908.3,779.8L1894.8,800.7L1862.9,848.6L1829.7,894L1819.9,914.9L1811.3,934.6L1797.8,960.3L1791.6,970.2L1783,981.2L1740,1011.9L1721.6,1024.2L1703.2,1043.9L1686,1067.2L1678.6,1078.3L1674.9,1083.2L1670,1084.4L1630.7,1107.7L1606.1,1111.4L1581.6,1111.4L1571.8,1110.2L1560.7,1105.3L1538.6,1094.2L1491.9,1054.9L1474.7,1035.3L1467.4,1027.9L1452.6,988.6L1431.7,964L1421.9,941.9L1418.2,930.9L1417,921L1417,889.1L1415.8,867L1415.8,857.2L1419.5,846.1L1426.8,822.8L1434.2,801.9L1446.5,782.2L1460,756.4L1464.9,742.9L1473.5,725.7L1490.7,701.2z"></path><path d="M1094,1258.6L1093.8,1264.6L1089.8,1275.7L1090.1,1273.6z"></path><path d="M120.9,2055.1L147.9,2042.5L178.3,2033L286.2,1995.2L313.2,1982.6L350.3,1979.4L427.9,1976.3L549.3,1976.3L603.3,1979.4L657.3,1992.1L707.9,2017.3L755.1,2048.8L778.7,2070.9L785.4,2096.1L788.8,2146.5L788.8,2190.7L782.1,2215.9L761.8,2238L721.3,2275.8L697.7,2291.5L670.7,2297.8L623.5,2319.9L569.6,2326.2L461.6,2335.7L360.4,2332.5L306.4,2323.1L252.5,2304.2L239,2301L185,2291.6L127.7,2263.2L80.5,2241.1L60.2,2222.2L46.7,2212.7L46.7,2200.1L43.3,2140.2L50.1,2115L63.6,2089.8z"></path><path d="M2006.2,-140.8L2045.4,-170.2L2073.4,-199.6L2101.4,-221.2L2135.1,-234.9L2164.9,-236.9L2191.1,-242.8L2219.1,-242.8L2249,-240.8L2284.5,-233L2344.2,-221.2L2372.2,-217.3L2432,-219.3L2458.1,-219.3L2484.3,-215.3L2514.1,-209.5L2553.3,-195.7L2588.8,-176.1L2618.7,-168.3L2644.8,-156.5L2674.7,-136.9L2702.7,-117.3L2727,-95.7L2738.2,-85.9L2745.7,-70.2L2747.5,-36.9L2747.5,25.8L2736.3,69L2732.6,102.3L2725.1,131.7L2715.8,159.2L2700.8,180.7L2671,212.1L2643,235.6L2614.9,257.2L2586.9,269L2557.1,274.8L2529.1,276.8L2495.4,267L2454.4,253.3L2439.4,249.4L2366.6,239.5L2340.4,241.5L2310.6,249.4L2194.8,253.3L2164.9,245.4L2133.2,229.7L2107,212.1L2092.1,210.1L2073.4,204.3L2045.4,188.6L2023,169L2000.6,141.5L1993.1,125.8L1985.6,104.3L1970.7,57.2L1959.5,6.2L1959.5,-23.2L1965.1,-60.4L1987.5,-115.3z"></path><path d="M-211.9,1237.4L-197,1226.8L-160.7,1222.5L-124.4,1224.6L-105.1,1228.9L-85.9,1237.4L-51.7,1263.1L-21.8,1297.2L33.7,1365.6L67.8,1395.5L95.6,1429.6L142.6,1510.8L149,1525.7L151.1,1542.8L151.1,1559.9L146.9,1583.4L138.3,1617.6L117,1649.6L99.9,1656L82.8,1658.1L44.4,1664.5L10.2,1664.5L-24,1649.6L-58.2,1636.8L-96.6,1626.1L-101.8,1623L-109.7,1619.9L-110.6,1619.9L-112.4,1619.1L-115.9,1617.7L-124.4,1613.3L-154.3,1594.1L-182,1566.3L-216.2,1478.7L-224.8,1459.5L-226.9,1442.4L-226.9,1399.7L-231.1,1322.8L-231.1,1286.5L-222.6,1252.4z"></path><path d="M1878,1955.5L1907.1,1935.5L1976.3,1900.9L2018.2,1879L2047.4,1860.8L2076.5,1851.7L2165.8,1849.9L2216.8,1859L2247.8,1873.5L2269.7,1880.8L2313.4,1888.1L2335.3,1895.4L2357.1,1928.2L2384.4,1973.8L2404.5,2061.2L2410,2094L2410,2115.9L2410,2137.7L2400.8,2159.6L2388.1,2181.5L2368.1,2201.5L2346.2,2210.6L2318.9,2217.9L2269.7,2234.3L2222.3,2243.4L2165.8,2254.3L2143.9,2261.6L2122.1,2272.6L2076.5,2285.3L2071.5,2286.1L2064.7,2287.1L1984.9,2299.4L1923.9,2299.4L1879.2,2287.5L1871.3,2285.2L1866.3,2282.9L1861.7,2280L1856.4,2274.6L1847,2261.6L1845.1,2256.2L1823.3,2217.9L1816,2196.1L1810.5,2174.2L1806.9,2117.7L1806.9,2095.8L1810.5,2072.2L1830.6,2024.8L1841.5,1999.3L1857.9,1973.8z"></path><path d="M114.6,381.8L137.7,370.3L175.3,341.3L202.8,316.8L230.3,296.5L254.8,282.1L295.3,264.7L385,253.1L467.4,248.8L562.9,250.2L625,258.9L675.6,260.4L687.2,263.2L697.3,271.9L714.7,296.5L750.8,384.7L774,459.9L775.4,517.8L772.5,579.9L782.7,617.5L785.6,629.1L785.6,643.6L785.6,655.1L775.4,668.2L762.4,679.7L748,685.5L723.4,692.7L697.3,695.6L597.6,717.3L545.5,739L533.9,744.8L522.4,747.7L494.9,757.8L437.1,775.2L435.6,778.1L432.7,778.1L426.9,779.5L405.2,780.9L364.7,789.6L340.2,795.4L312.7,805.5L263.5,817.1L260.6,817.1L247.6,812.8L236.1,802.6L220.2,782.4L201.4,763.6L184,740.4L126.1,639.2L108.8,590.1L87.1,540.9L62.5,487.4L61.1,455.6L62.5,438.2L72.6,423.8L92.9,400.6z"></path><path d="M577.8,-134.6L602.5,-149L631.3,-171.7L658,-198.4L680.7,-225.2L728,-272.5L742.4,-284.9L763,-293.1L798,-305.4L826.8,-309.6L855.6,-311.6L884.4,-309.6L913.2,-295.2L958.5,-256.1L1014.1,-214.9L1051.1,-196.4L1082,-175.8L1106.7,-159.3L1131.4,-134.6L1147.9,-109.9L1152,-97.6L1154,-81.1L1154,-17.3L1145.8,11.5L1133.5,48.6L1127.3,63L1123.2,81.5L1117,114.4L1102.6,170L1084.1,229.7L1077.9,242L1071.7,252.3L1047,275L985.3,293.5L960.6,301.7L929.7,305.8L892.7,303.8L861.8,291.4L806.2,270.9L746.5,254.4L682.7,246.2L610.7,227.6L579.8,213.2L551,192.6L501.6,145.3L491.3,133L487.2,116.5L485.1,87.7L483.1,28L491.3,-0.8L501.6,-29.6L534.5,-87.3L540.7,-101.7L551,-116.1z"></path><path d="M1565.3,136.2L1621,105.2L1676.7,83.1L1698,75.7L1709.5,71.2L1722.6,69.8L1799.6,65.4L1837.3,65.4L1847.1,65.4L1860.2,69.8L1884.8,77.2L1917.6,87.5L1973.3,128.8L2009.3,167.2L2035.5,201.2L2071.6,241L2094.5,277.9L2102.7,301.5L2101.1,322.2L2099.4,331.1L2096.2,342.9L2094.5,351.7L2089.6,360.6L2081.4,381.3L2053.6,422.6L2015.9,459.5L1968.4,486.1L1948.7,499.4L1925.8,505.3L1870,520L1820.9,531.8L1791.4,530.4L1765.2,525.9L1719.3,520L1657,509.7L1612.8,494.9L1602.9,492L1591.5,484.6L1575.1,468.4L1573.4,465.4L1563.6,462.5L1553.8,455.1L1530.8,440.3L1511.2,427L1494.8,409.3L1483.3,391.6L1478.4,382.7L1478.4,370.9L1483.3,308.9L1489.9,261.7L1494.8,241L1501.4,218.9L1507.9,201.2L1527.6,177.5L1547.2,156.9z"></path><path d="M2180.6,1390.2L2264.4,1328.3L2284.3,1316.4L2304.3,1312.4L2348.2,1312.4L2368.1,1314.4L2388,1322.3L2408,1332.3L2429.9,1350.3L2445.9,1368.2L2449.9,1388.2L2461.8,1442L2463.8,1462L2467.8,1485.9L2479.8,1531.8L2479.8,1551.7L2483.8,1573.7L2489.8,1617.6L2495.8,1637.5L2497.7,1661.4L2495.7,1705.3L2477.8,1745.2L2443.9,1781.1L2425.9,1799.1L2410,1821L2400,1837L2380.1,1852.9L2369.6,1853.9L2364.3,1854.4L2362.3,1854.6L2360.1,1854.9L2260.4,1854.9L2220.5,1846.9L2176.6,1844.9L2168.6,1844.9L2156.7,1837L2138.7,1813L2124.7,1787.1L2116.8,1775.1L2114.8,1763.2L2106.8,1743.2L2102.8,1719.3L2094.8,1697.3L2092.8,1673.4L2086.8,1633.5L2086.8,1575.7L2096.8,1513.8L2118.8,1470L2144.7,1430.1z"></path><path d="M1613.8,1609.7L1643.7,1583.8L1683.7,1557.8L1733.6,1539.9L1773.5,1529.9L1809.4,1525.9L1849.3,1525.9L1869.3,1523.9L1899.2,1527.9L1947.1,1541.9L1989,1553.9L2009,1565.8L2025,1581.8L2036.9,1601.8L2042.9,1621.7L2050.9,1665.6L2052.9,1743.5L2040.9,1785.4L2015,1825.3L2007,1839.3L1987,1849.3L1985,1853.2L1981,1853.2L1969.1,1859.2L1949.1,1865.2L1929.1,1873.2L1909.2,1879.2L1867.3,1887.2L1783.4,1883.2L1761.5,1881.2L1741.5,1877.2L1701.6,1857.2L1699.6,1855.2L1619.8,1813.3L1589.8,1789.4L1569.9,1777.4L1563.9,1771.4L1555.9,1761.4L1550,1755.4L1547.9,1747.5L1547.9,1723.5L1547.9,1701.6L1555.9,1681.6L1565.9,1661.6L1581.9,1645.7z"></path><path d="M1758.7,-217.6L1769.5,-225.3L1780.4,-231.5L1792.8,-237.7L1817.6,-248.6L1829.9,-254.8L1847,-259.4L1898.1,-257.9L1922.9,-247L1933.7,-239.3L1941.5,-225.3L1957,-199L1966.3,-174.2L1966.3,-120L1963.2,-90.5L1957,-65.7L1952.3,-53.4L1944.6,-42.5L1919.8,-17.7L1882.6,24.1L1860.9,44.3L1850.1,52L1834.6,56.7L1831.5,55.1L1819.1,53.6L1805.2,48.9L1781.9,33.4L1758.7,16.4L1747.8,7.1L1740.1,-2.2L1727.7,-27L1710.7,-48.7L1698.3,-73.5L1695.2,-104.5L1696.7,-129.2L1709.1,-154L1726.2,-180.4L1749.4,-205.2z"></path><path d="M1725.7,1040.2L1745.9,1018.8L1777.5,996.3L1807.9,976L1822.5,970.4L1838.3,967L1863.1,960.3L1947.6,958L2006.1,959.1L2057.9,992.9L2112,1033.5L2135.6,1051.5L2161.6,1083L2192,1120.2L2204.4,1137.1L2216.7,1156.2L2233.6,1175.4L2242.7,1184.4L2246,1188.9L2247.2,1195.7L2244.9,1239.6L2244.9,1276.8L2241.5,1298.2L2239.3,1317.3L2235.9,1326.3L2226.9,1339.8L2220.1,1348.8L2206.6,1357.9L2178.5,1375.9L2151.4,1400.7L2119.9,1435.6L2095.1,1464.9L2088.3,1472.7L2082.7,1484L2076,1493L2063.6,1503.2L2062.4,1505.4L2060.2,1505.4L2055.7,1507.7L2044.4,1513.3L2035.4,1517.8L2024.1,1520.1L2003.9,1523.4L1998.2,1523.4L1896.9,1522.3L1861.9,1521.2L1831.5,1515.5L1786.5,1511L1767.3,1507.7L1741.4,1499.8L1715.5,1491.9L1689.6,1488.5L1672.7,1486.3L1668.2,1485.1L1666,1485.1L1666,1482.9L1654.7,1461.5L1643.4,1440.1L1643.4,1419.8L1642.3,1401.8L1638.9,1377L1638.9,1328.6L1641.2,1301.5L1653.6,1250.9L1664.8,1197.9L1670.5,1175.4L1676.1,1141.6L1678.3,1112.3L1698.6,1075.1z"></path><path d="M2021.4,475.2L2097.1,396.2L2132.4,360.9L2179.5,337.3L2201.4,325.6L2224.9,317.1L2285.5,315.5L2305.6,328.9L2314.1,337.3L2322.5,349.1L2325.8,372.6L2329.2,397.9L2330.9,483.6L2330.9,510.5L2324.1,534.1L2317.4,554.3L2312.4,577.8L2300.6,624.9L2282.1,719.1L2267,767.8L2251.8,814.9L2233.4,868.7L2193,915.8L2179.5,934.3L2159.3,952.8L2139.2,961.2L2132.4,968L2119,974.7L2095.4,983.1L2079.6,986.5L2056.8,978L2033.2,962.9L2024.8,956.2L2011.4,951.1L1994.5,931L1977.7,907.4L1950.8,855.3L1935.7,831.7L1929,808.2L1925.6,788L1923.9,761.1L1925.6,646.8L1929,624.9L1939,599.7L1957.5,555.9L1967.6,535.8L1987.8,510.5z"></path><path d="M-348,425.4L-245,347.1L-236.8,342.6L-228.6,331.4L-210,309.1L-158.5,271L-133.8,255.4L-121.5,248.7L-109.1,246.4L-57.6,246.4L-47.3,246.4L-35,250.9L-8.2,266.6L2.1,280L6.2,282.2L8.3,291.2L14.4,318L20.6,344.8L20.6,362.7L28.8,382.9L49.4,445.5L61.8,494.7L84.5,555.1L90.6,582L94.7,608.8L100.9,622.2L103,635.6L103,667L103,689.3L92.7,716.2L70,736.3L45.3,749.7L-8.2,776.6L-20.6,783.3L-32.9,783.3L-61.8,783.3L-109.1,783.3L-158.6,796.7L-259.5,841.4L-268.3,843L-272.3,843.8L-276,843.8L-277.8,843.8L-280,843.7L-329.5,841.4L-354.2,832.5L-378.9,821.3L-403.6,807.9L-428.3,792.2L-453,774.3L-475.7,749.7L-494.2,624.5L-496.3,597.6L-492.1,570.8L-479.8,537.2L-459.2,505.9L-401.5,467.9z"></path><path d="M920.9,1656.9L958.1,1591.1L981,1579.6L1009.6,1573.9L1032.5,1568.2L1075.4,1568.2L1138.3,1582.5L1161.2,1585.4L1189.8,1593.9L1204.2,1599.7L1209.9,1599.7L1212.7,1605.4L1224.2,1611.1L1244.2,1614L1350.1,1668.4L1401.6,1697L1496,1751.3L1518.9,1800L1524.6,1822.9L1527.5,1851.5L1533.2,1903L1533.2,1925.9L1524.6,1954.5L1513.2,1977.4L1504.6,1988.8L1490.3,2000.3L1450.2,2040.3L1410.2,2071.8L1375.8,2117.6L1361.5,2137.6L1338.6,2154.8L1315.7,2166.2L1284.3,2171.9L1238.5,2180.5L1215.6,2186.2L1187,2203.4L1135.5,2214.9L1112.6,2214.9L1084,2209.1L1074.9,2209.1L1061.7,2207L1054.3,2205.4L1045.8,2202.2L1037.3,2197.5L1033.6,2195.3L1029.3,2193.7L1011.9,2183.7L992.8,2172L981.1,2161.9L973.2,2154L966.8,2148.2L959.4,2139.1L943.8,2123.3L900.9,2077.5L886.6,2060.4L869.4,2034.6L846.5,1986L835,1908.7L835,1860.1L835,1837.2L852.2,1802.8L880.8,1751.3z"></path><path d="M1550.1,1954.4L1602.9,1923.9L1657.8,1895.5L1682.2,1885.3L1710.6,1883.3L1735,1885.3L1765.5,1895.5L1787.8,1909.7L1798,1919.9L1804.1,1936.1L1806.1,1987L1802.1,2013.4L1789.9,2041.8L1775.6,2066.2L1757.4,2092.7L1741.1,2115L1718.7,2137.4L1716.7,2141.4L1708.6,2143.5L1694.4,2149.6L1661.8,2159.7L1607,2169.9L1580.5,2169.9L1552.1,2165.8L1527.7,2155.7L1515.5,2149.6L1509.4,2143.5L1499.2,2129.2L1491.1,2094.7L1489.1,2062.2L1493.1,2037.8L1503.3,2007.3L1505.3,1993.1L1521.6,1976.8z"></path><path d="M933,375.3L960,342.4L984.6,317.8L994,309.6L1008.1,302.5L1033.9,288.4L1084.4,275.5L1130.2,263.8L1142,261.4L1154.9,261.4L1179.5,261.4L1194.8,262.6L1208.9,266.1L1258.2,286.1L1284,307.2L1322.8,348.3L1368.5,404.7L1383.8,427L1408.5,456.3L1447.2,515L1468.3,552.6L1474.2,566.7L1476.5,571.4L1476.5,579.6L1485.9,609L1485.9,634.8L1467.2,692.3L1442.5,755.7L1422.5,799.1L1415.5,813.2L1407.3,823.8L1388.5,847.3L1386.1,852L1379.1,857.8L1362.7,871.9L1349.8,880.1L1338,883.7L1326.3,887.2L1314.5,893.1L1260.5,925.9L1211.2,962.3L1177.2,969.4L1151.3,970.6L1099.7,969.4L1095,969.4L1083.2,963.5L1063.3,958.8L1028.1,937.7L1003.4,923.6L977.6,906L948.2,882.5L917.7,855.5L893,834.4L867.2,821.4L852,806.2L848.4,801.5L840.2,788.6L819.1,763.9L807.3,751L800.3,738.1L794.4,726.3L792.1,714.6L788.6,702.9L788.6,691.1L789.7,661.8L821.4,596L834.3,572.6L850.8,549.1L879,505.6L900.1,458.7L911.8,425.8L922.4,402.3L925.9,390.6L927.1,385.9z"></path><path d="M-1.3,-151L15.5,-172.1L53.4,-187.5L81.5,-200.1L94.1,-207.2L108.1,-208.6L210.5,-212.8L273.6,-202.9L324.1,-188.9L346.6,-179.1L357.8,-174.9L363.4,-173.5L369,-167.9L387.2,-144L395.6,-131.4L402.6,-117.4L415.3,-93.5L426.5,-71.1L430.7,-59.9L433.5,-48.7L439.1,-22L446.1,4.6L446.1,27.1L446.1,49.5L443.3,72L437.7,94.4L436.3,118.3L436.3,140.7L434.9,151.9L432.1,157.5L423.7,161.7L377.4,184.2L355,192.6L329.7,203.8L307.3,217.8L289,234.7L280.6,243.1L275,252.9L266.6,262.7L263.8,264.1L263.8,266.9L255.4,271.1L254,271.1L161.4,272.5L109.5,279.6L87.1,282.4L74.4,282.4L59,278.2L7.1,255.7L-15.3,248.7L-42,237.5L-65.8,223.5L-71.4,195.4L-74.2,170.2L-74.2,143.5L-67.2,116.8L-63,91.6L-57.4,67.8L-57.4,45.3L-56,-48.7L-36.4,-78.1L-23.7,-102L-16.7,-125.8L-11.1,-137z"></path><path d="M1244.7,-300L1266.6,-318.7L1307.3,-354.7L1354.2,-385.9L1376,-393.7L1401.1,-400L1432.3,-400L1466.7,-396.9L1576.1,-375L1605.8,-357.8L1629.3,-337.5L1646.5,-321.8L1662.1,-299.9L1671.5,-274.9L1673.1,-246.8L1677.7,-185.8L1680.9,-142.1L1682.4,-120.2L1674.6,-95.2L1657.4,-45.2L1626.2,26.7L1591.8,89.3L1577.7,111.2L1552.7,133L1530.8,148.7L1519.9,154.9L1516.7,161.2L1510.5,161.2L1485.5,175.2L1460.4,183.1L1438.6,186.2L1416.7,186.2L1360.4,184.6L1315.1,173.7L1304.1,172.1L1291.6,165.9L1279.1,161.2L1269.7,151.8L1224.4,111.2L1208.8,92.4L1199.4,67.4L1196.3,59.6L1190,37.7L1180.6,15.8L1174.4,-6.1L1171.3,-31.1L1166.6,-54.5L1160.3,-76.4L1157.2,-99.9L1157.2,-128L1166.6,-179.6L1191.6,-229.6L1229.1,-278.1z"></path><path d="M419,810.4L454.1,800.8L524.5,762.5L588.5,746.5L662,740.1L726,743.3L796.3,791.2L853.9,832.8L924.3,887.2L981.8,932L1036.2,986.3L1068.2,1056.7L1090.6,1127L1097,1191L1094,1258.6L1090.1,1273.6L1089.8,1275.7L1071.4,1328.5L1065,1331.7L1065,1338.1L1055.4,1357.3L1036.2,1395.7L1004.2,1462.8L985,1498L953,1520.4L949.8,1520.4L876.3,1520.4L841.1,1520.4L802.7,1510.8L770.7,1501.2L738.8,1485.2L658.8,1453.3L620.4,1437.3L588.5,1418.1L518.1,1373.3L463.7,1315.7L415.8,1245.4L399.8,1210.2L390.2,1171.8L364.6,1088.7L351.8,1024.7L345.4,954.3L342.2,887.2L345.4,874.4L358.2,858.4L390.2,832.8z"></path><path d="M-50,897.4L-27.2,878.8L-6.5,860.1L41.3,826.9L49.6,820.6L64.1,818.6L91.1,810.3L140.9,799.9L170,799.9L194.9,804L219.8,812.3L244.7,824.8L261.3,843.5L267.6,868.4L275.9,920.3L277.9,949.3L284.2,980.5L302.9,1030.3L352.7,1127.9L375.5,1181.8L383.8,1206.7L385.9,1231.7L385.9,1254.5L375.5,1279.4L356.8,1300.2L336.1,1318.8L329.8,1329.2L319.5,1337.5L296.6,1352.1L284.2,1372.8L275.9,1383.2L263.4,1385.3L248.9,1391.5L228.1,1393.6L203.2,1401.9L178.3,1408.1L153.4,1412.3L132.6,1412.3L107.7,1406L82.8,1393.6L57.9,1372.8L16.4,1329.2L-2.3,1308.5L-14.8,1283.6L-64.6,1244.1L-68.7,1235.8L-79.1,1227.5L-99.9,1204.7L-114.4,1183.9L-126.9,1154.9L-139.3,1127.9L-143.5,1103L-133.1,1044.8L-116.5,988.8L-85.3,943.1L-70.8,918.2z"></path><path d="M-273.5,1663.3L-260.7,1645.5L-237.8,1632.7L-196.9,1614.9L-135.7,1614.9L-69.4,1640.4L-15.9,1673.5L22.4,1701.6L63.2,1714.4L106.5,1734.8L121.9,1747.5L127,1747.5L129.5,1752.6L139.7,1765.4L162.7,1806.2L170.3,1826.6L170.3,1847L172.9,1890.3L162.7,1941.3L157.6,1961.7L144.8,1982.1L109.1,2012.7L32.6,2076.5L14.7,2091.8L-8.2,2094.4L-125.5,2109.7L-171.4,2109.7L-217.3,2094.4L-258.1,2079.1L-299,2056.1L-344.9,2030.6L-354.9,2008.8L-360.2,1966.5L-360.2,1875L-347.4,1831.7L-342.3,1811.3L-337.2,1783.2L-324.5,1742.4L-319.4,1722L-306.6,1699z"></path><path d="M-397.8,2148.5L-361.1,2131.1L-329.7,2127.6L-293,2125.8L-254.6,2125.8L-216.2,2118.9L-176,2115.4L-134.1,2115.4L-120.2,2115.4L-102.7,2118.9L-67.8,2124.1L-36.4,2136.3L-1.4,2157.3L24.7,2183.5L35.2,2221.9L35.2,2253.3L33.5,2270.8L26.5,2288.2L7.3,2323.1L-17.2,2354.6L-39.9,2379L-76.5,2394.7L-111.4,2403.4L-146.3,2401.7L-163.8,2394.7L-181.3,2386L-216.2,2366.8L-284.3,2338.8L-350.6,2305.7L-385.6,2284.7L-397.8,2270.8L-406.5,2253.3L-411.8,2237.6L-415.2,2220.1L-415.2,2183.5z"></path><path d="M-563.9,870.5L-547,856.1L-520.5,848.8L-481.9,839.2L-438.6,834.4L-385.6,834.4L-296.4,853.6L-253.1,863.3L-209.7,863.3L-171.2,880.1L-154.3,897L-149.5,916.3L-151.9,954.8L-163.9,1000.6L-183.2,1077.7L-192.8,1174L-197.7,1193.3L-209.7,1215L-243.4,1251.1L-257.9,1265.6L-265.1,1272.8L-267.5,1277.6L-272.3,1277.6L-291.6,1292.1L-315.7,1301.7L-327.8,1299.3L-366.3,1299.3L-388,1299.3L-407.3,1292.1L-445.8,1275.2L-484.4,1243.9L-515.7,1212.6L-559,1159.6L-580.7,1070.4L-595.2,1027.1L-597.6,988.5L-600,950L-590.4,904.2L-578.3,884.9z"></path><path d="M1140,1103.6L1179.6,1071.6L1203.9,1051.2L1226.9,1035.9L1264,1001.3L1276.8,989.8L1289.5,980.9L1335.6,963L1359.9,956.6L1388,956.6L1398.2,956.6L1412.3,964.3L1422.5,970.7L1434,983.4L1453.2,1011.6L1457,1015.4L1459.6,1024.4L1467.2,1037.1L1481.3,1142L1482.6,1165L1494.1,1195.7L1570.8,1319.7L1584.9,1372.1L1593.8,1396.4L1596.4,1409.2L1596.4,1414.3L1600.2,1421.9L1614.3,1448.8L1620.7,1475.6L1637.3,1539.5L1639.8,1549.8L1639.8,1554.9L1636,1562.5L1621.9,1583L1616.8,1593.2L1606.6,1606L1595.1,1617.5L1581,1626.5L1559.3,1641.8L1549.1,1645.6L1536.3,1646.9L1481.3,1646.9L1395.7,1615L1371.4,1609.9L1358.6,1606L1345.8,1604.7L1284.4,1597.1L1201.3,1571.5L1177.1,1565.1L1148.9,1553.6L1138.7,1551L1125.9,1544.7L1120.8,1542.1L1111.8,1542.1L1099.1,1538.3L1073.5,1528L1062,1521.6L1050.5,1512.7L1045.4,1502.5L1039,1484.6L1035.1,1466.7L1035.1,1453.9L1037.7,1442.4L1041.5,1434.7L1044.1,1424.5L1062,1384.8L1083.7,1304.3L1087.6,1292.8L1089.8,1275.7L1093.8,1264.5L1094,1258.6L1099.1,1239.1L1109.3,1181.6L1110.6,1170.1L1114.4,1156L1120.8,1147.1L1125.9,1130.4z"></path><path d="M2603.1,1237.4L2618,1226.8L2654.3,1222.5L2690.6,1224.6L2709.9,1228.9L2729.1,1237.4L2763.3,1263.1L2793.2,1297.2L2848.7,1365.6L2882.8,1395.5L2910.6,1429.6L2957.6,1510.8L2964,1525.7L2966.1,1542.8L2966.1,1559.9L2961.9,1583.4L2953.3,1617.6L2932,1649.6L2914.9,1656L2897.8,1658.1L2859.4,1664.5L2825.2,1664.5L2791,1649.6L2756.8,1636.8L2718.4,1626.1L2713.2,1623L2705.3,1619.9L2704.4,1619.9L2702.6,1619.1L2699.1,1617.7L2690.6,1613.3L2660.7,1594.1L2633,1566.3L2598.8,1478.7L2590.2,1459.5L2588.1,1442.4L2588.1,1399.7L2583.9,1322.8L2583.9,1286.5L2592.4,1252.4z"></path><path d="M2467,425.4L2570,347.1L2578.2,342.6L2586.4,331.4L2605,309.1L2656.5,271L2681.2,255.4L2693.5,248.7L2705.9,246.4L2757.4,246.4L2767.7,246.4L2780,250.9L2806.8,266.6L2817.1,280L2821.2,282.2L2823.3,291.2L2829.4,318L2835.6,344.8L2835.6,362.7L2843.8,382.9L2864.4,445.5L2876.8,494.7L2899.5,555.1L2905.6,582L2909.7,608.8L2915.9,622.2L2918,635.6L2918,667L2918,689.3L2907.7,716.2L2885,736.3L2860.3,749.7L2806.8,776.6L2794.4,783.3L2782.1,783.3L2753.2,783.3L2705.9,783.3L2656.4,796.7L2555.5,841.4L2546.7,843L2542.7,843.8L2539,843.8L2537.2,843.8L2535,843.7L2485.5,841.4L2460.8,832.5L2436.1,821.3L2411.4,807.9L2386.7,792.2L2362,774.3L2339.3,749.7L2320.8,624.5L2318.7,597.6L2322.9,570.8L2335.2,537.2L2355.8,505.9L2413.5,467.9z"></path><path d="M2813.7,-151L2830.5,-172.1L2868.4,-187.5L2896.5,-200.1L2909.1,-207.2L2923.1,-208.6L3025.5,-212.8L3088.6,-202.9L3139.1,-188.9L3161.6,-179.1L3172.8,-174.9L3178.4,-173.5L3184,-167.9L3202.2,-144L3210.6,-131.4L3217.6,-117.4L3230.3,-93.5L3241.5,-71.1L3245.7,-59.9L3248.5,-48.7L3254.1,-22L3261.1,4.6L3261.1,27.1L3261.1,49.5L3258.3,72L3252.7,94.4L3251.3,118.3L3251.3,140.7L3249.9,151.9L3247.1,157.5L3238.7,161.7L3192.4,184.2L3170,192.6L3144.7,203.8L3122.3,217.8L3104,234.7L3095.6,243.1L3090,252.9L3081.6,262.7L3078.8,264.1L3078.8,266.9L3070.4,271.1L3069,271.1L2976.4,272.5L2924.5,279.6L2902.1,282.4L2889.4,282.4L2874,278.2L2822.1,255.7L2799.7,248.7L2773,237.5L2749.2,223.5L2743.6,195.4L2740.8,170.2L2740.8,143.5L2747.8,116.8L2752,91.6L2757.6,67.8L2757.6,45.3L2759,-48.7L2778.6,-78.1L2791.3,-102L2798.3,-125.8L2803.9,-137z"></path><path d="M2765,897.4L2787.8,878.8L2808.5,860.1L2856.3,826.9L2864.6,820.6L2879.1,818.6L2906.1,810.3L2955.9,799.9L2985,799.9L3009.9,804L3034.8,812.3L3059.7,824.8L3076.3,843.5L3082.6,868.4L3090.9,920.3L3092.9,949.3L3099.2,980.5L3117.9,1030.3L3167.7,1127.9L3190.5,1181.8L3198.8,1206.7L3200.9,1231.7L3200.9,1254.5L3190.5,1279.4L3171.8,1300.2L3151.1,1318.8L3144.8,1329.2L3134.5,1337.5L3111.6,1352.1L3099.2,1372.8L3090.9,1383.2L3078.4,1385.3L3063.9,1391.5L3043.1,1393.6L3018.2,1401.9L2993.3,1408.1L2968.4,1412.3L2947.6,1412.3L2922.7,1406L2897.8,1393.6L2872.9,1372.8L2831.4,1329.2L2812.7,1308.5L2800.2,1283.6L2750.4,1244.1L2746.3,1235.8L2735.9,1227.5L2715.1,1204.7L2700.6,1183.9L2688.1,1154.9L2675.7,1127.9L2671.5,1103L2681.9,1044.8L2698.5,988.8L2729.7,943.1L2744.2,918.2z"></path><path d="M2541.5,1663.3L2554.3,1645.5L2577.2,1632.7L2618.1,1614.9L2679.3,1614.9L2745.6,1640.4L2799.1,1673.5L2837.4,1701.6L2878.2,1714.4L2921.5,1734.8L2936.9,1747.5L2942,1747.5L2944.5,1752.6L2954.7,1765.4L2977.7,1806.2L2985.3,1826.6L2985.3,1847L2987.9,1890.3L2977.7,1941.3L2972.6,1961.7L2959.8,1982.1L2924.1,2012.7L2847.6,2076.5L2829.7,2091.8L2806.8,2094.4L2689.5,2109.7L2643.6,2109.7L2597.7,2094.4L2556.9,2079.1L2516,2056.1L2470.1,2030.6L2460.1,2008.8L2454.8,1966.5L2454.8,1875L2467.6,1831.7L2472.7,1811.3L2477.8,1783.2L2490.5,1742.4L2495.6,1722L2508.4,1699z"></path><path d="M2417.2,2148.5L2453.9,2131.1L2485.3,2127.6L2522,2125.8L2560.4,2125.8L2598.8,2118.9L2639,2115.4L2680.9,2115.4L2694.8,2115.4L2712.3,2118.9L2747.2,2124.1L2778.6,2136.3L2813.6,2157.3L2839.7,2183.5L2850.2,2221.9L2850.2,2253.3L2848.5,2270.8L2841.5,2288.2L2822.3,2323.1L2797.8,2354.6L2775.1,2379L2738.5,2394.7L2703.6,2403.4L2668.7,2401.7L2651.2,2394.7L2633.7,2386L2598.8,2366.8L2530.7,2338.8L2464.4,2305.7L2429.4,2284.7L2417.2,2270.8L2408.5,2253.3L2403.2,2237.6L2399.8,2220.1L2399.8,2183.5z"></path><path d="M2251.1,870.5L2268,856.1L2294.5,848.8L2333.1,839.2L2376.4,834.4L2429.4,834.4L2518.6,853.6L2561.9,863.3L2605.3,863.3L2643.8,880.1L2660.7,897L2665.5,916.3L2663.1,954.8L2651.1,1000.6L2631.8,1077.7L2622.2,1174L2617.3,1193.3L2605.3,1215L2571.6,1251.1L2557.1,1265.6L2549.9,1272.8L2547.5,1277.6L2542.7,1277.6L2523.4,1292.1L2499.3,1301.7L2487.2,1299.3L2448.7,1299.3L2427,1299.3L2407.7,1292.1L2369.2,1275.2L2330.6,1243.9L2299.3,1212.6L2256,1159.6L2234.3,1070.4L2219.8,1027.1L2217.4,988.5L2215,950L2224.6,904.2L2236.7,884.9z"></path><path d="M2006.2,2414.2L2045.4,2384.8L2073.4,2355.4L2101.4,2333.8L2135.1,2320.1L2164.9,2318.1L2191.1,2312.2L2219.1,2312.2L2249,2314.2L2284.5,2322L2344.2,2333.8L2372.2,2337.7L2432,2335.7L2458.1,2335.7L2484.3,2339.7L2514.1,2345.5L2553.3,2359.3L2588.8,2378.9L2618.7,2386.7L2644.8,2398.5L2674.7,2418.1L2702.7,2437.7L2727,2459.3L2738.2,2469.1L2745.7,2484.8L2747.5,2518.1L2747.5,2580.8L2736.3,2624L2732.6,2657.3L2725.1,2686.7L2715.8,2714.2L2700.8,2735.7L2671,2767.1L2643,2790.6L2614.9,2812.2L2586.9,2824L2557.1,2829.8L2529.1,2831.8L2495.4,2822L2454.4,2808.3L2439.4,2804.4L2366.6,2794.5L2340.4,2796.5L2310.6,2804.4L2194.8,2808.3L2164.9,2800.4L2133.2,2784.7L2107,2767.1L2092.1,2765.1L2073.4,2759.3L2045.4,2743.6L2023,2724L2000.6,2696.5L1993.1,2680.8L1985.6,2659.3L1970.7,2612.2L1959.5,2561.2L1959.5,2531.8L1965.1,2494.6L1987.5,2439.7z"></path><path d="M577.8,2420.4L602.5,2406L631.3,2383.3L658,2356.6L680.7,2329.8L728,2282.5L742.4,2270.1L763,2261.9L798,2249.6L826.8,2245.4L855.6,2243.4L884.4,2245.4L913.2,2259.8L958.5,2298.9L1014.1,2340.1L1051.1,2358.6L1082,2379.2L1106.7,2395.7L1131.4,2420.4L1147.9,2445.1L1152,2457.4L1154,2473.9L1154,2537.7L1145.8,2566.5L1133.5,2603.6L1127.3,2618L1123.2,2636.5L1117,2669.4L1102.6,2725L1084.1,2784.7L1077.9,2797L1071.7,2807.3L1047,2830L985.3,2848.5L960.6,2856.7L929.7,2860.8L892.7,2858.8L861.8,2846.4L806.2,2825.9L746.5,2809.4L682.7,2801.2L610.7,2782.6L579.8,2768.2L551,2747.6L501.6,2700.3L491.3,2688L487.2,2671.5L485.1,2642.7L483.1,2583L491.3,2554.2L501.6,2525.4L534.5,2467.7L540.7,2453.3L551,2438.9z"></path><path d="M1758.7,2337.4L1769.5,2329.7L1780.4,2323.5L1792.8,2317.3L1817.6,2306.4L1829.9,2300.2L1847,2295.6L1898.1,2297.1L1922.9,2308L1933.7,2315.7L1941.5,2329.7L1957,2356L1966.3,2380.8L1966.3,2435L1963.2,2464.5L1957,2489.3L1952.3,2501.6L1944.6,2512.5L1919.8,2537.3L1882.6,2579.1L1860.9,2599.3L1850.1,2607L1834.6,2611.7L1831.5,2610.1L1819.1,2608.6L1805.2,2603.9L1781.9,2588.4L1758.7,2571.4L1747.8,2562.1L1740.1,2552.8L1727.7,2528L1710.7,2506.3L1698.3,2481.5L1695.2,2450.5L1696.7,2425.8L1709.1,2401L1726.2,2374.6L1749.4,2349.8z"></path><path d="M-1.3,2404L15.5,2382.9L53.4,2367.5L81.5,2354.9L94.1,2347.8L108.1,2346.4L210.5,2342.2L273.6,2352.1L324.1,2366.1L346.6,2375.9L357.8,2380.1L363.4,2381.5L369,2387.1L387.2,2411L395.6,2423.6L402.6,2437.6L415.3,2461.5L426.5,2483.9L430.7,2495.1L433.5,2506.3L439.1,2533L446.1,2559.6L446.1,2582.1L446.1,2604.5L443.3,2627L437.7,2649.4L436.3,2673.3L436.3,2695.7L434.9,2706.9L432.1,2712.5L423.7,2716.7L377.4,2739.2L355,2747.6L329.7,2758.8L307.3,2772.8L289,2789.7L280.6,2798.1L275,2807.9L266.6,2817.7L263.8,2819.1L263.8,2821.9L255.4,2826.1L254,2826.1L161.4,2827.5L109.5,2834.6L87.1,2837.4L74.4,2837.4L59,2833.2L7.1,2810.7L-15.3,2803.7L-42,2792.5L-65.8,2778.5L-71.4,2750.4L-74.2,2725.2L-74.2,2698.5L-67.2,2671.8L-63,2646.6L-57.4,2622.8L-57.4,2600.3L-56,2506.3L-36.4,2476.9L-23.7,2453L-16.7,2429.2L-11.1,2418z"></path><path d="M1244.7,2255L1266.6,2236.3L1307.3,2200.3L1354.2,2169.1L1376,2161.3L1401.1,2155L1432.3,2155L1466.7,2158.1L1576.1,2180L1605.8,2197.2L1629.3,2217.5L1646.5,2233.2L1662.1,2255.1L1671.5,2280.1L1673.1,2308.2L1677.7,2369.2L1680.9,2412.9L1682.4,2434.8L1674.6,2459.8L1657.4,2509.8L1626.2,2581.7L1591.8,2644.3L1577.7,2666.2L1552.7,2688L1530.8,2703.7L1519.9,2709.9L1516.7,2716.2L1510.5,2716.2L1485.5,2730.2L1460.4,2738.1L1438.6,2741.2L1416.7,2741.2L1360.4,2739.6L1315.1,2728.7L1304.1,2727.1L1291.6,2720.9L1279.1,2716.2L1269.7,2706.8L1224.4,2666.2L1208.8,2647.4L1199.4,2622.4L1196.3,2614.6L1190,2592.7L1180.6,2570.8L1174.4,2548.9L1171.3,2523.9L1166.6,2500.5L1160.3,2478.6L1157.2,2455.1L1157.2,2427L1166.6,2375.4L1191.6,2325.4L1229.1,2276.9z"></path><path d="M2813.7,2404L2830.5,2382.9L2868.4,2367.5L2896.5,2354.9L2909.1,2347.8L2923.1,2346.4L3025.5,2342.2L3088.6,2352.1L3139.1,2366.1L3161.6,2375.9L3172.8,2380.1L3178.4,2381.5L3184,2387.1L3202.2,2411L3210.6,2423.6L3217.6,2437.6L3230.3,2461.5L3241.5,2483.9L3245.7,2495.1L3248.5,2506.3L3254.1,2533L3261.1,2559.6L3261.1,2582.1L3261.1,2604.5L3258.3,2627L3252.7,2649.4L3251.3,2673.3L3251.3,2695.7L3249.9,2706.9L3247.1,2712.5L3238.7,2716.7L3192.4,2739.2L3170,2747.6L3144.7,2758.8L3122.3,2772.8L3104,2789.7L3095.6,2798.1L3090,2807.9L3081.6,2817.7L3078.8,2819.1L3078.8,2821.9L3070.4,2826.1L3069,2826.1L2976.4,2827.5L2924.5,2834.6L2902.1,2837.4L2889.4,2837.4L2874,2833.2L2822.1,2810.7L2799.7,2803.7L2773,2792.5L2749.2,2778.5L2743.6,2750.4L2740.8,2725.2L2740.8,2698.5L2747.8,2671.8L2752,2646.6L2757.6,2622.8L2757.6,2600.3L2759,2506.3L2778.6,2476.9L2791.3,2453L2798.3,2429.2L2803.9,2418z"></path></svg>