<svg width="2200" height="2280" version="1.2" xmlns="http://www.w3.org/2000/svg" viewBox="0 0 2200 2280"><style type="text/css">path {stroke-width: 1; vector-effect: non-scaling-stroke; fill:none; stroke: #000; stroke-linecap: round; stroke-linejoin: miter;}</style><path d="M928.9,-329.2L893.3,-260.9L895.7,-198L898.1,-135.1L897.4,-117.7L899.2,-90L901.2,-62L908.9,-35.9L928.3,-13.5L950.5,2.2L975.1,13.1L1004.5,23.5L1035.4,29.7L1064.4,33L1092.2,35.3L1122.6,36.8L1150.3,36.2L1179.1,33.5L1208.1,31.6L1234,28L1268.2,23.9L1296.5,21.1L1322.7,18.3L1353.1,14.2L1380.6,11.3L1407.7,10.1L1436.3,7.7L1463.5,5.3L1491.9,3L1522,-2.2L1551,-11L1578.6,-23.7L1600.2,-39.3L1613.1,-67.7L1619.2,-95.1L1619.5,-123.9L1617.1,-152.6L1614.3,-180L1607.7,-210L1601.6,-239.1L1593.6,-266.6L1583.5,-294L1574.2,-319.6L1556,-341.8L1530.2,-355.9L1499,-363.6L1473.9,-368.7L1445.7,-371.9L1417,-373.8L1388.6,-375L1361.2,-374.3L1334.1,-374.5L1302.7,-374.6L1276.5,-374.6L1243.6,-371.7L1216.8,-369.7L1189.6,-366.1L1150.6,-362L1122.8,-359.1L1091.8,-356.3L1064.4,-353.6L1037.1,-351.1L1009.8,-347.1L981.5,-342.9L954.4,-337z"></path><path d="M928.9,1950.8L893.3,2019.1L895.7,2082L898.1,2144.9L897.4,2162.3L899.2,2190L901.2,2218L908.9,2244.1L928.3,2266.5L950.5,2282.2L975.1,2293.1L1004.5,2303.5L1035.4,2309.7L1064.4,2313L1092.2,2315.3L1122.6,2316.8L1150.3,2316.2L1179.1,2313.5L1208.1,2311.6L1234,2308L1268.2,2303.9L1296.5,2301.1L1322.7,2298.3L1353.1,2294.2L1380.6,2291.3L1407.7,2290.1L1436.3,2287.7L1463.5,2285.3L1491.9,2283L1522,2277.8L1551,2269L1578.6,2256.3L1600.2,2240.7L1613.1,2212.3L1619.2,2184.9L1619.5,2156.1L1617.1,2127.4L1614.3,2100L1607.7,2070L1601.6,2040.9L1593.6,2013.4L1583.5,1986L1574.2,1960.4L1556,1938.2L1530.2,1924.1L1499,1916.4L1473.9,1911.3L1445.7,1908.1L1417,1906.2L1388.6,1905L1361.2,1905.7L1334.1,1905.5L1302.7,1905.4L1276.5,1905.4L1243.6,1908.3L1216.8,1910.3L1189.6,1913.9L1150.6,1918L1122.8,1920.9L1091.8,1923.7L1064.4,1926.4L1037.1,1928.9L1009.8,1932.9L981.5,1937.1L954.4,1943z"></path><path d="M86.7,677.6L55.8,763.1L48.6,788.6L40.8,815.4L34.5,843L28.5,872.3L23,898.5L17.5,925.1L11.1,954L6.7,980.9L1.7,1010L0,1038.7L0.8,1067.7L2.6,1095.5L11.1,1124.5L23.8,1148.4L40.5,1171.2L64.1,1185.8L90.4,1195.2L117,1198.8L145.5,1201.3L174.2,1200.5L201.1,1199.5L229,1198.4L257.4,1196.2L284.9,1190.4L311.2,1181.1L331.8,1162.6L345.1,1137.8L355.7,1113L363.6,1086.6L370.3,1059.4L376.9,1032L382.8,1005.9L389.8,980L396.4,949.6L401.8,923.3L407.7,895.8L412.7,869.1L416.9,840.5L420.8,812.2L425.5,783.5L426.1,756.6L426.2,730.1L423.1,700.7L411.5,675.2L388.9,659L363,649.1L337,642.7L309.6,639.8L282.6,642L252.6,646.1L227.4,649.5L208.2,648.6L151.1,659.8z"></path><path d="M-460.4,-565.2L-527.7,-519.2L-570.5,-451.7L-523.7,-310.9L-506.4,-276.8L-492,-242.5L-475.4,-208.3L-458.1,-172.8L-438.7,-135.2L-418.5,-104.2L-397.4,-76L-374.5,-46.6L-348.6,-25L-319.6,-6.8L-282.3,5.9L-247.2,6.9L-214.4,-2.2L-183,-15.5L-150,-28.1L-118.9,-43.3L-86.3,-62.7L-53.2,-82.7L-23.6,-102.5L4.2,-125.7L28,-152.3L42.9,-186L38.2,-219.8L30.2,-256.2L13.5,-287.3L-1.1,-318.6L-14,-350L-28.6,-383.5L-41.5,-416.6L-55.1,-447.1L-69.1,-483.6L-83.9,-514.6L-103.1,-550.5L-120.2,-578.6L-139.6,-605.4L-167.3,-642.9L-198,-666.9L-232.4,-671L-266.7,-662.6L-304,-646.6L-340,-628.7L-370.5,-613L-402.3,-596.1L-430.4,-576.9z"></path><path d="M1739.6,-565.2L1672.3,-519.2L1629.5,-451.7L1676.3,-310.9L1693.6,-276.8L1708,-242.5L1724.6,-208.3L1741.9,-172.8L1761.3,-135.2L1781.5,-104.2L1802.6,-76L1825.5,-46.6L1851.4,-25L1880.4,-6.8L1917.7,5.9L1952.8,6.9L1985.6,-2.2L2017,-15.5L2050,-28.1L2081.1,-43.3L2113.7,-62.7L2146.8,-82.7L2176.4,-102.5L2204.2,-125.7L2228,-152.3L2242.9,-186L2238.2,-219.8L2230.2,-256.2L2213.5,-287.3L2198.9,-318.6L2186,-350L2171.4,-383.5L2158.5,-416.6L2144.9,-447.1L2130.9,-483.6L2116.1,-514.6L2096.9,-550.5L2079.8,-578.6L2060.4,-605.4L2032.7,-642.9L2002,-666.9L1967.6,-671L1933.3,-662.6L1896,-646.6L1860,-628.7L1829.5,-613L1797.7,-596.1L1769.6,-576.9z"></path><path d="M-460.4,1714.8L-527.7,1760.8L-570.5,1828.3L-523.7,1969.1L-506.4,2003.2L-492,2037.5L-475.4,2071.7L-458.1,2107.2L-438.7,2144.8L-418.5,2175.8L-397.4,2204L-374.5,2233.4L-348.6,2255L-319.6,2273.2L-282.3,2285.9L-247.2,2286.9L-214.4,2277.8L-183,2264.5L-150,2251.9L-118.9,2236.7L-86.3,2217.3L-53.2,2197.3L-23.6,2177.5L4.2,2154.3L28,2127.7L42.9,2094L38.2,2060.2L30.2,2023.8L13.5,1992.7L-1.1,1961.4L-14,1930L-28.6,1896.5L-41.5,1863.4L-55.1,1832.9L-69.1,1796.4L-83.9,1765.4L-103.1,1729.5L-120.2,1701.4L-139.6,1674.6L-167.3,1637.1L-198,1613.1L-232.4,1609L-266.7,1617.4L-304,1633.4L-340,1651.3L-370.5,1667L-402.3,1683.9L-430.4,1703.1z"></path><path d="M1739.6,1714.8L1672.3,1760.8L1629.5,1828.3L1676.3,1969.1L1693.6,2003.2L1708,2037.5L1724.6,2071.7L1741.9,2107.2L1761.3,2144.8L1781.5,2175.8L1802.6,2204L1825.5,2233.4L1851.4,2255L1880.4,2273.2L1917.7,2285.9L1952.8,2286.9L1985.6,2277.8L2017,2264.5L2050,2251.9L2081.1,2236.7L2113.7,2217.3L2146.8,2197.3L2176.4,2177.5L2204.2,2154.3L2228,2127.7L2242.9,2094L2238.2,2060.2L2230.2,2023.8L2213.5,1992.7L2198.9,1961.4L2186,1930L2171.4,1896.5L2158.5,1863.4L2144.9,1832.9L2130.9,1796.4L2116.1,1765.4L2096.9,1729.5L2079.8,1701.4L2060.4,1674.6L2032.7,1637.1L2002,1613.1L1967.6,1609L1933.3,1617.4L1896,1633.4L1860,1651.3L1829.5,1667L1797.7,1683.9L1769.6,1703.1z"></path><path d="M174.1,44.1L163.3,72.5L155.8,103.2L147.7,130.5L144.3,158.5L142,189.6L143.4,218L144.6,246.2L149.3,274.4L155,303.9L162.8,330.6L177.5,355.3L201.4,371.9L226.6,384.9L253.6,393.2L282.1,400.8L312.7,404.5L342.5,406.9L372.5,407L401.2,406.1L434.1,404.6L466.2,402.8L495.5,400.7L524.4,398.4L554.5,394.6L583,390.3L612.8,385.9L641.2,382.7L737.9,338.1L768.2,282.6L773.3,219.6L769.3,201.4L770.5,172.3L770.8,143.3L769.1,111.6L764.4,84.3L757.3,56.1L741.6,32.5L714.6,17.6L684.3,9.5L655.8,4L627.7,0.6L599.6,0L571.6,0.5L543.8,3.2L512.9,5.3L483,9L454.6,11.7L426.1,12.8L398,15.2L370,16.1L342.1,16.6L312.8,17L284.7,17.2L256.7,18.8L227.2,20.7L199.1,27.3z"></path><path d="M1559.3,808.1L1555.5,894.9L1551.6,999.7L1550.5,1024.3L1547.3,1061.4L1546.1,1107.8L1545.4,1147.1L1544.8,1189.4L1542.2,1230.3L1541.5,1272.6L1541,1313.3L1540.5,1355.8L1544.6,1396.5L1564.8,1434.7L1603.9,1455L1644.5,1469.2L1684.6,1478L1724.5,1481.1L1766.5,1479.7L1806.8,1472L1842.7,1453.3L1873.3,1422.6L1893.6,1383.5L1908.7,1344.7L1919.1,1303.9L1924.7,1264.1L1928.4,1224.3L1930.9,1177.9L1932.3,1136.8L1933.3,1094L1936.1,1050.6L1937,1009.7L1937.6,969L1938.1,926.4L1938.4,885.8L1925.6,845.5L1899.3,813.9L1864.6,790.7L1823.4,774.5L1780.9,765.7L1736.5,760L1697.6,756.3z"></path><path d="M1376.2,159.3L1352.5,217.7L1349.4,233.2L1340.6,257.9L1330.5,288.2L1323.4,315.3L1318.5,340.9L1317,372L1318,399.5L1325.1,425.2L1337.2,450.3L1356.3,473.3L1378.6,488.2L1402.8,501.3L1428.8,511.6L1457.5,519.4L1486.2,524.4L1516.7,528.8L1544.6,533L1572.7,535.5L1602,537.9L1631.4,540.2L1657.8,542.8L1690.5,547.6L1720.1,551.6L1752.2,556.5L1779.1,561.3L1807.7,567.1L1835.4,571.3L1862.6,575.2L1892.1,576.8L1919,572.1L1944.1,561L1963.1,536.8L1975.1,511.5L1984.4,485.4L1991.4,459.2L1997.5,431.3L2002.8,398.4L2006.7,371.7L2009.4,343.8L2011,317.1L2011.8,287.9L2006.6,261.1L1993.7,235.6L1970.4,217L1945.9,202.3L1918,188.8L1892.4,177.9L1860.9,167.7L1832.2,159.4L1803.7,151.7L1777.7,145.3L1751.1,139L1722.9,133.8L1694.9,127.6L1665,122.3L1638.7,118.5L1610.2,114L1580.9,111.1L1553.5,107.6L1526.1,104.1L1498.9,100.7L1402.8,99.2z"></path><path d="M29.9,1605.4L27.4,1663.5L24.9,1726.4L24.2,1744.3L23.6,1771.5L24.6,1801L24.6,1828.9L24.6,1856.1L26.2,1883.2L30.8,1911.6L37.7,1937.2L52.8,1962.4L74.4,1983L101.2,1996.6L126.2,2005.3L156.3,2009.1L186.4,2010.6L215.4,2010.7L246,2009.8L272.6,2009.8L299.8,2008.3L328.4,2007.9L355.5,2004.8L382.4,2002.6L409.4,2000.3L437.6,1996.5L466,1993.8L496.1,1991.2L525.2,1988.6L552.8,1984.7L578.8,1977.6L598.4,1956.6L609.1,1929.6L615.8,1899.6L617.3,1871.4L617.9,1844L616,1813.9L614.4,1786.3L613.9,1757.7L613.5,1730.2L611.7,1701.7L611.3,1672.9L608.1,1645.6L594.2,1619.9L569.3,1603.3L542.3,1590.3L517.1,1582.1L487.9,1574.5L450.8,1568L424.9,1565.1L397.1,1563.1L367.8,1563.2L334.8,1564.1L308,1565.6L277.5,1565.9L248,1566.3L220.4,1566.5L188.6,1569.5L156.2,1570.1L126.4,1572z"></path><path d="M702.2,623.5L685.8,644.8L668.4,669.5L654.3,694.5L639.4,720L626,743.2L611.7,768.8L598.7,791.9L584.6,815.9L573.3,841.5L562.5,865.8L556.3,893.1L573.3,976.9L624,1025.3L672.4,1066.4L688.1,1073.7L709.9,1088.5L735.1,1102.1L761.4,1109.9L788.7,1114.3L816.8,1108.7L842.3,1095.7L864.5,1079.9L885.9,1061.9L905.2,1040.9L925,1018.8L944.7,994.5L961.2,973.7L978.6,951.9L995.9,927.1L1010,904.8L1026.5,882.6L1041.7,858.9L1056.5,835.3L1071.3,811.4L1086,788.9L1100.6,760.8L1110.8,736L1120.2,708.5L1124.6,680.4L1115.8,653.5L1095.1,632.4L1070.2,612.5L1044.9,596.5L1020.7,581.9L996.4,568.1L967.7,553.6L944,540.6L919.5,529.3L893.4,521.4L865.9,517.4L836.5,520.5L810.7,528.6L783.9,546.1L761.4,560.8L741.5,579.4L719.5,603.7z"></path><path d="M843.2,1307.5L816.1,1321.3L750.3,1399.8L764.9,1460.3L776.9,1518.3L783.2,1535.5L793,1566.8L804,1593.6L820.9,1621.2L836.5,1642.7L856.9,1662.6L880.2,1681.7L904.4,1694L935.4,1700.3L962.3,1703.3L993.6,1701.4L1023,1697.6L1055,1689.7L1082,1681.7L1109.5,1671.7L1136.9,1659.4L1162.4,1647.9L1188.9,1634.6L1216.9,1622.3L1240.8,1610.2L1265.5,1599.4L1293,1589L1322.3,1575.9L1346.4,1563.9L1370,1549L1391.7,1530.4L1406.6,1503.7L1415.5,1474.7L1416.6,1445.5L1414.9,1416.6L1411.2,1390.5L1403.1,1357.7L1398.1,1332.6L1390.1,1302.9L1382.8,1276.6L1374.2,1251.3L1362.3,1218.9L1352.5,1191.3L1341.2,1165.5L1326.7,1142.7L1291.2,1137.2L1262.6,1138.5L1228.7,1144.6L1202.4,1151.2L1176.4,1160.6L1142,1173.9L1116.8,1183.9L1089.7,1196.9L1061,1209.1L1032.6,1221.1L1008.2,1231.8L983.1,1243.6L954,1257L927.2,1269.2L899,1281.4L870.4,1295.1z"></path></svg>