<svg width="2232" height="1608" version="1.2" xmlns="http://www.w3.org/2000/svg" viewBox="0 0 2232 1608"><style type="text/css">.thumb-shape {stroke-width: 1; vector-effect: non-scaling-stroke; fill:none; stroke: #000; stroke-linecap: round; stroke-linejoin: round;}</style><path d="M1659.7,796.2L1844.1,715L2173,877.7L2116.2,1037.9L1647.2,1019.5z" class="thumb-shape"></path><path d="M666.9,453.9L872,278.3L1076.3,418.8L1163.9,660.4L1057.4,857.5L788.7,831.1L617.5,706.1z" class="thumb-shape"></path><path d="M369.7,806.9L617.5,706.1L788.7,831.1L437.7,990.9L377.6,890.6z" class="thumb-shape"></path><path d="M-59.3,877.7L89.7,806.9L369.7,806.9L377.6,890.6L178.2,1200.1L-37.1,1323.3L-116.2,1213.9L-116.2,1037.9z" class="thumb-shape"></path><path d="M1163.9,660.4L1461.7,648.7L1659.7,796.2L1638.4,1178.6L1100.4,1170L1057.4,857.4z" class="thumb-shape"></path><path d="M184.1,210.3L354.6,130.9L503.4,284.8L222,350.6z" class="thumb-shape"></path><path d="M-289,505.3L-95.9,416.4L79.9,640.7L89.7,806.9L-59.3,877.7L-388.3,715z" class="thumb-shape"></path><path d="M1268.5,-435.3L1637.8,-429.5L1637.8,-263L1636.9,-260.3L1509.1,95.8L1313.7,110.9z" class="thumb-shape"></path><path d="M-484,148.7L-337.5,110.1L-76.7,160.2L-95.9,416.4L-289,505.3L-484,375.7z" class="thumb-shape"></path><path d="M222,350.6L503.4,284.8L666.9,453.9L617.5,706.1L369.7,806.9L89.7,806.9L79.9,640.7z" class="thumb-shape"></path><path d="M1076.3,418.8L1249,346.2L1509.9,402.7L1461.7,648.7L1163.9,660.4z" class="thumb-shape"></path><path d="M437.7,990.9L788.7,831.1L1057.4,857.5L1100.4,1170.1L894.7,1245.2L604.7,1269.7z" class="thumb-shape"></path><path d="M-76.7,160.2L184.1,210.3L222,350.6L79.9,640.7L-95.9,416.4z" class="thumb-shape"></path><path d="M1313.7,110.9L1509.1,95.8L1748.4,148.7L1748.4,375.7L1509.9,402.7L1249,346.2z" class="thumb-shape"></path><path d="M1636.9,-260.3L1637.8,-263L1964.3,-170.4L1984.7,-164.6L1894.8,110.1L1748.4,148.7L1509.1,95.8z" class="thumb-shape"></path><path d="M1509.9,402.7L1748.4,375.7L1943.3,505.3L1844.1,715L1659.7,796.2L1461.7,648.7z" class="thumb-shape"></path><path d="M1647.2,1019.5L2116.2,1037.9L2116.2,1213.9L2195.3,1323.3L1985.2,1443.5L1638.4,1345.1L1638.4,1178.6z" class="thumb-shape"></path><path d="M-247.7,-164.6L15.7,-315.3L338.8,-46.1L354.6,130.9L184.1,210.3L-337.5,110.1z" class="thumb-shape"></path><path d="M894.2,-362.9L1099.9,-438L1268.5,-435.3L1313.7,110.9L1249,346.2L1076.3,418.8L872,278.3L771.9,-83.1z" class="thumb-shape"></path><path d="M604.2,-338.3L894.2,-362.9L771.9,-83.1L482.8,-204.6z" class="thumb-shape"></path><path d="M482.8,-204.6L771.9,-83.1L872,278.3L666.9,453.9L354.6,131L338.8,-46z" class="thumb-shape"></path><path d="M178.2,1200.1L377.6,890.6L604.7,1269.7L339.4,1562L16.1,1292.8z" class="thumb-shape"></path><path d="M2172.7,877.7L2321.7,806.9L2601.7,806.9L2609.6,890.6L2410.2,1200.1L2194.9,1323.3L2115.8,1213.9L2115.8,1037.9z" class="thumb-shape"></path><path d="M1943,505.3L2136.1,416.4L2311.9,640.7L2321.7,806.9L2172.7,877.7L1843.7,715z" class="thumb-shape"></path><path d="M1268.5,1172.7L1637.8,1178.5L1637.8,1345L1636.9,1347.7L1509.1,1703.8L1313.7,1718.9z" class="thumb-shape"></path><path d="M1748,148.7L1894.5,110.1L2155.3,160.2L2136.1,416.4L1943,505.3L1748,375.7z" class="thumb-shape"></path><path d="M2155.3,160.2L2416.1,210.3L2454,350.6L2311.9,640.7L2136.1,416.4z" class="thumb-shape"></path><path d="M1636.9,1347.7L1637.8,1345L1964.3,1437.6L1984.7,1443.4L1894.8,1718.1L1748.4,1756.7L1509.1,1703.8z" class="thumb-shape"></path><path d="M1984.3,-164.6L2247.7,-315.3L2570.8,-46.1L2586.6,130.9L2416.1,210.3L1894.5,110.1z" class="thumb-shape"></path><path d="M-247.7,1443.4L15.7,1292.7L338.8,1561.9L354.6,1738.9L184.1,1818.3L-337.5,1718.1z" class="thumb-shape"></path><path d="M1984.3,1443.4L2247.7,1292.7L2570.8,1561.9L2586.6,1738.9L2416.1,1818.3L1894.5,1718.1z" class="thumb-shape"></path><path d="M894.2,1245.1L1099.9,1170L1268.5,1172.7L1313.7,1718.9L1249,1954.2L1076.3,2026.8L872,1886.3L771.9,1524.9z" class="thumb-shape"></path><path d="M604.2,1269.7L894.2,1245.1L771.9,1524.9L482.8,1403.4z" class="thumb-shape"></path><path d="M482.8,1403.4L771.9,1524.9L872,1886.3L666.9,2061.9L354.6,1739L338.8,1562z" class="thumb-shape"></path></svg>