<svg width="2038" height="1516" version="1.2" xmlns="http://www.w3.org/2000/svg" viewBox="0 0 2038 1516"><style type="text/css">path {stroke-width: 1; vector-effect: non-scaling-stroke; fill:none; stroke: #000; stroke-linecap: round; stroke-linejoin: miter;}</style><path d="M288.2,752.6L724.19,752.6L723.571,759.522L722.056,766.53L722.071,772.88L722.256,775.032L722.251,778.062L722.433,781.408L722.65,784.49L722.9,787.951L723.152,791.171L723.384,794.042L723.985,797.459L724.315,800.642L724.6,803.488L724.913,806.612L725.227,810.048L725.485,812.906L725.761,816.024L726.063,819.481L726.681,822.946L727.052,826.507L727.38,829.801L728.077,833.658L728.738,836.667L730.531,841.345L731.793,844.491L733.056,847.41L734.145,851.269L735.038,853.88L735.956,857.258L736.527,860.782L736.985,863.979L737.361,866.885L737.413,870.375L737.642,873.255L737.398,877.989L737.486,880.838L737.196,886L737.231,889.05L737.353,892.037L737.172,895.062L736.765,899.161L736.498,902.18L736.521,905.07L736.675,908.877L737.158,912.09L737.408,914.98L737.683,918.148L738.316,921.57L738.63,924.432L738.946,927.556L739.32,931.328L739.621,934.574L739.255,937.542L739.411,940.728L739.419,945.478L739.301,949.596L739.06,952.185L738.875,955.82L738.937,958.79L738.835,962.868L738.361,966.608L738.425,969.948L738.515,972.976L738.628,975.864L738.513,978.992L738.7,982.417L738.872,985.282L739.077,988.405L739.658,991.836L740.262,994.673L740.966,998.071L741.73,1001.558L742.23,1005.395L742.9,1008.083L743.323,1011.245L743.371,1014.445L743.653,1017.562L743.918,1020.711L744.455,1023.52L744.779,1026.603L745.249,1031.601L745.646,1035.712L745.994,1039.546L745.943,1042.516L746.197,1046.107L746.44,1049.398L746.644,1052.291L746.897,1055.45L747.758,1058.22L748.138,1061.266L748.829,1064.646L748.965,1068.134L748.974,1071.704L749.221,1074.994L749.42,1077.938L749.099,1082.105L748.611,1085.51L748.294,1088.192L747.997,1091.398L747.128,1095.251L746.56,1100.128L746.124,1103.096L746.028,1106.135L746.125,1110.054L746.308,1113.959L746.507,1117.323L746.764,1120.984L746.989,1124.016L747.845,1126.849L748.831,1129.609L750.299,1133.19L751.569,1136.3L752.809,1138.766L753.833,1142.102L754.74,1144.878L755.626,1147.88L756.159,1150.985L757.292,1154.654L758.112,1157.55L759.235,1160.642L760.104,1163.461L760.949,1166.485L761.479,1169.57L761.919,1172.659L762.306,1175.775L762.356,1179.255L762.584,1182.146L762.52,1185.305L762.465,1187.174L759.552,1201.144L758.631,1212.205L758.151,1217.965L757.71,1223.267L758.539,1227.139L758.521,1232.889L757.955,1242.172L757.369,1248.866L756.088,1258.34L754.61,1266.812L753.574,1272.336L753.091,1279.109L751.637,1285.177L751.194,1290.388L750.359,1295.48L750.002,1301.5L748.696,1306.502L748.316,1312.48L748.073,1317.544L747.856,1325.741L747.197,1333.463L747.019,1340.201L746.343,1345.901L746.124,1352.907L745.443,1359.422L745.217,1365.868L744.529,1371.274L744.3,1376.97L743.611,1382.608L742.828,1391.483L742.027,1396.054L741.166,1401.739L740.835,1406.988L740.602,1412.383L739.883,1417.876L739.683,1423.353L738.994,1428.305L737.658,1433.712L736.196,1438.599L735.149,1443.927L733.555,1449.337L731.878,1455.316L730.724,1460.356L729.061,1466.37L727.893,1471.437L726.27,1477.431L725.11,1483.053L724.045,1488.601L723.001,1494.195L721.464,1499.746L720.393,1504.732L720.199,1506.964L285.649,1506.964L204.649,1506.964L204.347,1499.69L205.77,1491.077L207.113,1481.571L207.605,1472.785L209.062,1462.397L210.456,1452.838L211.076,1443.308L212.639,1435.197L214.186,1424.367L215.705,1413.695L217.134,1403.292L218.548,1393.908L219.878,1384.482L220.403,1375.818L221.774,1367.004L223.061,1356.442L224.284,1345.973L224.597,1337.379L225.118,1328.494L226.592,1317.048L227.212,1308.29L228.846,1299.033L231.13,1288.069L231.776,1277.949L233.315,1265.363L234.145,1255.739L236.696,1246.848L238.28,1235.488L239.901,1225.944L241.449,1217.241L242.899,1208.237L244.971,1196.742L245.874,1187.175L245.739,1177.616L245.616,1168.076L245.442,1158.608L244.511,1149.124L244.555,1139.694L244.632,1131.004L244.746,1121.275L244.924,1111.656L245.295,1101.763L245.7,1091.191L246.337,1082.875L248.609,1071.011L249.104,1060.913L250.433,1049.984L251.658,1039.193L252.725,1028.406L252.892,1018.657L253.251,1009.244L253.636,997.49L254.203,988.117L256.45,974.846L256.926,966.049L257.623,955.592L259.256,946.884L260.993,936.458L262.95,926.906L264.261,918.174L266.819,908.9L271.614,888.116L274.811,868.931L280.826,844.068L285.999,796.981L286.804,794.164L292.396,774.598L288.209,754.98z"></path><path d="M1041.08,39.16L1099.142,35.018L1531.862,35.018L1531.862,260.698L1530.346,269.316L1528.236,277.88L1527.131,285.733L1526.047,294.435L1525.745,303.12L1525.927,311.768L1524.254,320.316L1522.541,328.836L1520.666,337.198L1517.99,344.78L1516.05,353.117L1513.337,360.728L1510.663,368.522L1508.105,376.418L1506.393,385.254L1503.994,394.797L1501.749,402.746L1500.408,411.595L1499.738,421.051L1498.142,429.613L1496.421,438.101L1494.641,445.787L1492.649,454.287L1489.761,462.748L1487.57,470.421L1484.353,478.364L1480.575,487.157L1477.638,495.442L1473.472,505.232L1471.979,514.331L1469.925,524.76L1468.304,532.788L1467.857,542.378L1468.512,551.073L1470.043,559.688L1471.481,568.309L1473.532,576.877L1475.163,584.699L1475.072,592.278L1475.058,593.428L1474.907,602.257L1474.067,610.373L1474.162,619.463L1474.237,629.923L1474.323,638.682L1474.638,642.539L1475.033,647.363L1474.897,655.772L1474.462,665.052L1473.529,673.309L1473.966,678.12L1471.048,697.076L1463.756,716.032L1460.706,728.659L1268.118,755.212L999.396,731.229L990.089,714.918L987.834,708.206L985.679,700.72L983.807,693.954L982.785,686.928L981.33,678.635L981.453,671.666L981.682,663.309L982.002,656.397L982.458,648.66L983.647,640.334L984.751,633.331L985.825,625.575L986.76,617.791L987.045,609.446L987.953,601.799L988.158,594.262L989,587.273L989.156,578.884L989.364,571.887L989.604,564.081L990.495,555.718L991.217,548.052L991.111,540.433L991.014,533.394L990.878,525.015L990.141,517.32L990.183,509.67L990.25,502.58L990.395,494.052L990.547,486.303L990.772,478.516L991.691,470.167L991.854,462.568L992.094,455.002L993.039,447.976L993.247,440.188L993.56,432.345L994.611,423.87L995.015,416.18L995.637,408.345L997.054,400.492L998.43,393.17L1000.443,383.834L1002.176,375.319L1002.507,367.586L1003.519,360.326L1003.822,351.601L1004.806,343.511L1005.681,334.785L1005.863,326.167L1006.097,317.3L1006.577,309.835L1007.446,302.547L1007.958,297.432L1010.515,280.818L1015.627,265.477L1016.124,248.014L1015.27,238.774L1015.239,236.884L1015.208,234.994L1016.064,227.574L1017.825,220.778L1020.834,213.322L1022.876,206.481L1024.698,198.917L1025.695,191.978L1026.014,184.275L1026.465,176.588L1027.614,168.964L1028.752,161.288L1029.821,153.733L1030.239,146.746L1031.336,138.428L1032.363,131.544L1033.329,123.824L1033.559,116.168L1033.94,109.088L1035.028,100.678L1035.473,93.021L1036.657,85.341L1037.741,78.305L1038.745,70.448L1039.677,61.99L1039.856,54.372L1040.13,46.687z"></path><path d="M7.2,48.74L413.343,23.117L437.765,23.709L442.16,22.61L461.401,21.234L477.899,26.732L479.272,43.225L479.264,65.875L479.256,89.935L479.255,93.045L479.252,101.735L478.398,112.14L478.225,119.648L478.104,127.307L477.974,135.726L477.917,144.866L477.879,152.546L477.852,160.936L477.834,170.246L477.82,179.656L478.66,187.551L478.824,195.25L478.937,204.469L479.058,212.968L479.109,221.458L479.989,231.72L480.18,239.718L481.158,248.292L483.157,256.924L484.522,264.553L485.938,274.593L487.405,283.321L488.825,291.935L489.394,300.626L490.645,308.345L491.941,316.716L493.229,325.977L493.739,334.531L494.097,342.253L494.347,350.679L493.632,359.089L493.549,368.329L492.632,380.354L491.518,388.77L491.192,398.525L490.073,406.769L488.854,414.484L486.764,424.62L485.262,434.183L483.779,442.979L482.271,452.652L481.669,461.522L481.249,469.39L481.801,479.616L482.656,487.58L482.838,496.078L483.863,505.542L485.019,515.022L486.218,523.811L487.525,532.564L488.018,542.081L488.366,549.983L488.613,559.34L488.744,567.199L488.828,575.589L488.881,584.088L488.912,592.508L488.93,600.978L488.94,609.458L488.945,617.938L488.946,627.278L488.946,635.938L488.945,645.398L488.943,654.188L488.94,663.698L488.937,671.668L488.934,680.188L488.931,688.738L488.928,697.188L488.925,705.678L488.921,717.568L488.918,727.588L488.066,735.03L474.92,736.77L0.41,736.77L0.003,731.195L0.311,724.762L1.218,718.861L1.537,712.309L2.478,705.807L3.404,699.252L3.791,692.793L4.385,686.773L5.692,679.631L7.072,673.689L9.023,666.572L10.807,660.166L12.327,654.32L13.598,647.834L13.967,641.414L13.116,635.212L12.791,628.821L11.936,622.902L11.498,619.067L10.401,603.726L10.401,587.286L7.199,571.773z"></path><path d="M1544.33,16L1556.91,16L1670.843,0.008L1995.343,0.008L1995.343,484.278L2000.074,492.493L2000.759,500.714L2002.129,510.307L2002.608,512.495L2003.32,516.766L2004.058,521.266L2004.735,524.863L2005.838,528.926L2006.611,533.836L2007.767,538.464L2009.007,542.34L2009.859,546.125L2011.09,549.784L2011.957,553.75L2012.748,558.16L2013.527,562.267L2013.848,565.983L2014.481,570.044L2014.717,574.107L2015.682,578.982L2016.783,583.644L2017.534,587.114L2018.714,590.82L2019.959,594.432L2021.634,598.338L2022.21,602.316L2023.027,606.324L2023.826,609.967L2024.536,614.371L2024.84,618.479L2025.052,622.163L2025.607,627.454L2026.181,630.937L2026.372,636.224L2026.524,641.862L2026.631,645.51L2026.687,650.21L2026.724,654.54L2027.57,659.944L2027.748,663.569L2028.283,670.198L2028.903,674.887L2029.098,678.902L2029.252,682.889L2029.775,687.842L2030.326,692.509L2030.504,696.395L2031.058,700.185L2031.241,704.671L2031.351,708.39L2031.858,712.841L2031.989,717.839L2032.076,722.118L2032.158,726.798L2032.196,730.718L2032.221,734.447L2031.827,738.518L2031.754,742.568L2031.292,746.622L2031.153,750.709L2030.66,755.625L2030.506,756.895L1517.506,756.895L1519.113,753.058L1517.973,744.211L1518.102,738.043L1518.791,736.733L1518.849,733.913L1518.976,731.016L1519.108,728.44L1519.181,726.031L1519.265,722.882L1519.595,720.434L1519.704,718.066L1520.075,714.928L1520.49,712.24L1520.913,709.837L1521.374,707.187L1522.409,702.993L1522.992,700.592L1523.826,697.586L1525.009,693.431L1525.661,691.54L1526.572,688.078L1527.24,684.938L1528.096,681.938L1528.71,679.629L1529.278,677.235L1529.571,674.641L1530.317,671.808L1530.59,668.891L1531.063,665.392L1531.546,663.062L1532.02,660.11L1532.254,656.818L1532.43,654.044L1532.574,651.017L1532.672,648.479L1532.751,646.07L1532.559,643.437L1532.306,640.819L1532.012,638.196L1531.673,635.82L1531.599,632.441L1531.295,629.406L1531.215,627.168L1531.194,624.488L1531.184,621.838L1531.211,618.968L1531.246,616.278L1531.282,613.868L1531.334,610.979L1531.379,608.569L1531.435,605.71L1531.494,602.75L1531.549,600.041L1531.335,597.59L1531.336,594.95L1531.354,592.32L1531.11,589.431L1531.09,587.001L1531.113,583.581L1531.113,581.311L1531.152,578.421L1530.925,575.941L1530.916,573.341L1530.67,570.432L1530.63,567.752L1530.635,564.812L1530.64,562.082L1530.407,559.382L1530.388,556.952L1530.395,554.332L1530.404,551.712L1530.178,548.821L1529.903,546.125L1529.853,543.716L1529.826,541.086L1529.821,538.466L1529.582,535.847L1529.563,533.207L1529.298,530.831L1529.252,528.242L1529.248,525.632L1529.249,523.022L1529.013,520.392L1528.998,517.763L1528.735,515.387L1528.69,512.797L1528.686,510.187L1528.688,507.577L1528.716,504.948L1528.754,502.318L1529.063,499.686L1529.688,497.317L1530.145,494.737L1530.098,492.128L1530.23,489.521L1530.595,486.896L1530.71,484.269L1529.62,475.91L1535.583,463.243L1536.737,447.104L1536.737,429.814L1536.622,425.896L1536.714,419.007L1536.721,411.357L1537.411,404.602L1537.559,398.333L1538.349,391.489L1539.282,384.672L1539.563,377.158L1540.483,370.138L1540.788,363.154L1541.661,356.159L1541.958,349.205L1542.827,342.269L1544.438,323.558L1541.172,293.354L1540.118,289.155L1539.415,285.115L1538.299,281.473L1537.494,277.483L1536.34,273.486L1535.511,269.083L1535.149,265.371L1534.473,260.538L1534.219,255.925L1534.064,251.708L1533.94,246.67L1533.875,242.75L1533.833,239.01L1533.806,234.93L1533.79,229.7L1533.78,225.84L1533.368,221.299L1533.283,216.64L1533.224,212.84L1533.162,208.721L1533.135,204.211L1533.118,200.081L1533.511,195.96L1533.585,192.24L1534.043,188.237L1534.588,183.81L1535.156,180.123L1536.18,175.301L1537.307,170.687L1538.097,166.074L1538.876,162.181L1539.224,157.634L1539.856,153.442L1540.096,149.729L1540.647,144.87L1540.844,141.076L1540.963,137.428L1541.061,133.399L1541.113,129.409L1541.144,124.599L1541.166,120.809L1540.772,116.326L1540.698,112.537L1540.24,108.513L1540.101,104.446L1539.615,99.61L1539.053,95.397L1538.878,91.231L1538.738,87.053L1538.637,83.355L1538.585,78.935L1538.144,75.231L1538.04,71.243L1537.97,67.203L1537.902,63.194L1537.871,59.154L1537.851,55.104L1537.837,51.054L1537.829,47.004L1537.824,42.944L1538.226,39.296L1539.116,35.325L1540.955,31.327L1542.264,27.738L1543.204,23.789L1544.113,17.777z"></path><path d="M485.62,43.1L1008.62,43.1L1010.111,65.731L1008.143,86.588L1004.436,107.421L1004.194,113.676L1002.489,123.256L1001.684,134.146L998.13,144.133L996.066,153.385L993.062,163.561L989.733,174.798L988.503,184.208L986.51,194.487L985.588,204.866L986.056,215.185L986.822,226.63L986.873,236.21L986.938,246.559L986.963,256.989L986.911,267.329L986.842,277.739L986.746,289.209L986.657,298.798L987.575,311.264L987.683,321.084L988.762,331.528L989.023,341.065L989.115,352.304L989.2,362.814L989.195,372.214L989.143,382.534L990.115,392.858L990.235,403.157L990.283,413.547L990.333,423.947L990.292,434.357L990.224,444.777L990.144,455.207L990.05,465.636L989.948,476.066L988.809,485.447L986.405,495.647L984.689,505.915L982.879,516.177L982.036,526.542L981.447,536.926L980.995,547.326L981.026,552.066L980.784,556.79L980.089,562.669L980.096,564.089L979.955,566.374L979.561,568.732L979.397,570.986L979.214,573.79L979.061,575.994L978.936,578.121L978.78,580.936L978.661,583.113L978.524,585.69L978.409,587.887L978.264,590.693L978.149,592.91L978.039,595.037L977.659,597.841L977.239,600.478L977.034,602.91L976.853,605.122L976.669,607.726L976.521,610.131L976.631,612.288L976.759,615.115L976.908,618.272L976.901,620.582L977.078,623.306L977.056,625.816L976.984,628.475L977.149,630.96L977.1,633.389L977.039,635.568L976.966,637.907L976.844,640.724L976.721,643.392L976.617,645.619L976.511,647.797L976.371,650.613L976.261,652.8L975.905,655.144L975.749,657.288L975.328,660.278L974.884,662.728L974.44,664.904L973.957,667.285L973.687,669.871L973.456,672.501L973.013,675.164L972.566,677.624L972.337,680.063L971.881,682.704L971.39,685.593L970.916,688.078L970.654,690.544L970.21,692.74L969.726,695.315L969.227,698.171L968.974,700.397L968.493,703.257L968.001,705.983L967.756,708.451L967.55,710.681L967.362,713.064L966.983,715.18L966.559,717.471L966.11,719.778L965.631,722.089L964.914,724.169L964.371,726.445L963.834,728.743L963.293,731.04L962.78,733.128L962.026,735.396L961.462,737.687L960.926,739.749L960.378,742.024L880.236,746.182L500.996,746.182L500.262,512.603L499.366,502.362L499.655,492.126L500.099,481.926L500.813,471.811L502.512,461.692L504.219,451.707L506.672,442.447L507.91,432.252L508.968,422.831L509.744,411.588L509.352,401.475L508.822,391.359L508.098,381.325L506.369,372.187L504.656,361.94L502.981,351.777L501.426,342.405L499.889,331.27L498.477,321.158L498.025,311.119L496.677,301.917L495.501,291.714L495.255,281.587L495.002,271.461L494.658,261.396L493.457,252.164L493.215,241.907L492.829,231.664L492.305,221.428L491.598,211.222L489.893,201.115L488.178,190.999L486.645,180.946L485.234,171.723L483.255,161.513L483.407,151.254L483.73,141.089L484.272,131.204L485.006,120.469L486.827,111.003L489.355,104.82L490.934,84.25L492.514,63.681z"></path><path d="M1312.8,760.49L1737.04,760.49L1734.304,787.904L1731.397,808.48L1730.243,830.73L1730.046,836.546L1729.703,846.09L1729.652,856.95L1729.741,866.81L1730.897,876.944L1731.286,887.196L1731.666,898.42L1732.024,907.823L1732.326,917.999L1731.588,928.272L1731.659,938.432L1730.733,947.656L1729.661,959.768L1728.464,969.283L1726.153,980.549L1725.618,991.115L1724.262,1000.457L1723.886,1011.681L1722.723,1021.069L1722.471,1031.146L1722.42,1041.376L1722.421,1051.516L1722.544,1061.725L1722.717,1071.954L1722.943,1083.212L1723.171,1093.659L1722.36,1103.044L1721.372,1113.266L1719.219,1123.492L1715.661,1132.699L1714.376,1140.402L1712.212,1147.437L1710.047,1153.935L1710.047,1156.475L1709.288,1160.291L1708.92,1163.58L1708.446,1167.149L1707.914,1170.193L1707.723,1173.117L1707.584,1176.964L1707.483,1180.282L1707.431,1183.242L1707.396,1186.822L1707.374,1190.112L1707.686,1193.377L1707.743,1196.986L1707.783,1200.636L1707.828,1203.676L1707.847,1207.286L1707.859,1210.946L1707.868,1215.596L1707.873,1219.206L1707.876,1222.056L1707.878,1225.076L1707.554,1229.574L1707.166,1232.68L1707.055,1236.648L1706.637,1240.154L1706.504,1243.191L1706.1,1247.793L1705.964,1252.941L1705.883,1255.71L1705.812,1259.509L1705.776,1263.339L1706.079,1267.037L1706.129,1270.166L1706.49,1273.819L1706.597,1277.177L1706.984,1280.796L1707.434,1285.475L1707.573,1289.052L1708.009,1293.842L1708.48,1297.905L1708.957,1301.826L1709.143,1305.441L1709.6,1309.566L1710.083,1313.093L1710.244,1316.199L1710.37,1319.857L1711.109,1323.849L1711.285,1326.623L1711.407,1329.891L1711.523,1333.819L1711.576,1337.159L1711.935,1340.168L1712.023,1344.747L1712.407,1347.924L1712.854,1351.264L1712.99,1354.981L1713.425,1358.323L1713.569,1361.32L1713.981,1365.871L1714.446,1369.693L1714.919,1373.161L1715.102,1375.995L1715.557,1379.889L1715.714,1382.924L1715.809,1386.473L1716.214,1390.151L1716.645,1393.17L1716.781,1396.117L1716.892,1399.645L1716.971,1403.225L1717.011,1406.534L1717.038,1410.834L1716.731,1414.331L1716.352,1417.74L1716.248,1421.148L1715.834,1424.795L1715.702,1428.152L1715.299,1432.453L1714.839,1435.64L1714.044,1440.617L1713.799,1443.657L1712.975,1447.028L1712.381,1451.105L1711.505,1454.514L1710.862,1457.894L1710.263,1461.585L1709.666,1464.627L1709.098,1467.888L1708.865,1470.839L1708.377,1474.012L1707.875,1477.213L1707.377,1480.738L1707.179,1483.701L1707.039,1486.918L1706.941,1490.487L1706.888,1493.446L1706.854,1496.666L1706.832,1499.906L1706.819,1503.116L1706.811,1506.676L1706.806,1509.656L1270.209,1513.085L1269.749,1506.441L1268.605,1499.809L1267.442,1493.261L1266.224,1487.203L1265.01,1480.573L1263.719,1474.427L1261.962,1467.094L1260.847,1460.965L1259.259,1454.137L1258.959,1447.284L1257.997,1440.34L1257.111,1433.296L1256.852,1426.231L1255.957,1418.553L1255.205,1410.528L1255.089,1403.849L1254.436,1397.201L1254.463,1391.041L1254.504,1384.261L1254.557,1377.421L1254.639,1370.032L1254.785,1363.873L1254.946,1357.005L1255.214,1349.6L1256.025,1342.929L1256.216,1336.282L1257.004,1329.558L1257.11,1323.419L1257.257,1317.111L1257.949,1309.04L1257.962,1302.17L1257.975,1295.85L1257.989,1289.29L1258.009,1280.4L1258.028,1273.05L1258.05,1266.36L1258.079,1259.66L1258.118,1253.55L1258.173,1246.751L1258.252,1239.311L1258.402,1233.093L1258.565,1226.715L1258.808,1218.479L1259.675,1211.109L1259.902,1204.964L1260.271,1197.573L1261.275,1190.847L1261.736,1184.665L1262.876,1177.728L1264.017,1170.315L1265.157,1163.581L1266.299,1156.29L1267.44,1150.267L1268.581,1144.122L1269.732,1136.7L1270.879,1130.018L1272.031,1123.855L1273.229,1116.532L1274.366,1109.889L1275.543,1103.303L1277.221,1097.283L1277.715,1090.641L1278.809,1084.001L1279.928,1077.455L1281.475,1071.472L1281.799,1064.69L1282.733,1058.561L1283.052,1052.179L1284.032,1043.534L1284.933,1037.471L1285.201,1030.776L1286.065,1024.021L1286.848,1017.317L1286.945,1011.127L1287.08,1003.769L1287.744,997.031L1287.722,990.401L1287.68,984.252L1287.576,976.882L1287.467,970.763L1287.307,963.945L1286.562,956.663L1286.477,950.194L1286.367,943.645L1285.883,937.674L1285.666,932.599L1285.692,917.949L1287.972,903.305L1288.035,887.525z"></path><path d="M-245.6500000000001,778.04L-243.663,761.479L253.337,761.479L252.29199999999992,778.266L251.24800000000005,795.054L250.0970000000002,800.104L248.89100000000008,807.841L246.8420000000001,815.801L246.154,829.424L245.18600000000015,845.856L244.2199999999998,857.455L244.51099999999997,861.034L244.375,867.452L243.70100000000002,874.309L243.00199999999995,882.479L242.20100000000002,887.759L241.32400000000007,894.956L240.41899999999987,900.056L239.48999999999978,906.388L239.125,912.367L237.71000000000004,918.762L237.29700000000003,924.748L236.45699999999988,930.659L235.52700000000004,935.978L234.05600000000004,942.289L233.0039999999999,947.575L232.55499999999984,955.012L232.2130000000002,960.561L231.99400000000014,967.007L231.29100000000017,973.077L231.09400000000005,978.393L230.9630000000002,984.182L230.8470000000002,989.96L230.78999999999996,995.71L230.7539999999999,1002.66L230.1500000000001,1008.68L229.43899999999985,1017.531L228.654,1022.914L227.78499999999985,1028.962L227.46099999999979,1035.654L226.07000000000016,1042.198L225.67299999999977,1048.255L224.8420000000001,1053.692L223.91699999999992,1058.941L223.029,1064.622L222.0970000000002,1070.883L221.72899999999981,1076.13L220.89300000000003,1081.85L220.01699999999983,1088.199L219.721,1093.471L218.9119999999998,1100.947L218.63200000000006,1105.93L218.4659999999999,1111.677L218.32299999999987,1117.555L218.25,1124.445L217.625,1130.463L216.8989999999999,1138.741L216.683,1145.167L216.5050000000001,1152.525L215.79500000000007,1158.362L215.03499999999985,1164.384L214.79399999999987,1169.809L214.59799999999996,1176.136L214.45899999999983,1181.444L213.8090000000002,1187.157L213.64499999999998,1192.945L212.95200000000023,1199.267L212.15200000000004,1205.163L211.32700000000023,1211.61L210.433,1217.604L210.0920000000001,1223.514L209.85199999999986,1228.839L209.0999999999999,1235.154L208.3119999999999,1241.596L208.05499999999984,1247.531L207.26999999999998,1254.054L207.0079999999998,1260.078L206.27199999999993,1266.002L204.85899999999992,1271.926L203.89600000000019,1277.209L203.48999999999978,1282.925L202.2739999999999,1288.125L202.0329999999999,1296.101L201.41499999999996,1304.137L200.17799999999988,1312.173L201.22800000000007,1314.951L201.25300000000016,1318.601L201.23900000000003,1322.641L201.34400000000005,1326.319L200.625,1329.673L200.86099999999988,1333.345L201.21799999999985,1337.38L201.24099999999999,1341.49L201.3040000000001,1345.679L200.61299999999983,1349.558L200.11200000000008,1354.131L199.20699999999988,1358.078L198.16499999999996,1361.566L197.07299999999987,1364.975L195.91899999999987,1368.993L195.10300000000007,1372.715L194.7159999999999,1376.796L194.4409999999998,1380.245L194.26600000000008,1384.311L194.16400000000021,1387.73L194.09900000000016,1392.13L194.058,1396.359L194.0340000000001,1400.209L194.01800000000003,1404.439L194.00900000000001,1408.319L193.63099999999986,1412.131L193.5540000000001,1415.93L193.1289999999999,1419.686L192.99800000000005,1423.794L192.55099999999993,1427.225L192.4050000000002,1432.032L192.31899999999996,1435.601L192.24299999999994,1438.991L192.20400000000018,1442.73L191.8090000000002,1446.771L191.34799999999996,1450.885L190.8420000000001,1455.085L190.654,1458.6L190.1489999999999,1461.992L189.60800000000017,1466.036L189.0590000000002,1469.392L188.84400000000005,1473.406L188.692,1476.803L188.58599999999979,1480.441L188.52700000000004,1484.141L188.48999999999978,1488.181L188.0949999999998,1491.578L188.00700000000006,1495.257L187.9459999999999,1498.966L187.88599999999997,1502.636L187.48799999999983,1506.334L187.39600000000019,1510.033L186.96099999999979,1513.365L186.9119999999998,1514.684L186.82299999999987,1514.779L170.49299999999994,1514.779L128.12199999999984,1515.645L-236.87799999999993,1515.645L-322.22800000000007,1512.709L-324.097,1505.694L-325.048,1497.891L-325.75299999999993,1490.093L-325.6389999999999,1482.304L-325.37799999999993,1474.588L-324.443,1466.865L-324.126,1459.201L-323.05899999999997,1452.172L-322.61799999999994,1444.384L-321.384,1436.662L-320.13300000000004,1428.943L-318.81500000000005,1421.286L-317.4960000000001,1414.309L-316.1410000000001,1406.587L-314.16200000000003,1398.805L-312.9659999999999,1391.604L-311.78099999999995,1384.279L-310.625,1375.484L-309.491,1366.183L-308.3910000000001,1359.118L-307.2850000000001,1351.791L-306.2370000000001,1343.054L-305.80500000000006,1335.116L-304.5830000000001,1326.542L-303.297,1318.636L-302.058,1311.29L-300.7539999999999,1303.722L-298.865,1294.034L-298.297,1284.741L-296.903,1277.016L-295.37799999999993,1269.346L-293.15599999999995,1262.298L-291.6869999999999,1254.546L-289.54600000000005,1246.776L-287.5619999999999,1239.015L-286.35300000000007,1231.968L-285.1569999999999,1224.099L-283.971,1215.702L-282.77,1208.654L-281.58500000000004,1200.934L-280.404,1193.771L-279.2560000000001,1185.177L-278.11300000000006,1178.008L-277.058,1170.057L-276.01800000000003,1161.44L-275.038,1153.53L-274.75199999999995,1146.286L-273.6969999999999,1138.205L-272.72399999999993,1128.815L-272.422,1121.071L-271.31999999999994,1113.966L-270.28600000000006,1105.489L-269.876,1097.739L-268.6389999999999,1090.738L-267.46000000000004,1083.483L-266.37699999999995,1074.246L-264.7449999999999,1067.254L-264.0640000000001,1059.464L-264.16599999999994,1051.674L-264.25700000000006,1044.515L-264.356,1036.536L-264.4580000000001,1027.936L-264.53999999999996,1020.137L-264.605,1012.397L-264.6489999999999,1004.637L-264.6569999999999,996.917L-264.56899999999996,989.758L-264.4549999999999,981.828L-264.19499999999994,973.863L-263.27,965.323L-262.951,957.549L-261.88599999999997,949.752L-261.43000000000006,942.646L-260.1869999999999,934.672L-258.8889999999999,925.999L-257.5830000000001,918.766L-256.2460000000001,910.726L-254.31500000000005,901.435L-253.16000000000008,893.772L-252.0229999999999,886.794L-250.98000000000002,879.064L-249.9559999999999,871.291L-249.00900000000001,864.083L-248.79099999999994,856.736L-247.8510000000001,847.896L-247.0709999999999,838.649L-247.01600000000008,831.269L-246.32600000000002,823.73L-246.3219999999999,816.33L-246.51099999999997,812.025L-246.74199999999996,795.036z"></path><path d="M1792.35,778.04L1794.337,761.479L2291.337,761.479L2290.292,778.266L2289.248,795.054L2288.097,800.104L2286.891,807.841L2284.842,815.801L2284.154,829.424L2283.186,845.856L2282.22,857.455L2282.511,861.034L2282.375,867.452L2281.701,874.309L2281.002,882.479L2280.201,887.759L2279.324,894.956L2278.419,900.056L2277.49,906.388L2277.125,912.367L2275.71,918.762L2275.297,924.748L2274.457,930.659L2273.527,935.978L2272.056,942.289L2271.004,947.575L2270.555,955.012L2270.213,960.561L2269.994,967.007L2269.291,973.077L2269.094,978.393L2268.963,984.182L2268.847,989.96L2268.79,995.71L2268.754,1002.66L2268.15,1008.68L2267.439,1017.531L2266.654,1022.914L2265.785,1028.962L2265.461,1035.654L2264.07,1042.198L2263.673,1048.255L2262.842,1053.692L2261.917,1058.941L2261.029,1064.622L2260.097,1070.883L2259.729,1076.13L2258.893,1081.85L2258.017,1088.199L2257.721,1093.471L2256.912,1100.947L2256.632,1105.93L2256.466,1111.677L2256.323,1117.555L2256.25,1124.445L2255.625,1130.463L2254.899,1138.741L2254.683,1145.167L2254.505,1152.525L2253.795,1158.362L2253.035,1164.384L2252.794,1169.809L2252.598,1176.136L2252.459,1181.444L2251.809,1187.157L2251.645,1192.945L2250.952,1199.267L2250.152,1205.163L2249.327,1211.61L2248.433,1217.604L2248.092,1223.514L2247.852,1228.839L2247.1,1235.154L2246.312,1241.596L2246.055,1247.531L2245.27,1254.054L2245.008,1260.078L2244.272,1266.002L2242.859,1271.926L2241.896,1277.209L2241.49,1282.925L2240.274,1288.125L2240.033,1296.101L2239.415,1304.137L2238.178,1312.173L2239.228,1314.951L2239.253,1318.601L2239.239,1322.641L2239.344,1326.319L2238.625,1329.673L2238.861,1333.345L2239.218,1337.38L2239.241,1341.49L2239.304,1345.679L2238.613,1349.558L2238.112,1354.131L2237.207,1358.078L2236.165,1361.566L2235.073,1364.975L2233.919,1368.993L2233.103,1372.715L2232.716,1376.796L2232.441,1380.245L2232.266,1384.311L2232.164,1387.73L2232.099,1392.13L2232.058,1396.359L2232.034,1400.209L2232.018,1404.439L2232.009,1408.319L2231.631,1412.131L2231.554,1415.93L2231.129,1419.686L2230.998,1423.794L2230.551,1427.225L2230.405,1432.032L2230.319,1435.601L2230.243,1438.991L2230.204,1442.73L2229.809,1446.771L2229.348,1450.885L2228.842,1455.085L2228.654,1458.6L2228.149,1461.992L2227.608,1466.036L2227.059,1469.392L2226.844,1473.406L2226.692,1476.803L2226.586,1480.441L2226.527,1484.141L2226.49,1488.181L2226.095,1491.578L2226.007,1495.257L2225.946,1498.966L2225.886,1502.636L2225.488,1506.334L2225.396,1510.033L2224.961,1513.365L2224.912,1514.684L2224.823,1514.779L2208.493,1514.779L2166.122,1515.645L1801.122,1515.645L1715.772,1512.709L1713.903,1505.694L1712.952,1497.891L1712.247,1490.093L1712.361,1482.304L1712.622,1474.588L1713.557,1466.865L1713.874,1459.201L1714.941,1452.172L1715.382,1444.384L1716.616,1436.662L1717.867,1428.943L1719.185,1421.286L1720.504,1414.309L1721.859,1406.587L1723.838,1398.805L1725.034,1391.604L1726.219,1384.279L1727.375,1375.484L1728.509,1366.183L1729.609,1359.118L1730.715,1351.791L1731.763,1343.054L1732.195,1335.116L1733.417,1326.542L1734.703,1318.636L1735.942,1311.29L1737.246,1303.722L1739.135,1294.034L1739.703,1284.741L1741.097,1277.016L1742.622,1269.346L1744.844,1262.298L1746.313,1254.546L1748.454,1246.776L1750.438,1239.015L1751.647,1231.968L1752.843,1224.099L1754.029,1215.702L1755.23,1208.654L1756.415,1200.934L1757.596,1193.771L1758.744,1185.177L1759.887,1178.008L1760.942,1170.057L1761.982,1161.44L1762.962,1153.53L1763.248,1146.286L1764.303,1138.205L1765.276,1128.815L1765.578,1121.071L1766.68,1113.966L1767.714,1105.489L1768.124,1097.739L1769.361,1090.738L1770.54,1083.483L1771.623,1074.246L1773.255,1067.254L1773.936,1059.464L1773.834,1051.674L1773.743,1044.515L1773.644,1036.536L1773.542,1027.936L1773.46,1020.137L1773.395,1012.397L1773.351,1004.637L1773.343,996.917L1773.431,989.758L1773.545,981.828L1773.805,973.863L1774.73,965.323L1775.049,957.549L1776.114,949.752L1776.57,942.646L1777.813,934.672L1779.111,925.999L1780.417,918.766L1781.754,910.726L1783.685,901.435L1784.84,893.772L1785.977,886.794L1787.02,879.064L1788.044,871.291L1788.991,864.083L1789.209,856.736L1790.149,847.896L1790.929,838.649L1790.984,831.269L1791.674,823.73L1791.678,816.33L1791.489,812.025L1791.258,795.036z"></path><path d="M746.94,752.16L1219.78,752.16L1220.343,760.25L1221.737,767.721L1223.178,775.479L1224.577,784.025L1225.973,793.331L1227.907,803.081L1228.895,810.505L1229.715,818.705L1229.703,826.965L1229.685,835.165L1229.652,842.744L1229.604,851.744L1229.529,859.944L1229.374,868.163L1229.208,875.651L1228.925,884.046L1227.99,893.188L1227.837,900.747L1227.029,909.208L1227.065,919.088L1227.117,926.528L1227.199,934.278L1227.368,944.206L1227.558,951.764L1227.835,960.459L1228.879,969.771L1229.178,977.245L1229.556,988.469L1230.741,997.441L1231.786,1007.678L1232.153,1017.2L1233.256,1027.24L1233.596,1034.312L1234.722,1044.49L1235.679,1054.343L1235.867,1061.801L1236.733,1070.156L1236.79,1079.176L1236.881,1086.646L1237.061,1095.054L1237.269,1104.001L1237.616,1111.533L1238.654,1120.514L1239.004,1127.985L1240.047,1136.492L1240.407,1144.924L1241.459,1152.774L1241.838,1163.467L1242.963,1171.69L1243.331,1179.242L1244.499,1187.671L1245.565,1196.749L1245.847,1204.934L1246.84,1213.184L1247.666,1221.363L1247.665,1228.873L1247.662,1237.883L1247.657,1246.023L1247.651,1253.563L1247.641,1261.913L1247.622,1270.243L1247.597,1279.202L1247.558,1287.432L1247.458,1294.932L1247.382,1302.651L1247.274,1312.601L1246.538,1320.848L1246.719,1328.526L1246.93,1337.623L1247.277,1345.946L1248.312,1354.846L1248.698,1362.336L1249.716,1370.664L1249.986,1378.37L1251.542,1387.549L1251.352,1396.627L1251.126,1404.814L1250.749,1412.334L1249.668,1421.319L1249.249,1429.539L1248.065,1437.167L1247.556,1445.001L1246.242,1454.42L1245.005,1464.282L1243.778,1472.532L1242.618,1480.861L1242.149,1488.417L1240.944,1497.013L1239.762,1506.953L779.052,1506.953z"></path><path d="M288.21,754.98L292.398,774.598L286.806,794.165L286.763,793.616L286.634,792.736L286.508,791.855L286.398,791.052L286.361,790.153L286.241,789.18L286.211,788.301L286.11,787.427L285.961,786.559L286.012,785.691L286.138,784.891L286.195,784.073L286.398,783.145L286.446,782.156L286.565,781.243L286.61,780.194L286.806,779.316L286.827,778.506L286.858,777.667L286.968,776.673L287.005,775.694L287.06,774.735L287.144,773.879L287.329,773.019L287.523,772.243L287.793,771.5L288.113,770.448L288.309,769.641L288.399,768.676L288.458,767.848L288.418,766.939L288.356,766.001L288.212,764.87L288.074,764.051L287.88,763.111L287.79,762.306L287.778,761.216L287.793,760.696L287.793,758.926L287.646,757.012z"></path></svg>