<svg width="5000" height="1000" version="1.2" xmlns="http://www.w3.org/2000/svg" viewBox="0 0 5000 1000"><style type="text/css">path {stroke-width: 1; vector-effect: non-scaling-stroke; fill:none; stroke: #000; stroke-linecap: round; stroke-linejoin: miter;}</style><path d="M2000,500L2073.39,500L2500,500L2567,500L4000,500L4000,1000L3573.39,1000L3500,1000L2067,1000L2000,1000z"></path><path d="M2500,0L4500,0L4500,500L4073.39,500L4000,500L2567,500L2500,500z"></path><path d="M4000,500L4073.39,500L4500,500L5000,500L5000,1000L4573.39,1000L4000,1000z"></path><path d="M-500,0L500,0L500,500L73.39000000000033,500L0,500L-500,500z"></path><path d="M4500,0L5500,0L5500,500L5073.39,500L5000,500L4500,500z"></path><path d="M500,0L2500,0L2500,500L2073.39,500L2000,500L567,500L500,500z"></path><path d="M0,500L73.39,500L500,500L567,500L2000,500L2000,1000L1573.39,1000L1500,1000L67,1000L0,1000z"></path></svg>