<svg width="4203" height="2426" version="1.2" xmlns="http://www.w3.org/2000/svg" viewBox="0 0 4203 2426"><style type="text/css">path {stroke-width: 1; vector-effect: non-scaling-stroke; fill:none; stroke: #000; stroke-linecap: round; stroke-linejoin: miter;}</style><path d="M350.22,607.0300000000002L1050.67,607.0300000000002L700.445,1213.638z"></path><path d="M1751.12,607.0300000000002L2101.345,1213.638L1400.895,1213.638z"></path><path d="M1400.9,0.42000000000007276L1751.125,607.027L1400.9,1213.6350000000002L1050.675,607.027z"></path><path d="M2451.57,-606.1800000000001L2801.795,0.4270000000001346L2101.345,0.4270000000001346z"></path><path d="M2451.57,1819.82L2801.795,2426.427L2101.345,2426.427z"></path><path d="M2101.34,1213.21L2451.565,1819.817L1751.115,1819.817z"></path><path d="M700.45,0.42000000000007276L1400.9,0.42000000000007276L1050.675,607.027L350.225,607.027z"></path><path d="M700.45,1213.21L1050.675,1819.817L350.225,1819.817z"></path><path d="M1050.67,607.0300000000002L1400.895,1213.638L700.445,1213.638z"></path><path d="M1751.12,-606.1800000000001L2451.57,-606.1800000000001L2101.345,0.4270000000001346L1400.895,0.4270000000001346z"></path><path d="M1751.12,1819.82L2451.57,1819.82L2101.345,2426.427L1400.895,2426.427z"></path><path d="M0,0.42000000000007276L700.45,0.42000000000007276L350.225,607.027z"></path><path d="M1400.9,0.42000000000007276L2101.35,0.42000000000007276L2451.575,607.027L1751.125,607.027z"></path><path d="M2101.34,0.42000000000007276L2801.79,0.42000000000007276L2451.565,607.027z"></path><path d="M350.22,-606.1800000000001L700.445,0.4270000000001346L-0.005,0.4270000000001346z"></path><path d="M4553.22,-606.1800000000001L4903.445,0.4270000000001346L4202.995,0.4270000000001346z"></path><path d="M350.22,1819.82L700.445,2426.427L-0.005,2426.427z"></path><path d="M4553.22,1819.82L4903.445,2426.427L4202.995,2426.427z"></path><path d="M1400.9,-1212.79L1751.125,-606.183L1400.9,0.4250000000001819L1050.675,-606.183z"></path><path d="M1400.9,1213.21L1751.125,1819.817L1400.9,2426.425L1050.675,1819.817z"></path><path d="M1751.12,607.0300000000002L2451.57,607.0300000000002L2101.345,1213.638z"></path><path d="M350.22,-606.1800000000001L1050.67,-606.1800000000001L1400.895,0.4270000000001346L700.445,0.4270000000001346z"></path><path d="M350.22,1819.82L1050.67,1819.82L1400.895,2426.427L700.445,2426.427z"></path><path d="M700.45,1213.21L1400.9,1213.21L1050.675,1819.817z"></path><path d="M1400.9,1213.21L2101.35,1213.21L1751.125,1819.817z"></path><path d="M2451.57,-606.1800000000001L3152.02,-606.1800000000001L2801.795,0.4270000000001346z"></path><path d="M2451.57,1819.82L3152.02,1819.82L2801.795,2426.427z"></path><path d="M3852.47,-606.1800000000001L4202.695,0.4270000000001346L3502.245,0.4270000000001346z"></path><path d="M3852.47,1819.82L4202.695,2426.427L3502.245,2426.427z"></path><path d="M3502.24,-1212.79L3852.465,-606.183L3502.24,0.4250000000001819L3152.015,-606.183z"></path><path d="M3502.24,1213.21L3852.465,1819.817L3502.24,2426.425L3152.015,1819.817z"></path><path d="M349.90999999999985,606.61L700.1350000000002,1213.217L-0.3149999999995998,1213.217z"></path><path d="M4552.91,606.61L4903.135,1213.217L4202.685,1213.217z"></path><path d="M-0.3100000000004002,0L349.91499999999996,606.608L-350.53499999999985,606.608z"></path><path d="M4202.69,0L4552.915,606.608L3852.465,606.608z"></path><path d="M2801.79,1213.21L3502.24,1213.21L3152.015,1819.817L2451.565,1819.817z"></path><path d="M2801.79,0L3152.015,606.608L2451.565,606.608z"></path><path d="M3152.02,-606.1800000000001L3502.245,0.4270000000001346L2801.795,0.4270000000001346z"></path><path d="M3152.02,1819.82L3502.245,2426.427L2801.795,2426.427z"></path><path d="M-350.5300000000002,606.61L349.9200000000001,606.61L-0.30500000000029104,1213.217L-700.7550000000001,1213.217z"></path><path d="M3852.47,606.61L4552.92,606.61L4202.695,1213.217L3502.245,1213.217z"></path><path d="M2101.34,1213.21L2801.79,1213.21L2451.565,1819.817z"></path><path d="M-700.7600000000002,1213.21L-0.3100000000004002,1213.21L349.91499999999996,1819.817L-350.53499999999985,1819.817z"></path><path d="M3502.24,1213.21L4202.69,1213.21L4552.915,1819.817L3852.465,1819.817z"></path><path d="M-0.3100000000004002,1213.21L700.1400000000003,1213.21L349.91499999999996,1819.817z"></path><path d="M4202.69,1213.21L4903.14,1213.21L4552.915,1819.817z"></path><path d="M2451.57,606.61L2801.795,1213.217L2101.345,1213.217z"></path><path d="M3502.24,0L3852.465,606.608L3502.24,1213.215L3152.015,606.608z"></path><path d="M-350.5300000000002,-606.1800000000001L349.9200000000001,-606.1800000000001L-0.30500000000029104,0.4270000000001346z"></path><path d="M3852.47,-606.1800000000001L4552.92,-606.1800000000001L4202.695,0.4270000000001346z"></path><path d="M-350.5300000000002,1819.82L349.9200000000001,1819.82L-0.30500000000029104,2426.427z"></path><path d="M3852.47,1819.82L4552.92,1819.82L4202.695,2426.427z"></path><path d="M2451.57,606.61L3152.02,606.61L3502.245,1213.217L2801.795,1213.217z"></path><path d="M2801.79,0L3502.24,0L3152.015,606.608z"></path><path d="M3502.24,0L4202.69,0L3852.465,606.608z"></path></svg>