<svg width="700" height="500" version="1.2" xmlns="http://www.w3.org/2000/svg" viewBox="0 0 700 500"><style type="text/css">.thumb-shape {stroke-width: 1; vector-effect: non-scaling-stroke; fill:none; stroke: #000; stroke-linecap: round; stroke-linejoin: miter;}</style><path d="M-137.3,149L212.7,149L212.7,249L-137.3,249z" class="thumb-shape"></path><path d="M299.8,-51L649.8,-51L649.8,49L299.8,49z" class="thumb-shape"></path><path d="M-204.8,249L145.2,249L145.2,349L-204.8,349z" class="thumb-shape"></path><path d="M212.7,149L562.7,149L562.7,249L212.7,249z" class="thumb-shape"></path><path d="M145.2,249L495.2,249L495.2,349L145.2,349z" class="thumb-shape"></path><path d="M59,49L409,49L409,149L59,149z" class="thumb-shape"></path><path d="M-291,49L59,49L59,149L-291,149z" class="thumb-shape"></path><path d="M-50.2,-51L299.8,-51L299.8,49L-50.2,49z" class="thumb-shape"></path><path d="M-265.6,349L84.4,349L84.4,449L-265.6,449z" class="thumb-shape"></path><path d="M84.4,349L434.4,349L434.4,449L84.4,449z" class="thumb-shape"></path><path d="M562.7,149L912.7,149L912.7,249L562.7,249z" class="thumb-shape"></path><path d="M299.8,449L649.8,449L649.8,549L299.8,549z" class="thumb-shape"></path><path d="M495.2,249L845.2,249L845.2,349L495.2,349z" class="thumb-shape"></path><path d="M409,49L759,49L759,149L409,149z" class="thumb-shape"></path><path d="M649.8,-51L999.8,-51L999.8,49L649.8,49z" class="thumb-shape"></path><path d="M-50.2,449L299.8,449L299.8,549L-50.2,549z" class="thumb-shape"></path><path d="M649.8,449L999.8,449L999.8,549L649.8,549z" class="thumb-shape"></path><path d="M434.4,349L784.4,349L784.4,449L434.4,449z" class="thumb-shape"></path></svg>