<svg width="400" height="693" version="1.2" xmlns="http://www.w3.org/2000/svg" viewBox="0 0 400 693"><style type="text/css">.thumb-shape {stroke-width: 1; vector-effect: non-scaling-stroke; fill:none; stroke: #000; stroke-linecap: round; stroke-linejoin: round;}</style><path d="M-51,-50L149,296.4L-251,296.4z" class="thumb-shape"></path><path d="M-51,-50L349,-50L149,296.4z" class="thumb-shape"></path><path d="M-51,296.4L349,296.4L149,642.8z" class="thumb-shape"></path><path d="M-51,296.4L149,642.8L-251,642.8z" class="thumb-shape"></path><path d="M349,-50L549,296.4L149,296.4z" class="thumb-shape"></path><path d="M-51,643L149,989.4L-251,989.4z" class="thumb-shape"></path><path d="M349,643L549,989.4L149,989.4z" class="thumb-shape"></path><path d="M349,-50L749,-50L549,296.4z" class="thumb-shape"></path><path d="M-51,643L349,643L149,989.4z" class="thumb-shape"></path><path d="M349,643L749,643L549,989.4z" class="thumb-shape"></path><path d="M349,296.4L749,296.4L549,642.8z" class="thumb-shape"></path><path d="M349,296.4L549,642.8L149,642.8z" class="thumb-shape"></path></svg>