<svg width="2607" height="1894" version="1.2" xmlns="http://www.w3.org/2000/svg" viewBox="0 0 2607 1894"><style type="text/css">path {stroke-width: 1; vector-effect: non-scaling-stroke; fill:none; stroke: #000; stroke-linecap: round; stroke-linejoin: miter;}</style><path d="M2050.7,766.31L2360.108,767.498L2396.186,877.103L2299.695,947.208L2217.191,887.266z"></path><path d="M-246.9000000000001,767.5L-129.79100000000017,767.95L-94.0300000000002,656.433L0.4490000000000691,725.632L94.92799999999988,656.433L130.68899999999985,767.95L247.79799999999977,767.5L211.7199999999998,877.105L308.2109999999998,947.21L211.7199999999998,1017.315L247.79799999999977,1126.92L130.68899999999985,1126.47L94.92799999999988,1237.986L0.4490000000000691,1168.788L-94.0300000000002,1237.986L-129.79100000000017,1126.47L-246.9000000000001,1126.92L-210.8209999999999,1017.315L-307.3130000000001,947.21L-210.8209999999999,877.105z"></path><path d="M2360.1,767.5L2477.209,767.95L2512.97,656.433L2607.449,725.632L2701.928,656.433L2737.689,767.95L2854.798,767.5L2818.72,877.105L2915.211,947.21L2818.72,1017.315L2854.798,1126.92L2737.689,1126.47L2701.928,1237.986L2607.449,1168.788L2512.97,1237.986L2477.209,1126.47L2360.1,1126.92L2396.179,1017.315L2299.687,947.21L2396.179,877.105z"></path><path d="M59.23000000000002,180.9L249.44000000000005,180.9L403.32299999999987,292.703L344.5450000000001,473.603L94.92700000000013,656.43L70.40000000000009,579.946L0.4479999999998654,361.808z"></path><path d="M94.94000000000005,656.43L344.558,473.604L254.80099999999993,746.281L247.8159999999998,767.501L130.70600000000013,767.95z"></path><path d="M-187.4000000000001,136.49L0.45400000000017826,0.006L117.84999999999991,85.3L155.1619999999998,112.408L249.44500000000016,180.909L59.23500000000013,180.909L0.45699999999987995,361.809L-58.32099999999991,180.909L-248.53099999999995,180.909z"></path><path d="M2419.6,136.49L2607.454,0.006L2724.85,85.3L2762.162,112.408L2856.445,180.909L2666.235,180.909L2607.457,361.809L2548.679,180.909L2358.469,180.909z"></path><path d="M247.80999999999995,767.5L557.2179999999998,766.312L390.73,887.272L308.22699999999986,947.215L211.73500000000013,877.109z"></path><path d="M211.73000000000002,1017.32L308.221,947.215L462.92999999999984,1059.617L557.2130000000002,1128.118L247.80499999999984,1126.929z"></path><path d="M1386.23,887.27L1552.718,766.31L1742.928,766.31L1801.706,947.21L1742.928,1128.111L1552.718,1128.111L1458.435,1059.61L1421.123,1032.501L1303.726,947.208z"></path><path d="M249.44999999999982,180.9L439.65999999999985,180.9L498.4380000000001,0L557.2159999999999,180.9L747.4259999999999,180.9L593.5430000000001,292.703L652.3209999999999,473.603L498.4380000000001,361.8L344.55499999999984,473.603L403.3330000000001,292.703z"></path><path d="M0.4600000000000364,361.8L70.41300000000001,579.938L94.93899999999985,656.422L0.4600000000000364,725.621L-94.01899999999978,656.422z"></path><path d="M2607.46,361.8L2677.413,579.938L2701.939,656.422L2607.46,725.621L2512.981,656.422z"></path><path d="M-94.0300000000002,1238L0.4490000000000691,1168.801L94.92799999999988,1238L59.527000000000044,1348.393L0.4459999999999127,1532.631L-58.63599999999997,1348.393z"></path><path d="M2512.97,1238L2607.449,1168.801L2701.928,1238L2666.527,1348.393L2607.446,1532.631L2548.364,1348.393z"></path><path d="M652.3200000000002,473.61L806.203,585.413L960.0859999999998,473.61L901.308,654.51L1055.1909999999998,766.313L864.9810000000002,766.313L806.203,947.214L747.4250000000002,766.313L557.2150000000001,766.313L711.098,654.51z"></path><path d="M1551.08,179.71L1860.488,180.898L2014.371,292.701L1955.593,473.601L1801.71,585.404L1647.826,473.601L1558.069,200.924z"></path><path d="M-438.75,-180.47000000000003L-248.53999999999996,-180.47000000000003L-212.78999999999996,-154.4960000000001L0.45100000000002183,0.4329999999999927L-187.4029999999998,136.91599999999994L-248.53200000000015,181.32900000000018L-438.7420000000002,181.32900000000018L-497.52,0.4290000000000873z"></path><path d="M2168.25,-180.47000000000003L2358.46,-180.47000000000003L2394.21,-154.4960000000001L2607.451,0.4329999999999927L2419.597,136.91599999999994L2358.468,181.32900000000018L2168.258,181.32900000000018L2109.48,0.4290000000000873z"></path><path d="M-438.75,1713.53L-248.53999999999996,1713.53L-212.78999999999996,1739.504L0.45100000000002183,1894.433L-187.4029999999998,2030.916L-248.53200000000015,2075.329L-438.7420000000002,2075.329L-497.52,1894.429z"></path><path d="M2168.25,1713.53L2358.46,1713.53L2394.21,1739.504L2607.451,1894.433L2419.597,2030.916L2358.468,2075.329L2168.258,2075.329L2109.48,1894.429z"></path><path d="M2360.1,1126.93L2477.209,1126.48L2512.97,1237.997L2263.352,1420.823z"></path><path d="M1896.81,1239.92L2050.693,1128.117L2307.041,1127.133L2360.091,1126.929L2263.349,1420.827L2109.466,1532.629L1955.583,1420.827z"></path><path d="M-402.4200000000001,292.71L-248.5369999999998,180.907L-58.327000000000226,180.907L0.45100000000002183,361.808L-94.03099999999995,656.439L-218.83599999999979,565.029L-343.6410000000001,473.619z"></path><path d="M2204.58,292.71L2358.463,180.907L2548.673,180.907L2607.451,361.808L2512.969,656.439L2388.164,565.029L2263.359,473.619z"></path><path d="M1647.82,473.61L1801.703,585.413L1955.586,473.61L1896.808,654.51L2050.691,766.313L1860.481,766.313L1801.703,947.214L1742.925,766.313L1552.715,766.313L1706.598,654.51z"></path><path d="M1860.49,180.9L2050.7,180.9L2109.478,0L2168.256,180.9L2358.466,180.9L2204.583,292.703L2263.361,473.603L2109.478,361.8L1955.595,473.603L2014.373,292.703z"></path><path d="M1955.59,473.61L2109.473,361.807L2263.356,473.61L2353.113,746.287L2360.098,767.507L2050.691,766.319L1896.808,654.516z"></path><path d="M344.5500000000002,473.61L498.433,361.807L652.3159999999998,473.61L711.094,654.51L557.2109999999998,766.313L247.8040000000001,767.501L254.78900000000021,746.281z"></path><path d="M-248.5300000000002,-180.47000000000003L-58.320000000000164,-180.47000000000003L0.4580000000000837,-361.3699999999999L59.235999999999876,-180.47000000000003L249.4459999999999,-180.47000000000003L82.95899999999983,-59.50999999999999L0.45499999999992724,0.4329999999999927L-212.78600000000006,-154.4960000000001z"></path><path d="M2358.47,-180.47000000000003L2548.68,-180.47000000000003L2607.458,-361.3699999999999L2666.236,-180.47000000000003L2856.446,-180.47000000000003L2689.959,-59.50999999999999L2607.455,0.4329999999999927L2394.214,-154.4960000000001z"></path><path d="M-248.5300000000002,1713.53L-58.320000000000164,1713.53L0.4580000000000837,1532.63L59.235999999999876,1713.53L249.4459999999999,1713.53L82.95899999999983,1834.49L0.45499999999992724,1894.433L-212.78600000000006,1739.504z"></path><path d="M2358.47,1713.53L2548.68,1713.53L2607.458,1532.63L2666.236,1713.53L2856.446,1713.53L2689.959,1834.49L2607.455,1894.433L2394.214,1739.504z"></path><path d="M390.73,887.27L557.2179999999998,766.31L747.4279999999999,766.31L806.2060000000001,947.21L747.4279999999999,1128.111L557.2179999999998,1128.111L462.93499999999995,1059.61L308.2260000000001,947.208z"></path><path d="M-343.6399999999999,1420.82L-94.02199999999993,1237.994L-58.621000000000095,1348.386L0.4600000000000364,1532.625L-58.31800000000021,1713.525L-248.5279999999998,1713.525L-402.41100000000006,1601.723z"></path><path d="M2263.36,1420.82L2512.978,1237.994L2548.379,1348.386L2607.46,1532.625L2548.682,1713.525L2358.472,1713.525L2204.589,1601.723z"></path><path d="M130.69999999999982,1126.48L247.8090000000002,1126.93L254.79399999999987,1148.15L344.55099999999993,1420.827L209.49299999999994,1321.906L94.94200000000001,1238.006z"></path><path d="M2263.36,473.61L2388.165,565.02L2512.97,656.431L2477.209,767.947L2360.1,767.497L2353.115,746.277z"></path><path d="M2144.98,1059.62L2299.688,947.218L2396.18,1017.323L2360.101,1126.928L2307.052,1127.131L2050.703,1128.116z"></path><path d="M1860.49,766.31L2050.7,766.31L2217.188,887.27L2299.691,947.213L2144.983,1059.615L2050.7,1128.115L1860.49,1128.115L1801.712,947.215z"></path><path d="M900.85,1239.92L1054.733,1128.117L1244.943,1128.117L1303.721,1309.018L1209.239,1603.649L1084.434,1512.239L959.629,1420.829z"></path><path d="M593.09,293.1300000000001L746.973,181.32700000000023L1003.321,180.34299999999985L1056.371,180.13900000000012L959.629,474.03600000000006L805.746,585.8389999999999L651.862,474.03600000000006z"></path><path d="M651.86,1420.82L805.743,1309.017L959.626,1420.82L1049.383,1693.497L1056.368,1714.717L746.961,1713.529L593.078,1601.726z"></path><path d="M1433.97,179.69000000000005L1551.079,180.13999999999987L1558.064,201.36000000000013L1647.821,474.0369999999998L1512.763,375.116L1398.212,291.2159999999999z"></path><path d="M556.76,-180.47000000000003L746.97,-180.47000000000003L913.458,-59.50999999999999L995.961,0.4329999999999927L841.253,112.83500000000004L746.97,181.33500000000004L556.76,181.33500000000004L497.982,0.43499999999994543z"></path><path d="M556.76,1713.53L746.97,1713.53L913.458,1834.49L995.961,1894.433L841.253,2006.835L746.97,2075.335L556.76,2075.335L497.982,1894.435z"></path><path d="M746.97,-180.47000000000003L1056.378,-179.28199999999993L1092.456,-69.67699999999991L995.965,0.42800000000011096L913.461,-59.513999999999896z"></path><path d="M746.97,1713.53L1056.378,1714.718L1092.456,1824.323L995.965,1894.428L913.461,1834.486z"></path><path d="M959.63,474.0300000000002L1209.248,291.2040000000002L1244.649,401.596L1303.73,585.835L1244.952,766.7350000000001L1054.742,766.7350000000001L900.859,654.933z"></path><path d="M1056.37,-179.28999999999996L1173.479,-178.83999999999992L1209.24,-290.35699999999997L1303.719,-221.1579999999999L1398.198,-290.35699999999997L1433.959,-178.83999999999992L1551.068,-179.28999999999996L1514.99,-69.68499999999995L1611.481,0.42000000000007276L1514.99,70.52500000000009L1551.068,180.1300000000001L1433.959,179.67999999999984L1398.198,291.1959999999999L1303.719,221.99800000000005L1209.24,291.1959999999999L1173.479,179.67999999999984L1056.37,180.1300000000001L1092.449,70.52500000000009L995.957,0.42000000000007276L1092.449,-69.68499999999995z"></path><path d="M1056.37,1714.71L1173.479,1715.16L1209.24,1603.643L1303.719,1672.842L1398.198,1603.643L1433.959,1715.16L1551.068,1714.71L1514.99,1824.315L1611.481,1894.42L1514.99,1964.525L1551.068,2074.13L1433.959,2073.68L1398.198,2185.196L1303.719,2115.998L1209.24,2185.196L1173.479,2073.68L1056.37,2074.13L1092.449,1964.525L995.957,1894.42L1092.449,1824.315z"></path><path d="M841.25,112.82999999999993L995.958,0.42800000000011096L1092.45,70.5329999999999L1056.371,180.13799999999992L1003.322,180.3409999999999L746.973,181.32600000000002z"></path><path d="M1398.21,1603.64L1647.828,1420.814L1558.071,1693.491L1551.086,1714.711L1433.976,1715.16z"></path><path d="M1115.87,1083.7L1303.724,947.216L1421.12,1032.51L1458.432,1059.618L1552.715,1128.119L1362.505,1128.119L1303.727,1309.019L1244.949,1128.119L1054.739,1128.119z"></path><path d="M959.63,1420.82L1084.435,1512.23L1209.24,1603.64L1173.479,1715.157L1056.37,1714.707L1049.385,1693.487z"></path><path d="M1694,-59.50999999999999L1860.488,-180.47000000000003L2050.698,-180.47000000000003L2109.476,0.43000000000006366L2050.698,181.33100000000013L1860.488,181.33100000000013L1766.205,112.82999999999993L1611.496,0.42800000000011096z"></path><path d="M1694,1834.49L1860.488,1713.53L2050.698,1713.53L2109.476,1894.43L2050.698,2075.331L1860.488,2075.331L1766.205,2006.83L1611.496,1894.428z"></path><path d="M1362.51,1128.12L1552.72,1128.12L1706.603,1239.923L1647.825,1420.823L1398.207,1603.65L1373.68,1527.166L1303.728,1309.028z"></path><path d="M1551.08,-179.28999999999996L1860.488,-180.47800000000007L1694,-59.51800000000003L1611.497,0.4249999999999545L1515.005,-69.68100000000004z"></path><path d="M1551.08,1714.71L1860.488,1713.522L1694,1834.482L1611.497,1894.425L1515.005,1824.319z"></path><path d="M1515,70.52999999999997L1611.491,0.4249999999999545L1766.2,112.827L1860.483,181.32799999999997L1551.075,180.13999999999987z"></path><path d="M82.5,-59.50999999999999L248.988,-180.47000000000003L439.198,-180.47000000000003L497.976,0.43000000000006366L439.198,181.33100000000013L248.988,181.33100000000013L154.705,112.82999999999993L-0.004,0.42800000000011096z"></path><path d="M2689.5,-59.50999999999999L2855.988,-180.47000000000003L3046.198,-180.47000000000003L3104.976,0.43000000000006366L3046.198,181.33100000000013L2855.988,181.33100000000013L2761.705,112.82999999999993L2606.996,0.42800000000011096z"></path><path d="M82.5,1834.49L248.988,1713.53L439.198,1713.53L497.976,1894.43L439.198,2075.331L248.988,2075.331L154.705,2006.83L-0.004,1894.428z"></path><path d="M2689.5,1834.49L2855.988,1713.53L3046.198,1713.53L3104.976,1894.43L3046.198,2075.331L2855.988,2075.331L2761.705,2006.83L2606.996,1894.428z"></path><path d="M1552.72,1128.12L1742.93,1128.12L1801.708,947.22L1860.486,1128.12L2050.696,1128.12L1896.813,1239.923L1955.591,1420.823L1801.708,1309.02L1647.825,1420.823L1706.603,1239.923z"></path><path d="M1303.73,1309.02L1373.683,1527.158L1398.209,1603.642L1303.73,1672.841L1209.251,1603.642z"></path><path d="M1209.25,291.21000000000004L1303.729,222.01099999999997L1398.208,291.21000000000004L1362.807,401.60300000000007L1303.726,585.8409999999999L1244.644,401.60300000000007z"></path><path d="M1955.59,-473.18000000000006L2109.473,-361.37699999999995L2263.356,-473.18000000000006L2204.578,-292.28L2358.461,-180.4770000000001L2168.251,-180.4770000000001L2109.473,0.42399999999997817L2050.695,-180.4770000000001L1860.485,-180.4770000000001L2014.368,-292.28z"></path><path d="M1955.59,1420.82L2109.473,1532.623L2263.356,1420.82L2204.578,1601.72L2358.461,1713.523L2168.251,1713.523L2109.473,1894.424L2050.695,1713.523L1860.485,1713.523L2014.368,1601.72z"></path><path d="M247.36,1126.93L556.768,1128.118L710.651,1239.921L651.873,1420.821L497.99,1532.624L344.106,1420.821L254.349,1148.144z"></path><path d="M864.53,766.7399999999998L1054.74,766.7399999999998L1090.49,792.7139999999999L1303.731,947.643L1115.877,1084.1260000000002L1054.748,1128.5390000000002L864.538,1128.5390000000002L805.76,947.6390000000001z"></path><path d="M1056.37,180.13999999999987L1173.479,179.69000000000005L1209.24,291.2069999999999L959.622,474.0329999999999z"></path><path d="M1054.74,766.7399999999998L1244.95,766.7399999999998L1303.728,585.8400000000001L1362.506,766.7399999999998L1552.716,766.7399999999998L1386.229,887.6999999999998L1303.725,947.643L1090.484,792.7139999999999z"></path><path d="M344.1,-473.18000000000006L497.983,-361.37699999999995L651.866,-473.18000000000006L593.088,-292.28L746.971,-180.4770000000001L556.761,-180.4770000000001L497.983,0.42399999999997817L439.205,-180.4770000000001L248.995,-180.4770000000001L402.878,-292.28z"></path><path d="M344.1,1420.82L497.983,1532.623L651.866,1420.82L593.088,1601.72L746.971,1713.523L556.761,1713.523L497.983,1894.424L439.205,1713.523L248.995,1713.523L402.878,1601.72z"></path><path d="M1398.21,291.21000000000004L1512.761,375.1100000000001L1647.82,474.03099999999995L1706.598,654.931L1552.715,766.7339999999999L1362.505,766.7339999999999L1303.727,585.8330000000001L1362.808,401.5949999999998z"></path><path d="M1647.82,1420.82L1801.703,1309.017L1955.586,1420.82L2014.364,1601.72L1860.481,1713.523L1551.073,1714.711L1558.058,1693.491z"></path><path d="M556.76,1128.12L746.97,1128.12L805.748,947.22L864.526,1128.12L1054.736,1128.12L900.853,1239.923L959.631,1420.823L805.748,1309.02L651.865,1420.823L710.643,1239.923z"></path><path d="M94.94000000000005,1238L209.49099999999999,1321.9L344.5500000000002,1420.821L403.328,1601.721L249.44500000000016,1713.524L59.23500000000013,1713.524L0.45699999999987995,1532.623L59.53800000000001,1348.385z"></path></svg>