<svg width="683" height="683" version="1.2" xmlns="http://www.w3.org/2000/svg" viewBox="0 0 683 683"><style type="text/css">path {stroke-width: 1; vector-effect: non-scaling-stroke; fill:none; stroke: #000; stroke-linecap: round; stroke-linejoin: miter;}</style><path d="M-100.3,-100.3L-0.3,-100.3L70.4,-171L141.1,-100.3L241.1,-100.3L241.1,-0.3L311.8,70.4L241.1,141.1L241.1,241.1L141.1,241.1L70.4,311.8L-0.3,241.1L-100.3,241.1L-100.3,141.1L-171,70.4L-100.3,-0.3z"></path><path d="M241.1,-100.3L341.1,-100.3L411.8,-29.6L482.6,-100.3L582.6,-100.3L582.6,-0.3L511.8,70.4L582.6,141.1L582.6,241.1L482.6,241.1L411.8,170.4L341.1,241.1L241.1,241.1L241.1,141.1L311.8,70.4L241.1,-0.3z"></path><path d="M-100.3,241.1L-0.3,241.1L70.4,311.8L141.1,241.1L241.1,241.1L241.1,341.1L170.4,411.8L241.1,482.6L241.1,582.6L141.1,582.6L70.4,511.8L-0.3,582.6L-100.3,582.6L-100.3,482.6L-29.6,411.8L-100.3,341.1z"></path><path d="M241.1,241.1L341.1,241.1L411.8,170.4L482.6,241.1L582.6,241.1L582.6,341.1L653.3,411.8L582.6,482.6L582.6,582.6L482.6,582.6L411.8,653.3L341.1,582.6L241.1,582.6L241.1,482.6L170.4,411.8L241.1,341.1z"></path><path d="M582.7,-100.3L682.7,-100.3L753.4,-171L824.1,-100.3L924.1,-100.3L924.1,-0.3L994.8,70.4L924.1,141.1L924.1,241.1L824.1,241.1L753.4,311.8L682.7,241.1L582.7,241.1L582.7,141.1L512,70.4L582.7,-0.3z"></path><path d="M-100.3,582.7L-0.3,582.7L70.4,512L141.1,582.7L241.1,582.7L241.1,682.7L311.8,753.4L241.1,824.1L241.1,924.1L141.1,924.1L70.4,994.8L-0.3,924.1L-100.3,924.1L-100.3,824.1L-171,753.4L-100.3,682.7z"></path><path d="M582.7,582.7L682.7,582.7L753.4,512L824.1,582.7L924.1,582.7L924.1,682.7L994.8,753.4L924.1,824.1L924.1,924.1L824.1,924.1L753.4,994.8L682.7,924.1L582.7,924.1L582.7,824.1L512,753.4L582.7,682.7z"></path><path d="M241.1,582.7L341.1,582.7L411.8,653.4L482.6,582.7L582.6,582.7L582.6,682.7L511.8,753.4L582.6,824.1L582.6,924.1L482.6,924.1L411.8,853.4L341.1,924.1L241.1,924.1L241.1,824.1L311.8,753.4L241.1,682.7z"></path><path d="M582.7,241.1L682.7,241.1L753.4,311.8L824.1,241.1L924.1,241.1L924.1,341.1L853.4,411.8L924.1,482.6L924.1,582.6L824.1,582.6L753.4,511.8L682.7,582.6L582.7,582.6L582.7,482.6L653.4,411.8L582.7,341.1z"></path></svg>