<svg width="693" height="1200" version="1.2" xmlns="http://www.w3.org/2000/svg" viewBox="0 0 693 1200"><style type="text/css">path {stroke-width: 1; vector-effect: non-scaling-stroke; fill:none; stroke: #000; stroke-linecap: round; stroke-linejoin: miter;}</style><path d="M-223.8,-351L-50.6,-451L122.6,-351L122.6,-151L-50.6,-51L-223.8,-151z"></path><path d="M-223.8,49L-50.6,-51L122.6,49L122.6,249L-50.6,349L-223.8,249z"></path><path d="M122.6,249L295.8,149L469,249L469,449L295.8,549L122.6,449z"></path><path d="M122.6,-351L295.8,-251L469,-351L469,-151L642.2,-51L469,49L469,249L295.8,149L122.6,249L122.6,49L-50.6,-51L122.6,-151z"></path><path d="M-223.8,249L-50.6,349L122.6,249L122.6,449L295.8,549L122.6,649L122.6,849L-50.6,749L-223.8,849L-223.8,649L-397,549L-223.8,449z"></path><path d="M122.6,649L295.8,549L469,649L469,849L295.8,949L122.6,849z"></path><path d="M469.2,-351L642.4,-451L815.6,-351L815.6,-151L642.4,-51L469.2,-151z"></path><path d="M-223.8,849L-50.6,749L122.6,849L122.6,1049L-50.6,1149L-223.8,1049z"></path><path d="M469.2,849L642.4,749L815.6,849L815.6,1049L642.4,1149L469.2,1049z"></path><path d="M469.2,49L642.4,-51L815.6,49L815.6,249L642.4,349L469.2,249z"></path><path d="M-223.8,1249L-50.6,1149L122.6,1249L122.6,1449L-50.6,1549L-223.8,1449z"></path><path d="M469.2,1249L642.4,1149L815.6,1249L815.6,1449L642.4,1549L469.2,1449z"></path><path d="M815.6,-351L988.8,-251L1162,-351L1162,-151L1335.2,-51L1162,49L1162,249L988.8,149L815.6,249L815.6,49L642.4,-51L815.6,-151z"></path><path d="M122.6,849L295.8,949L469,849L469,1049L642.2,1149L469,1249L469,1449L295.8,1349L122.6,1449L122.6,1249L-50.6,1149L122.6,1049z"></path><path d="M815.6,849L988.8,949L1162,849L1162,1049L1335.2,1149L1162,1249L1162,1449L988.8,1349L815.6,1449L815.6,1249L642.4,1149L815.6,1049z"></path><path d="M469.2,249L642.4,349L815.6,249L815.6,449L988.8,549L815.6,649L815.6,849L642.4,749L469.2,849L469.2,649L296,549L469.2,449z"></path></svg>