<svg width="300" height="300" version="1.2" xmlns="http://www.w3.org/2000/svg" viewBox="0 0 300 300"><style type="text/css">.thumb-shape {stroke-width: 1; vector-effect: non-scaling-stroke; fill:none; stroke: #000; stroke-linecap: round; stroke-linejoin: miter;}</style><path d="M49,50L249,50L249,250L49,250z" class="thumb-shape"></path><path d="M49,50L49,150L-51,150L-51,50L-151,50L-151,-50L-51,-50L-51,-150L49,-150L49,-50L149,-50L149,50z" class="thumb-shape"></path><path d="M349,50L349,150L249,150L249,50L149,50L149,-50L249,-50L249,-150L349,-150L349,-50L449,-50L449,50z" class="thumb-shape"></path><path d="M49,350L49,450L-51,450L-51,350L-151,350L-151,250L-51,250L-51,150L49,150L49,250L149,250L149,350z" class="thumb-shape"></path><path d="M349,350L349,450L249,450L249,350L149,350L149,250L249,250L249,150L349,150L349,250L449,250L449,350z" class="thumb-shape"></path></svg>