<svg width="500" height="500" version="1.2" xmlns="http://www.w3.org/2000/svg" viewBox="0 0 500 500"><style type="text/css">.thumb-shape {stroke-width: 1; vector-effect: non-scaling-stroke; fill:none; stroke: #000; stroke-linecap: round; stroke-linejoin: miter;}</style><path d="M349,250L349,350L249,350L249,250L149,250L149,150L249,150L249,50L349,50L349,150L449,150L449,250z" class="thumb-shape"></path><path d="M249,50L249,150L149,150L149,50L49,50L49,-50L149,-50L149,-150L249,-150L249,-50L349,-50L349,50z" class="thumb-shape"></path><path d="M149,350L149,450L49,450L49,350L-51,350L-51,250L49,250L49,150L149,150L149,250L249,250L249,350z" class="thumb-shape"></path><path d="M49,150L49,250L-51,250L-51,150L-151,150L-151,50L-51,50L-51,-50L49,-50L49,50L149,50L149,150z" class="thumb-shape"></path><path d="M249,550L249,650L149,650L149,550L49,550L49,450L149,450L149,350L249,350L249,450L349,450L349,550z" class="thumb-shape"></path><path d="M649,350L649,450L549,450L549,350L449,350L449,250L549,250L549,150L649,150L649,250L749,250L749,350z" class="thumb-shape"></path><path d="M549,150L549,250L449,250L449,150L349,150L349,50L449,50L449,-50L549,-50L549,50L649,50L649,150z" class="thumb-shape"></path><path d="M49,650L49,750L-51,750L-51,650L-151,650L-151,550L-51,550L-51,450L49,450L49,550L149,550L149,650z" class="thumb-shape"></path><path d="M549,650L549,750L449,750L449,650L349,650L349,550L449,550L449,450L549,450L549,550L649,550L649,650z" class="thumb-shape"></path></svg>