<svg width="1944" height="1681" version="1.2" xmlns="http://www.w3.org/2000/svg" viewBox="0 0 1944 1681"><style type="text/css">path {stroke-width: 1; vector-effect: non-scaling-stroke; fill:none; stroke: #000; stroke-linecap: round; stroke-linejoin: miter;}</style><path d="M970.5,0L1617.5,0L1941,560.318L1617.5,1120.637L1294,560.318z"></path><path d="M-326.5,0L967.5,0L644,560.318L-3,560.318z"></path><path d="M1617.5,0L2911.5,0L2588,560.318L1941,560.318z"></path><path d="M323.5,1120.64L970.5,1120.64L1294,1680.958L0,1680.958z"></path><path d="M-3,560.32L644,560.32L-3,1680.957L-326.5,1120.638z"></path><path d="M1941,560.32L2588,560.32L1941,1680.957L1617.5,1120.638z"></path><path d="M1294,560.32L1617.5,1120.638L1941,1680.957L1294,1680.957L970.5,1120.638z"></path><path d="M970.5,0L1294,560.318L970.5,1120.637L323.5,1120.637z"></path></svg>