<svg width="2293" height="1227" version="1.2" xmlns="http://www.w3.org/2000/svg" viewBox="0 0 2293 1227"><style type="text/css">path {stroke-width: 1; vector-effect: non-scaling-stroke; fill:none; stroke: #000; stroke-linecap: round; stroke-linejoin: miter;}</style><path d="M0.010000000000218279,-613.32L1146.522,-401.033L1146.522,0.3369999999999891L0.010000000000218279,212.62300000000005z"></path><path d="M0.010000000000218279,613.68L1146.522,825.967L1146.522,1227.337L0.010000000000218279,1439.623z"></path><path d="M-1146.49,0L0.021999999999934516,212.287L0.021999999999934516,613.657L-1146.49,825.943z"></path><path d="M1146.51,0L2293.022,212.287L2293.022,613.657L1146.51,825.943z"></path><path d="M0,212.32L1146.512,0.033L1146.512,826.033L0,613.747z"></path><path d="M-1146.49,-401L0.021999999999934516,-613.287L0.021999999999934516,212.71299999999997L-1146.49,0.42699999999990723z"></path><path d="M1146.51,-401L2293.022,-613.287L2293.022,212.71299999999997L1146.51,0.42699999999990723z"></path><path d="M-1146.49,826L0.021999999999934516,613.713L0.021999999999934516,1439.713L-1146.49,1227.427z"></path><path d="M1146.51,826L2293.022,613.713L2293.022,1439.713L1146.51,1227.427z"></path></svg>