<svg width="800" height="800" version="1.2" xmlns="http://www.w3.org/2000/svg" viewBox="0 0 800 800"><style type="text/css">.thumb-shape {stroke-width: 1; vector-effect: non-scaling-stroke; fill:none; stroke: #000; stroke-linecap: round; stroke-linejoin: miter;}</style><path d="M749,350L749,750L349,750z" class="thumb-shape"></path><path d="M349,-50L749,350L349,350z" class="thumb-shape"></path><path d="M349,-50L749,-50L749,350z" class="thumb-shape"></path><path d="M-51,350L349,350L349,750z" class="thumb-shape"></path><path d="M-51,-50L349,-50L-51,350z" class="thumb-shape"></path><path d="M349,-50L349,350L-51,350z" class="thumb-shape"></path><path d="M-51,350L349,750L-51,750z" class="thumb-shape"></path><path d="M349,350L749,350L349,750z" class="thumb-shape"></path><path d="M349,750L749,1150L349,1150z" class="thumb-shape"></path><path d="M349,750L749,750L749,1150z" class="thumb-shape"></path><path d="M749,350L1149,350L1149,750z" class="thumb-shape"></path><path d="M749,-50L1149,-50L749,350z" class="thumb-shape"></path><path d="M-51,750L349,750L-51,1150z" class="thumb-shape"></path><path d="M749,750L1149,750L749,1150z" class="thumb-shape"></path><path d="M1149,-50L1149,350L749,350z" class="thumb-shape"></path><path d="M349,750L349,1150L-51,1150z" class="thumb-shape"></path><path d="M1149,750L1149,1150L749,1150z" class="thumb-shape"></path><path d="M749,350L1149,750L749,750z" class="thumb-shape"></path></svg>