<svg width="400" height="800" version="1.2" xmlns="http://www.w3.org/2000/svg" viewBox="0 0 400 800"><style type="text/css">.thumb-shape {stroke-width: 1; vector-effect: non-scaling-stroke; fill:none; stroke: #000; stroke-linecap: round; stroke-linejoin: miter;}</style><path d="M-51,-51L349,-51L349,349z" class="thumb-shape"></path><path d="M-51,349L349,349L-51,749z" class="thumb-shape"></path><path d="M349,349L349,749L-51,749z" class="thumb-shape"></path><path d="M-51,-51L349,349L-51,349z" class="thumb-shape"></path><path d="M349,-51L749,-51L749,349z" class="thumb-shape"></path><path d="M-51,749L349,749L349,1149z" class="thumb-shape"></path><path d="M349,749L749,749L749,1149z" class="thumb-shape"></path><path d="M349,349L749,349L349,749z" class="thumb-shape"></path><path d="M749,349L749,749L349,749z" class="thumb-shape"></path><path d="M349,-51L749,349L349,349z" class="thumb-shape"></path><path d="M-51,749L349,1149L-51,1149z" class="thumb-shape"></path><path d="M349,749L749,1149L349,1149z" class="thumb-shape"></path></svg>