<svg width="267" height="462" version="1.2" xmlns="http://www.w3.org/2000/svg" viewBox="0 0 267 462"><style type="text/css">path {stroke-width: 1; vector-effect: non-scaling-stroke; fill:none; stroke: #000; stroke-linecap: round; stroke-linejoin: miter;}</style><path d="M-89,0L0,0L44.5,77.076L133.5,77.076L178,154.153L133.5,231.229L44.5,231.229L0,308.305L-89,308.305L-133.5,231.229L-89,154.153L-133.5,77.076z"></path><path d="M178,0L267,0L311.5,77.076L400.5,77.076L445,154.153L400.5,231.229L311.5,231.229L267,308.305L178,308.305L133.5,231.229L178,154.153L133.5,77.076z"></path><path d="M-222.5,-230.77L-133.5,-230.77L-89,-153.69400000000002L0,-153.69400000000002L44.5,-76.61700000000002L0,0.4590000000000032L-89,0.4590000000000032L-133.5,77.53499999999997L-222.5,77.53499999999997L-267,0.4590000000000032L-222.5,-76.61700000000002L-267,-153.69400000000002z"></path><path d="M44.5,-230.77L133.5,-230.77L178,-153.69400000000002L267,-153.69400000000002L311.5,-76.61700000000002L267,0.4590000000000032L178,0.4590000000000032L133.5,77.53499999999997L44.5,77.53499999999997L0,0.4590000000000032L44.5,-76.61700000000002L0,-153.69400000000002z"></path><path d="M-222.5,231.23L-133.5,231.23L-89,308.306L0,308.306L44.5,385.383L0,462.459L-89,462.459L-133.5,539.535L-222.5,539.535L-267,462.459L-222.5,385.383L-267,308.306z"></path><path d="M44.5,231.23L133.5,231.23L178,308.306L267,308.306L311.5,385.383L267,462.459L178,462.459L133.5,539.535L44.5,539.535L0,462.459L44.5,385.383L0,308.306z"></path></svg>