<svg width="565.69" height="381.84" version="1.2" xmlns="http://www.w3.org/2000/svg" viewBox="0 0 565.69 381.84"><style type="text/css">path {stroke-width: 1; vector-effect: non-scaling-stroke; fill:none; stroke: #000; stroke-linecap: round; stroke-linejoin: miter;}</style><path d="M-200,173.8L82.8,-109.1L146.5,-45.4L-136.4,237.4z"></path><path d="M210.1,-236.4L493,46.5L429.3,110.1L146.5,-172.7z"></path><path d="M273.8,81.8L-9.1,364.7L-72.7,301L210.1,18.2z"></path><path d="M146.5,-172.7L429.3,110.1L365.7,173.8L82.8,-109.1z"></path><path d="M210.1,18.2L-72.7,301L-136.4,237.4L146.5,-45.4z"></path><path d="M273.8,-300L556.6,-17.2L493,46.5L210.1,-236.4z"></path><path d="M365.7,173.8L648.5,-109.1L712.2,-45.4L429.3,237.4z"></path><path d="M839.5,81.8L556.6,364.7L493,301L775.8,18.2z"></path><path d="M775.8,18.2L493,301L429.3,237.4L712.2,-45.4z"></path><path d="M-200,555.6L82.8,272.8L146.5,336.4L-136.4,619.2z"></path><path d="M210.1,145.5L493,428.3L429.3,492L146.5,209.1z"></path><path d="M146.5,209.1L429.3,492L365.7,555.6L82.8,272.8z"></path><path d="M210.1,400L-72.7,682.9L-136.4,619.2L146.5,336.4z"></path><path d="M273.8,81.8L556.6,364.7L493,428.3L210.1,145.5z"></path><path d="M365.7,555.6L648.5,272.8L712.2,336.4L429.3,619.2z"></path><path d="M775.8,400L493,682.9L429.3,619.2L712.2,336.4z"></path></svg>