<svg width="1800" height="900" version="1.2" xmlns="http://www.w3.org/2000/svg" viewBox="0 0 1800 900"><style type="text/css">path {stroke-width: 1; vector-effect: non-scaling-stroke; fill:none; stroke: #000; stroke-linecap: round; stroke-linejoin: miter;}</style><path d="M-900,0L300,0L300,150L-900,150z"></path><path d="M900,0L2100,0L2100,150L900,150z"></path><path d="M300,0L900,0L900,150L300,150z"></path><path d="M0,750L1200,750L1200,900L0,900z"></path><path d="M1200,750L1800,750L1800,900L1200,900z"></path><path d="M0,450L300,450L900,450L1200,450L1200,600L0,600z"></path><path d="M-900,150L300,150L300,300L-900,300z"></path><path d="M900,150L2100,150L2100,300L900,300z"></path><path d="M300,150L900,150L900,300L300,300z"></path><path d="M0,600L1200,600L1200,750L0,750z"></path><path d="M1200,600L1800,600L1800,750L1200,750z"></path><path d="M1200,450L1800,450L1800,600L1200,600z"></path><path d="M-900,300L300,300L300,450L0,450L-600,450L-900,450z"></path><path d="M900,300L2100,300L2100,450L1800,450L1200,450L900,450z"></path><path d="M300,300L900,300L900,450L300,450z"></path></svg>