<svg width="400" height="600" version="1.2" xmlns="http://www.w3.org/2000/svg" viewBox="0 0 400 600"><style type="text/css">path {stroke-width: 1; vector-effect: non-scaling-stroke; fill:none; stroke: #000; stroke-linecap: round; stroke-linejoin: miter;}</style><path d="M0,200L400,200L400,300L200,300L0,300z"></path><path d="M-200,500L200,500L200,600L-200,600z"></path><path d="M200,500L600,500L600,600L200,600z"></path><path d="M-200,400L200,400L200,500L-200,500z"></path><path d="M200,400L600,400L600,500L200,500z"></path><path d="M-200,300L0,300L200,300L200,400L-200,400z"></path><path d="M200,300L400,300L600,300L600,400L200,400z"></path><path d="M0,100L400,100L400,200L0,200z"></path><path d="M0,0L400,0L400,100L0,100z"></path></svg>