<svg width="1250" height="1000" version="1.2" xmlns="http://www.w3.org/2000/svg" viewBox="0 0 1250 1000"><style type="text/css">path {stroke-width: 1; vector-effect: non-scaling-stroke; fill:none; stroke: #000; stroke-linecap: round; stroke-linejoin: miter;}</style><path d="M375,0L625,0L625,500L500,500L375,500z"></path><path d="M-125,0L0,0L125,0L375,0L375,500L250,500L125,500L0,500L-125,500z"></path><path d="M1125,0L1250,0L1375,0L1625,0L1625,500L1500,500L1375,500L1250,500L1125,500z"></path><path d="M0,500L125,500L250,500L375,500L500,500L500,1000L375,1000L250,1000L125,1000L0,1000z"></path><path d="M625,0L750,0L1125,0L1125,500L1000,500L750,500L625,500z"></path><path d="M1000,500L1125,500L1250,500L1250,1000L1125,1000L1000,1000z"></path><path d="M500,500L625,500L750,500L1000,500L1000,1000L875,1000L750,1000L625,1000L500,1000z"></path></svg>