<svg width="2000" height="2000" version="1.2" xmlns="http://www.w3.org/2000/svg" viewBox="0 0 2000 2000"><style type="text/css">path {stroke-width: 1; vector-effect: non-scaling-stroke; fill:none; stroke: #000; stroke-linecap: round; stroke-linejoin: miter;}</style><path d="M420.02,745.86L630.03,745.86L630.03,898.31L630.03,1008.77L420.02,1008.77z"></path><path d="M840.05,1234.31L1238.59,1234.31L1466.05,1234.31L1466.05,1429.89L1466.05,1556.9L1466.05,1730.9L1161,1730.9L840.05,1730.9L840.05,1429.89z"></path><path d="M1466.05,1556.9L2000,1556.9L2000,1730.9L2000,1831L1466.05,1831L1466.05,1730.9z"></path><path d="M-533.95,1234.31L-425.95000000000005,1234.31L-123.63000000000011,1234.31L420.0300000000002,1234.31L420.0300000000002,1429.89L0.009999999999990905,1429.89L-533.94,1429.89z"></path><path d="M1466.05,1234.31L1574.05,1234.31L1876.37,1234.31L2420.03,1234.31L2420.03,1429.89L2000.01,1429.89L1466.06,1429.89z"></path><path d="M1161,1730.9L1466.05,1730.9L1466.05,1831L1161,1831z"></path><path d="M0,1730.9L436.9499999999998,1730.9L436.9499999999998,2000L0,2000L0,1831z"></path><path d="M1466.05,1429.89L2000,1429.89L2000,1556.9L1466.05,1556.9z"></path><path d="M980.65,226.44L1308.05,226.44L1308.05,361.86L980.65,361.86z"></path><path d="M171.25,0L840.05,0L840.05,226.44L171.25,226.44z"></path><path d="M66.69000000000005,745.86L420.02,745.86L420.02,898.31L66.69000000000005,898.31z"></path><path d="M630.04,898.31L840.05,898.31L1238.59,898.31L1238.59,1008.77L840.05,1008.77L630.04,1008.77z"></path><path d="M1238.59,898.31L1308.05,898.31L1574.05,898.31L1574.05,1006.47L1574.05,1234.31L1466.05,1234.31L1238.59,1234.31L1238.59,1008.77z"></path><path d="M-266.98,361.86L66.69000000000005,361.86L66.69000000000005,620.72L-266.98,620.72z"></path><path d="M1733.02,361.86L2066.69,361.86L2066.69,620.72L1733.02,620.72z"></path><path d="M840.05,1008.77L1238.59,1008.77L1238.59,1234.31L840.05,1234.31z"></path><path d="M66.69,361.86L171.24,361.86L980.65,361.86L1308.05,361.86L1308.05,620.72L1308.05,745.86L840.05,745.86L630.04,745.86L420.03,745.86L66.7,745.86z"></path><path d="M1574.05,898.31L1876.37,898.31L1876.37,1006.47L1574.05,1006.47z"></path><path d="M1308.05,226.44L1733.03,226.44L1733.03,361.86L1733.03,620.72L1308.05,620.72L1308.05,361.86z"></path><path d="M420.02,1008.77L630.03,1008.77L840.04,1008.77L840.04,1234.31L840.04,1429.89L420.02,1429.89z"></path><path d="M0,1429.89L420.02,1429.89L840.04,1429.89L840.04,1730.9L436.94,1730.9L-0.01,1730.9z"></path><path d="M2000,1429.89L2420.02,1429.89L2840.04,1429.89L2840.04,1730.9L2436.94,1730.9L1999.99,1730.9z"></path><path d="M436.95,1730.9L840.05,1730.9L1161,1730.9L1161,1831L1161,2000L436.95,2000z"></path><path d="M-691.95,620.72L-266.97,620.72L66.69999999999982,620.72L66.69999999999982,745.86L66.69999999999982,898.31L-123.63000000000011,898.31L-425.95000000000005,898.31L-691.95,898.31L-691.95,745.86z"></path><path d="M1308.05,620.72L1733.03,620.72L2066.7,620.72L2066.7,745.86L2066.7,898.31L1876.37,898.31L1574.05,898.31L1308.05,898.31L1308.05,745.86z"></path><path d="M-266.98,91.02L171.23999999999978,91.02L171.23999999999978,361.86L66.69000000000005,361.86L-266.98,361.86L-266.98,226.44z"></path><path d="M1733.02,91.02L2171.24,91.02L2171.24,361.86L2066.69,361.86L1733.02,361.86L1733.02,226.44z"></path><path d="M-266.98,0L171.23999999999978,0L171.23999999999978,91.02L-266.98,91.02z"></path><path d="M1733.02,0L2171.24,0L2171.24,91.02L1733.02,91.02z"></path><path d="M1574.05,1006.47L1876.37,1006.47L1876.37,1234.31L1574.05,1234.31z"></path><path d="M630.04,745.86L840.05,745.86L840.05,898.31L630.04,898.31z"></path><path d="M840.05,745.86L1308.05,745.86L1308.05,898.31L1238.59,898.31L840.05,898.31z"></path><path d="M840.05,0L1733.03,0L1733.03,91.02L1733.03,226.44L1308.05,226.44L980.65,226.44L840.05,226.44z"></path><path d="M1161,1831L1466.05,1831L2000,1831L2000,2000L1161,2000z"></path><path d="M-123.6400000000001,898.31L66.69000000000005,898.31L420.02,898.31L420.02,1234.31L-123.6400000000001,1234.31L-123.6400000000001,1006.47z"></path><path d="M1876.36,898.31L2066.69,898.31L2420.02,898.31L2420.02,1234.31L1876.36,1234.31L1876.36,1006.47z"></path><path d="M171.25,226.44L840.05,226.44L980.65,226.44L980.65,361.86L171.24,361.86z"></path></svg>