<svg width="707" height="141" version="1.2" xmlns="http://www.w3.org/2000/svg" viewBox="0 0 707 141"><style type="text/css">path {stroke-width: 1; vector-effect: non-scaling-stroke; fill:none; stroke: #000; stroke-linecap: round; stroke-linejoin: miter;}</style><path d="M212.13,-282L424.262,-69.868L353.551,0.8430000000000177L212.13,-140.579L70.709,0.8430000000000177L-0.002,-69.868z"></path><path d="M919.13,-282L1131.262,-69.868L1060.551,0.8430000000000177L919.13,-140.579L777.7090000000001,0.8430000000000177L706.998,-69.868z"></path><path d="M212.13,-141L424.262,71.132L353.551,141.84300000000002L212.13,0.42099999999999227L70.709,141.84300000000002L-0.002,71.132z"></path><path d="M919.13,-141L1131.262,71.132L1060.551,141.84300000000002L919.13,0.42099999999999227L777.7090000000001,141.84300000000002L706.998,71.132z"></path><path d="M212.13,0L424.262,212.132L353.551,282.843L212.13,141.421L70.709,282.843L-0.002,212.132z"></path><path d="M919.13,0L1131.262,212.132L1060.551,282.843L919.13,141.421L777.7090000000001,282.843L706.998,212.132z"></path><path d="M-282.74,-69.87L-141.31899999999996,-211.291L70.81299999999999,0.8410000000000082L0.1029999999999518,71.55099999999999L-141.31899999999996,-69.87L-282.74,71.55099999999999L-353.451,0.8410000000000082z"></path><path d="M424.26,-69.87L565.681,-211.291L777.813,0.8410000000000082L707.103,71.55099999999999L565.681,-69.87L424.26,71.55099999999999L353.549,0.8410000000000082z"></path><path d="M-282.74,71.13L-141.31899999999996,-70.291L70.81299999999999,141.841L0.1029999999999518,212.551L-141.31899999999996,71.13L-282.74,212.551L-353.451,141.841z"></path><path d="M424.26,71.13L565.681,-70.291L777.813,141.841L707.103,212.551L565.681,71.13L424.26,212.551L353.549,141.841z"></path><path d="M-282.74,212.13L-141.31899999999996,70.709L70.81299999999999,282.841L0.1029999999999518,353.551L-141.31899999999996,212.13L-282.74,353.551L-353.451,282.841z"></path><path d="M424.26,212.13L565.681,70.709L777.813,282.841L707.103,353.551L565.681,212.13L424.26,353.551L353.549,282.841z"></path></svg>