<svg width="2100" height="2100" version="1.2" xmlns="http://www.w3.org/2000/svg" viewBox="0 0 2100 2100"><style type="text/css">path {stroke-width: 1; vector-effect: non-scaling-stroke; fill:none; stroke: #000; stroke-linecap: round; stroke-linejoin: miter;}</style><path d="M-299.1,1086.6L-296.6,1086L-294.1,1085.3L-294.2,1084.1L-291.6,1082.9L-281.7,1080.4L-271.7,1079.1L-249.3,1079.1L-229.4,1084.1L-208.3,1089.1L-167.3,1091.6L-146.1,1091.6L-147.1,1087.5L-144.7,1086.3L-138,1083.9L-125.4,1081.5L-113.3,1081.5L-88.5,1081.5L-76.5,1082.7L-72.7,1087.2L-62.8,1085.4L-42.9,1085.4L-23,1089.1L-1.8,1096.5L1.9,1100.3L3.1,1105.3L3.1,1115.2L0.6,1120.2L-4.3,1122.7L-16.8,1128.9L-36.7,1138.8L-54.1,1151.3L-95.1,1160L-117.5,1162.5L-138.7,1162.5L-187.2,1162.5L-235.7,1161.2L-258,1158.7L-263,1157.5L-265.5,1157.5L-266.8,1155L-276.7,1148.8L-289.1,1142.6L-297.9,1136.4L-300.3,1126.4L-301.6,1116.5L-300.3,1096.6z"></path><path d="M1800.9,1086.6L1803.4,1086L1805.9,1085.3L1805.8,1084.1L1808.4,1082.9L1818.3,1080.4L1828.3,1079.1L1850.7,1079.1L1870.6,1084.1L1891.7,1089.1L1932.7,1091.6L1953.9,1091.6L1952.9,1087.5L1955.3,1086.3L1962,1083.9L1974.6,1081.5L1986.7,1081.5L2011.5,1081.5L2023.5,1082.7L2027.3,1087.2L2037.2,1085.4L2057.1,1085.4L2077,1089.1L2098.2,1096.5L2101.9,1100.3L2103.1,1105.3L2103.1,1115.2L2100.6,1120.2L2095.7,1122.7L2083.2,1128.9L2063.3,1138.8L2045.9,1151.3L2004.9,1160L1982.5,1162.5L1961.3,1162.5L1912.8,1162.5L1864.3,1161.2L1842,1158.7L1837,1157.5L1834.5,1157.5L1833.2,1155L1823.3,1148.8L1810.9,1142.6L1802.1,1136.4L1799.7,1126.4L1798.4,1116.5L1799.7,1096.6z"></path><path d="M853.8,368.2L862.2,361.4L867.3,361.4L884.2,352.9L909.6,351.3L929.9,356.3L953.6,366.5L965.9,367L968.9,367.1L975.6,367.3L980.3,367.5L981.5,367.6L983.6,369.7L987.8,371.1L990.9,373L994.5,376.7L999.2,383.3L1000.6,386.1L1001.7,390L1002.8,397L1003.1,399.7L1004.4,402L996,408.8L992.6,419L992.6,442.7L999.3,463L1016.3,486.7L1026.4,507L1029.8,530.7L1026.4,551L1024.7,561.2L1014.6,573L992.6,581.5L967.2,586.6L946.9,593.3L942.5,595.8L939.2,597.7L937.4,595.9L936.9,595.9L936,595.9L934.1,595.5L924.4,591.9L915.2,590L910.9,588.6L907.6,584.8L904.3,580.8L901,575.8L897.7,569.7L893.9,564.5L885.7,552.9L880.9,546.3L877.5,542.5L875.8,522.2L860.6,488.4L850.4,463L845.3,439.3L843.6,413.9L847,390.2L848.7,380z"></path><path d="M1085.9,1883.8L1107.1,1869.1L1114.8,1878.3L1120.6,1889.4L1141.9,1909.6L1165,1913.3L1176.6,1920.7L1178.6,1928.1L1180.5,1931.8L1181.8,1931.8L1174.7,1972.4L1174.7,1983.4L1170.8,1994.5L1159.3,1992.6L1147.7,1987.1L1095.5,1970.5L1072.4,1968.7L1068.5,1966.8L1064.7,1966.8L1062.7,1963.1L1062.7,1952.1L1064.7,1928.1L1076.2,1905.9z"></path><path d="M628.5,800L644.2,798L671.6,803.9L703,803.9L757.9,796.1L816.7,794.1L844.1,800L852,807.8L865.7,813.7L893.1,823.5L908.8,835.3L914.7,851L922.5,878.4L926.5,905.8L930.4,933.3L950,962.7L950,974.4L948,982.3L940.2,984.2L910.8,988.2L899,984.2L883.3,982.3L852,982.3L797.1,982.3L767.7,976.4L750.1,972.5L734.4,962.7L706.9,947L683.4,925.4L657.9,909.7L650.1,909.7L644.2,915.6L628.5,921.5L616.8,925.4L616.8,917.6L620.7,909.7L630.5,882.3L632.4,854.9L634.4,839.2L630.5,823.5L630.1,823.6L630,823.4L629.8,822.4L629.5,821.9L629.3,821.5L629.2,821.3L629.2,821.1L628.5,819.6L626.6,811.7z"></path><path d="M1294.1,1432.5L1296.3,1423.2L1303,1416.3L1320.7,1409.3L1340.6,1409.3L1358.3,1411.6L1371.6,1418.6L1382.6,1434.8L1389.3,1441.7L1391.5,1446.4L1395.9,1446.4L1413.6,1458L1484.5,1497.4L1486.7,1502L1495.5,1504.3L1513.2,1513.6L1530.9,1525.2L1542,1541.4L1550.9,1559.9L1553.1,1578.5L1555.3,1622.5L1555.3,1641.1L1559.7,1659.6L1566.4,1678.1L1564.2,1687.4L1557.5,1694.4L1524.3,1719.9L1493.3,1756.9L1482.3,1768.5L1473.6,1784.9L1462,1794.3L1447.9,1805.1L1433.7,1813.2L1426,1819.9L1420.9,1821.3L1406.7,1821.3L1391.3,1821.3L1381,1818.6L1366.8,1815.9L1352.7,1811.8L1323.1,1791.6L1297.3,1770.1L1283,1752.3L1254.3,1724.5L1243.2,1708.3L1234.3,1689.7L1218.8,1657.3L1212.2,1620.2L1203.4,1583.1L1195.6,1562.3L1187.9,1541.4L1189.3,1539.9L1190,1538.5L1191,1536.9L1192.2,1535.6L1193.6,1534.1L1194.4,1532.5L1195.5,1530.5L1197.2,1529L1200.5,1525.9L1203.2,1522.8L1207,1520L1211.3,1517.6L1212.2,1517.1L1229.9,1518.2L1247.6,1518.2L1256.5,1515.9L1263.1,1509L1276.4,1492.7L1283,1474.2L1286.3,1469.6z"></path><path d="M345.9,55.2L366,45.2L391.2,40.1L418.8,40.1L433.4,42L509.3,82.9L594.7,130.6L614.8,140.7L627.4,160.8L627.4,201L622.4,211.1L612.3,216.1L589.7,221.1L579.6,221.1L572.1,228.6L559.5,241.2L554.5,241.2L511.8,218.6L486.7,206L457.9,190.9L423.8,168.3L383.6,138.2L366,125.6L348.4,110.5L338.4,90.4L333.3,70.3L335.9,60.3z"></path><path d="M813,91.7L827.9,78.1L840.1,68.7L864.5,44.3L875.3,32.1L883.5,28L891.6,29.4L906.5,41.6L920,40.2L936.3,40.2L943.1,45.6L943.1,51L939,59.2L932.2,64.6L925.5,70L922.7,75.4L916,91.7L905.1,107.9L891.6,139.1L880.7,168.9L875.3,175.7L874,183.8L865.8,183.8L860.4,181.1L846.9,173L832,159.4L802.2,160.8L772.4,160.8L767,159.4L765.6,156.7L761.5,152.6L761.5,149.9L765.6,136.4L765.6,135.4L773.7,124.2L788.6,113.3L803.5,102.5z"></path><path d="M709.5,29.9L721.2,3.3L744.4,0L751,1.7L754.3,1.7L756,5L757.7,14.9L754.3,38.2L726.1,84.6L717.8,107.8L712.9,131.1L706.2,144.3L701.2,149.3L694.6,151L681.3,149.3L671.4,144.3L653.1,126.1L643.2,112.8L641.7,103.9L654.1,83.1L666.1,74.2L675,71.2L696.3,53.1z"></path><path d="M1400.4,1165.4L1413.1,1163L1434.5,1160.7L1455.8,1151.3L1472.8,1141.9L1489.9,1125.6L1511.2,1118.5L1519.8,1113.8L1534.7,1113.8L1551.7,1113.8L1573,1123.2L1579.4,1130.2L1581.6,1144.3L1570.9,1163L1564.5,1170L1562.4,1179.4L1553.9,1202.8L1541.1,1223.9L1521.9,1240.3L1483.5,1254.4L1438.7,1259L1421.7,1254.4L1400.4,1247.3L1396.7,1238.5L1391.3,1231.9L1384,1225.3L1380,1221.6L1370.5,1216.9L1370.5,1200.5L1379,1195.8L1393.4,1192.7L1399.3,1186.4L1396.1,1181.8L1396.1,1172.4L1396.1,1167.7z"></path><path d="M1262.2,1932.6L1282.7,1918.9L1282.7,1914.3L1291.9,1909.8L1301,1905.2L1314.7,1905.2L1326.1,1906.3L1325.8,1902.4L1329.6,1901.9L1340.5,1899.7L1351.9,1897.5L1364.4,1895.9L1395.4,1894.8L1422.5,1894.8L1437.7,1894.8L1443.2,1895.9L1449.2,1898.1L1469.3,1912.2L1480.1,1919.8L1488.3,1930.1L1491.5,1933.9L1493.2,1936.1L1495.7,1945L1505.7,1952.5L1515.7,1957.5L1520.2,1957L1522.3,1959.1L1526.6,1962L1535.2,1966.3L1547.5,1978.2L1556.6,1978.2L1568,1991.9L1570.3,2014.7L1568,2023.9L1556.6,2033L1542.9,2039.9L1526.9,2042.1L1428.8,2039.9L1380.9,2026.2L1358,2019.3L1330.7,2017L1301,2014.7L1269,2007.9L1259.9,2003.3L1248.5,1991.9L1243.9,1982.8L1241.6,1969.1L1241.6,1946.3z"></path><path d="M1774.2,262.6L1790.8,232.6L1792.7,236.5L1794.6,244.1L1808.6,259.4L1812.4,267.1L1813.7,276L1820.7,292.6L1831.3,303.1L1837.8,308.7L1841.2,312.2L1843.5,315L1844.3,316.4L1844.8,317L1845,318.7L1846.9,320.2L1852.6,324.5L1869.2,339.2L1883.2,352.6L1894.7,366.6L1889,368.5L1886.4,367.9L1877.5,367.2L1869.2,367.2L1863.5,365.9L1857.1,364L1852,361.5L1839.2,356.4L1814.4,344.3L1783.7,330.9L1743.6,319.4L1754.4,307.3L1756.9,304.1L1758.9,300.2L1761.4,292L1769.1,277.9z"></path><path d="M-0.3,1178.6L2.8,1175.5L15.4,1177.6L23.7,1181.8L65.6,1192.2L80.3,1211.1L86.5,1232L100.1,1242.2L100.1,1262.9L91.2,1304.3L72,1351.7L70.5,1357.6L67.5,1376.9L67.5,1379.8L57.2,1388.7L53,1395.3L51,1414.2L48.9,1433L25.8,1445.6L13.3,1447.7L7,1441.4L-11.9,1426.7L-24.4,1414.2L-39.1,1395.3L-43.3,1382.8L-41.2,1374.4L-39.1,1353.5L-34.9,1336.7L-24.4,1257.1L-20.2,1236.2L-9.8,1215.3L1.4,1181.8z"></path><path d="M2099.7,1178.6L2102.8,1175.5L2115.4,1177.6L2123.7,1181.8L2165.6,1192.2L2180.3,1211.1L2186.5,1232L2200.1,1242.2L2200.1,1262.9L2191.2,1304.3L2172,1351.7L2170.5,1357.6L2167.5,1376.9L2167.5,1379.8L2157.2,1388.7L2153,1395.3L2151,1414.2L2148.9,1433L2125.8,1445.6L2113.3,1447.7L2107,1441.4L2088.1,1426.7L2075.6,1414.2L2060.9,1395.3L2056.7,1382.8L2058.8,1374.4L2060.9,1353.5L2065.1,1336.7L2075.6,1257.1L2079.8,1236.2L2090.2,1215.3L2101.4,1181.8z"></path><path d="M1854.2,446.4L1857.6,444.7L1887.9,444.7L1898,449.8L1906.5,456.5L1921.7,470L1960.5,498.7L2004.3,524L2026.3,535.8L2043.1,540.9L2063.4,549.3L2076.9,562.8L2083.6,571.2L2085.3,581.3L2083.6,591.5L2078.6,596.5L2041.4,596.5L2031.3,599.9L2029.6,606.6L2024.6,611.7L2021.2,610L2014.4,606.7L1940.2,586.4L1930.1,581.3L1921.7,576.3L1906.5,564.5L1887.9,552.7L1871,544.2L1850.8,532.4L1840.7,517.2L1845.7,480.1L1850.8,459.9L1854.2,449.7z"></path><path d="M160.3,919.6L175.4,919.6L179.5,917.2L180.5,916.6L180.4,914.6L195.5,904.5L205.5,889.5L223.1,859.3L235.7,846.8L238.2,841.8L248.2,839.3L263.3,841.8L275.8,856.8L293.4,881.9L300.9,897L316,902L346.1,912.1L361.2,917.1L371.2,929.6L373.8,944.7L371.2,949.7L371.2,954.7L366.2,957.2L358.7,987.4L358.7,1047.6L373.8,1107.9L373.8,1138L363.7,1150.6L348.6,1160.6L283.4,1195.8L253.2,1205.8L223.1,1208.3L208,1203.3L205.5,1188.3L205.5,1158.1L200.5,1097.9L195.5,1037.6L185.4,1005L177.9,989.9L167.9,979.9L140.3,959.8L137.7,944.7L145.3,929.6z"></path><path d="M337.9,833.9L343.9,833.9L367.9,830.9L403.8,824.9L421.8,821.9L433.8,815.9L439.1,805.4L421.8,770.9L457.8,770.9L493.8,770.9L511.8,773.9L535.8,779.9L562.8,806.9L565.8,842.9L562.8,878.9L544.8,890.9L520.8,896.9L484.8,908.8L466.8,917.8L457.8,899.9L424.8,875.9L382.9,860.9L346.9,842.9L340.9,839.9z"></path><path d="M337,203.9L339.4,196.9L345.2,188.8L353.3,181.9L371.8,181.9L415.9,201.6L418.2,201.6L419.4,203.9L422.9,207.4L424,216.7L426.4,225.9L425.2,235.2L415.9,253.8L403.2,272.3L386.9,292.1L373,318.7L364.9,339.6L359.1,348.9L350.9,355.9L326.6,367.5L308,369.8L288.3,374.4L272.1,380.2L234.9,377.9L216.4,376.7L205.9,375.6L201.3,373.3L201.3,372.1L201.3,370.9L201.3,369.8L203.6,368.6L207.1,365.1L215.2,359.3L233.8,348.9L253.5,338.5L273.2,336.1L286,332.7L295.2,325.7L304.5,307.1L306.8,297.9L311.5,288.6L316.1,279.3L320.8,272.3L330.1,253.8L333.5,244.5L334.7,235.2L335.9,213.2z"></path><path d="M241.3,-230.5L247,-230.5L258.2,-233.4L286.3,-241.8L317.3,-244.6L329.2,-244.6L336,-242.9L342.3,-239.5L348.7,-237.8L358.5,-236.7L376,-231.3L391.2,-217.1L420.6,-192L428.3,-185.5L433.7,-177.9L439.2,-169.1L441.1,-160.2L469.2,-157.4L497.3,-143.3L511.4,-118L536.7,-61.8L550.8,-33.6L550.9,-32.8L550.6,-32.5L551.1,-31.5L551.7,-30.6L552.1,-29.4L553.2,-25.9L558.5,-19.6L562.9,-13.3L562.4,-9.4L560,-7L558.5,-5.5L556.6,-5.1L552.7,-4.6L545.9,-4.1L538.1,-3.6L530.1,-3.8L528.6,-3.7L527.6,-3.4L526.5,-3.3L525.7,-3.1L525.1,-3.5L524.7,-3.4L522.6,-2.7L511.4,-2.7L480.4,-2.7L424.2,-5.5L311.7,0.1L300.4,-2.7L297.6,-8.3L297.6,-19.6L300.4,-47.7L300.4,-104L286.3,-160.2L272.3,-188.3L266.6,-199.6L259.1,-203.3L249.8,-210.8L241.3,-219.3z"></path><path d="M241.3,1869.5L247,1869.5L258.2,1866.6L286.3,1858.2L317.3,1855.4L329.2,1855.4L336,1857.1L342.3,1860.5L348.7,1862.2L358.5,1863.3L376,1868.7L391.2,1882.9L420.6,1908L428.3,1914.5L433.7,1922.1L439.2,1930.9L441.1,1939.8L469.2,1942.6L497.3,1956.7L511.4,1982L536.7,2038.2L550.8,2066.4L550.9,2067.2L550.6,2067.5L551.1,2068.5L551.7,2069.4L552.1,2070.6L553.2,2074.1L558.5,2080.4L562.9,2086.7L562.4,2090.6L560,2093L558.5,2094.5L556.6,2095L552.7,2095.4L545.9,2095.9L538.1,2096.4L530.1,2096.2L528.6,2096.3L527.6,2096.6L526.5,2096.7L525.7,2096.9L525.1,2096.5L524.7,2096.6L522.6,2097.3L511.4,2097.3L480.4,2097.3L424.2,2094.5L311.7,2100.1L300.4,2097.3L297.6,2091.7L297.6,2080.4L300.4,2052.3L300.4,1996L286.3,1939.8L272.3,1911.7L266.6,1900.4L259.1,1896.7L249.8,1889.2L241.3,1880.7z"></path><path d="M-348.5,-103.9L-322.2,-124.4L-254.9,-162.4L-248.2,-146.2L-241.6,-140.9L-233.5,-137.2L-228.9,-133.8L-205.1,-120.2L-147.3,-94.1L-97.4,-73.6L-72.4,-64.6L-67.9,-61.2L-64,-61L-62.1,-59.8L-57.3,-57.8L-55.3,-57.4L-52.7,-54.4L-44,-55.6L-11.8,-59.9L5.7,-57L17.5,-42.4L17.5,-13.1L-6,51.3L-11.8,68.9L-11.8,86.5L-11.8,115.7L-14.7,121.6L-20.6,121.6L-26.5,121.6L-47,124.5L-76.2,136.2L-114.3,147.9L-146.5,147.9L-219.7,147.9L-234.3,142.1L-243.1,124.5L-260.7,95.2L-290,30.8L-331,-33.6L-386.6,-86.3L-383.7,-89.2z"></path><path d="M1751.5,-103.9L1777.8,-124.4L1845.1,-162.4L1851.8,-146.2L1858.4,-140.9L1866.5,-137.2L1871.1,-133.8L1894.9,-120.2L1952.7,-94.1L2002.6,-73.6L2027.6,-64.6L2032.1,-61.2L2036,-61L2037.9,-59.8L2042.7,-57.8L2044.7,-57.4L2047.3,-54.4L2056,-55.6L2088.2,-59.9L2105.7,-57L2117.5,-42.4L2117.5,-13.1L2094,51.3L2088.2,68.9L2088.2,86.5L2088.2,115.7L2085.3,121.6L2079.4,121.6L2073.5,121.6L2053,124.5L2023.8,136.2L1985.7,147.9L1953.5,147.9L1880.3,147.9L1865.7,142.1L1856.9,124.5L1839.3,95.2L1810,30.8L1769,-33.6L1713.4,-86.3L1716.3,-89.2z"></path><path d="M-348.5,1996.1L-322.2,1975.6L-254.9,1937.6L-248.2,1953.8L-241.6,1959.1L-233.5,1962.8L-228.9,1966.2L-205.1,1979.8L-147.3,2005.9L-97.4,2026.4L-72.4,2035.4L-67.9,2038.8L-64,2039L-62.1,2040.2L-57.3,2042.2L-55.3,2042.6L-52.7,2045.6L-44,2044.4L-11.8,2040.1L5.7,2043L17.5,2057.6L17.5,2086.9L-6,2151.3L-11.8,2168.9L-11.8,2186.5L-11.8,2215.7L-14.7,2221.6L-20.6,2221.6L-26.5,2221.6L-47,2224.5L-76.2,2236.2L-114.3,2247.9L-146.5,2247.9L-219.7,2247.9L-234.3,2242.1L-243.1,2224.5L-260.7,2195.2L-290,2130.8L-331,2066.4L-386.6,2013.7L-383.7,2010.8z"></path><path d="M1751.5,1996.1L1777.8,1975.6L1845.1,1937.6L1851.8,1953.8L1858.4,1959.1L1866.5,1962.8L1871.1,1966.2L1894.9,1979.8L1952.7,2005.9L2002.6,2026.4L2027.6,2035.4L2032.1,2038.8L2036,2039L2037.9,2040.2L2042.7,2042.2L2044.7,2042.6L2047.3,2045.6L2056,2044.4L2088.2,2040.1L2105.7,2043L2117.5,2057.6L2117.5,2086.9L2094,2151.3L2088.2,2168.9L2088.2,2186.5L2088.2,2215.7L2085.3,2221.6L2079.4,2221.6L2073.5,2221.6L2053,2224.5L2023.8,2236.2L1985.7,2247.9L1953.5,2247.9L1880.3,2247.9L1865.7,2242.1L1856.9,2224.5L1839.3,2195.2L1810,2130.8L1769,2066.4L1713.4,2013.7L1716.3,2010.8z"></path><path d="M744.5,632.5L749.9,627.2L757,625.4L767.6,625.4L788.9,627.2L799.5,630.7L808.4,637.8L829.7,637.8L877.6,630.7L909.8,629.4L911.4,632.5L922,636L946.8,641.3L969.9,652L991.2,671.5L1000.1,696.4L998.3,717.7L978.8,760.2L962.8,783.3L953.9,790.4L943.3,794L900.7,792.2L886.5,790.4L875.9,786.9L856.3,774.4L840.4,758.5L819.1,747.8L772.9,746L751.6,740.7L741,731.8L737.4,721.2L735.7,675.1L735.7,653.8L737.4,643.1z"></path><path d="M1982.2,1256.9L1995.9,1243.2L2011.6,1233.4L2039.6,1216.6L2041,1213.8L2044.9,1211.8L2046.8,1215.8L2048.8,1231.5L2048.8,1258.9L2044.9,1317.7L2044.9,1349.1L2046.9,1364.8L2041,1376.5L2025.3,1384.4L2013.5,1396.2L1986.1,1398.1L1968.4,1396.2L1952.7,1390.3L1939,1380.5L1931.2,1368.7L1927.2,1360.9L1925.3,1353L1925.3,1337.3L1927.3,1321.7L1931.2,1309.9L1942.9,1296.2L1960.6,1282.4z"></path><path d="M1652.4,1421.3L1674.7,1416.7L1681.4,1409.9L1690.3,1398.5L1692.6,1375.7L1703.7,1366.5L1705.9,1366.5L1709.7,1367.3L1728.2,1371.1L1750.5,1380.2L1795.1,1382.5L1804.1,1382.5L1815.2,1396.2L1821.9,1405.3L1835.3,1412.2L1844.2,1412.2L1857.6,1409.9L1862,1409.9L1866.5,1419L1866.5,1432.7L1868.7,1478.4L1857.6,1501.2L1848.7,1512.6L1848.7,1526.3L1857.6,1549.2L1859.8,1572L1859.8,1576.6L1855.3,1578.9L1853.1,1583.4L1844.2,1583.4L1817.4,1585.7L1772.8,1585.7L1746.1,1583.4L1723.8,1574.3L1699.2,1565.2L1679.2,1551.5L1661.3,1537.8L1650.2,1526.3L1645.7,1512.6L1634.6,1467L1634.6,1444.1L1641.3,1430.4z"></path><path d="M1002.4,759.4L1009.6,752.2L1016.3,747.4L1016.8,747.4L1031.2,747.4L1040.8,752.2L1064.9,761.8L1108.1,773.9L1132.1,781.1L1156.2,790.7L1180.2,795.5L1199.4,805.1L1237.9,841.1L1257.1,865.2L1261.9,884.4L1261.9,927.6L1257.1,951.7L1245.1,968.5L1233.1,978.1L1223.4,978.1L1199.4,980.5L1185,978.1L1175.4,970.9L1165.8,951.7L1132.1,915.6L1096.1,879.6L1052.8,838.7L1009.6,814.7L997.6,802.7L995.2,793.1L997.6,773.9z"></path><path d="M265.7,1261.6L269.3,1261.6L276.5,1261.6L285.5,1254.4L298.1,1245.4L316.1,1247.2L342.8,1251.2L343.2,1251.3L343.5,1251.1L343.7,1251.1L344.4,1250.9L346.7,1250.8L381,1250.8L413.4,1241.8L445.8,1243.6L463.8,1249L474.6,1265.2L483.6,1279.6L501.6,1288.6L507,1294L510.6,1295.8L512.4,1303L510.6,1310.2L508.8,1313.8L507,1317.5L503.4,1317.5L433.2,1301.2L400.8,1295.8L393.6,1292.2L382.8,1292.2L364.8,1290.4L296.3,1292.3L281.9,1288.6L269.3,1276L265.7,1268.8L263.9,1265.2z"></path><path d="M1410.9,-23.1L1432.6,-33.9L1487,-33.9L1584.8,-23.1L1639.2,-17.6L1699,-6.7L1758.8,9.6L1758.8,53.1L1726.2,107.4L1709.8,140L1688.1,145.5L1655.5,140L1639.2,123.7L1601.1,91.1L1503.3,58.5L1448.9,25.9L1413.6,-9.4L1400,-12.2z"></path><path d="M1410.9,2077L1432.6,2066.1L1487,2066.1L1584.8,2076.9L1639.2,2082.4L1699,2093.3L1758.8,2109.6L1758.8,2153.1L1726.2,2207.4L1709.8,2240L1688.1,2245.5L1655.5,2240L1639.2,2223.7L1601.1,2191.1L1503.3,2158.5L1448.9,2125.9L1413.6,2090.6L1400,2087.8z"></path><path d="M1385.5,323.5L1398.3,317.1L1424.1,310.6L1449.8,308.5L1462.7,314.9L1473.4,321.4L1488.4,347.1L1494.9,360L1494.9,372.8L1492.7,394.3L1482,420L1477.7,432.9L1467,445.8L1454.1,452.2L1441.3,450.1L1419.8,437.2L1396.2,422.2L1381.2,402.9L1376.9,377.1L1376.9,362.1L1381.2,336.4z"></path><path d="M506,580.2L517.8,589L579.9,609.7L600.5,636.3L603.5,665.8L591.7,719L579.9,748.5L568,763.3L556.2,766.2L532.6,745.5L517.8,724.9L494.2,701.2L494.2,671.7L500.1,618.6L500.1,597.9z"></path><path d="M1009.3,1365.1L1032.2,1359.4L1081.5,1344L1096,1343.2L1103.6,1350L1108.5,1358.4L1107.3,1362.8L1104.9,1371.7L1089.8,1410.5L1060.2,1450.1L1042.1,1464.2L1033.7,1469.1L1024.8,1466.7L1020.4,1465.5L1019.3,1460.5L1016.1,1454.9L1017.3,1450.5L1013.5,1447.1L1007.7,1424.1L996.2,1378.3L995.7,1377L996.3,1376.5z"></path><path d="M1203.9,155.2L1218.9,132.7L1233.9,127.7L1243.9,130.2L1259,135.2L1264,150.2L1271.5,165.3L1271.5,175.3L1269,225.4L1266.5,240.4L1251.5,242.9L1226.4,245.4L1190.3,254.4L1189.8,254.6L1188.9,255.4L1188.3,255.8L1158.8,275.4L1148.8,275.4L1148.8,270.4L1151.3,260.4L1153.8,230.4L1156.3,215.4L1161.3,205.3z"></path><path d="M1537.4,389.8L1541.6,387.6L1550,389.8L1566.9,398.2L1602.6,419.2L1615.2,431.8L1613.1,440.2L1613.1,444.4L1608.9,446.5L1579.5,469.7L1547.9,486.5L1543.7,488.6L1543.7,484.4L1541.6,476L1541.6,459.1L1537.4,425.5L1535.3,423.4L1535.3,419.2L1535.3,410.8L1537.4,394z"></path><path d="M406.5,366.2L415.7,366.2L439.4,362.3L443.5,361.6L480.6,352.3L508.4,352.3L536.3,366.2L559.4,384.7L559.4,440.4L559.4,468.2L540.9,468.2L503.8,482.1L476,477.5L434.3,440.4L401.8,412.6L397.2,384.8z"></path><path d="M991.1,-40.3L995.2,-40.3L1020,-44.3L1044.9,-50.2L1065.5,-58L1090.4,-69.8L1111.1,-67.8L1117.1,-72.8L1124.3,-74.3L1127.5,-74.3L1132.3,-71.3L1137.1,-65.9L1136.5,-64.4L1136.3,-64L1136.8,-63L1136.9,-62.6L1137.4,-60.8L1139.2,-57.3L1140.9,-53.4L1141,-51.1L1148.3,-44.3L1150.4,2.9L1156.6,46.2L1160.7,89.4L1171,132.7L1171,156.3L1146.2,156.3L1098.6,150.4L1007.6,124.8L982.8,115L972.5,107.1L970.4,99.3L970.4,56L974.3,-26.4L984.9,-34.4z"></path><path d="M991.1,2059.7L995.2,2059.7L1020,2055.7L1044.9,2049.9L1065.5,2042L1090.4,2030.2L1111.1,2032.2L1117.1,2027.2L1124.3,2025.7L1127.5,2025.7L1132.3,2028.7L1137.1,2034.1L1136.5,2035.6L1136.3,2036L1136.8,2037L1136.9,2037.4L1137.4,2039.2L1139.2,2042.7L1140.9,2046.6L1141,2048.9L1148.3,2055.7L1150.4,2102.9L1156.6,2146.2L1160.7,2189.4L1171,2232.7L1171,2256.3L1146.2,2256.3L1098.6,2250.4L1007.6,2224.8L982.8,2215L972.5,2207.1L970.4,2199.3L970.4,2156L974.3,2073.6L984.9,2065.6z"></path><path d="M547.3,1310.9L550,1312.2L552.7,1313.6L555.4,1314.9L555.4,1317.6L564.8,1329.7L576.9,1356.6L589,1382.2L595.7,1397L598.4,1410.4L603.8,1464.2L605.2,1518L605.2,1571.8L595.7,1573.2L594.4,1570.5L590.4,1566.5L578.2,1557L544.6,1534.2L523.1,1511.3L512.3,1501.9L507,1495.2L508.3,1484.4L527.1,1425.2L536.6,1392.9L540.6,1366L541.9,1341.8L546,1327L547.3,1313.6z"></path><path d="M1152.3,1271.7L1167,1259.8L1179.8,1253.4L1187.1,1249.7L1194.4,1247.9L1210,1244.2L1225.6,1242.4L1254,1241.4L1269.6,1242.4L1284.2,1246L1288.8,1249.7L1293.4,1256.1L1300.7,1270.8L1304.4,1285.4L1306.2,1300.1L1315.4,1327.6L1320.9,1341.3L1320,1345L1316.3,1345.9L1309,1346.8L1296.1,1346.8L1278.7,1344.1L1245.7,1339.5L1184.4,1336.7L1152.3,1333.1L1145,1333.1L1137.6,1328.5L1135.8,1321.1L1137.6,1313.8L1137.6,1313.5L1137.7,1313L1137.8,1312.8L1138.2,1312.6L1138.2,1312L1138.5,1307.4L1145,1289.1z"></path><path d="M1407.3,121.5L1419.8,115.3L1428.1,119.4L1444.8,127.8L1482.2,131.9L1503,123.6L1519.7,119.4L1557.1,119.4L1594.6,142.3L1607.1,148.6L1609.1,156.9L1609.1,173.5L1607.1,211L1602.9,248.4L1600.8,269.3L1596.7,277.6L1588.3,279.7L1567.5,283.8L1550.9,283.8L1513.4,265.1L1486.4,231.8L1461.4,198.5L1445.4,173.7L1444.7,173.5L1440.6,173.5L1438.5,169.4L1426,154.8L1413.5,146.5L1409.4,138.2z"></path><path d="M-73.2,1634.8L-64.9,1624.4L-54.5,1609.8L-37.8,1603.5L-10.7,1603.5L20.5,1624.4L28.8,1641L35.1,1649.4L35.1,1657.7L35.1,1720.2L33,1728.5L26.8,1734.7L10.1,1734.7L-21.1,1738.9L-37.8,1743.1L-54.5,1751.4L-58.6,1759.7L-67,1763.9L-79.4,1770.1L-104.4,1770.1L-94,1766L-87.8,1763.9L-87.8,1759.7L-85.7,1747.2L-75.3,1713.9L-73.2,1684.8L-75.3,1651.4z"></path><path d="M2026.8,1634.8L2035.1,1624.4L2045.5,1609.8L2062.2,1603.5L2089.3,1603.5L2120.5,1624.4L2128.8,1641L2135.1,1649.4L2135.1,1657.7L2135.1,1720.2L2133,1728.5L2126.8,1734.7L2110.1,1734.7L2078.9,1738.9L2062.2,1743.1L2045.5,1751.4L2041.4,1759.7L2033.1,1763.9L2020.6,1770.1L1995.6,1770.1L2006,1766L2012.2,1763.9L2012.2,1759.7L2014.3,1747.2L2024.7,1713.9L2026.8,1684.8L2024.7,1651.4z"></path><path d="M25.3,1524.5L30.9,1524.5L33.7,1518.9L39.4,1518.9L45,1516.1L78.7,1504.8L216.5,1504.8L283.9,1516.1L320.5,1524.5L354.2,1535.8L393.6,1555.4L424.5,1577.9L455.4,1606L463.9,1622.9L452.6,1622.9L418.9,1631.4L385.2,1642.6L312.1,1656.7L278.3,1673.5L267.1,1687.6L250.2,1698.8L188.4,1715.7L120.9,1749.4L106.8,1735.4L98.4,1718.5L90,1684.8L78.7,1648.2L53.4,1617.3L9.1,1565.1L0,1563.9L2.8,1547L16.9,1533z"></path><path d="M667.1,2003.1L690.9,1998.4L714.8,1991.2L729.1,1986.4L740.4,1977.4L747.6,1965.9L748.2,1965L764.9,1943.5L772,1936.3L786.3,1929.2L812.6,1926.8L836.4,1919.6L857.9,1902.9L908,1867.1L912.8,1857.6L915.2,1852.8L915.2,1848.1L919.9,1848.1L917.6,1871.9L922.3,1895.8L925.1,1912.6L925.7,1915.7L927.1,1924.4L931.9,1948.3L931.9,1957.8L931.9,1962.6L927.1,1972.1L908,1991.2L879.4,2007.9L857.9,2024.6L838.8,2041.3L786.3,2065.1L738.6,2077.1L681.4,2077.1L657.5,2077.1L633.7,2065.1L621.7,2041.3L640.8,2015.1z"></path><path d="M157.8,140.1L161,140.1L167.4,136.9L186.5,135.4L216.7,129L229.4,129L235.8,135.4L237.4,144.9L235.8,175.1L229.4,207L221.5,261.1L216.7,289.7L207.2,302.5L191.3,312L188.1,312L188.1,308.8L188.1,302.4L183.3,289.7L175.3,278.6L169,277L165.8,277L164.2,270.6L165,268.8L154.7,221.3L148.3,195.8L146.7,167.2L148.3,154.4L156.2,143.3z"></path><path d="M68.6,-2.7L69.4,-2.9L71,-3.2L71.6,-3.4L72.3,-3.8L122,-9L169.2,-9L190.1,-9L216.3,-1.2L221.6,1.5L221.6,6.7L224.2,22.4L221.6,32.9L205.9,38.1L158.7,51.2L137.8,56.5L127.3,61.7L122,64.3L111.6,59.1L77.5,22.4L72.3,11.9L67,9.3L67,-1.2L67.4,-1.9L67.5,-2.1L67.9,-2.4z"></path><path d="M68.6,2097.3L69.4,2097.1L71,2096.8L71.6,2096.6L72.3,2096.2L122,2091L169.2,2091L190.1,2091L216.3,2098.8L221.6,2101.5L221.6,2106.7L224.2,2122.4L221.6,2132.9L205.9,2138.1L158.7,2151.2L137.8,2156.5L127.3,2161.7L122,2164.3L111.6,2159.1L77.5,2122.4L72.3,2111.9L67,2109.3L67,2098.8L67.4,2098.1L67.5,2097.9L67.9,2097.6z"></path><path d="M1675.1,942.5L1730.2,942.5L1760.3,930L1785.4,927.5L1815.5,927.5L1840.5,915L1895.7,872.3L1905.7,862.3L1918.2,852.3L1933.3,844.8L1938.3,834.7L1945.8,819.7L1958.3,809.7L1973.4,809.7L1978.4,812.2L1978.4,817.2L1970.9,847.3L1968.4,872.3L1958.4,902.4L1938.3,932.5L1925.8,942.5L1920.8,952.6L1920.8,957.6L1933.3,972.6L1935.8,982.6L1928.3,997.7L1913.2,1002.7L1898.2,1010.2L1893.2,1012.7L1893.2,1017.7L1888.2,1032.8L1873.1,1040.3L1848.1,1042.8L1732.7,1025.3L1702.7,1022.8L1687.6,1020.2L1677.6,1015.2L1667.6,985.1L1655,972.6L1654.2,972.8L1654.1,972.6L1653,971.7L1650,970.1L1647.5,955.1L1650,950L1655,950L1660,947.5z"></path><path d="M1629.3,526L1642.8,512.4L1666.6,508.4L1666.7,508.4L1666.7,508.4L1666.9,508.4L1667.2,508.4L1667.5,508.4L1667.6,508.4L1667.8,508.4L1668.4,508.3L1669.1,508.2L1670,508.2L1672.3,508.2L1672.9,508.2L1673.2,508.6L1673.6,508.4L1676.8,509.1L1686,511.9L1697.3,514.7L1702.6,515.8L1707.9,515.4L1714.6,516.5L1748.5,518.8L1777.8,523.3L1794.7,528.9L1824,549.2L1839.8,558.2L1850.9,572.4L1891.5,599.6L1911.3,614.9L1912.1,626.1L1909.9,632.9L1903.1,653.5L1891.1,669.2L1869.8,679.3L1845.9,683.2L1823.7,682.1L1800.6,677L1758.1,662.3L1708.3,642.2L1690,629.1L1675,613L1670.8,612.1L1669.8,608.2L1668.9,604.3L1664.6,603.4L1663.7,599.5L1642.8,587.6L1631.8,579.7L1627.8,571.5L1625.9,559.2L1619.1,556.8L1620.2,553.3L1623.6,543.1z"></path><path d="M465.8,968.6L485.7,964.7L510.6,955.4L547.3,954.6L585.5,957L601.1,958.6L608.5,961.8L609,961.8L609.4,963.5L615,963.5L639.8,978.7L639.8,994L637.3,1004.1L629.9,1011.8L615,1027L607.5,1034.6L597.6,1047.3L580.2,1088L570.2,1133.8L555.3,1220.2L540.4,1179.5L518,1133.8L498.1,1093.1L485.7,1072.8L465.8,1049.9L450.9,1009.2L448.4,988.9L450.9,978.7z"></path><path d="M994,1024.5L997.5,1024.5L1007.8,1022.7L1030.1,1022.7L1054.1,1031.3L1100.4,1046.8L1143.3,1062.2L1188,1074.2L1229.1,1077.6L1251.4,1081.1L1272,1089.7L1277.2,1100L1278.9,1110.3L1277.2,1130.8L1273.8,1144.6L1266.9,1154.9L1258.3,1161.7L1248,1165.2L1206.8,1166.9L1160.5,1166.9L1139.9,1166.9L1126.2,1165.2L1115.9,1158.3L1090.2,1144.6L1069.6,1129.1L1047.2,1112L1037,1105.1L1026.7,1103.4L1016.4,1100L1009.5,1098.2L1007.8,1094.8L1006.1,1084.5L1009.5,1074.2L1014.6,1063.9L1014.6,1053.6L1011.2,1043.3L1002.6,1039.9L1002.3,1038.5L1001.2,1038L997.5,1036.5L988.9,1029.6z"></path><path d="M-148.8,346.9L-131,338.7L-109.2,327.8L-90,322.3L-70.9,321L-50.4,321L-9.4,325.1L11.1,331.9L20.7,341.5L23.4,349.7L28.9,387.9L30.2,426.2L30.2,467.2L30.2,486.3L30.2,497.2L27.5,505.4L27.5,508.2L24.8,509.5L19.3,509.5L11.1,506.8L-8,502.7L-27.2,498.6L-46.3,491.8L-87.3,475.4L-92.7,472.6L-98.2,471.3L-106.4,469.9L-125.5,463.1L-121.4,452.2L-122.8,444L-131,434.4L-135.1,427.6L-140.6,408.4L-148,393.6L-148.8,393.4L-152.9,389.3L-161.1,378.4L-165.2,367.4L-165.2,359.2L-162.4,353.8L-157,352.4z"></path><path d="M1951.2,346.9L1969,338.7L1990.8,327.8L2010,322.3L2029.1,321L2049.6,321L2090.6,325.1L2111.1,331.9L2120.7,341.5L2123.4,349.7L2128.9,387.9L2130.2,426.2L2130.2,467.2L2130.2,486.3L2130.2,497.2L2127.5,505.4L2127.5,508.2L2124.8,509.5L2119.3,509.5L2111.1,506.8L2092,502.7L2072.8,498.6L2053.7,491.8L2012.7,475.4L2007.3,472.6L2001.8,471.3L1993.6,469.9L1974.5,463.1L1978.6,452.2L1977.2,444L1969,434.4L1964.9,427.6L1959.4,408.4L1952,393.6L1951.2,393.4L1947.1,389.3L1938.9,378.4L1934.8,367.4L1934.8,359.2L1937.6,353.8L1943,352.4z"></path><path d="M1382.4,883.1L1391.6,872.4L1400.8,866.3L1419.2,857.1L1431.5,858.6L1443.8,866.3L1449.9,867.8L1454.5,872.4L1462.2,880.1L1503.6,903.1L1528.1,913.8L1540.4,923L1546.5,930.7L1555.7,939.9L1564.9,944.5L1569.5,949.1L1568,955.2L1568,964.4L1564.9,976.7L1555.7,987.4L1543.4,995.1L1537.3,1002.7L1509.7,1044.1L1506.6,1056.4L1500.5,1065.6L1489.7,1074.8L1480.5,1079.4L1457.5,1084L1445.3,1084L1436.1,1081L1388.5,1067.2L1345.6,1065.6L1339.5,1065.6L1336.4,1059.5L1333.3,1047.2L1331.8,1035L1327.2,1025.7L1318,1015L1313.4,1010.4L1310.3,1010.4L1302.7,999.7L1301.1,990.5L1310.3,981.3L1322.6,978.2L1328.7,976.7L1331.8,976.7L1333.3,973.6L1339.5,965.9L1347.1,944.5L1360.9,926.1z"></path><path d="M1682.4,389.6L1692.8,384.4L1703.2,376.1L1711.6,366.7L1716.8,354.1L1722,343.7L1726.2,338.5L1732.5,335.4L1742.9,335.4L1755.4,337.4L1766.9,337.4L1779.4,343.7L1783.6,350L1783.6,354.2L1777.4,366.7L1773.2,379.2L1772.1,402.2L1771.1,425.1L1770.1,437.7L1770.1,443.9L1768,448.1L1763.8,453.3L1757.5,454.4L1747.1,453.3L1725.2,442.9L1701.2,434.5L1688.6,430.4L1683.4,427.2L1682.9,427.4L1682.7,427.4L1682.4,427.2L1669.8,426.2L1663.6,423L1661.5,416.8L1662.5,404.3L1673,399z"></path><path d="M371.6,1689L373.5,1688.1L423.2,1682.8L470.4,1682.8L491.3,1682.8L517.5,1690.7L522.8,1693.3L522.8,1698.5L525.4,1714.3L522.8,1724.7L507.1,1730L459.9,1743.1L439,1748.3L428.5,1753.5L423.2,1756.2L412.8,1750.9L378.7,1714.3L373.5,1703.8L368.2,1701.2L368.2,1690.7z"></path><path d="M1599.2,1663.9L1627.7,1652L1656.2,1652L1684.8,1661.5L1739.4,1694.8L1803.6,1718.5L1832.2,1730.4L1855.9,1751.8L1852.5,1755.6L1853,1759.4L1853,1767.5L1852.5,1775.5L1850.6,1785L1845.4,1793.1L1838.2,1799.8L1829.7,1806.4L1818.8,1811.6L1778.4,1824L1774.1,1825.4L1769.4,1827.8L1764.6,1830.2L1761.8,1833.5L1755.6,1840.6L1752.3,1844L1750.4,1845.4L1749.3,1848.7L1710.9,1856.4L1682.4,1870.7L1672.9,1882.6L1670.5,1901.6L1661,1930.1L1646.7,1937.3L1630.1,1937.3L1558.7,1906.4L1544.5,1889.8L1544.5,1873.1L1543.3,1840.9L1543.3,1828L1545.3,1821.7L1545.3,1810.3L1544.5,1803.5L1539.7,1799.4L1549.2,1770.8L1563.5,1739.9L1577.8,1711.4L1584.9,1697.1L1590.1,1691.1z"></path><path d="M33.3,848.2L43.8,845.5L54.3,845.5L70,848.2L67.4,850.8L88.4,863.9L96.3,885L101.6,906L101.6,921.8L85.8,958.6L84.5,962.1L84.2,963.2L86.7,965.2L87,969.7L87.6,974.8L87.3,980.2L84.4,991.1L83.2,995.9L81.2,1001.3L80,1006.4L80,1010.9L79.3,1021.1L79,1026.3L78.1,1030.7L74.9,1036.5L73.9,1037.8L71.2,1039.3L71.2,1041.3L70.1,1074.2L56.9,1111L51.7,1113.6L51.7,1118.9L41.1,1121.5L35.9,1105.8L33.3,1026.9L25.4,990.1L9.6,953.3L4.3,916.5L9.6,895.5L20.1,882.4L28,874.5L28,864z"></path><path d="M-64,705.8L-53.1,700.3L-42.2,702.1L-34.9,704L-29.4,709.4L-20.3,714.9L1.6,724L10.7,731.3L16.2,742.2L18,764.1L10.7,807.9L8.9,818.8L3.4,826.1L-0.2,826.1L-9.3,833.4L-20.3,835.2L-31.2,824.3L-34.9,813.3L-40.3,804.2L-47.6,795.1L-65.9,780.5L-75,771.4L-78.6,760.5L-76.8,738.6L-71.3,716.7z"></path><path d="M2036,705.8L2046.9,700.3L2057.8,702.1L2065.1,704L2070.6,709.4L2079.7,714.9L2101.6,724L2110.7,731.3L2116.2,742.2L2118,764.1L2110.7,807.9L2108.9,818.8L2103.4,826.1L2099.8,826.1L2090.7,833.4L2079.7,835.2L2068.8,824.3L2065.1,813.3L2059.7,804.2L2052.4,795.1L2034.1,780.5L2025,771.4L2021.4,760.5L2023.2,738.6L2028.7,716.7z"></path><path d="M66.3,486.9L152.3,488.6L159.5,489.2L173.4,483.4L194.5,472.8L203.2,465.8L210.3,457L222.5,439.5L229.6,430.7L238.3,423.7L255.9,411.4L266.4,406.1L277,404.4L294.5,407.9L336.6,409.7L357.7,413.2L359.4,430.7L362.9,469.3L364.7,490.4L370,507.9L371.7,518.5L377,527.2L387.5,534.3L391,537.8L394.5,536L398,534.3L406.8,527.2L424.6,518.5L424.6,520.2L436.1,529.7L438.5,532.1L440.9,535.3L442.8,538.4L447.2,541.3L438.4,548.3L424.6,553.6L424.6,558.8L424.6,565.9L406.8,572.9L385.7,588.7L375.2,597.5L370,608L355.9,623.8L347.1,630.8L338.4,636.1L329.6,643.1L322.6,644.8L284,662.4L266.4,676.4L250.6,694L231.3,730.8L224.3,734.4L220.8,734.4L219,723.8L219,706.3L217.3,685.2L206.7,667.7L187.4,660.6L166.4,655.4L126,648.4L87.4,646.6L66.3,644.8L55.8,627.3L47,620.3L43.5,609.7L36.5,588.7L31.2,567.6L27.7,550.1L27.7,529L33,509.7L38.2,499.2L48.8,493.9z"></path><path d="M799.5,1530.9L812.2,1505.4L828.2,1486.3L837.7,1476.7L850.5,1473.5L876,1473.5L911,1479.9L923.8,1479.9L927,1486.3L927,1588.3L933.4,1613.8L933.4,1642.5L930.2,1671.2L917.4,1690.3L898.3,1715.8L888.7,1741.3L834.5,1747.7L777.2,1744.5L751.7,1744.5L742.1,1741.3L732.5,1738.1L726.1,1731.8L703.8,1712.6L697.5,1687.1L700.6,1661.6L719.8,1636.1L726.2,1623.4L729.3,1617L735.7,1617L774,1581.9z"></path><path d="M-31.8,1891.6L-7.4,1872.4L0.4,1860.6L5.1,1848.4L23.6,1850.8L84.3,1865.1L113.8,1878.5L126.1,1880.1L132.3,1880.9L138,1884.9L134.1,1890.8L121.8,1889.2L122.4,1908.4L136.4,1945.4L75.3,1934.3L44.9,1927.1L33.5,1919.2L15.4,1913.7L-49.2,1905.3L-55.3,1904.5L-51.4,1898.6z"></path><path d="M2068.2,1891.6L2092.6,1872.4L2100.4,1860.6L2105.1,1848.4L2123.6,1850.8L2184.3,1865.1L2213.8,1878.5L2226.1,1880.1L2232.3,1880.9L2238,1884.9L2234.1,1890.8L2221.8,1889.2L2222.4,1908.4L2236.4,1945.4L2175.3,1934.3L2144.9,1927.1L2133.5,1919.2L2115.4,1913.7L2050.8,1905.3L2044.7,1904.5L2048.6,1898.6z"></path><path d="M605.2,246.6L644.3,222.8L644.3,211.8L655.2,203.1L668.2,205.3L681.3,214L739.9,259.6L792.1,307.4L798.6,320.5L803,333.5L798.6,359.6L779.1,416.1L750.8,470.4L737.8,526.9L731.3,552.9L720.4,579L705.2,592.1L692.2,594.2L670.4,576.9L657.4,550.8L635.7,526.9L607.4,494.3L598.7,481.2L596.6,468.2L587.9,411.7L583.5,379.1L581.3,350.9L581.3,298.7L590,272.7z"></path><path d="M1911.8,1745.1L1932.3,1738.3L1952.7,1738.3L1955.2,1745.7L2007.3,1830.3L2000.5,1857.6L1980,1864.4L1939.1,1847.3L1911.8,1833.7L1894.8,1816.7L1894.8,1789.4L1901.6,1768.9z"></path><path d="M694.9,1234.3L695.5,1239L694.9,1238.8L694.9,1236.6z"></path><path d="M708.4,1191.7L710.6,1190.6L714,1187.2L731.9,1174.9L740.9,1171.5L749.9,1172.6L767.9,1173.8L806,1182.7L827.3,1189.5L837.4,1194L847.5,1201.8L861,1218.6L864.3,1228.7L864.3,1237.7L867.9,1242.5L871.1,1249.2L871.9,1257L873.4,1275.6L873.4,1297.2L868.8,1318.9L862.6,1334.3L839.4,1352.9L819.3,1360.6L819.1,1362.8L817.7,1365.6L815.4,1369.3L807.4,1374.7L799.7,1380.4L796.7,1382.5L795.7,1382.9L793.7,1382.4L789.2,1391.4L779.1,1397L767.9,1400.4L749.9,1404.9L739.8,1407.1L728.6,1403.8L724.1,1394.8L721.9,1385.8L720.7,1347.7L717.4,1307.3L714,1288.2L709.5,1270.2L698.3,1252.3L696.1,1243.3L695.5,1239L694.9,1234.3L696.1,1229.8L697.2,1220.9L702.8,1202.9L708.4,1193.9z"></path><path d="M1480.5,738.3L1508.5,731.3L1569.3,726.6L1588,721.9L1602,712.6L1630,710.3L1690.8,710.3L1725.9,712.6L1756.3,719.6L1821.7,719.6L1854.4,726.6L1868.4,728.9L1866.1,743L1852.1,771L1831,799.1L1812.3,831.8L1807.7,845.8L1793.6,852.8L1760.9,857.5L1730.5,864.5L1697.8,873.9L1669.8,876.2L1637.1,878.5L1609,878.5L1548.3,878.5L1515.5,876.2L1501.5,876.2L1489.8,866.8L1478.1,850.5L1475.8,836.5L1471.1,808.4L1462.5,756.6L1463.6,753.3L1464.1,752.3L1468.8,743z"></path><path d="M1529.8,584.9L1533.4,584.9L1550.3,584.9L1551.8,583L1553,581.8L1556.6,580.3L1560,579.3L1563.2,576.9L1565.6,575L1569.7,573L1572.6,572.1L1573.1,571.8L1575.5,572.4L1578.2,565.2L1592.5,554.5L1606.9,549.1L1612.2,554.4L1612.2,561.6L1615.8,576L1621.2,601L1624.8,629.7L1623,636.9L1617.6,642.3L1603.3,651.2L1578.2,670.9L1574.6,678.1L1567.4,681.7L1567.4,685.3L1563.8,687.1L1556.7,690.7L1528,692.5L1499.3,685.3L1483.2,685.3L1477.8,679.9L1476,679L1476,651.2L1490.3,644.1L1501.1,635.1L1513.6,624.4L1520.8,610L1526.2,595.7L1528,588.5z"></path><path d="M1130,510.1L1136,503L1137.4,497.6L1137.4,494.9L1140,493.6L1145.4,486.9L1154.8,480.2L1162.8,477.5L1181.6,477.5L1220.5,478.8L1239.2,480.2L1259.3,484.2L1311.6,492.3L1357.2,496.3L1397.4,503L1417.5,508.3L1429.6,511L1436.3,516.4L1436.3,535.1L1432.3,553.9L1429.6,572.7L1432.3,591.4L1440.3,612.9L1445.7,633L1451,653.1L1451,671.9L1440.3,693.3L1434.9,704.1L1434.9,712.1L1434.9,733.5L1433.6,752.3L1432.3,771.1L1426.9,789.8L1420.2,800.6L1413.5,804.6L1404.1,815.3L1405.4,823.3L1402.8,834.1L1394.7,838.1L1389.4,840.8L1386.7,846.1L1378.6,847.5L1302.2,854.2L1283.5,851.5L1278.1,850.1L1274.1,846.1L1270.1,838.1L1256.7,822L1241.9,805.9L1162.8,776.4L1125.3,764.4L1106.5,760.3L1089.5,753.5L1089.1,753.6L1078.4,753.6L1073,751L1070.3,751L1069,748.3L1067.7,737.5L1069,732.2L1071.7,730.8L1074.4,725.5L1079.7,722.8L1086.4,716.1L1089.1,705.4L1089.1,697.3L1089.1,657.1L1087.8,638.4L1081.1,619.6L1082.4,614.2L1086.4,610.2L1094.5,603.5L1100.9,584L1109.7,561.1L1111.5,557.6L1112.4,552.3L1115,543.5L1116.8,540L1117.6,538.3L1127.3,522.4z"></path></svg>