<svg width="10000" height="30226" version="1.2" xmlns="http://www.w3.org/2000/svg" viewBox="0 0 10000 30226"><style type="text/css">path {stroke-width: 1; vector-effect: non-scaling-stroke; fill:none; stroke: #000; stroke-linecap: round; stroke-linejoin: miter;}</style><path d="M4900,17900L9900,15013.3L14900,17900L14900,30126.5L9900,33013.3L4900,30126.5z"></path><path d="M-100,2786.8L4900,-100L9900,2786.8L9900,15013.3L4900,17900L-100,15013.3z"></path><path d="M9900,2786.8L14900,-100L19900,2786.8L19900,15013.3L14900,17900L9900,15013.3z"></path><path d="M-100,33012.8L4900,30126L9900,33012.8L9900,45239.3L4900,48126L-100,45239.3z"></path><path d="M9900,33012.8L14900,30126L19900,33012.8L19900,45239.3L14900,48126L9900,45239.3z"></path></svg>