<svg width="300" height="300" version="1.2" xmlns="http://www.w3.org/2000/svg" viewBox="0 0 300 300"><style type="text/css">path {stroke-width: 1; vector-effect: non-scaling-stroke; fill:none; stroke: #000; stroke-linecap: round; stroke-linejoin: miter;}</style><path d="M225,150L300,150L300,300L225,300L225,225z"></path><path d="M150,0L300,0L300,75L225,75L150,75z"></path><path d="M0,225L75,225L150,225L150,300L0,300z"></path><path d="M225,75L300,75L300,150L225,150z"></path><path d="M75,75L150,75L225,75L225,150L225,225L150,225L75,225L75,150z"></path><path d="M0,0L75,0L75,75L75,150L0,150z"></path><path d="M75,0L150,0L150,75L75,75z"></path><path d="M150,225L225,225L225,300L150,300z"></path><path d="M0,150L75,150L75,225L0,225z"></path></svg>