<svg width="267" height="462" version="1.2" xmlns="http://www.w3.org/2000/svg" viewBox="0 0 267 462"><style type="text/css">path {stroke-width: 1; vector-effect: non-scaling-stroke; fill:none; stroke: #000; stroke-linecap: round; stroke-linejoin: miter;}</style><path d="M-89,0L0,0L44.5,77.076L133.5,77.076L178,154.153L0,154.153z"></path><path d="M178,0L267,0L311.5,77.076L400.5,77.076L445,154.153L267,154.153z"></path><path d="M-222.5,231.23L-133.5,231.23L-89,308.306L0,308.306L44.5,385.383L-133.5,385.383z"></path><path d="M44.5,231.23L133.5,231.23L178,308.306L267,308.306L311.5,385.383L133.5,385.383z"></path><path d="M178,0L267,154.153L178,308.305L133.5,231.229L178,154.153L133.5,77.076z"></path><path d="M-133.5,-76.62L44.5,-76.62L0,0.4560000000000173L-89,0.4560000000000173L-133.5,77.53300000000002L-222.5,77.53300000000002z"></path><path d="M133.5,-76.62L311.5,-76.62L267,0.4560000000000173L178,0.4560000000000173L133.5,77.53300000000002L44.5,77.53300000000002z"></path><path d="M-133.5,385.38L44.5,385.38L0,462.456L-89,462.456L-133.5,539.533L-222.5,539.533z"></path><path d="M133.5,385.38L311.5,385.38L267,462.456L178,462.456L133.5,539.533L44.5,539.533z"></path><path d="M0,154.15L178,154.15L133.5,231.226L44.5,231.226L0,308.303L-89,308.303z"></path><path d="M267,154.15L445,154.15L400.5,231.226L311.5,231.226L267,308.303L178,308.303z"></path><path d="M44.5,-230.77L133.5,-76.61700000000002L44.5,77.53499999999997L0,0.4590000000000032L44.5,-76.61700000000002L0,-153.69400000000002z"></path><path d="M44.5,231.23L133.5,385.383L44.5,539.535L0,462.459L44.5,385.383L0,308.306z"></path></svg>