<svg width="300" height="300" version="1.2" xmlns="http://www.w3.org/2000/svg" viewBox="0 0 300 300"><style type="text/css">.thumb-shape {stroke-width: 1; vector-effect: non-scaling-stroke; fill:none; stroke: #000; stroke-linecap: round; stroke-linejoin: miter;}</style><path d="M-51,-50L149,-50L149,50L-51,50z" class="thumb-shape"></path><path d="M149,-50L249,-50L249,150L149,150z" class="thumb-shape"></path><path d="M49,150L249,150L249,250L49,250z" class="thumb-shape"></path><path d="M-51,50L49,50L49,250L-51,250z" class="thumb-shape"></path><path d="M49,50L149,50L149,150L49,150z" class="thumb-shape"></path><path d="M249,-50L449,-50L449,50L249,50z" class="thumb-shape"></path><path d="M-51,250L149,250L149,350L-51,350z" class="thumb-shape"></path><path d="M249,250L449,250L449,350L249,350z" class="thumb-shape"></path><path d="M149,250L249,250L249,450L149,450z" class="thumb-shape"></path><path d="M249,50L349,50L349,250L249,250z" class="thumb-shape"></path></svg>