<svg width="1065" height="1065" version="1.2" xmlns="http://www.w3.org/2000/svg" viewBox="0 0 1065 1065"><style type="text/css">path {stroke-width: 1; vector-effect: non-scaling-stroke; fill:none; stroke: #000; stroke-linecap: round; stroke-linejoin: miter;}</style><path d="M-992.3199999999999,72.97L-817.653,124.112L-634.232,21.854L-459.56600000000003,72.996L-284.899,124.138L-101.47799999999995,21.88L73.18900000000008,73.022L22.04600000000005,247.689L124.30500000000006,431.11L73.16200000000003,605.777L-101.50400000000002,554.634L-284.92499999999995,656.893L-459.592,605.75L-634.259,554.608L-817.679,656.867L-992.346,605.724L-941.204,431.058L-1043.462,247.637z"></path><path d="M72.68,72.97L247.347,124.112L430.768,21.854L605.434,72.996L780.101,124.138L963.522,21.88L1138.189,73.022L1087.046,247.689L1189.305,431.11L1138.162,605.777L963.496,554.634L780.075,656.893L605.408,605.75L430.741,554.608L247.321,656.867L72.654,605.724L123.796,431.058L21.538,247.637z"></path><path d="M-459.57000000000005,-459.28L-284.903,-408.13800000000003L-101.48199999999997,-510.39599999999996L73.18399999999997,-459.254L247.8510000000001,-408.11199999999997L431.27199999999993,-510.37L605.9390000000001,-459.22799999999995L554.796,-284.56100000000004L657.0550000000001,-101.13999999999999L605.912,73.52600000000007L431.2460000000001,22.384000000000015L247.82500000000005,124.64300000000003L-101.50900000000001,22.357999999999947L-284.929,124.61699999999996L-459.596,73.47399999999993L-408.45399999999995,-101.19200000000001L-510.712,-284.61300000000006z"></path><path d="M605.43,-459.28L780.097,-408.13800000000003L963.518,-510.39599999999996L1138.184,-459.254L1312.851,-408.11199999999997L1496.272,-510.37L1670.939,-459.22799999999995L1619.796,-284.56100000000004L1722.055,-101.13999999999999L1670.912,73.52600000000007L1496.246,22.384000000000015L1312.825,124.64300000000003L963.491,22.357999999999947L780.071,124.61699999999996L605.404,73.47399999999993L656.546,-101.19200000000001L554.288,-284.61300000000006z"></path><path d="M-459.57000000000005,605.72L-284.903,656.862L-101.48199999999997,554.604L73.18399999999997,605.746L247.8510000000001,656.888L431.27199999999993,554.63L605.9390000000001,605.772L554.796,780.439L657.0550000000001,963.86L605.912,1138.526L431.2460000000001,1087.384L247.82500000000005,1189.643L-101.50900000000001,1087.358L-284.929,1189.617L-459.596,1138.474L-408.45399999999995,963.808L-510.712,780.387z"></path><path d="M605.43,605.72L780.097,656.862L963.518,554.604L1138.184,605.746L1312.851,656.888L1496.272,554.63L1670.939,605.772L1619.796,780.439L1722.055,963.86L1670.912,1138.526L1496.246,1087.384L1312.825,1189.643L963.491,1087.358L780.071,1189.617L605.404,1138.474L656.546,963.808L554.288,780.387z"></path></svg>